<svg width="13" height="13" viewBox="0 0 13 13" fill="none" xmlns="http://www.w3.org/2000/svg">
<path d="M6.36339 0C2.84917 0 0 2.84917 0 6.36339C0 9.87761 2.84917 12.7268 6.36339 12.7268C9.87761 12.7268 12.7268 9.87761 12.7268 6.36339C12.7268 2.84917 9.87761 0 6.36339 0ZM6.36339 11.3769C3.59881 11.3769 1.34989 9.12797 1.34989 6.36339C1.34989 3.59881 3.59881 1.34989 6.36339 1.34989C9.12797 1.34989 11.3769 3.59881 11.3769 6.36339C11.3769 9.12797 9.12797 11.3769 6.36339 11.3769Z" fill="#F2F2F2"/>
<path d="M7.03834 6.08352V2.96527C7.03834 2.59269 6.73596 2.29032 6.36339 2.29032C5.99082 2.29032 5.68845 2.59269 5.68845 2.96527V6.36339C5.68845 6.54248 5.75954 6.71437 5.88643 6.84036L7.42261 8.37654C7.554 8.50793 7.72679 8.57452 7.89957 8.57452C8.07236 8.57452 8.24514 8.50883 8.37653 8.37654C8.64021 8.11286 8.64021 7.68539 8.37653 7.42171L7.03834 6.08352Z" fill="#F2F2F2"/>
</svg>
