<svg width="24" height="24" viewBox="0 0 24 24" fill="none" xmlns="http://www.w3.org/2000/svg">
<path d="M11.9314 0C5.3422 0 0 5.3422 0 11.9314C0 18.5205 5.3422 23.8627 11.9314 23.8627C18.5205 23.8627 23.8627 18.5205 23.8627 11.9314C23.8627 5.3422 18.5205 0 11.9314 0ZM11.9314 21.3317C6.74778 21.3317 2.53105 17.115 2.53105 11.9314C2.53105 6.74778 6.74778 2.53105 11.9314 2.53105C17.115 2.53105 21.3317 6.74778 21.3317 11.9314C21.3317 17.115 17.115 21.3317 11.9314 21.3317Z" fill="#6A9700"/>
<path d="M13.1969 11.4066V5.55987C13.1969 4.8613 12.6299 4.29435 11.9314 4.29435C11.2328 4.29435 10.6658 4.8613 10.6658 5.55987V11.9314C10.6658 12.2672 10.7991 12.5894 11.0371 12.8257L13.9174 15.706C14.1637 15.9524 14.4877 16.0772 14.8117 16.0772C15.1357 16.0772 15.4596 15.954 15.706 15.706C16.2004 15.2116 16.2004 14.4101 15.706 13.9157L13.1969 11.4066Z" fill="#6A9700"/>
</svg>
