<svg width="17" height="16" viewBox="0 0 17 16" fill="none" xmlns="http://www.w3.org/2000/svg">
<path d="M16.3984 7.02734L8.86427 0.205662C8.56167 -0.0685541 8.1067 -0.0685541 7.8041 0.205662L0.268887 7.02734C-0.061418 7.32659 -0.091252 7.84238 0.200695 8.17971C0.493707 8.51704 0.998754 8.5475 1.32906 8.24935L2.20703 7.45499V12.9839C2.20703 14.2484 3.21499 15.2778 4.4531 15.2778H12.2142C13.4523 15.2778 14.4603 14.2484 14.4603 12.9839V7.45499L15.3382 8.24935C15.4906 8.38754 15.6792 8.45501 15.8678 8.45501C16.0884 8.45501 16.3078 8.36252 16.4655 8.18079C16.7586 7.84346 16.7277 7.32768 16.3974 7.02843L16.3984 7.02734ZM12.862 12.9828C12.862 13.3474 12.5711 13.6444 12.2142 13.6444H4.4531C4.09616 13.6444 3.80528 13.3474 3.80528 12.9828V6.00774L8.33365 1.90646L12.862 6.00665V12.9839V12.9828Z" fill="white"/>
</svg>
