<svg width="17" height="17" viewBox="0 0 17 17" fill="none" xmlns="http://www.w3.org/2000/svg">
<path d="M8.33333 0C3.7312 0 0 3.7312 0 8.33333C0 12.9355 3.7312 16.6667 8.33333 16.6667C12.9355 16.6667 16.6667 12.9355 16.6667 8.33333C16.6667 3.7312 12.9355 0 8.33333 0ZM14.1376 5.26917H11.7888C11.6627 4.31811 11.4741 3.37293 11.2254 2.44072C12.4676 3.05355 13.4894 4.04705 14.1364 5.26917H14.1376ZM14.8989 8.33333C14.8989 8.90256 14.8258 9.45529 14.6891 9.98326H11.9125C11.9985 8.88488 12.0068 7.78178 11.9314 6.6834H14.6903C14.827 7.21138 14.9001 7.76411 14.9001 8.33333H14.8989ZM1.76778 8.33333C1.76778 7.76411 1.84085 7.21138 1.97756 6.6834H4.83548C4.76005 7.78178 4.76712 8.88488 4.85433 9.98326H1.97756C1.84085 9.45529 1.76778 8.90256 1.76778 8.33333ZM6.25442 6.6834H10.5112C10.5914 7.78178 10.5855 8.88488 10.4924 9.98326H6.27328C6.18135 8.88488 6.17428 7.78178 6.25442 6.6834ZM9.61557 1.89389L9.84891 2.75892C10.0717 3.58624 10.2402 4.42417 10.3604 5.26917H6.40645C6.52666 4.42535 6.69519 3.58624 6.91793 2.75892L7.15599 1.87503C7.53783 1.8055 7.93146 1.76661 8.33333 1.76661C8.77174 1.76661 9.20073 1.81021 9.61557 1.89271V1.89389ZM5.5532 2.38651V2.39122C5.29628 3.33875 5.10536 4.30043 4.9769 5.26917H2.52911C3.19615 4.01051 4.26036 2.99463 5.5532 2.38769V2.38651ZM2.52911 11.3975H5.0099C5.13718 12.2885 5.31632 13.1747 5.55202 14.048L5.62273 14.3108C4.29807 13.7074 3.20794 12.6785 2.52911 11.3975ZM7.21963 14.8022L6.91793 13.6803C6.71522 12.9272 6.5573 12.1647 6.44063 11.3975H10.3262C10.2084 12.1647 10.0516 12.9272 9.84891 13.6803L9.55193 14.7834C9.15712 14.8576 8.75053 14.8989 8.33451 14.8989C7.95503 14.8989 7.58379 14.8647 7.22081 14.8022H7.21963ZM11.1571 14.2589L11.2136 14.048C11.4493 13.1747 11.6273 12.2885 11.7558 11.3975H14.1376C13.4776 12.642 12.4311 13.6508 11.1571 14.2601V14.2589Z" fill="white"/>
</svg>
