<svg width="19" height="16" viewBox="0 0 19 16" fill="none" xmlns="http://www.w3.org/2000/svg">
<path d="M18.4152 7.72244H13.0688L11.2867 10.3956H7.72251L5.94039 7.72244H0.594055M18.4152 7.72244V13.0688C18.4152 13.5414 18.2274 13.9947 17.8932 14.3289C17.559 14.6631 17.1057 14.8509 16.6331 14.8509H2.37617C1.90352 14.8509 1.45023 14.6631 1.11602 14.3289C0.781813 13.9947 0.594055 13.5414 0.594055 13.0688V7.72244M18.4152 7.72244L15.341 1.58307C15.1935 1.28616 14.9661 1.03629 14.6843 0.86156C14.4025 0.686832 14.0776 0.59417 13.746 0.593994H5.26319C4.93164 0.59417 4.60672 0.686832 4.32495 0.86156C4.04318 1.03629 3.81574 1.28616 3.6682 1.58307L0.594055 7.72244" stroke="#AFFA01" stroke-width="1.18808" stroke-linecap="round" stroke-linejoin="round"/>
</svg>
