<svg width="153" height="31" viewBox="0 0 153 31" fill="none" xmlns="http://www.w3.org/2000/svg">
<path d="M0 0H16.5L12 10L17.5 14.5L17 20.5L21.5 14.5L19.5 10L26.5 0H38.1148L18.4645 31L0 0Z" fill="#AFFA01"/>
<path d="M49.8347 8.04L51.6947 19.14L57.4947 8.04H60.4747L52.8947 22H49.4947L46.8347 8.04H49.8347ZM64.9535 8.04L62.4935 22H59.6735L62.1535 8.04H64.9535ZM71.9999 14.96L76.6799 22H73.1199L69.1599 15.78L68.0599 22H65.2399L67.7199 8.04H70.5199L69.4199 14.3L75.5999 8.04H78.9799L71.9999 14.96ZM90.4816 8.04L90.0816 10.24H86.3816L84.3016 22H81.4816L83.5616 10.24H79.8416L80.2416 8.04H90.4816ZM96.5846 22.14C95.4113 22.14 94.3713 21.8933 93.4646 21.4C92.5713 20.8933 91.8779 20.2 91.3846 19.32C90.8913 18.4267 90.6446 17.4067 90.6446 16.26C90.6446 14.66 90.9979 13.22 91.7046 11.94C92.4246 10.66 93.4113 9.66 94.6646 8.94C95.9313 8.20667 97.3513 7.84 98.9246 7.84C100.111 7.84 101.151 8.08667 102.045 8.58C102.951 9.07333 103.651 9.76667 104.145 10.66C104.638 11.54 104.885 12.5467 104.885 13.68C104.885 15.3067 104.531 16.76 103.825 18.04C103.118 19.32 102.131 20.3267 100.865 21.06C99.5979 21.78 98.1713 22.14 96.5846 22.14ZM96.9846 19.56C97.9846 19.56 98.8646 19.3067 99.6246 18.8C100.398 18.2933 100.991 17.6133 101.405 16.76C101.831 15.8933 102.045 14.9533 102.045 13.94C102.045 12.8467 101.738 11.9867 101.125 11.36C100.511 10.7333 99.6513 10.42 98.5446 10.42C97.5579 10.42 96.6779 10.6733 95.9046 11.18C95.1446 11.6867 94.5513 12.3667 94.1246 13.22C93.7113 14.0733 93.5046 15.0067 93.5046 16.02C93.5046 17.1133 93.8046 17.98 94.4046 18.62C95.0179 19.2467 95.8779 19.56 96.9846 19.56ZM113.468 8.04C114.894 8.04 115.974 8.36667 116.708 9.02C117.441 9.66 117.808 10.5 117.808 11.54C117.808 11.7933 117.788 12.0533 117.748 12.32C117.588 13.2267 117.174 14.0533 116.508 14.8C115.854 15.5333 114.974 16.0467 113.868 16.34L116.208 22H112.948L110.868 16.56H109.528L108.568 22H105.748L108.228 8.04H113.468ZM114.868 12.38C114.894 12.14 114.908 11.98 114.908 11.9C114.908 11.3933 114.748 11 114.428 10.72C114.108 10.44 113.621 10.3 112.968 10.3H110.628L109.888 14.48H112.228C112.974 14.48 113.568 14.2933 114.008 13.92C114.461 13.5467 114.748 13.0333 114.868 12.38ZM123.84 8.04L121.38 22H118.56L121.04 8.04H123.84ZM135.227 8.04L134.827 10.24H129.027L128.387 13.9H132.827L132.447 16.06H127.987L126.947 22H124.127L126.607 8.04H135.227ZM140.012 8.04L137.552 22H134.732L137.212 8.04H140.012ZM152.278 8.04L151.878 10.24H148.178L146.098 22H143.278L145.358 10.24H141.638L142.038 8.04H152.278Z" fill="#AFFA01"/>
</svg>
