<svg xmlns="http://www.w3.org/2000/svg" xmlns:xlink="http://www.w3.org/1999/xlink" width="528" zoomAndPan="magnify" viewBox="0 0 396 395.999985" height="528" preserveAspectRatio="xMidYMid meet" version="1.0"><defs><clipPath id="a1e9b1d3b1"><path d="M 0 0 L 395.25 0 L 395.25 395.25 L 0 395.25 Z M 0 0 " clip-rule="nonzero"/></clipPath><clipPath id="a73222d094"><path d="M 0 0 L 395.25 0 L 395.25 395.25 L 0 395.25 Z M 0 0 " clip-rule="nonzero"/></clipPath></defs><path fill="#000000" d="M 321.632812 145.949219 L 250.34375 74.585938 C 247.488281 71.808594 242.800781 71.808594 239.945312 74.585938 L 177.792969 136.738281 L 186.28125 145.226562 L 224.054688 107.390625 C 227.273438 104.171875 232.101562 103.429688 236.125 105.5625 C 240.289062 107.753906 246 107.089844 250.546875 103.953125 C 254.648438 101.015625 260.140625 101.398438 263.582031 104.757812 L 291.539062 132.714844 C 294.898438 136.074219 295.28125 141.566406 292.34375 145.75 C 289.207031 150.296875 288.542969 155.988281 290.734375 160.171875 C 292.867188 164.113281 292.121094 169.023438 288.824219 172.242188 L 251.050781 210.015625 L 259.539062 218.503906 L 321.609375 156.351562 C 324.488281 153.492188 324.488281 148.808594 321.632812 145.949219 Z M 209.996094 251.070312 L 170.914062 290.152344 C 167.695312 293.371094 162.867188 294.175781 158.84375 292.0625 C 154.679688 289.871094 148.96875 290.535156 144.421875 293.671875 C 142.511719 294.980469 140.398438 295.644531 138.265625 295.644531 C 135.710938 295.644531 133.21875 294.699219 131.386719 292.785156 L 103.429688 264.90625 C 100.070312 261.46875 99.6875 256.058594 102.625 251.875 C 105.761719 247.328125 106.425781 241.636719 104.234375 237.453125 C 102.101562 233.429688 102.84375 228.601562 106.0625 225.382812 L 145.226562 186.28125 L 136.738281 177.792969 L 73.277344 241.253906 C 70.5 244.109375 70.5 248.796875 73.277344 251.652344 L 144.644531 322.9375 C 147.5 325.792969 152.1875 325.792969 155.042969 322.9375 L 218.503906 259.558594 Z M 209.996094 251.070312 " fill-opacity="1" fill-rule="nonzero"/><path fill="#000000" d="M 155.546875 196.597656 L 199.675781 240.730469 L 162.644531 277.78125 C 155.101562 275.003906 146.535156 275.730469 139.070312 279.832031 L 116.464844 257.222656 C 120.566406 249.761719 121.289062 241.113281 118.515625 233.648438 Z M 155.546875 196.597656 " fill-opacity="1" fill-rule="nonzero"/><path fill="#000000" d="M 276.472656 163.953125 L 240.75 199.675781 L 196.597656 155.546875 L 232.324219 119.820312 C 239.785156 122.597656 248.355469 121.875 255.898438 117.769531 L 278.503906 140.378906 C 274.421875 147.863281 273.679688 156.429688 276.472656 163.953125 Z M 276.472656 163.953125 " fill-opacity="1" fill-rule="nonzero"/><g clip-path="url(#a1e9b1d3b1)"><path fill="#000000" d="M 197.625 0 C 88.644531 0 0 88.644531 0 197.625 C 0 306.605469 88.644531 395.25 197.625 395.25 C 306.605469 395.25 395.25 306.605469 395.25 197.625 C 395.25 88.644531 306.625 0 197.625 0 Z M 197.625 366.507812 C 104.515625 366.507812 28.765625 290.753906 28.765625 197.644531 C 28.765625 156.210938 43.769531 118.292969 68.589844 88.867188 C 120.507812 140.78125 254.769531 275.046875 306.402344 326.679688 C 276.976562 351.5 239.0625 366.507812 197.625 366.507812 Z M 326.679688 306.402344 C 279.894531 259.617188 136.898438 116.625 88.867188 68.589844 C 118.292969 43.769531 156.210938 28.765625 197.644531 28.765625 C 290.753906 28.765625 366.507812 104.515625 366.507812 197.625 C 366.507812 239.0625 351.5 276.976562 326.679688 306.402344 Z M 326.679688 306.402344 " fill-opacity="1" fill-rule="nonzero"/></g><path fill="#2e4200" d="M 321.839844 146.046875 L 250.507812 74.632812 C 247.648438 71.855469 242.960938 71.855469 240.101562 74.632812 L 177.90625 136.828125 L 186.402344 145.320312 L 224.203125 107.460938 C 227.421875 104.242188 232.253906 103.496094 236.277344 105.628906 C 240.445312 107.824219 246.160156 107.160156 250.710938 104.019531 C 254.816406 101.082031 260.308594 101.464844 263.753906 104.824219 L 291.730469 132.800781 C 295.089844 136.164062 295.472656 141.660156 292.535156 145.84375 C 289.394531 150.394531 288.730469 156.089844 290.925781 160.277344 C 293.058594 164.222656 292.3125 169.132812 289.011719 172.351562 L 251.210938 210.152344 L 259.707031 218.644531 L 321.820312 156.453125 C 324.699219 153.59375 324.699219 148.902344 321.839844 146.046875 Z M 210.132812 251.234375 L 171.023438 290.339844 C 167.804688 293.5625 162.972656 294.367188 158.949219 292.253906 C 154.78125 290.058594 149.066406 290.722656 144.515625 293.863281 C 142.605469 295.171875 140.492188 295.835938 138.355469 295.835938 C 135.800781 295.835938 133.304688 294.890625 131.472656 292.976562 L 103.496094 265.082031 C 100.136719 261.640625 99.753906 256.226562 102.691406 252.039062 C 105.832031 247.488281 106.496094 241.792969 104.300781 237.605469 C 102.167969 233.582031 102.914062 228.75 106.132812 225.53125 L 145.320312 186.402344 L 136.828125 177.90625 L 73.324219 241.410156 C 70.546875 244.269531 70.546875 248.957031 73.324219 251.816406 L 144.738281 323.148438 C 147.597656 326.007812 152.285156 326.007812 155.144531 323.148438 L 218.644531 259.726562 Z M 210.132812 251.234375 " fill-opacity="1" fill-rule="nonzero"/><path fill="#2e4200" d="M 155.648438 196.726562 L 199.808594 240.886719 L 162.753906 277.960938 C 155.203125 275.183594 146.628906 275.910156 139.164062 280.015625 L 116.539062 257.390625 C 120.644531 249.925781 121.371094 241.269531 118.59375 233.800781 Z M 155.648438 196.726562 " fill-opacity="1" fill-rule="nonzero"/><path fill="#2e4200" d="M 276.652344 164.058594 L 240.90625 199.808594 L 196.726562 155.648438 L 232.472656 119.898438 C 239.941406 122.679688 248.515625 121.953125 256.0625 117.847656 L 278.6875 140.46875 C 274.601562 147.957031 273.855469 156.53125 276.652344 164.058594 Z M 276.652344 164.058594 " fill-opacity="1" fill-rule="nonzero"/><g clip-path="url(#a73222d094)"><path fill="#2e4200" d="M 197.753906 0 C 88.703125 0 0 88.703125 0 197.753906 C 0 306.804688 88.703125 395.507812 197.753906 395.507812 C 306.804688 395.507812 395.507812 306.804688 395.507812 197.753906 C 395.507812 88.703125 306.824219 0 197.753906 0 Z M 197.753906 366.746094 C 104.582031 366.746094 28.78125 290.945312 28.78125 197.773438 C 28.78125 156.3125 43.796875 118.371094 68.636719 88.925781 C 120.585938 140.875 254.9375 275.226562 306.605469 326.894531 C 277.15625 351.730469 239.214844 366.746094 197.753906 366.746094 Z M 326.894531 306.605469 C 280.074219 259.789062 136.988281 116.699219 88.925781 68.636719 C 118.371094 43.796875 156.3125 28.78125 197.773438 28.78125 C 290.945312 28.78125 366.746094 104.582031 366.746094 197.753906 C 366.746094 239.214844 351.730469 277.15625 326.894531 306.605469 Z M 326.894531 306.605469 " fill-opacity="1" fill-rule="nonzero"/></g></svg>