<svg xmlns="http://www.w3.org/2000/svg" xmlns:xlink="http://www.w3.org/1999/xlink" width="512" zoomAndPan="magnify" viewBox="0 0 384 323.999988" height="432" preserveAspectRatio="xMidYMid meet" version="1.0"><defs><clipPath id="e9513a72a6"><path d="M 0.0507812 144 L 40 144 L 40 252 L 0.0507812 252 Z M 0.0507812 144 " clip-rule="nonzero"/></clipPath></defs><path fill="#000000" d="M 212.167969 20.09375 C 212.167969 9.027344 203.121094 -0.015625 192.050781 -0.015625 C 180.988281 -0.015625 171.933594 9.027344 171.933594 20.09375 L 171.933594 57.492188 L 212.167969 57.492188 Z M 212.167969 20.09375 " fill-opacity="1" fill-rule="nonzero"/><g clip-path="url(#e9513a72a6)"><path fill="#000000" d="M 39.359375 144.960938 L 29.097656 144.960938 C 13.003906 144.960938 0.128906 158.027344 0.128906 173.914062 L 0.128906 222.777344 C 0.128906 238.652344 13.003906 251.527344 29.097656 251.527344 L 39.359375 251.527344 C 39.15625 250.523438 39.15625 249.511719 39.15625 248.511719 L 39.15625 148.171875 C 39.15625 147.167969 39.15625 145.960938 39.359375 144.960938 Z M 39.359375 144.960938 " fill-opacity="1" fill-rule="nonzero"/></g><path fill="#000000" d="M 355.207031 144.960938 L 344.949219 144.960938 C 345.148438 145.960938 345.148438 147.167969 345.148438 148.171875 L 345.148438 248.511719 C 345.148438 249.511719 345.148438 250.523438 344.949219 251.527344 L 355.207031 251.527344 C 371.101562 251.527344 383.976562 238.652344 383.976562 222.777344 L 383.976562 173.914062 C 383.976562 158.027344 371.101562 144.960938 355.207031 144.960938 Z M 355.207031 144.960938 " fill-opacity="1" fill-rule="nonzero"/><path fill="#000000" d="M 150.929688 158.085938 C 150.929688 147.984375 142.734375 139.785156 132.621094 139.785156 C 122.5 139.785156 114.304688 147.984375 114.304688 158.085938 C 114.304688 168.199219 122.5 176.386719 132.621094 176.386719 C 142.734375 176.386719 150.929688 168.199219 150.929688 158.085938 Z M 150.929688 158.085938 " fill-opacity="1" fill-rule="nonzero"/><path fill="#000000" d="M 254.4375 72.628906 L 129.769531 72.628906 C 88.058594 72.628906 54.242188 106.433594 54.242188 148.121094 L 54.242188 248.480469 C 54.242188 290.179688 88.058594 323.972656 129.769531 323.972656 L 254.4375 323.972656 C 296.152344 323.972656 329.96875 290.179688 329.96875 248.480469 L 329.96875 148.121094 C 329.96875 106.433594 296.152344 72.628906 254.4375 72.628906 Z M 101.199219 158.085938 C 101.199219 140.75 115.265625 126.679688 132.621094 126.679688 C 149.972656 126.679688 164.039062 140.75 164.039062 158.085938 C 164.039062 175.433594 149.972656 189.496094 132.621094 189.496094 C 115.265625 189.496094 101.199219 175.433594 101.199219 158.085938 Z M 254.078125 260.203125 C 254.078125 266.507812 248.976562 271.613281 242.671875 271.613281 L 141.535156 271.613281 C 135.234375 271.613281 130.125 266.507812 130.125 260.203125 L 130.125 251.347656 C 130.125 245.054688 135.234375 239.949219 141.535156 239.949219 L 242.671875 239.949219 C 248.976562 239.949219 254.078125 245.054688 254.078125 251.347656 Z M 251.589844 189.496094 C 234.234375 189.496094 220.167969 175.433594 220.167969 158.085938 C 220.167969 140.75 234.234375 126.679688 251.589844 126.679688 C 268.941406 126.679688 283.007812 140.75 283.007812 158.085938 C 283.007812 175.433594 268.941406 189.496094 251.589844 189.496094 Z M 251.589844 189.496094 " fill-opacity="1" fill-rule="nonzero"/><path fill="#000000" d="M 251.589844 139.785156 C 241.476562 139.785156 233.277344 147.984375 233.277344 158.085938 C 233.277344 168.199219 241.476562 176.386719 251.589844 176.386719 C 261.703125 176.386719 269.902344 168.199219 269.902344 158.085938 C 269.902344 147.984375 261.703125 139.785156 251.589844 139.785156 Z M 251.589844 139.785156 " fill-opacity="1" fill-rule="nonzero"/><path fill="#2e4200" d="M 212.003906 20.09375 C 212.003906 9.027344 202.964844 -0.015625 191.898438 -0.015625 C 180.84375 -0.015625 171.789062 9.027344 171.789062 20.09375 L 171.789062 57.492188 L 212.003906 57.492188 Z M 212.003906 20.09375 " fill-opacity="1" fill-rule="nonzero"/><path fill="#2e4200" d="M 39.285156 144.960938 L 29.03125 144.960938 C 12.945312 144.960938 0.078125 158.027344 0.078125 173.914062 L 0.078125 222.777344 C 0.078125 238.652344 12.945312 251.527344 29.03125 251.527344 L 39.285156 251.527344 C 39.085938 250.523438 39.085938 249.511719 39.085938 248.511719 L 39.085938 148.171875 C 39.085938 147.167969 39.085938 145.960938 39.285156 144.960938 Z M 39.285156 144.960938 " fill-opacity="1" fill-rule="nonzero"/><path fill="#2e4200" d="M 354.972656 144.960938 L 344.714844 144.960938 C 344.917969 145.960938 344.917969 147.167969 344.917969 148.171875 L 344.917969 248.511719 C 344.917969 249.511719 344.917969 250.523438 344.714844 251.527344 L 354.972656 251.527344 C 370.855469 251.527344 383.722656 238.652344 383.722656 222.777344 L 383.722656 173.914062 C 383.722656 158.027344 370.855469 144.960938 354.972656 144.960938 Z M 354.972656 144.960938 " fill-opacity="1" fill-rule="nonzero"/><path fill="#2e4200" d="M 150.800781 158.085938 C 150.800781 147.984375 142.605469 139.785156 132.5 139.785156 C 122.386719 139.785156 114.191406 147.984375 114.191406 158.085938 C 114.191406 168.199219 122.386719 176.386719 132.5 176.386719 C 142.605469 176.386719 150.800781 168.199219 150.800781 158.085938 Z M 150.800781 158.085938 " fill-opacity="1" fill-rule="nonzero"/><path fill="#2e4200" d="M 254.253906 72.628906 L 129.652344 72.628906 C 87.957031 72.628906 54.160156 106.433594 54.160156 148.121094 L 54.160156 248.480469 C 54.160156 290.179688 87.957031 323.972656 129.652344 323.972656 L 254.253906 323.972656 C 295.945312 323.972656 329.742188 290.179688 329.742188 248.480469 L 329.742188 148.121094 C 329.742188 106.433594 295.945312 72.628906 254.253906 72.628906 Z M 101.09375 158.085938 C 101.09375 140.75 115.15625 126.679688 132.5 126.679688 C 149.84375 126.679688 163.902344 140.75 163.902344 158.085938 C 163.902344 175.433594 149.84375 189.496094 132.5 189.496094 C 115.15625 189.496094 101.09375 175.433594 101.09375 158.085938 Z M 253.894531 260.203125 C 253.894531 266.507812 248.792969 271.613281 242.496094 271.613281 L 141.410156 271.613281 C 135.109375 271.613281 130.003906 266.507812 130.003906 260.203125 L 130.003906 251.347656 C 130.003906 245.054688 135.109375 239.949219 141.410156 239.949219 L 242.496094 239.949219 C 248.792969 239.949219 253.894531 245.054688 253.894531 251.347656 Z M 251.40625 189.496094 C 234.0625 189.496094 220.003906 175.433594 220.003906 158.085938 C 220.003906 140.75 234.0625 126.679688 251.40625 126.679688 C 268.75 126.679688 282.808594 140.75 282.808594 158.085938 C 282.808594 175.433594 268.75 189.496094 251.40625 189.496094 Z M 251.40625 189.496094 " fill-opacity="1" fill-rule="nonzero"/><path fill="#2e4200" d="M 251.40625 139.785156 C 241.296875 139.785156 233.105469 147.984375 233.105469 158.085938 C 233.105469 168.199219 241.296875 176.386719 251.40625 176.386719 C 261.511719 176.386719 269.710938 168.199219 269.710938 158.085938 C 269.710938 147.984375 261.511719 139.785156 251.40625 139.785156 Z M 251.40625 139.785156 " fill-opacity="1" fill-rule="nonzero"/></svg>