<svg xmlns="http://www.w3.org/2000/svg" xmlns:xlink="http://www.w3.org/1999/xlink" width="429" zoomAndPan="magnify" viewBox="0 0 321.75 323.999988" height="432" preserveAspectRatio="xMidYMid meet" version="1.0"><defs><clipPath id="4de0d60a8e"><path d="M 0 0.125 L 321.5 0.125 L 321.5 323.875 L 0 323.875 Z M 0 0.125 " clip-rule="nonzero"/></clipPath><clipPath id="37259308ed"><path d="M 0 0.125 L 321.5 0.125 L 321.5 323.875 L 0 323.875 Z M 0 0.125 " clip-rule="nonzero"/></clipPath></defs><path fill="#000000" d="M 51.257812 187.515625 L 76.824219 187.515625 C 80.367188 187.515625 83.242188 184.644531 83.242188 181.097656 L 83.242188 155.542969 C 83.242188 151.996094 80.371094 149.125 76.824219 149.125 L 51.257812 149.125 C 47.710938 149.125 44.835938 151.996094 44.835938 155.542969 L 44.835938 181.097656 C 44.835938 184.644531 47.710938 187.515625 51.257812 187.515625 Z M 51.257812 187.515625 " fill-opacity="1" fill-rule="nonzero"/><path fill="#000000" d="M 51.257812 240.355469 L 76.824219 240.355469 C 80.367188 240.355469 83.242188 237.480469 83.242188 233.9375 L 83.242188 208.378906 C 83.242188 204.835938 80.371094 201.960938 76.824219 201.960938 L 51.257812 201.960938 C 47.710938 201.960938 44.835938 204.835938 44.835938 208.378906 L 44.835938 233.9375 C 44.835938 237.480469 47.710938 240.355469 51.257812 240.355469 Z M 51.257812 240.355469 " fill-opacity="1" fill-rule="nonzero"/><path fill="#000000" d="M 51.257812 293.191406 L 76.824219 293.191406 C 80.367188 293.191406 83.242188 290.320312 83.242188 286.773438 L 83.242188 261.214844 C 83.242188 257.671875 80.371094 254.800781 76.824219 254.800781 L 51.257812 254.800781 C 47.710938 254.800781 44.835938 257.671875 44.835938 261.214844 L 44.835938 286.773438 C 44.835938 290.320312 47.710938 293.191406 51.257812 293.191406 Z M 51.257812 293.191406 " fill-opacity="1" fill-rule="nonzero"/><path fill="#000000" d="M 115.730469 187.515625 L 141.296875 187.515625 C 144.839844 187.515625 147.714844 184.644531 147.714844 181.097656 L 147.714844 155.542969 C 147.714844 151.996094 144.84375 149.125 141.296875 149.125 L 115.730469 149.125 C 112.183594 149.125 109.308594 151.996094 109.308594 155.542969 L 109.308594 181.097656 C 109.3125 184.644531 112.183594 187.515625 115.730469 187.515625 Z M 115.730469 187.515625 " fill-opacity="1" fill-rule="nonzero"/><path fill="#000000" d="M 115.730469 240.355469 L 141.296875 240.355469 C 144.839844 240.355469 147.714844 237.480469 147.714844 233.9375 L 147.714844 208.378906 C 147.714844 204.835938 144.84375 201.960938 141.296875 201.960938 L 115.730469 201.960938 C 112.183594 201.960938 109.308594 204.835938 109.308594 208.378906 L 109.308594 233.9375 C 109.3125 237.480469 112.183594 240.355469 115.730469 240.355469 Z M 115.730469 240.355469 " fill-opacity="1" fill-rule="nonzero"/><path fill="#000000" d="M 115.730469 293.191406 L 141.296875 293.191406 C 144.839844 293.191406 147.714844 290.320312 147.714844 286.773438 L 147.714844 261.214844 C 147.714844 257.671875 144.84375 254.800781 141.296875 254.800781 L 115.730469 254.800781 C 112.183594 254.800781 109.308594 257.671875 109.308594 261.214844 L 109.308594 286.773438 C 109.3125 290.320312 112.183594 293.191406 115.730469 293.191406 Z M 115.730469 293.191406 " fill-opacity="1" fill-rule="nonzero"/><path fill="#000000" d="M 180.203125 187.515625 L 205.769531 187.515625 C 209.316406 187.515625 212.191406 184.644531 212.191406 181.097656 L 212.191406 155.542969 C 212.191406 151.996094 209.316406 149.125 205.769531 149.125 L 180.203125 149.125 C 176.660156 149.125 173.785156 151.996094 173.785156 155.542969 L 173.785156 181.097656 C 173.785156 184.644531 176.65625 187.515625 180.203125 187.515625 Z M 180.203125 187.515625 " fill-opacity="1" fill-rule="nonzero"/><path fill="#000000" d="M 205.769531 254.800781 L 180.203125 254.800781 C 176.660156 254.800781 173.785156 257.671875 173.785156 261.214844 L 173.785156 286.773438 C 173.785156 290.316406 176.660156 293.191406 180.203125 293.191406 L 205.769531 293.191406 C 209.316406 293.191406 212.191406 290.320312 212.191406 286.773438 L 212.191406 261.214844 C 212.1875 257.671875 209.316406 254.800781 205.769531 254.800781 Z M 205.769531 254.800781 " fill-opacity="1" fill-rule="nonzero"/><path fill="#000000" d="M 244.675781 187.515625 L 270.242188 187.515625 C 273.789062 187.515625 276.664062 184.644531 276.664062 181.097656 L 276.664062 155.542969 C 276.664062 151.996094 273.789062 149.125 270.242188 149.125 L 244.675781 149.125 C 241.132812 149.125 238.257812 151.996094 238.257812 155.542969 L 238.257812 181.097656 C 238.257812 184.644531 241.128906 187.515625 244.675781 187.515625 Z M 244.675781 187.515625 " fill-opacity="1" fill-rule="nonzero"/><path fill="#000000" d="M 244.675781 240.355469 L 270.242188 240.355469 C 273.789062 240.355469 276.664062 237.480469 276.664062 233.9375 L 276.664062 208.378906 C 276.664062 204.835938 273.789062 201.960938 270.242188 201.960938 L 244.675781 201.960938 C 241.132812 201.960938 238.257812 204.835938 238.257812 208.378906 L 238.257812 233.9375 C 238.257812 237.480469 241.128906 240.355469 244.675781 240.355469 Z M 244.675781 240.355469 " fill-opacity="1" fill-rule="nonzero"/><g clip-path="url(#4de0d60a8e)"><path fill="#000000" d="M 246.089844 0.273438 C 240.066406 0.273438 235.183594 5.152344 235.183594 11.171875 L 235.183594 33.074219 L 86.878906 33.074219 L 86.878906 11.171875 C 86.878906 5.152344 81.996094 0.273438 75.972656 0.273438 C 69.953125 0.273438 65.070312 5.152344 65.070312 11.171875 L 65.070312 33.074219 L 30.703125 33.074219 C 13.773438 33.074219 0 46.84375 0 63.769531 L 0 293.035156 C 0 309.957031 13.773438 323.726562 30.703125 323.726562 L 290.796875 323.726562 C 307.726562 323.726562 321.5 309.957031 321.5 293.035156 L 321.5 63.769531 C 321.5 46.84375 307.726562 33.074219 290.796875 33.074219 L 256.992188 33.074219 L 256.992188 11.171875 C 256.992188 5.152344 252.109375 0.273438 246.089844 0.273438 Z M 65.070312 48.710938 L 65.070312 62.246094 C 65.070312 68.265625 69.953125 73.144531 75.972656 73.144531 C 81.996094 73.144531 86.878906 68.265625 86.878906 62.246094 L 86.878906 48.710938 C 90.828125 51.898438 93.355469 56.777344 93.355469 62.246094 C 93.355469 71.84375 85.574219 79.621094 75.972656 79.621094 C 66.371094 79.621094 58.589844 71.84375 58.589844 62.246094 C 58.589844 56.777344 61.117188 51.898438 65.070312 48.710938 Z M 306.371094 293.035156 C 306.371094 301.621094 299.386719 308.605469 290.796875 308.605469 L 30.703125 308.605469 C 22.117188 308.605469 15.128906 301.621094 15.128906 293.035156 L 15.128906 133.710938 L 306.371094 133.710938 Z M 263.472656 62.246094 C 263.472656 71.84375 255.6875 79.621094 246.089844 79.621094 C 236.488281 79.621094 228.703125 71.84375 228.703125 62.246094 C 228.703125 56.777344 231.234375 51.898438 235.183594 48.710938 L 235.183594 62.242188 C 235.183594 68.261719 240.066406 73.144531 246.085938 73.144531 C 252.109375 73.144531 256.992188 68.261719 256.992188 62.242188 L 256.992188 48.710938 C 260.945312 51.898438 263.472656 56.777344 263.472656 62.246094 Z M 263.472656 62.246094 " fill-opacity="1" fill-rule="nonzero"/></g><path fill="#000000" d="M 190.964844 243.742188 L 221.429688 213.285156 C 224.382812 210.332031 224.382812 205.546875 221.429688 202.59375 C 218.476562 199.640625 213.6875 199.640625 210.734375 202.59375 L 190.964844 222.355469 L 183.023438 214.417969 C 180.070312 211.464844 175.28125 211.464844 172.328125 214.417969 C 169.375 217.371094 169.375 222.160156 172.328125 225.113281 Z M 190.964844 243.742188 " fill-opacity="1" fill-rule="nonzero"/><path fill="#2e4200" d="M 51.238281 187.515625 L 76.796875 187.515625 C 80.339844 187.515625 83.214844 184.644531 83.214844 181.097656 L 83.214844 155.542969 C 83.214844 151.996094 80.339844 149.125 76.796875 149.125 L 51.238281 149.125 C 47.695312 149.125 44.820312 151.996094 44.820312 155.542969 L 44.820312 181.097656 C 44.820312 184.644531 47.695312 187.515625 51.238281 187.515625 Z M 51.238281 187.515625 " fill-opacity="1" fill-rule="nonzero"/><path fill="#2e4200" d="M 51.238281 240.355469 L 76.796875 240.355469 C 80.339844 240.355469 83.214844 237.480469 83.214844 233.9375 L 83.214844 208.378906 C 83.214844 204.835938 80.339844 201.960938 76.796875 201.960938 L 51.238281 201.960938 C 47.695312 201.960938 44.820312 204.835938 44.820312 208.378906 L 44.820312 233.9375 C 44.820312 237.480469 47.695312 240.355469 51.238281 240.355469 Z M 51.238281 240.355469 " fill-opacity="1" fill-rule="nonzero"/><path fill="#2e4200" d="M 51.238281 293.191406 L 76.796875 293.191406 C 80.339844 293.191406 83.214844 290.320312 83.214844 286.773438 L 83.214844 261.214844 C 83.214844 257.671875 80.339844 254.800781 76.796875 254.800781 L 51.238281 254.800781 C 47.695312 254.800781 44.820312 257.671875 44.820312 261.214844 L 44.820312 286.773438 C 44.820312 290.320312 47.695312 293.191406 51.238281 293.191406 Z M 51.238281 293.191406 " fill-opacity="1" fill-rule="nonzero"/><path fill="#2e4200" d="M 115.6875 187.515625 L 141.246094 187.515625 C 144.789062 187.515625 147.664062 184.644531 147.664062 181.097656 L 147.664062 155.542969 C 147.664062 151.996094 144.789062 149.125 141.246094 149.125 L 115.6875 149.125 C 112.144531 149.125 109.269531 151.996094 109.269531 155.542969 L 109.269531 181.097656 C 109.269531 184.644531 112.144531 187.515625 115.6875 187.515625 Z M 115.6875 187.515625 " fill-opacity="1" fill-rule="nonzero"/><path fill="#2e4200" d="M 115.6875 240.355469 L 141.246094 240.355469 C 144.789062 240.355469 147.664062 237.480469 147.664062 233.9375 L 147.664062 208.378906 C 147.664062 204.835938 144.789062 201.960938 141.246094 201.960938 L 115.6875 201.960938 C 112.144531 201.960938 109.269531 204.835938 109.269531 208.378906 L 109.269531 233.9375 C 109.269531 237.480469 112.144531 240.355469 115.6875 240.355469 Z M 115.6875 240.355469 " fill-opacity="1" fill-rule="nonzero"/><path fill="#2e4200" d="M 115.6875 293.191406 L 141.246094 293.191406 C 144.789062 293.191406 147.664062 290.320312 147.664062 286.773438 L 147.664062 261.214844 C 147.664062 257.671875 144.789062 254.800781 141.246094 254.800781 L 115.6875 254.800781 C 112.144531 254.800781 109.269531 257.671875 109.269531 261.214844 L 109.269531 286.773438 C 109.269531 290.320312 112.144531 293.191406 115.6875 293.191406 Z M 115.6875 293.191406 " fill-opacity="1" fill-rule="nonzero"/><path fill="#2e4200" d="M 180.136719 187.515625 L 205.695312 187.515625 C 209.238281 187.515625 212.113281 184.644531 212.113281 181.097656 L 212.113281 155.542969 C 212.113281 151.996094 209.238281 149.125 205.695312 149.125 L 180.136719 149.125 C 176.59375 149.125 173.722656 151.996094 173.722656 155.542969 L 173.722656 181.097656 C 173.71875 184.644531 176.59375 187.515625 180.136719 187.515625 Z M 180.136719 187.515625 " fill-opacity="1" fill-rule="nonzero"/><path fill="#2e4200" d="M 205.695312 254.800781 L 180.136719 254.800781 C 176.59375 254.800781 173.722656 257.671875 173.722656 261.214844 L 173.722656 286.773438 C 173.722656 290.316406 176.59375 293.191406 180.136719 293.191406 L 205.695312 293.191406 C 209.238281 293.191406 212.113281 290.320312 212.113281 286.773438 L 212.113281 261.214844 C 212.113281 257.671875 209.238281 254.800781 205.695312 254.800781 Z M 205.695312 254.800781 " fill-opacity="1" fill-rule="nonzero"/><path fill="#2e4200" d="M 244.585938 187.515625 L 270.144531 187.515625 C 273.6875 187.515625 276.5625 184.644531 276.5625 181.097656 L 276.5625 155.542969 C 276.5625 151.996094 273.6875 149.125 270.144531 149.125 L 244.585938 149.125 C 241.042969 149.125 238.167969 151.996094 238.167969 155.542969 L 238.167969 181.097656 C 238.167969 184.644531 241.042969 187.515625 244.585938 187.515625 Z M 244.585938 187.515625 " fill-opacity="1" fill-rule="nonzero"/><path fill="#2e4200" d="M 244.585938 240.355469 L 270.144531 240.355469 C 273.6875 240.355469 276.5625 237.480469 276.5625 233.9375 L 276.5625 208.378906 C 276.5625 204.835938 273.6875 201.960938 270.144531 201.960938 L 244.585938 201.960938 C 241.042969 201.960938 238.167969 204.835938 238.167969 208.378906 L 238.167969 233.9375 C 238.167969 237.480469 241.042969 240.355469 244.585938 240.355469 Z M 244.585938 240.355469 " fill-opacity="1" fill-rule="nonzero"/><g clip-path="url(#37259308ed)"><path fill="#2e4200" d="M 246 0.273438 C 239.980469 0.273438 235.101562 5.152344 235.101562 11.171875 L 235.101562 33.074219 L 86.84375 33.074219 L 86.84375 11.171875 C 86.84375 5.152344 81.964844 0.273438 75.945312 0.273438 C 69.925781 0.273438 65.046875 5.152344 65.046875 11.171875 L 65.046875 33.074219 L 30.695312 33.074219 C 13.769531 33.074219 0 46.84375 0 63.769531 L 0 293.035156 C 0 309.957031 13.769531 323.726562 30.695312 323.726562 L 290.691406 323.726562 C 307.613281 323.726562 321.382812 309.957031 321.382812 293.035156 L 321.382812 63.769531 C 321.382812 46.84375 307.613281 33.074219 290.691406 33.074219 L 256.898438 33.074219 L 256.898438 11.171875 C 256.898438 5.152344 252.019531 0.273438 246 0.273438 Z M 65.046875 48.710938 L 65.046875 62.246094 C 65.046875 68.265625 69.925781 73.144531 75.945312 73.144531 C 81.964844 73.144531 86.84375 68.265625 86.84375 62.246094 L 86.84375 48.710938 C 90.796875 51.898438 93.324219 56.777344 93.324219 62.246094 C 93.324219 71.84375 85.542969 79.621094 75.945312 79.621094 C 66.347656 79.621094 58.566406 71.84375 58.566406 62.246094 C 58.570312 56.777344 61.097656 51.898438 65.046875 48.710938 Z M 306.261719 293.035156 C 306.261719 301.621094 299.277344 308.605469 290.691406 308.605469 L 30.695312 308.605469 C 22.109375 308.605469 15.121094 301.621094 15.121094 293.035156 L 15.121094 133.710938 L 306.261719 133.710938 Z M 263.375 62.246094 C 263.375 71.84375 255.597656 79.621094 246 79.621094 C 236.402344 79.621094 228.621094 71.84375 228.621094 62.246094 C 228.621094 56.777344 231.148438 51.898438 235.097656 48.710938 L 235.097656 62.242188 C 235.097656 68.261719 239.976562 73.144531 245.996094 73.144531 C 252.015625 73.144531 256.898438 68.261719 256.898438 62.242188 L 256.898438 48.710938 C 260.847656 51.898438 263.375 56.777344 263.375 62.246094 Z M 263.375 62.246094 " fill-opacity="1" fill-rule="nonzero"/></g><path fill="#2e4200" d="M 190.894531 243.742188 L 221.347656 213.285156 C 224.300781 210.332031 224.300781 205.546875 221.347656 202.59375 C 218.394531 199.640625 213.609375 199.640625 210.65625 202.59375 L 190.894531 222.355469 L 182.957031 214.417969 C 180.003906 211.464844 175.21875 211.464844 172.265625 214.417969 C 169.3125 217.371094 169.3125 222.160156 172.265625 225.113281 Z M 190.894531 243.742188 " fill-opacity="1" fill-rule="nonzero"/></svg>