<svg width="1115" height="3387" viewBox="0 0 1115 3387" fill="none" xmlns="http://www.w3.org/2000/svg">
<rect x="483.313" y="443.483" width="151.306" height="114.784" fill="#FFC69D"/>
<path d="M305.921 324.253C364.187 252.085 454.617 324.251 454.617 324.251C454.617 324.251 405.451 519.887 394.617 602.93C379.484 718.926 222.441 691.63 222.441 691.63C222.441 691.63 286.309 641.569 292.877 602.93C314.465 475.926 209.398 443.805 305.921 324.253Z" fill="black"/>
<path d="M483.313 433.048H634.619V495.01C634.619 495.01 586.904 508.253 555.94 505.786C526.163 503.413 483.313 484.234 483.313 484.234V433.048Z" fill="black"/>
<path d="M394.617 221.215C394.617 140.533 460.023 75.127 540.706 75.127H577.228C657.91 75.127 723.316 140.533 723.316 221.215V345.447C723.316 369.528 714.174 392.815 696.128 408.76C663.954 437.186 609.085 478.99 564.184 479.479C518.051 479.981 459.07 437.892 424.217 409.137C404.713 393.045 394.617 368.701 394.617 343.415V221.215Z" fill="#FFC69D"/>
<ellipse cx="491.14" cy="281.217" rx="10.4349" ry="23.4785" fill="black"/>
<ellipse cx="621.576" cy="281.217" rx="10.4349" ry="23.4785" fill="black"/>
<path d="M522.444 398.608C522.444 398.608 543.763 408.616 556.358 409.043C570.936 409.537 590.271 398.608 590.271 398.608" stroke="black" stroke-width="5.21744" stroke-linecap="round"/>
<path d="M549.663 310.422C549.663 310.422 540.201 326.781 538.461 339.262C536.447 353.709 553.303 355.026 553.303 355.026" stroke="black" stroke-width="5.21744" stroke-linecap="round"/>
<path d="M611.142 234.259C611.142 234.259 621.189 231.65 629.403 231.65C637.616 231.65 652.881 234.259 652.881 234.259" stroke="black" stroke-width="5.21744" stroke-linecap="round"/>
<path d="M501.574 234.259C501.574 234.259 491.527 231.65 483.313 231.65C475.1 231.65 459.835 234.259 459.835 234.259" stroke="black" stroke-width="5.21744" stroke-linecap="round"/>
<ellipse cx="655.49" cy="346.435" rx="44.3483" ry="31.3047" fill="#FFB987"/>
<ellipse cx="457.227" cy="346.435" rx="44.3483" ry="31.3047" fill="#FFB987"/>
<path d="M371.14 119.475C449.684 -39.4399 677.649 -40.2086 754.623 119.473C800.988 215.658 754.623 315.129 754.623 315.129L725.927 268.172C725.927 268.172 650.456 103.102 558.968 103.822C468.203 104.537 394.619 268.172 394.619 268.172L371.141 315.129C371.141 315.129 332.319 198.019 371.14 119.475Z" fill="black"/>
<path d="M353.114 287.99C349.724 268.685 356.78 240.462 375.835 245.051C387.685 247.904 394.618 268.82 394.618 268.82V349.042L374.4 336.831C365.367 331.375 359.136 322.279 357.31 311.885L353.114 287.99Z" fill="#FFC69D"/>
<path d="M762.212 285.381C765.602 266.077 758.546 237.854 739.491 242.442C727.641 245.296 720.708 266.212 720.708 266.212V346.434L740.926 334.222C749.959 328.766 756.191 319.67 758.016 309.277L762.212 285.381Z" fill="#FFC69D"/>
<path d="M399.525 90.7793L564.184 98.7589C564.184 98.7589 535.873 165.998 490.255 194.514C453.123 217.727 376.002 226.433 376.002 226.433L365.921 218.453L399.525 90.7793Z" fill="black"/>
<path d="M723.626 90.7793L558.967 98.7589C558.967 98.7589 587.278 165.998 632.895 194.514C670.028 217.727 747.148 226.433 747.148 226.433L757.229 218.453L723.626 90.7793Z" fill="black"/>
<path d="M368.571 307.596C368.571 307.596 380.399 311.801 382.006 302.735C383.699 293.179 375.494 276.847 375.494 276.847" stroke="black" stroke-width="5.21744" stroke-linecap="round"/>
<path d="M745.769 307.596C745.769 307.596 733.94 311.801 732.334 302.735C730.641 293.179 738.846 276.847 738.846 276.847" stroke="black" stroke-width="5.21744" stroke-linecap="round"/>
<path d="M264.443 652.478C254.295 600.894 293.78 552.885 346.352 552.885H775.874C820.61 552.885 854.835 592.735 848.08 636.959L789.277 1021.92C789.277 1021.92 807.538 1054.24 812.216 1087.34C815.672 1111.8 818.798 1167.64 818.798 1167.64C818.798 1167.64 639.426 1314.43 557.517 1313.76C477.444 1313.1 297.506 1167.64 297.506 1167.64L297.506 1124.71C297.506 1093.28 305.393 1062.35 320.444 1034.76L334.558 1008.89L264.443 652.478Z" fill="#FFC69D"/>
<path d="M550.254 1168.96C550.254 1168.96 556.836 1178.91 556.836 1186.07C556.836 1193.23 550.254 1203.18 550.254 1203.18" stroke="black" stroke-width="2.63279" stroke-linecap="round"/>
<path d="M297.244 695.943C295.966 692.55 300.752 690.292 302.558 693.436L369.532 842.621L351.404 839.64L297.244 695.943Z" fill="black"/>
<path d="M830.529 695.943C831.808 692.55 827.021 690.292 825.216 693.436L758.242 842.621L776.369 839.64L830.529 695.943Z" fill="black"/>
<path d="M334.365 1008.36L791.154 1012.31L793.786 1030.74L335.844 1016.25L334.365 1008.36Z" fill="black"/>
<ellipse cx="781.94" cy="750.344" rx="155.334" ry="192.193" fill="#FFC69D"/>
<path d="M934.64 712.168L750.951 723.257L916.901 1419.59L1037.28 1358.53L934.64 712.168Z" fill="#FFC69D"/>
<path d="M1036.59 1354.3C1035.61 1351.17 1032.01 1349.7 1029.13 1351.27L915.487 1412.82C915.487 1412.82 914.048 1455.91 918.282 1483.01C921.295 1502.29 929.239 1526.66 935.708 1544.51C941.557 1560.65 952.216 1574.49 965.725 1585.09C970.863 1589.12 978.278 1584.76 977.256 1578.31L967.923 1519.43L1000.53 1612.98C1003.25 1620.79 1013.34 1622.81 1018.86 1616.66L1043.3 1589.45C1074 1555.26 1084.42 1507.41 1070.72 1463.55L1036.59 1354.3Z" fill="#FFC69D"/>
<line x1="1.31639" y1="-1.31639" x2="44.8202" y2="-1.31639" transform="matrix(0.346404 0.938085 0.965478 -0.260483 1015.96 1551.92)" stroke="black" stroke-width="2.63279" stroke-linecap="round"/>
<line x1="1.31639" y1="-1.31639" x2="44.8202" y2="-1.31639" transform="matrix(0.346404 0.938085 0.965478 -0.260483 1038.82 1522.34)" stroke="black" stroke-width="2.63279" stroke-linecap="round"/>
<path d="M956.224 1475.58C956.224 1475.58 966.476 1482.75 967.778 1493.25C968.5 1499.08 969.169 1513.23 969.169 1513.23" stroke="black" stroke-width="2.63279" stroke-linecap="round"/>
<line x1="1.31639" y1="-1.31639" x2="44.8202" y2="-1.31639" transform="matrix(0.346404 0.938085 0.965478 -0.260483 1053.59 1491.7)" stroke="black" stroke-width="2.63279" stroke-linecap="round"/>
<path d="M929.136 1075.13C929.136 1075.13 890.052 1098.8 899.232 1119.44C906.617 1136.04 937.465 1137.89 937.465 1137.89" stroke="black" stroke-width="5.26557" stroke-linecap="round"/>
<path d="M848.96 685.412C850.239 682.019 845.452 679.761 843.646 682.905L776.672 832.09L794.8 829.109L848.96 685.412Z" fill="black"/>
<ellipse cx="155.334" cy="192.193" rx="155.334" ry="192.193" transform="matrix(-1 0 0 1 488.353 555.518)" fill="#FFC69D"/>
<path d="M180.317 709.535L364.006 720.624L198.056 1416.96L77.6774 1355.9L180.317 709.535Z" fill="#FFC69D"/>
<path d="M78.3664 1351.67C79.3457 1348.53 82.9434 1347.07 85.8314 1348.64L199.47 1410.19C199.47 1410.19 200.909 1453.27 196.675 1480.38C193.662 1499.66 185.718 1524.02 179.249 1541.87C173.4 1558.02 162.741 1571.86 149.232 1582.46C144.094 1586.49 136.679 1582.13 137.701 1575.68L147.034 1516.8L114.427 1610.35C111.707 1618.15 101.616 1620.18 96.0951 1614.03L71.6613 1586.82C40.9537 1552.63 30.5329 1504.78 44.2377 1460.91L78.3664 1351.67Z" fill="#FFC69D"/>
<line x1="1.31639" y1="-1.31639" x2="44.8202" y2="-1.31639" transform="matrix(-0.346404 0.938085 -0.965478 -0.260483 98.9971 1549.29)" stroke="black" stroke-width="2.63279" stroke-linecap="round"/>
<line x1="1.31639" y1="-1.31639" x2="44.8202" y2="-1.31639" transform="matrix(-0.346404 0.938085 -0.965478 -0.260483 76.1396 1519.71)" stroke="black" stroke-width="2.63279" stroke-linecap="round"/>
<path d="M158.732 1472.95C158.732 1472.95 148.48 1480.11 147.179 1490.62C146.456 1496.45 145.787 1510.6 145.787 1510.6" stroke="black" stroke-width="2.63279" stroke-linecap="round"/>
<line x1="1.31639" y1="-1.31639" x2="44.8202" y2="-1.31639" transform="matrix(-0.346404 0.938085 -0.965478 -0.260483 61.3682 1489.07)" stroke="black" stroke-width="2.63279" stroke-linecap="round"/>
<path d="M185.82 1072.49C185.82 1072.49 224.904 1096.17 215.724 1116.8C208.339 1133.4 177.491 1135.25 177.491 1135.25" stroke="black" stroke-width="5.26557" stroke-linecap="round"/>
<path d="M276.185 677.514C274.906 674.122 279.693 671.863 281.498 675.008L348.472 824.192L330.344 821.211L276.185 677.514Z" fill="black"/>
<path d="M288.835 895.328C258.212 844.241 256.168 780.955 283.43 727.999L291.121 713.059C297.721 700.238 300.379 685.751 298.759 671.422L286.194 560.256C285.891 557.573 287.685 555.102 290.33 554.559L319.72 548.531C331.209 546.174 342.908 544.986 354.636 544.986H384.392C387.516 544.986 390.42 546.318 392.454 548.689C409.679 568.756 494.652 663.624 562.556 664.756C628.032 665.848 706.655 581.298 729.361 555.177C733.495 550.422 739.447 547.59 745.748 547.59H773.724C783.522 547.59 793.254 549.199 802.531 552.352L824.133 559.694C828.364 561.132 831.21 565.105 831.21 569.574L831.21 679.081C831.21 688.57 832.648 698.004 835.475 707.062L853.487 764.769C868.117 811.645 859.902 862.67 831.296 902.584L802.079 943.352L802.079 1003.27C802.079 1009 797.459 1013.66 791.73 1013.71L333.512 1017.49C328.053 1017.54 323.482 1013.37 323.027 1007.93L317.622 943.352L288.835 895.328Z" fill="#A9FF5E"/>
<path d="M392.346 605.201C392.346 605.201 488.675 702.316 571.773 699.114C653.98 695.946 733.355 594.766 733.355 594.766" stroke="black" stroke-width="5.21744"/>
<path d="M348.505 982.951C348.505 982.951 482.33 991.929 568.218 991.643C651.697 991.365 781.705 982.028 781.705 982.028" stroke="black" stroke-width="2.63279" stroke-linecap="round"/>
<path d="M304.72 3040.18L512.719 3053.17L483.824 3187.27L318.462 3191.82L304.72 3040.18Z" fill="#FFC69D"/>
<path d="M307.415 3032.17L511.786 3053.01L493.871 3136.16L313.085 3135.99L307.415 3032.17Z" fill="black"/>
<line x1="1.6314" y1="-1.6314" x2="30.9966" y2="-1.6314" transform="matrix(-0.0894251 -0.995994 -0.99751 0.0705287 187.926 3372.71)" stroke="#589E19" stroke-width="3.26279" stroke-linecap="round"/>
<line x1="1.6314" y1="-1.6314" x2="30.9966" y2="-1.6314" transform="matrix(-0.0894251 -0.995994 -0.99751 0.0705287 230.238 3369.71)" stroke="#589E19" stroke-width="3.26279" stroke-linecap="round"/>
<line x1="1.6314" y1="-1.6314" x2="27.5519" y2="-1.6314" transform="matrix(-0.932192 -0.382339 -0.366116 0.922385 266.232 3259.9)" stroke="#589E19" stroke-width="3.26279" stroke-linecap="round"/>
<path d="M488.952 3186.92C488.802 3185.25 487.398 3183.93 485.712 3183.9L356.65 3180.91L187.688 3280.98L155.671 3378.26L503.92 3353.63L488.952 3186.92Z" fill="#A9FF5E"/>
<path d="M500.42 3314.64L168.266 3338.12L155.963 3381.51L503.921 3353.63L500.42 3314.64Z" fill="white"/>
<line x1="1.6314" y1="-1.6314" x2="278.969" y2="-1.6314" transform="matrix(-0.99751 0.0705287 0.0894251 0.995994 487.401 3315.56)" stroke="#589E19" stroke-width="3.26279" stroke-linecap="round"/>
<line x1="1.6314" y1="-1.6314" x2="30.9966" y2="-1.6314" transform="matrix(-0.0894251 -0.995994 -0.99751 0.0705287 474.337 3352.46)" stroke="#589E19" stroke-width="3.26279" stroke-linecap="round"/>
<line x1="1.6314" y1="-1.6314" x2="30.9966" y2="-1.6314" transform="matrix(-0.0894251 -0.995994 -0.99751 0.0705287 327.877 3362.81)" stroke="#589E19" stroke-width="3.26279" stroke-linecap="round"/>
<line x1="1.6314" y1="-1.6314" x2="30.9966" y2="-1.6314" transform="matrix(-0.0894251 -0.995994 -0.99751 0.0705287 373.441 3359.59)" stroke="#589E19" stroke-width="3.26279" stroke-linecap="round"/>
<line x1="1.6314" y1="-1.6314" x2="30.9966" y2="-1.6314" transform="matrix(-0.0894251 -0.995994 -0.99751 0.0705287 425.518 3355.91)" stroke="#589E19" stroke-width="3.26279" stroke-linecap="round"/>
<path d="M337.072 3155.15L211.336 3267.73L250.078 3279.7L374.916 3175.36L337.072 3155.15Z" fill="#E7FFDB"/>
<line x1="1.6314" y1="-1.6314" x2="27.5519" y2="-1.6314" transform="matrix(-0.932192 -0.382339 -0.366116 0.922385 293.772 3238.33)" stroke="#589E19" stroke-width="3.26279" stroke-linecap="round"/>
<line x1="1.6314" y1="-1.6314" x2="34.8478" y2="-1.6314" transform="matrix(-0.932192 -0.382339 -0.366116 0.922385 318.352 3220.24)" stroke="#589E19" stroke-width="3.26279" stroke-linecap="round"/>
<line x1="1.6314" y1="-1.6314" x2="31.9611" y2="-1.6314" transform="matrix(-0.915409 -0.422044 -0.406262 0.904907 342.639 3198.9)" stroke="#589E19" stroke-width="3.26279" stroke-linecap="round"/>
<path d="M314.097 3182.44C314.097 3182.44 297.09 3164.48 275.212 3166.03C263.951 3166.83 257.607 3177.13 267.6 3182.59C286.294 3192.81 314.097 3182.44 314.097 3182.44ZM314.097 3182.44C314.097 3182.44 289.735 3156.86 306.826 3138.81C320.512 3124.35 327.004 3147.68 324.346 3159.32C321.162 3173.25 314.097 3182.44 314.097 3182.44Z" stroke="#589E19" stroke-width="3.26279"/>
<path d="M822.041 3042.38L614.042 3055.36L642.937 3189.46L808.299 3194.01L822.041 3042.38Z" fill="#FFC69D"/>
<path d="M819.345 3034.36L614.974 3055.2L632.889 3138.35L813.674 3138.18L819.345 3034.36Z" fill="black"/>
<path d="M637.799 3189.2C637.951 3187.51 639.374 3186.19 641.073 3186.17L786.618 3184.31L977.875 3286.03L1014.99 3383.75L622.82 3356.02L637.799 3189.2Z" fill="#A9FF5E"/>
<path d="M626.325 3316.99L1000.37 3343.44L1014.7 3387L622.821 3356.02L626.325 3316.99Z" fill="white"/>
<line x1="1.6314" y1="-1.6314" x2="314.359" y2="-1.6314" transform="matrix(0.99751 0.0705287 -0.0894251 0.995994 640.985 3318.03)" stroke="#589E19" stroke-width="3.26279" stroke-linecap="round"/>
<line x1="1.6314" y1="-1.6314" x2="31.0217" y2="-1.6314" transform="matrix(0.0894251 -0.995994 0.99751 0.0705287 656.099 3355.1)" stroke="#589E19" stroke-width="3.26279" stroke-linecap="round"/>
<line x1="1.6314" y1="-1.6314" x2="31.0217" y2="-1.6314" transform="matrix(0.0894251 -0.995994 0.99751 0.0705287 821.03 3366.77)" stroke="#589E19" stroke-width="3.26279" stroke-linecap="round"/>
<line x1="1.6314" y1="-1.6314" x2="31.0217" y2="-1.6314" transform="matrix(0.0894251 -0.995994 0.99751 0.0705287 769.72 3363.14)" stroke="#589E19" stroke-width="3.26279" stroke-linecap="round"/>
<line x1="1.6314" y1="-1.6314" x2="31.0217" y2="-1.6314" transform="matrix(0.0894251 -0.995994 0.99751 0.0705287 711.077 3358.99)" stroke="#589E19" stroke-width="3.26279" stroke-linecap="round"/>
<path d="M808.363 3158.68L951.116 3272.55L907.652 3284.2L766.002 3178.6L808.363 3158.68Z" fill="#E7FFDB"/>
<line x1="1.6314" y1="-1.6314" x2="30.5347" y2="-1.6314" transform="matrix(0.947873 -0.34001 0.411157 0.902634 858.018 3242.38)" stroke="#589E19" stroke-width="3.26279" stroke-linecap="round"/>
<line x1="1.6314" y1="-1.6314" x2="38.5762" y2="-1.6314" transform="matrix(0.947873 -0.34001 0.411157 0.902634 830.156 3224.04)" stroke="#589E19" stroke-width="3.26279" stroke-linecap="round"/>
<line x1="1.6314" y1="-1.6314" x2="35.2487" y2="-1.6314" transform="matrix(0.934014 -0.377714 0.452906 0.88195 802.587 3202.46)" stroke="#589E19" stroke-width="3.26279" stroke-linecap="round"/>
<path d="M834.521 3186.21C834.521 3186.21 853.46 3168.38 878.097 3170.13C890.779 3171.02 898.032 3181.4 886.848 3186.78C865.925 3196.85 834.521 3186.21 834.521 3186.21ZM834.521 3186.21C834.521 3186.21 861.652 3160.81 842.216 3142.58C826.654 3127.98 819.608 3151.29 822.73 3162.97C826.468 3176.95 834.521 3186.21 834.521 3186.21Z" stroke="#589E19" stroke-width="3.26279"/>
<path d="M278.415 1202.18C280.813 1195.11 287.795 1190.7 295.205 1191.62C336.119 1196.66 467.305 1211.9 557.234 1211.83C646.277 1211.75 776.187 1196.58 816.537 1191.59C823.835 1190.69 830.738 1194.95 833.235 1201.87L908.313 1409.86L669.196 1627.86C610.445 1681.42 520.872 1682.43 460.927 1630.21L207.992 1409.86L278.415 1202.18Z" fill="#555555"/>
<path d="M208.36 1408.66L578.036 1450.66C578.036 1450.66 537.28 1876.44 530.152 2070.28C524.975 2211.09 550.431 2289.54 553.616 2430.4C558.98 2667.61 523.566 3022.96 515.944 3096.13C515.129 3103.95 508.55 3109.54 500.611 3109.47L314.874 3107.97C303.282 3107.88 293.763 3098.52 293.605 3087.01C292.586 3012.89 288.203 2756.84 274.523 2583.79C268.545 2508.16 256.127 2466.19 256.204 2390.36C256.263 2332.22 265.412 2299.94 267.241 2241.82C275.475 1980.21 156.686 1996.29 170.298 1647.32C176.863 1478.99 208.36 1408.66 208.36 1408.66Z" fill="#555555"/>
<path d="M908.011 1408.66L558.752 1408.66C558.752 1408.66 590.344 1869.77 597.093 2063.61C601.995 2204.41 577.89 2282.86 574.874 2423.72C569.901 2655.98 601.949 3001.52 610.062 3084.5C611.087 3094.99 619.921 3102.82 630.555 3102.73L805.081 3101.24C813.776 3101.17 820.91 3094.21 821.018 3085.57C821.846 3019.17 825.873 2754.52 839.154 2577.1C844.815 2501.48 856.573 2459.51 856.501 2383.68C856.445 2325.54 847.781 2293.26 846.049 2235.15C838.253 1973.54 950.737 1989.62 937.847 1640.66C931.63 1472.33 908.011 1408.66 908.011 1408.66Z" fill="#555555"/>
<path d="M502.332 1642.15C502.332 1642.15 542.535 1654.33 566.243 1653.4C588.224 1652.54 619.515 1644.51 619.515 1644.51" stroke="white" stroke-width="5.21744" stroke-linecap="round"/>
<path d="M375.923 1317.36C375.923 1317.36 280.502 1507.75 273.242 1658.6C262.49 1882 360.348 1993.2 361.945 2217.51C363.107 2380.77 320.273 2466.07 319.993 2629.31C319.692 2804.6 366.793 3073.1 366.793 3073.1" stroke="white" stroke-width="5.21744"/>
<path d="M763.965 1322.57C763.965 1322.57 841.772 1507.75 849.032 1658.59C859.784 1882 761.926 1993.2 760.329 2217.51C759.167 2380.77 802.001 2466.07 802.281 2629.31C802.582 2804.6 755.481 3073.1 755.481 3073.1" stroke="white" stroke-width="5.21744"/>
<path d="M276.444 1184.83C276.444 1172.96 287.835 1164.34 299.296 1167.44C349.26 1180.92 470.544 1211.08 555.52 1211.08C640.495 1211.08 761.779 1180.92 811.744 1167.44C823.204 1164.34 834.595 1172.96 834.595 1184.83C834.595 1192.61 829.589 1199.46 822.117 1201.65C781.017 1213.66 647.283 1250.57 555.52 1250.57C463.756 1250.57 330.022 1213.66 288.922 1201.65C281.451 1199.46 276.444 1192.61 276.444 1184.83Z" fill="#D9D9D9"/>
</svg>
