<svg width="826" height="3417" viewBox="0 0 826 3417" fill="none" xmlns="http://www.w3.org/2000/svg">
<rect x="350.161" y="442.309" width="139.538" height="115.843" fill="#FFC69D"/>
<path d="M163.225 324.253C221.491 252.085 311.922 324.251 311.922 324.251C311.922 324.251 262.756 519.887 251.922 602.93C236.789 718.926 79.7461 691.63 79.7461 691.63C79.7461 691.63 143.614 641.569 150.182 602.93C171.77 475.926 66.7025 443.805 163.225 324.253Z" fill="black"/>
<path d="M350.161 431.777H489.698V494.311C489.698 494.311 445.694 507.676 417.139 505.186C389.677 502.791 350.161 483.435 350.161 483.435V431.777Z" fill="black"/>
<path d="M258.184 227.225C254.768 144.255 321.108 75.127 404.148 75.127H426.798C510.438 75.127 577.003 145.216 572.692 228.746L569.634 287.988C566.445 349.786 546.475 412.357 496.471 448.809C473.35 465.663 446.928 479.202 421.489 479.479C391.836 479.802 359.15 462.528 331.323 442.51C284.3 408.683 263.292 351.317 260.91 293.441L258.184 227.225Z" fill="#FFC69D"/>
<ellipse cx="348.445" cy="281.217" rx="10.4349" ry="23.4785" fill="black"/>
<ellipse cx="478.881" cy="281.217" rx="10.4349" ry="23.4785" fill="black"/>
<path d="M379.749 398.608C379.749 398.608 401.068 408.616 413.662 409.043C428.24 409.537 447.575 398.608 447.575 398.608" stroke="black" stroke-width="5.21744" stroke-linecap="round"/>
<path d="M406.967 310.422C406.967 310.422 397.505 326.781 395.766 339.262C393.752 353.709 410.608 355.026 410.608 355.026" stroke="black" stroke-width="5.21744" stroke-linecap="round"/>
<path d="M468.446 234.259C468.446 234.259 478.493 231.65 486.707 231.65C494.92 231.65 510.185 234.259 510.185 234.259" stroke="black" stroke-width="5.21744" stroke-linecap="round"/>
<path d="M358.879 234.259C358.879 234.259 348.831 231.65 340.618 231.65C332.404 231.65 317.139 234.259 317.139 234.259" stroke="black" stroke-width="5.21744" stroke-linecap="round"/>
<ellipse cx="512.794" cy="346.435" rx="44.3483" ry="31.3047" fill="#FFB987"/>
<ellipse cx="314.531" cy="346.435" rx="44.3483" ry="31.3047" fill="#FFB987"/>
<path d="M228.444 119.475C306.989 -39.4401 534.954 -40.2088 611.927 119.473C658.292 215.658 583.231 330.415 583.231 330.415V268.172C583.231 268.172 507.761 103.102 416.273 103.822C325.508 104.537 251.923 268.172 251.923 268.172L228.445 315.129C228.445 315.129 189.624 198.019 228.444 119.475Z" fill="black"/>
<path d="M229.24 296.043C225.85 276.739 232.906 248.516 251.961 253.104C263.811 255.958 270.744 276.874 270.744 276.874V357.096L250.525 344.884C241.493 339.428 235.261 330.332 233.436 319.939L229.24 296.043Z" fill="#FFC69D"/>
<path d="M599.654 290.778C603.044 271.473 595.988 243.25 576.933 247.839C565.083 250.692 558.15 271.608 558.15 271.608V351.83L578.369 339.619C587.402 334.163 593.633 325.067 595.458 314.673L599.654 290.778Z" fill="#FFC69D"/>
<path d="M256.829 90.7793L421.488 98.7589C421.488 98.7589 393.177 165.998 347.559 194.514C310.427 217.727 233.306 226.433 233.306 226.433L223.225 218.453L256.829 90.7793Z" fill="black"/>
<path d="M580.93 90.7793L416.271 98.7589C416.271 98.7589 444.582 165.998 490.2 194.514C527.332 217.727 604.453 226.433 604.453 226.433L614.534 218.453L580.93 90.7793Z" fill="black"/>
<path d="M244.697 315.65C244.697 315.65 256.525 319.856 258.132 310.79C259.825 301.234 251.62 284.902 251.62 284.902" stroke="black" stroke-width="5.21744" stroke-linecap="round"/>
<path d="M583.212 312.993C583.212 312.993 571.383 317.198 569.777 308.133C568.084 298.577 576.288 282.244 576.288 282.244" stroke="black" stroke-width="5.21744" stroke-linecap="round"/>
<ellipse cx="232.231" cy="683.208" rx="130.816" ry="125.057" fill="#FFC69D"/>
<path d="M100.327 671.36L258.565 696.095L155.514 1388.22L77.1039 1362.98L100.327 1019.79L100.327 671.36Z" fill="#FFC69D"/>
<path d="M76.9452 1352.52C77.6464 1350.1 80.2761 1348.96 82.5772 1350.07L156.222 1385.68C156.222 1385.68 159.385 1420.5 157.712 1442.7C156.46 1459.32 151.598 1480.8 147.771 1495.79C144.725 1507.72 138.482 1518.31 130.097 1526.93C126.488 1530.63 120.102 1527.38 120.515 1522.04L124.151 1475.01L105.81 1551.6C104.2 1558.32 95.9093 1560.22 91.1307 1554.95L78.6105 1541.16C52.2276 1512.09 42.4605 1471.47 53.0635 1434.89L76.9452 1352.52Z" fill="#FFC69D"/>
<line x1="1.0691" y1="-1.0691" x2="36.0652" y2="-1.0691" transform="matrix(-0.24882 0.96855 -0.97594 -0.218039 92.478 1507.18)" stroke="black" stroke-width="2.13821" stroke-linecap="round"/>
<line x1="1.0691" y1="-1.0691" x2="36.0652" y2="-1.0691" transform="matrix(-0.24882 0.96855 -0.97594 -0.218039 74.7222 1484.5)" stroke="black" stroke-width="2.13821" stroke-linecap="round"/>
<path d="M131.25 1441.96C131.25 1441.96 124.301 1448.34 123.895 1456.93C123.669 1461.69 123.895 1473.19 123.895 1473.19" stroke="black" stroke-width="2.13821" stroke-linecap="round"/>
<line x1="1.0691" y1="-1.0691" x2="36.0652" y2="-1.0691" transform="matrix(-0.24882 0.96855 -0.97594 -0.218039 62.6792 1460.51)" stroke="black" stroke-width="2.13821" stroke-linecap="round"/>
<path d="M114.134 1055.81C114.134 1055.81 149.869 1076.71 143.076 1097.93C137.611 1115.01 110.662 1119 110.662 1119" stroke="black" stroke-width="5.26557" stroke-linecap="round"/>
<path d="M208.46 653.115C199.708 602.113 238.989 555.518 290.736 555.518H553.155C597.215 555.518 631.247 594.234 625.595 637.93L576.924 1014.27L560.224 1115.74C558.438 1126.59 558.153 1137.64 559.375 1148.57L569.109 1235.61C569.109 1235.61 476.427 1317.06 417.324 1316.39C359.546 1315.74 276.222 1224.25 276.222 1224.25L285.752 1180.17C290.925 1156.25 291.373 1131.55 287.072 1107.46L270.433 1014.27L208.46 653.115Z" fill="#FFC69D"/>
<path d="M186.783 695.776C185.766 692.708 190.069 690.58 191.511 693.437L250.409 842.622L234.468 839.641L186.783 695.776Z" fill="black"/>
<ellipse cx="130.816" cy="125.057" rx="130.816" ry="125.057" transform="matrix(-1 0 0 1 724.236 558.15)" fill="#FFC69D"/>
<path d="M725.325 671.36L567.087 696.095L670.137 1388.22L748.547 1362.98L725.325 1019.79L725.325 671.36Z" fill="#FFC69D"/>
<path d="M748.705 1352.52C748.004 1350.1 745.374 1348.96 743.073 1350.07L669.428 1385.68C669.428 1385.68 666.265 1420.5 667.938 1442.7C669.19 1459.32 674.052 1480.8 677.879 1495.79C680.925 1507.72 687.167 1518.31 695.553 1526.93C699.162 1530.63 705.548 1527.38 705.135 1522.04L701.499 1475.01L719.84 1551.6C721.45 1558.32 729.741 1560.22 734.519 1554.95L747.039 1541.16C773.422 1512.09 783.189 1471.47 772.586 1434.89L748.705 1352.52Z" fill="#FFC69D"/>
<line x1="1.0691" y1="-1.0691" x2="36.0652" y2="-1.0691" transform="matrix(0.24882 0.96855 0.97594 -0.218039 733.175 1507.18)" stroke="black" stroke-width="2.13821" stroke-linecap="round"/>
<line x1="1.0691" y1="-1.0691" x2="36.0652" y2="-1.0691" transform="matrix(0.24882 0.96855 0.97594 -0.218039 750.929 1484.5)" stroke="black" stroke-width="2.13821" stroke-linecap="round"/>
<path d="M694.401 1441.96C694.401 1441.96 701.35 1448.34 701.757 1456.93C701.982 1461.69 701.757 1473.19 701.757 1473.19" stroke="black" stroke-width="2.13821" stroke-linecap="round"/>
<line x1="1.0691" y1="-1.0691" x2="36.0652" y2="-1.0691" transform="matrix(0.24882 0.96855 0.97594 -0.218039 762.971 1460.51)" stroke="black" stroke-width="2.13821" stroke-linecap="round"/>
<path d="M711.516 1055.81C711.516 1055.81 675.782 1076.71 682.575 1097.93C688.039 1115.01 714.989 1119 714.989 1119" stroke="black" stroke-width="5.26557" stroke-linecap="round"/>
<path d="M655.873 695.776C656.89 692.708 652.588 690.58 651.145 693.437L592.247 842.622L608.189 839.641L655.873 695.776Z" fill="black"/>
<path d="M268.119 1010.99L578.371 1015.55L576.747 1032.05L269.126 1018.89L268.119 1010.99Z" fill="black"/>
<path d="M231.613 851.702C226.668 830.351 225.845 808.252 229.188 786.592L241.515 706.726C242.342 701.367 242.57 695.933 242.195 690.523L233.007 558.233C232.803 555.292 235.074 552.766 238.021 552.658L297.178 550.485C301.072 550.342 304.706 552.347 306.708 555.691C320.631 578.949 377.399 668.92 423.004 670.022C466.59 671.075 518.621 592.364 536.28 563.387C540.217 556.926 547.18 552.856 554.746 552.856H602.57C608.475 552.856 613.204 557.751 612.999 563.653L608.311 698.663L615.997 818.589C617.145 836.501 615.203 854.478 610.257 871.732L588.217 948.617L582.939 1011.95C582.489 1017.36 577.967 1021.52 572.54 1021.52H272.244C266.972 1021.52 262.529 1017.59 261.886 1012.36L254.057 948.617L231.613 851.702Z" fill="#A9FF5E"/>
<path d="M298.159 607.834C298.159 607.834 367.637 704.949 427.571 701.747C486.862 698.579 544.112 597.399 544.112 597.399" stroke="black" stroke-width="5.21744"/>
<path d="M266.539 985.585C266.539 985.585 363.06 994.563 425.006 994.277C485.215 993.998 578.983 984.662 578.983 984.662" stroke="black" stroke-width="2.63279" stroke-linecap="round"/>
<path d="M245.016 3074.41L376.471 3087.39L358.21 3221.5L253.701 3226.05L245.016 3074.41Z" fill="#FFC69D"/>
<path d="M246.72 3066.39L375.882 3087.24L364.56 3170.38L250.304 3170.22L246.72 3066.39Z" fill="black"/>
<line x1="1.6314" y1="-1.6314" x2="30.9966" y2="-1.6314" transform="matrix(-0.074757 -0.997202 -0.996434 0.0843784 60.9722 3403.7)" stroke="#589E19" stroke-width="3.26279" stroke-linecap="round"/>
<line x1="1.6314" y1="-1.6314" x2="30.9966" y2="-1.6314" transform="matrix(-0.074757 -0.997202 -0.996434 0.0843784 103.237 3400.12)" stroke="#589E19" stroke-width="3.26279" stroke-linecap="round"/>
<line x1="1.6314" y1="-1.6314" x2="27.5519" y2="-1.6314" transform="matrix(-0.92467 -0.370492 -0.378754 0.92966 140.753 3289.54)" stroke="#589E19" stroke-width="3.26279" stroke-linecap="round"/>
<path d="M364.066 3213.33C363.94 3211.65 362.559 3210.36 360.877 3210.34L232.13 3209.12L62.0693 3311.75L28.7053 3409.7L376.579 3380.25L364.066 3213.33Z" fill="#A9FF5E"/>
<path d="M373.652 3341.2L41.8561 3369.3L28.9488 3412.96L376.579 3380.24L373.652 3341.2Z" fill="white"/>
<line x1="1.6314" y1="-1.6314" x2="278.969" y2="-1.6314" transform="matrix(-0.996434 0.0843784 0.074757 0.997202 360.647 3342.3)" stroke="#589E19" stroke-width="3.26279" stroke-linecap="round"/>
<line x1="1.6314" y1="-1.6314" x2="30.9966" y2="-1.6314" transform="matrix(-0.074757 -0.997202 -0.996434 0.0843784 347.074 3379.47)" stroke="#589E19" stroke-width="3.26279" stroke-linecap="round"/>
<line x1="1.6314" y1="-1.6314" x2="30.9966" y2="-1.6314" transform="matrix(-0.074757 -0.997202 -0.996434 0.0843784 200.772 3391.86)" stroke="#589E19" stroke-width="3.26279" stroke-linecap="round"/>
<line x1="1.6314" y1="-1.6314" x2="30.9966" y2="-1.6314" transform="matrix(-0.074757 -0.997202 -0.996434 0.0843784 246.288 3388)" stroke="#589E19" stroke-width="3.26279" stroke-linecap="round"/>
<line x1="1.6314" y1="-1.6314" x2="30.9966" y2="-1.6314" transform="matrix(-0.074757 -0.997202 -0.996434 0.0843784 298.308 3383.6)" stroke="#589E19" stroke-width="3.26279" stroke-linecap="round"/>
<path d="M212.967 3183.56L85.8594 3298.14L124.345 3309.62L250.438 3203.31L212.967 3183.56Z" fill="#E7FFDB"/>
<line x1="1.6314" y1="-1.6314" x2="27.5519" y2="-1.6314" transform="matrix(-0.92467 -0.370492 -0.378754 0.92966 168.55 3267.54)" stroke="#589E19" stroke-width="3.26279" stroke-linecap="round"/>
<line x1="1.6314" y1="-1.6314" x2="34.8478" y2="-1.6314" transform="matrix(-0.92467 -0.370492 -0.378754 0.92966 193.339 3249.07)" stroke="#589E19" stroke-width="3.26279" stroke-linecap="round"/>
<line x1="1.6314" y1="-1.6314" x2="31.9611" y2="-1.6314" transform="matrix(-0.907345 -0.410524 -0.418562 0.912689 217.885 3227.35)" stroke="#589E19" stroke-width="3.26279" stroke-linecap="round"/>
<path d="M189.643 3211.23C189.643 3211.23 172.933 3193.47 151.078 3195.32C139.829 3196.27 133.35 3206.69 143.242 3212.02C161.748 3222.01 189.643 3211.23 189.643 3211.23ZM189.643 3211.23C189.643 3211.23 165.704 3185.93 183.022 3167.6C196.889 3152.92 203.028 3176.22 200.207 3187.92C196.827 3201.93 189.643 3211.23 189.643 3211.23Z" stroke="#589E19" stroke-width="3.26279"/>
<path d="M594.008 3068.7L461.07 3081.69L479.537 3215.79L585.225 3220.34L594.008 3068.7Z" fill="#FFC69D"/>
<path d="M592.285 3060.68L461.665 3081.53L473.115 3164.67L588.661 3164.51L592.285 3060.68Z" fill="black"/>
<path d="M476.259 3215.44C476.353 3213.78 477.667 3212.53 479.313 3212.52L582.824 3211.9L720.532 3315.34L747.798 3413.45L466.68 3382.35L476.259 3215.44Z" fill="#A9FF5E"/>
<path d="M468.919 3343.32L737.044 3372.98L747.61 3416.7L466.679 3382.35L468.919 3343.32Z" fill="white"/>
<line x1="1.6314" y1="-1.6314" x2="225.692" y2="-1.6314" transform="matrix(0.993936 0.109956 -0.0572898 0.998358 479.428 3344.48)" stroke="#589E19" stroke-width="3.26279" stroke-linecap="round"/>
<line x1="1.6314" y1="-1.6314" x2="30.9481" y2="-1.6314" transform="matrix(0.0572898 -0.998358 0.993936 0.109956 490.511 3381.71)" stroke="#589E19" stroke-width="3.26279" stroke-linecap="round"/>
<line x1="1.6314" y1="-1.6314" x2="30.9481" y2="-1.6314" transform="matrix(0.0572898 -0.998358 0.993936 0.109956 608.738 3394.79)" stroke="#589E19" stroke-width="3.26279" stroke-linecap="round"/>
<line x1="1.6314" y1="-1.6314" x2="30.9481" y2="-1.6314" transform="matrix(0.0572898 -0.998358 0.993936 0.109956 571.958 3390.72)" stroke="#589E19" stroke-width="3.26279" stroke-linecap="round"/>
<line x1="1.6314" y1="-1.6314" x2="30.9481" y2="-1.6314" transform="matrix(0.0572898 -0.998358 0.993936 0.109956 529.92 3386.07)" stroke="#589E19" stroke-width="3.26279" stroke-linecap="round"/>
<path d="M598.221 3186.44L701.269 3301.62L670.216 3312.91L568.015 3206.01L598.221 3186.44Z" fill="#E7FFDB"/>
<line x1="1.6314" y1="-1.6314" x2="23.2078" y2="-1.6314" transform="matrix(0.876225 -0.430159 0.320558 0.966463 634.371 3270.63)" stroke="#589E19" stroke-width="3.26279" stroke-linecap="round"/>
<line x1="1.6314" y1="-1.6314" x2="29.4176" y2="-1.6314" transform="matrix(0.876225 -0.430159 0.320558 0.966463 614.287 3252.04)" stroke="#589E19" stroke-width="3.26279" stroke-linecap="round"/>
<line x1="1.6314" y1="-1.6314" x2="27.2006" y2="-1.6314" transform="matrix(0.852476 -0.473315 0.356218 0.955351 594.389 3230.2)" stroke="#589E19" stroke-width="3.26279" stroke-linecap="round"/>
<path d="M617.152 3214.22C617.152 3214.22 630.595 3196.54 648.255 3198.49C657.346 3199.5 662.613 3209.94 654.639 3215.23C639.721 3225.13 617.152 3214.22 617.152 3214.22ZM617.152 3214.22C617.152 3214.22 636.41 3189.03 622.362 3170.61C611.113 3155.87 606.227 3179.14 608.544 3190.85C611.319 3204.88 617.152 3214.22 617.152 3214.22Z" stroke="#589E19" stroke-width="3.26279"/>
<path d="M266.879 1228.48C269.342 1222.72 275.005 1218.98 281.273 1218.98H569.857C576.477 1218.98 582.381 1223.15 584.602 1229.38L666.342 1458.91L543.831 1616.5C482.042 1695.97 362.376 1697.3 298.843 1619.21L168.428 1458.91L266.879 1228.48Z" fill="#555555"/>
<path d="M167.778 1458.68L393.688 1470.76C393.688 1470.76 401.555 1926.46 396.489 2120.31C392.809 2261.11 410.902 2339.56 413.166 2480.42C416.94 2715.26 392.308 3065.9 386.559 3143.87C385.911 3152.66 378.416 3159.53 369.867 3159.43L247.251 3158.04C236.651 3157.92 228.487 3149.69 228.383 3138.83C227.692 3067.16 224.606 2808.29 214.803 2633.81C210.554 2558.18 201.728 2516.21 201.783 2440.38C201.825 2382.24 208.327 2349.97 209.627 2291.85C215.479 2030.23 131.051 2046.31 140.726 1697.34C145.392 1529.02 167.778 1458.68 167.778 1458.68Z" fill="#555555"/>
<path d="M665.048 1458.69L446.718 1464.1C446.718 1464.1 439.269 1919.79 444.066 2113.63C447.55 2254.44 430.418 2332.88 428.274 2473.74C424.777 2703.51 447.031 3044.13 453.091 3131.75C453.905 3143.51 463.93 3152.8 475.368 3152.66L589.07 3151.3C597.018 3151.2 603.136 3144.93 603.208 3136.78C603.772 3072.41 606.612 2805.62 616.108 2627.12C620.132 2551.5 628.489 2509.53 628.437 2433.7C628.398 2375.56 622.24 2343.29 621.009 2285.17C615.468 2023.56 695.415 2039.64 686.254 1690.68C681.835 1522.36 665.048 1458.69 665.048 1458.69Z" fill="#555555"/>
<path d="M381.465 1673.11C381.465 1673.11 410.039 1685.29 426.889 1684.36C442.512 1683.5 464.752 1675.47 464.752 1675.47" stroke="white" stroke-width="5.21744" stroke-linecap="round"/>
<path d="M286.873 1367.38C286.873 1367.38 219.053 1557.77 213.893 1708.62C206.251 1932.02 275.803 2043.22 276.938 2267.53C277.764 2430.79 247.32 2516.09 247.121 2679.33C246.907 2854.63 280.383 3123.12 280.383 3123.12" stroke="white" stroke-width="5.21744"/>
<path d="M562.669 1372.6C562.669 1372.6 617.97 1557.77 623.13 1708.62C630.772 1932.02 561.22 2043.22 560.085 2267.53C559.259 2430.79 589.703 2516.09 589.902 2679.33C590.116 2854.63 556.64 3123.12 556.64 3123.12" stroke="white" stroke-width="5.21744"/>
<rect x="262.561" y="1187.39" width="319.557" height="36.859" rx="18.4295" fill="#D9D9D9"/>
</svg>
