<svg width="972" height="3401" viewBox="0 0 972 3401" fill="none" xmlns="http://www.w3.org/2000/svg">
<rect x="406.96" y="443.483" width="151.306" height="114.784" fill="#FFC69D"/>
<path d="M229.567 324.253C287.834 252.085 378.264 324.251 378.264 324.251C378.264 324.251 329.098 519.887 318.264 602.93C303.131 718.926 146.088 691.63 146.088 691.63C146.088 691.63 209.956 641.569 216.524 602.93C238.112 475.926 133.045 443.805 229.567 324.253Z" fill="black"/>
<path d="M406.96 433.049H558.266V495.011C558.266 495.011 510.551 508.254 479.587 505.787C449.81 503.414 406.96 484.235 406.96 484.235V433.049Z" fill="black"/>
<path d="M318.265 221.215C318.265 140.533 383.671 75.127 464.353 75.127H500.875C581.558 75.127 646.964 140.533 646.964 221.215V277.803C646.964 345.313 622.937 413.41 566.134 449.891C540.68 466.239 512.724 479.208 487.832 479.479C462.318 479.757 432.874 467.007 405.756 450.691C345.016 414.146 318.265 342.993 318.265 272.106V221.215Z" fill="#FFC69D"/>
<ellipse cx="414.787" cy="281.217" rx="10.4349" ry="23.4785" fill="black"/>
<ellipse cx="545.223" cy="281.217" rx="10.4349" ry="23.4785" fill="black"/>
<path d="M446.091 398.609C446.091 398.609 467.41 408.617 480.005 409.044C494.583 409.538 513.918 398.609 513.918 398.609" stroke="black" stroke-width="5.21744" stroke-linecap="round"/>
<path d="M473.31 310.422C473.31 310.422 463.848 326.781 462.108 339.262C460.094 353.709 476.95 355.026 476.95 355.026" stroke="black" stroke-width="5.21744" stroke-linecap="round"/>
<path d="M534.788 234.259C534.788 234.259 544.836 231.65 553.049 231.65C561.263 231.65 576.528 234.259 576.528 234.259" stroke="black" stroke-width="5.21744" stroke-linecap="round"/>
<path d="M425.222 234.259C425.222 234.259 415.174 231.65 406.961 231.65C398.747 231.65 383.482 234.259 383.482 234.259" stroke="black" stroke-width="5.21744" stroke-linecap="round"/>
<ellipse cx="579.136" cy="346.435" rx="44.3483" ry="31.3047" fill="#FFB987"/>
<ellipse cx="380.874" cy="346.435" rx="44.3483" ry="31.3047" fill="#FFB987"/>
<path d="M294.787 119.475C373.331 -39.4399 601.296 -40.2086 678.27 119.473C724.635 215.658 678.27 315.129 678.27 315.129L649.574 268.172C649.574 268.172 574.103 103.102 482.615 103.822C391.85 104.537 318.266 268.172 318.266 268.172L294.788 315.129C294.788 315.129 255.966 198.019 294.787 119.475Z" fill="black"/>
<path d="M289.794 288.146C286.404 268.842 293.46 240.618 312.515 245.207C324.365 248.06 331.298 268.976 331.298 268.976V349.199L311.08 336.987C302.047 331.531 295.815 322.435 293.99 312.041L289.794 288.146Z" fill="#FFC69D"/>
<path d="M676.005 288.146C679.395 268.842 672.339 240.618 653.284 245.207C641.434 248.06 634.501 268.976 634.501 268.976V349.199L654.719 336.987C663.752 331.531 669.984 322.435 671.809 312.041L676.005 288.146Z" fill="#FFC69D"/>
<path d="M323.172 90.7803L487.831 98.7599C487.831 98.7599 459.52 165.999 413.902 194.515C376.77 217.728 299.649 226.434 299.649 226.434L289.568 218.454L323.172 90.7803Z" fill="black"/>
<path d="M647.273 90.7803L482.614 98.7599C482.614 98.7599 510.925 165.999 556.543 194.515C593.675 217.728 670.796 226.434 670.796 226.434L680.877 218.454L647.273 90.7803Z" fill="black"/>
<path d="M305.25 307.752C305.25 307.752 317.079 311.957 318.685 302.891C320.378 293.335 312.174 277.003 312.174 277.003" stroke="black" stroke-width="5.21744" stroke-linecap="round"/>
<path d="M659.562 310.36C659.562 310.36 647.733 314.566 646.127 305.5C644.434 295.944 652.639 279.612 652.639 279.612" stroke="black" stroke-width="5.21744" stroke-linecap="round"/>
<path d="M224.287 653.506C215.363 602.43 254.67 555.658 306.52 555.658H671.398C715.642 555.658 749.727 594.681 743.779 638.523L691.312 1025.23L678.038 1124.78C676.462 1136.61 676.657 1148.6 678.618 1160.37L691.312 1236.53C691.312 1236.53 558.059 1318.07 485.223 1317.41C414.02 1316.75 286.96 1236.53 286.96 1236.53L301.056 1185.79C308.94 1157.41 310.038 1127.57 304.26 1098.68L286.96 1012.18L224.287 653.506Z" fill="#FFC69D"/>
<ellipse cx="269.8" cy="682.18" rx="151.306" ry="125.219" fill="#FFC69D"/>
<path d="M851.477 662.615L671.542 692.473L788.723 1398.65L913.051 1346.1L851.477 662.615Z" fill="#FFC69D"/>
<ellipse cx="702.847" cy="682.18" rx="151.306" ry="125.219" fill="#FFC69D"/>
<path d="M122.502 652.181L302.437 682.038L185.257 1388.22L52.1752 1364.36L122.502 652.181Z" fill="#FFC69D"/>
<path d="M220.894 695.944C219.615 692.551 224.402 690.293 226.208 693.437L293.182 842.622L275.054 839.641L220.894 695.944Z" fill="black"/>
<path d="M754.178 695.944C755.457 692.551 750.67 690.293 748.865 693.437L681.891 842.622L700.018 839.641L754.178 695.944Z" fill="black"/>
<path d="M286.973 1010.99L692.422 1015.55L690.3 1032.05L288.29 1018.89L286.973 1010.99Z" fill="black"/>
<path d="M243.362 891.556C218.222 844.262 216.523 787.961 238.767 739.238L250.238 714.11C255.498 702.588 257.672 689.896 256.545 677.279L245.713 555.962C245.446 552.968 247.757 550.368 250.761 550.282L331.029 547.989C334.469 547.891 337.693 549.433 339.783 552.168C356.12 573.541 430.712 666.71 490.44 667.833C547.957 668.915 616.892 586.121 637.943 558.954C642.062 553.637 648.344 550.441 655.069 550.441H724.749C730.695 550.441 735.439 555.401 735.174 561.341L729.803 681.646C729.363 691.507 730.48 701.375 733.113 710.887L751.024 775.598C762.834 818.267 756.021 863.942 732.274 901.308L703.256 946.967L696.429 1010.69C695.86 1015.99 691.386 1020.01 686.053 1020.01H293.268C288.133 1020.01 283.761 1016.28 282.961 1011.2L272.817 946.967L243.362 891.556Z" fill="#A9FF5E"/>
<path d="M339.042 607.834C339.042 607.834 424.524 704.949 498.265 701.747C571.215 698.579 641.653 597.399 641.653 597.399" stroke="black" stroke-width="5.21744"/>
<path d="M300.137 985.585C300.137 985.585 418.894 994.563 495.111 994.277C569.189 993.998 684.559 984.662 684.559 984.662" stroke="black" stroke-width="2.63279" stroke-linecap="round"/>
<path d="M58.8396 1331.4C59.5989 1328.2 63.0864 1326.5 66.076 1327.86L183.716 1381.37C183.716 1381.37 188.144 1424.25 185.803 1451.58C184.137 1471.03 177.905 1495.88 172.691 1514.14C167.977 1530.65 158.306 1545.2 145.565 1556.71C140.72 1561.09 133.02 1557.25 133.592 1550.75L138.812 1491.36L112.782 1586.95C110.611 1594.92 100.684 1597.65 94.75 1591.9L68.4852 1566.45C35.4765 1534.47 21.7575 1487.47 32.3819 1442.75L58.8396 1331.4Z" fill="#FFC69D"/>
<line x1="1.31639" y1="-1.31639" x2="44.8202" y2="-1.31639" transform="matrix(-0.280405 0.959882 -0.98124 -0.192789 94.4648 1530.97)" stroke="black" stroke-width="2.63279" stroke-linecap="round"/>
<line x1="1.31639" y1="-1.31639" x2="44.8202" y2="-1.31639" transform="matrix(-0.280405 0.959882 -0.98124 -0.192789 69.605 1503.05)" stroke="black" stroke-width="2.63279" stroke-linecap="round"/>
<path d="M148.752 1450.67C148.752 1450.67 139.022 1458.52 138.453 1469.09C138.138 1474.96 138.453 1489.12 138.453 1489.12" stroke="black" stroke-width="2.63279" stroke-linecap="round"/>
<line x1="1.31639" y1="-1.31639" x2="44.8202" y2="-1.31639" transform="matrix(-0.280405 0.959882 -0.98124 -0.192789 52.7437 1473.51)" stroke="black" stroke-width="2.63279" stroke-linecap="round"/>
<path d="M912.657 1341.83C911.898 1338.64 908.41 1336.93 905.421 1338.29L787.781 1391.8C787.781 1391.8 783.352 1434.68 785.694 1462.01C787.36 1481.46 793.592 1506.32 798.805 1524.57C803.519 1541.08 813.191 1555.63 825.931 1567.14C830.776 1571.52 838.476 1567.69 837.905 1561.18L832.685 1501.79L858.715 1597.39C860.886 1605.36 870.812 1608.08 876.747 1602.33L903.011 1576.89C936.02 1544.91 949.739 1497.9 939.115 1453.19L912.657 1341.83Z" fill="#FFC69D"/>
<line x1="1.31639" y1="-1.31639" x2="44.8202" y2="-1.31639" transform="matrix(0.280405 0.959882 0.98124 -0.192789 878.349 1537.54)" stroke="black" stroke-width="2.63279" stroke-linecap="round"/>
<line x1="1.31639" y1="-1.31639" x2="44.8202" y2="-1.31639" transform="matrix(0.280405 0.959882 0.98124 -0.192789 903.207 1509.62)" stroke="black" stroke-width="2.63279" stroke-linecap="round"/>
<path d="M824.062 1457.24C824.062 1457.24 833.791 1465.1 834.36 1475.67C834.676 1481.53 834.36 1495.7 834.36 1495.7" stroke="black" stroke-width="2.63279" stroke-linecap="round"/>
<line x1="1.31639" y1="-1.31639" x2="44.8202" y2="-1.31639" transform="matrix(0.280405 0.959882 0.98124 -0.192789 920.069 1480.08)" stroke="black" stroke-width="2.63279" stroke-linecap="round"/>
<path d="M138.22 1055.81C138.22 1055.81 178.854 1076.71 171.129 1097.93C164.915 1115.01 134.271 1119 134.271 1119" stroke="black" stroke-width="5.26557" stroke-linecap="round"/>
<path d="M824.856 1055.87C824.856 1055.87 784.222 1076.78 791.946 1098C798.16 1115.07 828.805 1119.06 828.805 1119.06" stroke="black" stroke-width="5.26557" stroke-linecap="round"/>
<path d="M255.055 3053.35L439.634 3066.33L413.993 3200.44L267.249 3204.99L255.055 3053.35Z" fill="#FFC69D"/>
<path d="M257.448 3045.33L438.808 3066.17L422.91 3149.32L262.48 3149.16L257.448 3045.33Z" fill="black"/>
<line x1="1.6314" y1="-1.6314" x2="30.9966" y2="-1.6314" transform="matrix(-0.079424 -0.996841 -0.996841 0.079424 116.092 3388.88)" stroke="#589E19" stroke-width="3.26279" stroke-linecap="round"/>
<line x1="1.6314" y1="-1.6314" x2="30.9966" y2="-1.6314" transform="matrix(-0.079424 -0.996841 -0.996841 0.079424 158.375 3385.51)" stroke="#589E19" stroke-width="3.26279" stroke-linecap="round"/>
<line x1="1.6314" y1="-1.6314" x2="27.5519" y2="-1.6314" transform="matrix(-0.927121 -0.374762 -0.374762 0.927121 195.41 3275.2)" stroke="#589E19" stroke-width="3.26279" stroke-linecap="round"/>
<path d="M418.549 3200.14C418.415 3198.47 417.027 3197.16 415.343 3197.14L286.488 3195.28L116.765 3297.01L83.827 3394.73L431.843 3367L418.549 3200.14Z" fill="#A9FF5E"/>
<path d="M428.734 3327.97L96.8026 3354.41L84.0866 3397.98L431.844 3367L428.734 3327.97Z" fill="white"/>
<line x1="1.6314" y1="-1.6314" x2="278.969" y2="-1.6314" transform="matrix(-0.996841 0.079424 0.079424 0.996841 415.723 3329)" stroke="#589E19" stroke-width="3.26279" stroke-linecap="round"/>
<line x1="1.6314" y1="-1.6314" x2="30.9966" y2="-1.6314" transform="matrix(-0.079424 -0.996841 -0.996841 0.079424 402.312 3366.08)" stroke="#589E19" stroke-width="3.26279" stroke-linecap="round"/>
<line x1="1.6314" y1="-1.6314" x2="30.9966" y2="-1.6314" transform="matrix(-0.079424 -0.996841 -0.996841 0.079424 255.949 3377.74)" stroke="#589E19" stroke-width="3.26279" stroke-linecap="round"/>
<line x1="1.6314" y1="-1.6314" x2="30.9966" y2="-1.6314" transform="matrix(-0.079424 -0.996841 -0.996841 0.079424 301.484 3374.11)" stroke="#589E19" stroke-width="3.26279" stroke-linecap="round"/>
<line x1="1.6314" y1="-1.6314" x2="30.9966" y2="-1.6314" transform="matrix(-0.079424 -0.996841 -0.996841 0.079424 353.524 3369.96)" stroke="#589E19" stroke-width="3.26279" stroke-linecap="round"/>
<path d="M267.192 3169.65L140.512 3283.52L179.082 3295.18L304.784 3189.57L267.192 3169.65Z" fill="#E7FFDB"/>
<line x1="1.6314" y1="-1.6314" x2="27.5519" y2="-1.6314" transform="matrix(-0.927121 -0.374762 -0.374762 0.927121 223.127 3253.36)" stroke="#589E19" stroke-width="3.26279" stroke-linecap="round"/>
<line x1="1.6314" y1="-1.6314" x2="34.8478" y2="-1.6314" transform="matrix(-0.927121 -0.374762 -0.374762 0.927121 247.851 3235.02)" stroke="#589E19" stroke-width="3.26279" stroke-linecap="round"/>
<line x1="1.6314" y1="-1.6314" x2="31.9611" y2="-1.6314" transform="matrix(-0.909967 -0.41468 -0.41468 0.909967 272.315 3213.43)" stroke="#589E19" stroke-width="3.26279" stroke-linecap="round"/>
<path d="M243.977 3197.19C243.977 3197.19 227.171 3179.36 205.307 3181.1C194.054 3182 187.617 3192.37 197.541 3197.75C216.109 3207.82 243.977 3197.19 243.977 3197.19ZM243.977 3197.19C243.977 3197.19 219.901 3171.79 237.148 3153.55C250.958 3138.95 257.211 3162.27 254.441 3173.94C251.123 3187.93 243.977 3197.19 243.977 3197.19Z" stroke="#589E19" stroke-width="3.26279"/>
<path d="M714.127 3055.54L529.547 3068.52L555.188 3202.63L701.932 3207.18L714.127 3055.54Z" fill="#FFC69D"/>
<path d="M711.734 3047.52L530.373 3068.36L546.271 3151.51L706.702 3151.35L711.734 3047.52Z" fill="black"/>
<path d="M550.632 3202.33C550.766 3200.66 552.154 3199.36 553.838 3199.33L682.693 3197.47L852.416 3299.2L885.354 3396.92L537.338 3369.19L550.632 3202.33Z" fill="#A9FF5E"/>
<path d="M540.447 3330.16L872.379 3356.6L885.095 3400.17L537.338 3369.19L540.447 3330.16Z" fill="white"/>
<line x1="555.214" y1="3329.7" x2="831.676" y2="3351.72" stroke="#589E19" stroke-width="3.26279" stroke-linecap="round"/>
<line x1="565.372" y1="3366.51" x2="567.705" y2="3337.24" stroke="#589E19" stroke-width="3.26279" stroke-linecap="round"/>
<line x1="711.735" y1="3378.17" x2="714.067" y2="3348.9" stroke="#589E19" stroke-width="3.26279" stroke-linecap="round"/>
<line x1="666.2" y1="3374.54" x2="668.532" y2="3345.27" stroke="#589E19" stroke-width="3.26279" stroke-linecap="round"/>
<line x1="614.16" y1="3370.4" x2="616.492" y2="3341.12" stroke="#589E19" stroke-width="3.26279" stroke-linecap="round"/>
<path d="M701.989 3171.84L828.669 3285.71L790.099 3297.37L664.397 3191.76L701.989 3171.84Z" fill="#E7FFDB"/>
<line x1="746.955" y1="3253.42" x2="770.987" y2="3243.71" stroke="#589E19" stroke-width="3.26279" stroke-linecap="round"/>
<line x1="722.232" y1="3235.09" x2="753.027" y2="3222.64" stroke="#589E19" stroke-width="3.26279" stroke-linecap="round"/>
<line x1="697.673" y1="3213.46" x2="725.272" y2="3200.88" stroke="#589E19" stroke-width="3.26279" stroke-linecap="round"/>
<path d="M725.205 3199.38C725.205 3199.38 742.011 3181.55 763.874 3183.29C775.128 3184.19 781.564 3194.56 771.64 3199.94C753.072 3210.01 725.205 3199.38 725.205 3199.38ZM725.205 3199.38C725.205 3199.38 749.28 3173.97 732.033 3155.74C718.223 3141.14 711.971 3164.45 714.74 3176.13C718.058 3190.12 725.205 3199.38 725.205 3199.38Z" stroke="#589E19" stroke-width="3.26279"/>
<path d="M292.953 1190.12C295.672 1185.01 300.984 1181.82 306.768 1181.82H673.698C679.886 1181.82 685.493 1185.47 688.004 1191.12L790.419 1421.83L596.909 1621.5C536.382 1683.95 436.545 1685.09 374.614 1624.02L169.543 1421.83L292.953 1190.12Z" fill="#555555"/>
<path d="M169.543 1421.83L451.607 1433.91C451.607 1433.91 461.429 1889.61 455.104 2083.45C450.51 2224.26 473.1 2302.7 475.926 2443.56C480.67 2679.95 449.478 3033.66 442.568 3108.52C441.813 3116.69 434.92 3122.69 426.752 3122.62L265.627 3121.15C254.37 3121.05 245.335 3112.1 245.198 3100.8C244.308 3027.51 240.432 2770.49 228.257 2596.95C222.952 2521.33 211.932 2479.35 212.001 2403.53C212.053 2345.38 220.172 2313.11 221.795 2254.99C229.101 1993.37 123.687 2009.46 135.767 1660.49C141.593 1492.16 169.543 1421.83 169.543 1421.83Z" fill="#555555"/>
<path d="M790.419 1421.83L517.819 1427.24C517.819 1427.24 508.519 1882.93 514.508 2076.77C518.858 2217.58 497.467 2296.02 494.791 2436.88C490.394 2668.27 518.605 3012.1 525.935 3096.72C526.883 3107.67 536.123 3115.97 547.059 3115.86L697.908 3114.41C706.351 3114.33 713.122 3107.62 713.216 3099.15C713.94 3033.44 717.504 2768.05 729.314 2590.27C734.338 2514.64 744.773 2472.67 744.708 2396.84C744.659 2338.7 736.971 2306.43 735.434 2248.31C728.515 1986.7 828.334 2002.78 816.896 1653.82C811.379 1485.5 790.419 1421.83 790.419 1421.83Z" fill="#555555"/>
<path d="M430.416 1655.31C430.416 1655.31 466.092 1667.49 487.131 1666.57C506.637 1665.71 534.405 1657.68 534.405 1657.68" stroke="white" stroke-width="5.21744" stroke-linecap="round"/>
<path d="M318.24 1330.52C318.24 1330.52 233.563 1520.91 227.121 1671.76C217.579 1895.17 304.419 2006.36 305.836 2230.67C306.867 2393.93 268.856 2479.23 268.608 2642.47C268.341 2817.77 310.138 3086.26 310.138 3086.26" stroke="white" stroke-width="5.21744"/>
<path d="M662.591 1335.74C662.591 1335.74 731.638 1520.91 738.08 1671.76C747.622 1895.17 660.782 2006.36 659.365 2230.67C658.334 2393.94 696.345 2479.23 696.593 2642.47C696.86 2817.77 655.063 3086.26 655.063 3086.26" stroke="white" stroke-width="5.21744"/>
<rect x="289.544" y="1150.52" width="396.526" height="36.5221" rx="18.2611" fill="#D9D9D9"/>
</svg>
