<svg width="1298" height="3435" viewBox="0 0 1298 3435" fill="none" xmlns="http://www.w3.org/2000/svg">
<path d="M538.241 448.497H709.374C709.374 448.497 702.273 488.021 709.374 511.957C716.333 535.416 734.545 565.961 734.545 565.961H518.656C518.656 565.961 534.156 533.843 538.241 511.957C542.803 487.52 538.241 448.497 538.241 448.497Z" fill="#FFC69D"/>
<path d="M374.376 328.79C432.642 255.612 523.072 328.787 523.072 328.787C523.072 328.787 473.906 527.161 463.072 611.366C447.939 728.985 290.896 701.307 290.896 701.307C290.896 701.307 354.764 650.545 361.332 611.366C382.92 482.585 277.853 450.014 374.376 328.79Z" fill="black"/>
<path d="M537.086 437.817H708.217V501.226C708.217 501.226 654.25 514.778 619.229 512.253C585.549 509.825 537.086 490.198 537.086 490.198V437.817Z" fill="black"/>
<path d="M459.012 218.088C461.273 139.065 525.985 76.1787 605.04 76.1787H648.626C728.15 76.1787 793.066 139.787 794.684 219.295L797.868 375.754C798.592 411.335 779.219 444.521 746.203 457.803C712.405 471.4 668.366 485.794 632.64 486.188C595.116 486.602 546.15 471.52 508.794 457.438C474.191 444.393 453.518 410.034 454.576 373.069L459.012 218.088Z" fill="#FFC69D"/>
<path d="M675.087 413.447C675.087 413.447 668.95 411.122 665.367 404.15C661.589 396.8 661.538 390.274 661.538 390.274" stroke="black" stroke-width="5.21744" stroke-linecap="round"/>
<path d="M573.946 413.87C573.946 413.87 580.083 411.545 583.667 404.572C587.444 397.222 587.495 390.697 587.495 390.697" stroke="black" stroke-width="5.21744" stroke-linecap="round"/>
<path d="M579.212 462.378C579.212 462.378 603.866 477.497 630.353 474.633C658.272 471.614 671.117 461.995 671.117 461.995" stroke="black" stroke-width="5.21744" stroke-linecap="round"/>
<ellipse cx="559.595" cy="285.151" rx="10.4349" ry="23.807" fill="black"/>
<ellipse cx="690.032" cy="285.151" rx="10.4349" ry="23.807" fill="black"/>
<path d="M590.899 404.186C590.899 404.186 612.219 414.334 624.813 414.766C639.391 415.268 658.726 404.186 658.726 404.186" stroke="black" stroke-width="5.21744" stroke-linecap="round"/>
<path d="M618.12 314.766C618.12 314.766 608.658 331.354 606.918 344.009C604.904 358.659 621.761 359.994 621.761 359.994" stroke="black" stroke-width="5.21744" stroke-linecap="round"/>
<path d="M679.597 237.537C679.597 237.537 689.644 234.892 697.858 234.892C706.071 234.892 721.336 237.537 721.336 237.537" stroke="black" stroke-width="5.21744" stroke-linecap="round"/>
<path d="M570.03 237.537C570.03 237.537 559.983 234.892 551.769 234.892C543.556 234.892 528.291 237.537 528.291 237.537" stroke="black" stroke-width="5.21744" stroke-linecap="round"/>
<ellipse cx="723.945" cy="351.282" rx="44.3483" ry="31.7427" fill="#FFB987"/>
<ellipse cx="525.681" cy="351.282" rx="44.3483" ry="31.7427" fill="#FFB987"/>
<path d="M439.595 121.147C518.139 -39.9917 746.105 -40.7712 823.078 121.145C869.443 218.676 823.078 319.538 823.078 319.538L794.382 271.924C794.382 271.924 718.912 104.545 627.423 105.275C536.658 106 463.074 271.924 463.074 271.924L439.596 319.538C439.596 319.538 400.775 200.79 439.595 121.147Z" fill="black"/>
<path d="M421.51 291.683C418.152 272.291 425.17 243.811 444.289 248.479C456.139 251.373 463.072 272.581 463.072 272.581V353.926L442.729 341.467C433.772 335.981 427.61 326.904 425.817 316.554L421.51 291.683Z" fill="#FFC69D"/>
<path d="M830.725 289.039C834.083 269.647 827.065 241.167 807.946 245.835C796.096 248.728 789.163 269.937 789.163 269.937V351.282L809.506 338.822C818.464 333.336 824.626 324.259 826.418 313.909L830.725 289.039Z" fill="#FFC69D"/>
<path d="M467.981 92.0498L632.64 100.141C632.64 100.141 604.329 168.321 558.711 197.236C521.579 220.774 444.458 229.601 444.458 229.601L434.377 221.51L467.981 92.0498Z" fill="black"/>
<path d="M792.082 92.0498L627.423 100.141C627.423 100.141 655.734 168.321 701.351 197.236C738.484 220.774 815.604 229.601 815.604 229.601L825.686 221.51L792.082 92.0498Z" fill="black"/>
<path d="M437.026 311.901C437.026 311.901 448.855 316.165 450.461 306.972C452.154 297.282 443.949 280.722 443.949 280.722" stroke="black" stroke-width="5.21744" stroke-linecap="round"/>
<path d="M814.224 311.901C814.224 311.901 802.395 316.165 800.789 306.972C799.096 297.282 807.301 280.722 807.301 280.722" stroke="black" stroke-width="5.21744" stroke-linecap="round"/>
<path d="M303.045 655.834C292.063 605.802 328.279 557.844 379.439 555.305C454.434 551.583 558.301 547.273 637.132 547.273C719.687 547.274 829.703 552.002 905.248 555.83C950.575 558.127 982.377 601.055 971.8 645.191L895.145 965.069C895.145 965.069 926.025 1012.31 920.157 1050.5C915.03 1083.87 916.208 1070.52 916.208 1070.52C916.208 1070.52 942.41 1091.88 955.699 1174.63C959.682 1199.43 946.485 1260.06 946.485 1260.06C946.485 1260.06 736.828 1332.82 642.442 1332.14C550.172 1331.48 342.823 1260.06 342.823 1260.06L337.912 1243.66C324.609 1199.22 328.219 1151.43 348.047 1109.5L363.323 1077.19C363.323 1077.19 359.091 1066.34 360.69 1051.83C362.879 1031.98 376.486 990.431 376.486 990.431L303.045 655.834Z" fill="#FFC69D"/>
<path d="M634.074 1185.31C634.074 1185.31 641.658 1195.4 641.658 1202.67C641.658 1209.93 634.074 1220.02 634.074 1220.02" stroke="black" stroke-width="2.63279" stroke-linecap="round"/>
<path d="M342.612 705.891C340.985 702.091 346.362 699.64 348.645 703.14L425.822 854.412L404.933 851.389L342.612 705.891Z" fill="black"/>
<path d="M956.956 705.891C958.584 702.091 953.207 699.64 950.923 703.14L873.747 854.412L894.636 851.389L956.956 705.891Z" fill="black"/>
<path d="M384.386 1009.12H916.21C916.21 1009.12 919.623 1017.88 920.159 1023.8C920.441 1026.92 920.159 1031.81 920.159 1031.81L386.09 1017.13L384.386 1009.12Z" fill="black"/>
<ellipse cx="913.541" cy="755.504" rx="178.997" ry="194.883" fill="#FFC69D"/>
<path d="M1069.07 658.062L877.835 728.037L973.45 1081.07C973.45 1081.07 998.803 1186.32 1016.9 1253.39C1036.02 1324.24 1069.07 1434.11 1069.07 1434.11L1207.78 1372.2C1207.78 1372.2 1205.46 1257.76 1191.98 1185.31C1179.56 1118.58 1144.59 1017.13 1144.59 1017.13C1144.59 1017.13 1134.92 887.77 1116.95 806.226C1107.56 763.65 1069.07 658.062 1069.07 658.062Z" fill="#FFC69D"/>
<path d="M1206.9 1367.65C1205.81 1364.58 1202.17 1363.03 1199.29 1364.4L1067.44 1427.25C1067.44 1427.25 1065.78 1470.94 1070.66 1498.42C1073.94 1516.94 1082.33 1540.08 1089.54 1557.86C1096.95 1576.12 1110.42 1591.64 1127.1 1603.15C1132.72 1607.03 1140.02 1602.85 1138.86 1596.4L1127.86 1535.35L1165.98 1631.58C1168.95 1639.09 1178.85 1641.5 1184.38 1636.08L1217.65 1603.48C1250.96 1570.84 1261.66 1521.9 1245.46 1476.27L1206.9 1367.65Z" fill="#FFC69D"/>
<line x1="1.31639" y1="-1.31639" x2="46.0261" y2="-1.31639" transform="matrix(0.389004 0.92698 0.970047 -0.230296 1183.21 1568.3)" stroke="black" stroke-width="2.63279" stroke-linecap="round"/>
<line x1="1.31639" y1="-1.31639" x2="46.0261" y2="-1.31639" transform="matrix(0.389004 0.92698 0.970047 -0.230296 1209.55 1538.3)" stroke="black" stroke-width="2.63279" stroke-linecap="round"/>
<path d="M1114.38 1490.89C1114.38 1490.89 1126.19 1498.15 1127.69 1508.8C1128.52 1514.71 1129.29 1529.07 1129.29 1529.07" stroke="black" stroke-width="2.63279" stroke-linecap="round"/>
<line x1="1.31639" y1="-1.31639" x2="46.0261" y2="-1.31639" transform="matrix(0.389004 0.92698 0.970047 -0.230296 1226.57 1507.24)" stroke="black" stroke-width="2.63279" stroke-linecap="round"/>
<path d="M1112.01 1068.39C1112.01 1068.39 1082.99 1069.55 1062.98 1088.02C1046.89 1102.87 1048.77 1116.64 1048.77 1116.64" stroke="black" stroke-width="5.26557" stroke-linecap="round"/>
<path d="M978.194 695.211C979.821 691.412 974.444 688.96 972.16 692.46L894.984 843.732L915.873 840.71L978.194 695.211Z" fill="black"/>
<ellipse cx="178.997" cy="194.883" rx="178.997" ry="194.883" transform="matrix(-1 0 0 1 562.744 563.291)" fill="#FFC69D"/>
<path d="M228.224 660.732L419.455 730.707L323.84 1083.74C323.84 1083.74 298.487 1188.99 280.39 1256.06C261.272 1326.91 228.225 1436.78 228.225 1436.78L89.5089 1374.87C89.5089 1374.87 91.8308 1260.43 105.31 1187.98C117.726 1121.25 152.7 1019.8 152.7 1019.8C152.7 1019.8 162.373 890.44 180.344 808.896C189.726 766.32 228.224 660.732 228.224 660.732Z" fill="#FFC69D"/>
<path d="M90.3953 1370.32C91.4846 1367.25 95.1202 1365.7 98 1367.07L229.856 1429.92C229.856 1429.92 231.514 1473.61 226.635 1501.09C223.346 1519.61 214.961 1542.75 207.75 1560.53C200.34 1578.79 186.873 1594.31 170.195 1605.82C164.567 1609.7 157.274 1605.52 158.435 1599.07L169.432 1538.02L131.315 1634.25C128.342 1641.76 118.446 1644.17 112.908 1638.75L79.6444 1606.15C46.3308 1573.51 35.6328 1524.57 51.8336 1478.94L90.3953 1370.32Z" fill="#FFC69D"/>
<line x1="1.31639" y1="-1.31639" x2="46.0261" y2="-1.31639" transform="matrix(-0.389004 0.92698 -0.970047 -0.230296 114.077 1570.97)" stroke="black" stroke-width="2.63279" stroke-linecap="round"/>
<line x1="1.31639" y1="-1.31639" x2="46.0261" y2="-1.31639" transform="matrix(-0.389004 0.92698 -0.970047 -0.230296 87.7383 1540.97)" stroke="black" stroke-width="2.63279" stroke-linecap="round"/>
<path d="M182.911 1493.56C182.911 1493.56 171.097 1500.82 169.597 1511.48C168.765 1517.39 167.994 1531.74 167.994 1531.74" stroke="black" stroke-width="2.63279" stroke-linecap="round"/>
<line x1="1.31639" y1="-1.31639" x2="46.0261" y2="-1.31639" transform="matrix(-0.389004 0.92698 -0.970047 -0.230296 70.7158 1509.9)" stroke="black" stroke-width="2.63279" stroke-linecap="round"/>
<path d="M185.278 1071.06C185.278 1071.06 214.303 1072.22 234.308 1090.69C250.401 1105.54 248.519 1119.31 248.519 1119.31" stroke="black" stroke-width="5.26557" stroke-linecap="round"/>
<path d="M318.343 687.202C316.716 683.403 322.093 680.951 324.377 684.452L401.553 835.724L380.664 832.701L318.343 687.202Z" fill="black"/>
<path d="M332.445 906.479C295.023 851.544 292.565 779.975 326.13 722.602L329.651 716.584C337.804 702.649 341.11 686.405 339.053 670.392L324.899 560.2C324.545 557.445 326.413 554.895 329.147 554.401L368.118 547.367C378.304 545.528 388.633 544.604 398.984 544.604H439.191C442.084 544.604 444.815 545.77 446.832 547.844C465.476 567.026 564.417 664.891 643.345 666.049C719.919 667.173 812.098 578.85 836.687 553.793C840.777 549.625 846.288 547.244 852.128 547.244H890.632C899.319 547.244 907.96 548.508 916.282 550.997L945.479 559.729C949.897 561.051 952.924 565.115 952.924 569.727V678.928C952.924 689.624 954.751 700.242 958.327 710.323L975.947 760C994.215 811.501 984.301 868.801 949.793 911.171L919.355 948.543L919.355 1009.44C919.355 1015.17 914.729 1019.83 908.996 1019.87L377.817 1023.73C372.407 1023.77 367.865 1019.67 367.353 1014.29L361.099 948.543L332.445 906.479Z" fill="#A9FF5E"/>
<path d="M447.207 605.66C447.207 605.66 558.211 704.134 653.967 700.887C748.697 697.674 840.164 595.079 840.164 595.079" stroke="black" stroke-width="5.21744"/>
<path d="M396.688 988.697C396.688 988.697 550.9 997.801 649.871 997.511C746.066 997.228 895.879 987.761 895.879 987.761" stroke="black" stroke-width="2.63279" stroke-linecap="round"/>
<path d="M605.977 1327.66C605.977 1327.66 635.003 1328.82 655.007 1347.29C671.1 1362.14 669.219 1375.91 669.219 1375.91" stroke="black" stroke-width="5.26557" stroke-linecap="round"/>
<path d="M360.937 3082.72L598.577 3095.89L565.565 3231.87L376.637 3236.48L360.937 3082.72Z" fill="#FFC69D"/>
<path d="M364.017 3074.59L597.512 3095.73L577.044 3180.04L370.495 3179.87L364.017 3074.59Z" fill="black"/>
<line x1="1.6314" y1="-1.6314" x2="30.9966" y2="-1.6314" transform="matrix(-0.10065 -0.994922 -0.998037 0.0626284 271.97 3413.61)" stroke="#589E19" stroke-width="3.26279" stroke-linecap="round"/>
<line x1="1.6314" y1="-1.6314" x2="30.9966" y2="-1.6314" transform="matrix(-0.10065 -0.994922 -0.998037 0.0626284 314.303 3410.96)" stroke="#589E19" stroke-width="3.26279" stroke-linecap="round"/>
<line x1="1.6314" y1="-1.6314" x2="27.5519" y2="-1.6314" transform="matrix(-0.937684 -0.388926 -0.356311 0.917893 349.12 3301.62)" stroke="#589E19" stroke-width="3.26279" stroke-linecap="round"/>
<path d="M571.32 3230.5C571.15 3228.83 569.73 3227.51 568.042 3227.46L438.776 3223.47L270.708 3322.05L239.733 3418.9L588.167 3397.04L571.32 3230.5Z" fill="#A9FF5E"/>
<path d="M584.228 3358.08L251.898 3378.94L240.063 3422.15L588.168 3397.04L584.228 3358.08Z" fill="white"/>
<line x1="1.6314" y1="-1.6314" x2="278.969" y2="-1.6314" transform="matrix(-0.998037 0.0626284 0.10065 0.994922 571.201 3358.9)" stroke="#589E19" stroke-width="3.26279" stroke-linecap="round"/>
<line x1="1.6314" y1="-1.6314" x2="30.9966" y2="-1.6314" transform="matrix(-0.10065 -0.994922 -0.998037 0.0626284 558.532 3395.63)" stroke="#589E19" stroke-width="3.26279" stroke-linecap="round"/>
<line x1="1.6314" y1="-1.6314" x2="30.9966" y2="-1.6314" transform="matrix(-0.10065 -0.994922 -0.998037 0.0626284 411.995 3404.83)" stroke="#589E19" stroke-width="3.26279" stroke-linecap="round"/>
<line x1="1.6314" y1="-1.6314" x2="30.9966" y2="-1.6314" transform="matrix(-0.10065 -0.994922 -0.998037 0.0626284 457.584 3401.96)" stroke="#589E19" stroke-width="3.26279" stroke-linecap="round"/>
<line x1="1.6314" y1="-1.6314" x2="30.9966" y2="-1.6314" transform="matrix(-0.10065 -0.994922 -0.998037 0.0626284 509.686 3398.69)" stroke="#589E19" stroke-width="3.26279" stroke-linecap="round"/>
<path d="M418.886 3197.6L294.239 3309L333.166 3321.26L457.005 3218.08L418.886 3197.6Z" fill="#E7FFDB"/>
<line x1="1.6314" y1="-1.6314" x2="27.5519" y2="-1.6314" transform="matrix(-0.937684 -0.388926 -0.356311 0.917893 376.457 3280.3)" stroke="#589E19" stroke-width="3.26279" stroke-linecap="round"/>
<line x1="1.6314" y1="-1.6314" x2="34.8478" y2="-1.6314" transform="matrix(-0.937684 -0.388926 -0.356311 0.917893 400.866 3262.44)" stroke="#589E19" stroke-width="3.26279" stroke-linecap="round"/>
<line x1="1.6314" y1="-1.6314" x2="31.9611" y2="-1.6314" transform="matrix(-0.921322 -0.42843 -0.396705 0.900133 424.946 3241.32)" stroke="#589E19" stroke-width="3.26279" stroke-linecap="round"/>
<path d="M396.183 3224.66C396.183 3224.66 378.953 3206.61 357.064 3207.98C345.797 3208.69 339.56 3218.93 349.626 3224.45C368.459 3234.8 396.183 3224.66 396.183 3224.66ZM396.183 3224.66C396.183 3224.66 371.503 3198.94 388.416 3181.05C401.958 3166.73 408.72 3190.07 406.188 3201.67C403.155 3215.55 396.183 3224.66 396.183 3224.66Z" stroke="#589E19" stroke-width="3.26279"/>
<path d="M951.976 3084.94L714.336 3098.11L747.348 3234.09L936.276 3238.7L951.976 3084.94Z" fill="#FFC69D"/>
<path d="M948.896 3076.81L715.401 3097.95L735.869 3182.26L942.418 3182.09L948.896 3076.81Z" fill="black"/>
<path d="M741.481 3233.8C741.653 3232.1 743.11 3230.77 744.823 3230.75L911.506 3228.86L1130.02 3332.01L1172.42 3431.1L724.366 3402.98L741.481 3233.8Z" fill="#A9FF5E"/>
<path d="M728.369 3363.4L1155.72 3390.22L1172.09 3434.39L724.365 3402.98L728.369 3363.4Z" fill="white"/>
<line x1="1.6314" y1="-1.6314" x2="359.199" y2="-1.6314" transform="matrix(0.998037 0.0626284 -0.10065 0.994922 745.119 3364.45)" stroke="#589E19" stroke-width="3.26279" stroke-linecap="round"/>
<line x1="1.6314" y1="-1.6314" x2="31.5143" y2="-1.6314" transform="matrix(0.10065 -0.994922 0.998037 0.0626284 762.387 3402.05)" stroke="#589E19" stroke-width="3.26279" stroke-linecap="round"/>
<line x1="1.6314" y1="-1.6314" x2="31.5143" y2="-1.6314" transform="matrix(0.10065 -0.994922 0.998037 0.0626284 950.822 3413.87)" stroke="#589E19" stroke-width="3.26279" stroke-linecap="round"/>
<line x1="1.6314" y1="-1.6314" x2="31.5143" y2="-1.6314" transform="matrix(0.10065 -0.994922 0.998037 0.0626284 892.198 3410.19)" stroke="#589E19" stroke-width="3.26279" stroke-linecap="round"/>
<line x1="1.6314" y1="-1.6314" x2="31.5143" y2="-1.6314" transform="matrix(0.10065 -0.994922 0.998037 0.0626284 825.2 3405.99)" stroke="#589E19" stroke-width="3.26279" stroke-linecap="round"/>
<path d="M936.348 3202.87L1099.44 3318.34L1049.79 3330.16L887.95 3223.07L936.348 3202.87Z" fill="#E7FFDB"/>
<line x1="1.6314" y1="-1.6314" x2="34.4582" y2="-1.6314" transform="matrix(0.965216 -0.307286 0.448673 0.874197 993.081 3287.75)" stroke="#589E19" stroke-width="3.26279" stroke-linecap="round"/>
<line x1="1.6314" y1="-1.6314" x2="43.4806" y2="-1.6314" transform="matrix(0.965216 -0.307286 0.448673 0.874197 961.248 3269.16)" stroke="#589E19" stroke-width="3.26279" stroke-linecap="round"/>
<line x1="1.6314" y1="-1.6314" x2="39.6072" y2="-1.6314" transform="matrix(0.954335 -0.34252 0.491749 0.849876 929.75 3247.27)" stroke="#589E19" stroke-width="3.26279" stroke-linecap="round"/>
<path d="M966.237 3230.8C966.237 3230.8 987.875 3212.71 1016.02 3214.48C1030.51 3215.39 1038.8 3225.91 1026.02 3231.37C1002.12 3241.58 966.237 3230.8 966.237 3230.8ZM966.237 3230.8C966.237 3230.8 997.234 3205.04 975.029 3186.55C957.249 3171.74 949.199 3195.38 952.765 3207.22C957.037 3221.4 966.237 3230.8 966.237 3230.8Z" stroke="#589E19" stroke-width="3.26279"/>
<path d="M330.248 1282.59C333.257 1277.03 339.206 1273.82 345.499 1274.43C386.658 1278.43 542.413 1292.85 648.122 1292.78C752.956 1292.71 907.522 1278.32 947.772 1274.39C953.853 1273.8 959.634 1276.78 962.743 1282.04L1049.16 1428.25L755.003 1667.29C698.375 1713.31 617.462 1714.09 559.953 1669.18L251.43 1428.25L330.248 1282.59Z" fill="#555555"/>
<path d="M250.844 1428.37L693.738 1469.63C693.738 1469.63 626.636 1902.7 618.493 2099.25C612.578 2242.03 641.662 2321.57 645.301 2464.4C651.455 2705.96 610.62 3068.36 602.15 3140.39C601.273 3147.85 594.999 3153.05 587.303 3153L370.353 3151.44C358.435 3151.36 348.414 3141.61 348.232 3129.89C347.059 3054.34 342.044 2795.17 326.436 2619.94C319.606 2543.25 305.418 2500.69 305.506 2423.81C305.573 2364.85 316.026 2332.12 318.116 2273.19C327.523 2007.91 191.806 2024.22 207.357 1670.37C214.859 1499.69 250.844 1428.37 250.844 1428.37Z" fill="#555555"/>
<path d="M1049.12 1432.4L637.892 1432.4C637.892 1432.4 675.089 1898.87 683.036 2094.96C688.808 2237.4 660.426 2316.75 656.875 2459.24C650.985 2695.59 689.199 3047.87 698.472 3129.15C699.61 3139.13 708.004 3146.25 718.287 3146.17L930.117 3144.62C939.056 3144.55 946.569 3137.34 946.696 3128.55C947.679 3060.99 952.428 2793.67 968.047 2614.41C974.712 2537.91 988.557 2495.45 988.472 2418.74C988.406 2359.92 978.205 2327.28 976.166 2268.48C966.986 2003.84 1099.43 2020.11 1084.25 1667.09C1076.93 1496.81 1049.12 1432.4 1049.12 1432.4Z" fill="#555555"/>
<path d="M584.477 1699.19C584.477 1699.19 630.409 1711.54 657.496 1710.6C682.609 1709.72 718.359 1701.58 718.359 1701.58" stroke="white" stroke-width="5.21744" stroke-linecap="round"/>
<path d="M442.286 1335.79C442.286 1335.79 333.268 1528.85 324.973 1681.8C312.688 1908.33 424.492 2021.09 426.316 2248.53C427.644 2414.08 378.706 2500.57 378.386 2666.1C378.042 2843.85 431.855 3116.09 431.855 3116.09" stroke="white" stroke-width="5.21744"/>
<path d="M885.626 1341.08C885.626 1341.08 974.521 1528.85 982.815 1681.8C995.1 1908.33 883.297 2021.09 881.472 2248.53C880.144 2414.08 929.083 2500.57 929.402 2666.1C929.746 2843.85 875.934 3116.09 875.934 3116.09" stroke="white" stroke-width="5.21744"/>
<path d="M329.284 1267.02C329.284 1256.64 338.898 1248.91 349.051 1251.09C401.35 1262.36 546.205 1291.47 646.535 1291.47C746.865 1291.47 891.719 1262.36 944.019 1251.09C954.172 1248.91 963.786 1256.64 963.786 1267.02C963.786 1274.46 958.767 1280.91 951.522 1282.59C907.195 1292.84 752.328 1326.8 646.535 1326.8C540.742 1326.8 385.875 1292.84 341.548 1282.59C334.303 1280.91 329.284 1274.46 329.284 1267.02Z" fill="#D9D9D9"/>
<path d="M342.261 1139.93L650.297 1268.07L945.169 1139.93V1246.71C945.169 1246.71 777.676 1356.69 650.297 1358.84C518.253 1361.07 342.261 1246.71 342.261 1246.71V1139.93Z" fill="#FFC69D"/>
<path d="M846.438 1284.09C846.438 1284.09 741.656 1359.33 635.899 1359.33C531.821 1359.33 421.243 1277.42 421.243 1277.42" stroke="black" stroke-width="5.26557" stroke-linecap="round"/>
</svg>
