<svg width="1256" height="3482" viewBox="0 0 1256 3482" fill="none" xmlns="http://www.w3.org/2000/svg">
<path d="M366.534 3145.79L557.457 3158.45L530.935 3289.22L379.148 3293.65L366.534 3145.79Z" fill="#FFC69D"/>
<path d="M369.009 3137.97L556.602 3158.3L540.158 3239.37L374.214 3239.22L369.009 3137.97Z" fill="black"/>
<line x1="1.59075" y1="-1.59075" x2="30.2242" y2="-1.59075" transform="matrix(-0.0842196 -0.996447 -0.997191 0.0748982 241.385 3471.48)" stroke="#589E19" stroke-width="3.18149" stroke-linecap="round"/>
<line x1="1.59075" y1="-1.59075" x2="30.2242" y2="-1.59075" transform="matrix(-0.0842196 -0.996447 -0.997191 0.0748982 282.628 3468.38)" stroke="#589E19" stroke-width="3.18149" stroke-linecap="round"/>
<line x1="1.59075" y1="-1.59075" x2="26.8654" y2="-1.59075" transform="matrix(-0.929579 -0.378634 -0.370629 0.924745 318.256 3361.06)" stroke="#589E19" stroke-width="3.18149" stroke-linecap="round"/>
<path d="M535.646 3288.91C535.508 3287.27 534.147 3286 532.504 3285.96L406.759 3283.59L241.616 3381.97L209.928 3477.03L549.392 3451.54L535.646 3288.91Z" fill="#A9FF5E"/>
<path d="M546.176 3413.49L222.402 3437.81L210.195 3480.2L549.391 3451.54L546.176 3413.49Z" fill="white"/>
<line x1="1.59075" y1="-1.59075" x2="272.018" y2="-1.59075" transform="matrix(-0.997191 0.0748982 0.0842196 0.996447 533.485 3414.45)" stroke="#589E19" stroke-width="3.18149" stroke-linecap="round"/>
<line x1="1.59075" y1="-1.59075" x2="30.2242" y2="-1.59075" transform="matrix(-0.0842196 -0.996447 -0.997191 0.0748982 520.57 3450.51)" stroke="#589E19" stroke-width="3.18149" stroke-linecap="round"/>
<line x1="1.59075" y1="-1.59075" x2="30.2242" y2="-1.59075" transform="matrix(-0.0842196 -0.996447 -0.997191 0.0748982 377.805 3461.23)" stroke="#589E19" stroke-width="3.18149" stroke-linecap="round"/>
<line x1="1.59075" y1="-1.59075" x2="30.2242" y2="-1.59075" transform="matrix(-0.0842196 -0.996447 -0.997191 0.0748982 422.221 3457.9)" stroke="#589E19" stroke-width="3.18149" stroke-linecap="round"/>
<line x1="1.59075" y1="-1.59075" x2="30.2242" y2="-1.59075" transform="matrix(-0.0842196 -0.996447 -0.997191 0.0748982 472.982 3454.08)" stroke="#589E19" stroke-width="3.18149" stroke-linecap="round"/>
<path d="M387.812 3258.54L264.726 3368.93L302.416 3380.46L424.586 3278.11L387.812 3258.54Z" fill="#E7FFDB"/>
<line x1="1.59075" y1="-1.59075" x2="26.8654" y2="-1.59075" transform="matrix(-0.929579 -0.378634 -0.370629 0.924745 345.2 3339.9)" stroke="#589E19" stroke-width="3.18149" stroke-linecap="round"/>
<line x1="1.59075" y1="-1.59075" x2="33.9794" y2="-1.59075" transform="matrix(-0.929579 -0.378634 -0.370629 0.924745 369.24 3322.14)" stroke="#589E19" stroke-width="3.18149" stroke-linecap="round"/>
<line x1="1.59075" y1="-1.59075" x2="31.1647" y2="-1.59075" transform="matrix(-0.912603 -0.418445 -0.410658 0.907425 393.014 3301.21)" stroke="#589E19" stroke-width="3.18149" stroke-linecap="round"/>
<path d="M365.285 3285.26C365.285 3285.26 348.803 3267.82 327.477 3269.42C316.5 3270.24 310.267 3280.32 319.977 3285.61C338.141 3295.5 365.285 3285.26 365.285 3285.26ZM365.285 3285.26C365.285 3285.26 341.675 3260.41 358.42 3242.72C371.828 3228.55 378.037 3251.29 375.388 3262.66C372.216 3276.27 365.285 3285.26 365.285 3285.26Z" stroke="#589E19" stroke-width="3.18149"/>
<path d="M894.554 3145.79L703.631 3158.45L730.153 3289.22L881.94 3293.65L894.554 3145.79Z" fill="#FFC69D"/>
<path d="M892.078 3137.97L704.485 3158.3L720.929 3239.37L886.873 3239.22L892.078 3137.97Z" fill="black"/>
<path d="M725.438 3288.95C725.577 3287.3 726.948 3286.03 728.597 3286L862.039 3284.19L1037.59 3383.38L1071.66 3478.66L711.688 3451.63L725.438 3288.95Z" fill="#A9FF5E"/>
<path d="M714.906 3413.57L1058.24 3439.36L1071.4 3481.84L711.69 3451.63L714.906 3413.57Z" fill="white"/>
<line x1="1.59075" y1="-1.59075" x2="288.551" y2="-1.59075" transform="matrix(0.997191 0.0748982 -0.0842196 0.996447 728.365 3414.58)" stroke="#589E19" stroke-width="3.18149" stroke-linecap="round"/>
<line x1="1.59075" y1="-1.59075" x2="30.2375" y2="-1.59075" transform="matrix(0.0842196 -0.996447 0.997191 0.0748982 742.235 3450.73)" stroke="#589E19" stroke-width="3.18149" stroke-linecap="round"/>
<line x1="1.59075" y1="-1.59075" x2="30.2375" y2="-1.59075" transform="matrix(0.0842196 -0.996447 0.997191 0.0748982 893.627 3462.1)" stroke="#589E19" stroke-width="3.18149" stroke-linecap="round"/>
<line x1="1.59075" y1="-1.59075" x2="30.2375" y2="-1.59075" transform="matrix(0.0842196 -0.996447 0.997191 0.0748982 846.527 3458.56)" stroke="#589E19" stroke-width="3.18149" stroke-linecap="round"/>
<line x1="1.59075" y1="-1.59075" x2="30.2375" y2="-1.59075" transform="matrix(0.0842196 -0.996447 0.997191 0.0748982 792.699 3454.52)" stroke="#589E19" stroke-width="3.18149" stroke-linecap="round"/>
<path d="M881.998 3259.2L1013.03 3370.23L973.136 3381.6L843.115 3278.62L881.998 3259.2Z" fill="#E7FFDB"/>
<line x1="1.59075" y1="-1.59075" x2="28.2511" y2="-1.59075" transform="matrix(0.937822 -0.35736 0.392567 0.915507 927.578 3340.82)" stroke="#589E19" stroke-width="3.18149" stroke-linecap="round"/>
<line x1="1.59075" y1="-1.59075" x2="35.7115" y2="-1.59075" transform="matrix(0.937822 -0.35736 0.392567 0.915507 902.005 3322.94)" stroke="#589E19" stroke-width="3.18149" stroke-linecap="round"/>
<line x1="1.59075" y1="-1.59075" x2="32.6904" y2="-1.59075" transform="matrix(0.922332 -0.396224 0.433445 0.896632 876.698 3301.89)" stroke="#589E19" stroke-width="3.18149" stroke-linecap="round"/>
<path d="M906.013 3286.05C906.013 3286.05 923.397 3268.66 946.011 3270.36C957.652 3271.23 964.31 3281.35 954.044 3286.6C934.839 3296.41 906.013 3286.05 906.013 3286.05ZM906.013 3286.05C906.013 3286.05 930.916 3261.28 913.076 3243.5C898.792 3229.26 892.324 3251.99 895.189 3263.38C898.621 3277.02 906.013 3286.05 906.013 3286.05Z" stroke="#589E19" stroke-width="3.18149"/>
<path d="M360 670.152C360 670.152 526.634 586.944 633.578 587.02C739.831 587.095 899.626 652.448 899.626 652.448L863.739 1292.47L902.973 1467.55H360.837L404.529 1292.47L360 670.152Z" fill="#FFC69D"/>
<path d="M339.55 1512.29L635.744 1794.17C635.744 1794.17 629.892 2000.08 619.342 2114.52C608.793 2228.97 581.715 2380.29 581.715 2380.29C581.715 2380.29 600.578 2630.56 597.152 2791.03C593.793 2948.33 565.314 3192.82 565.314 3192.82H360.776C360.776 3192.82 333.351 2850.37 339.55 2630.85C343.099 2505.2 360.776 2309.6 360.776 2309.6C360.776 2309.6 317.814 2073.2 316.395 1920.34C314.85 1753.93 339.55 1512.29 339.55 1512.29Z" fill="#555555"/>
<path d="M932.864 1512.29L636.67 1794.17C636.67 1794.17 642.522 2000.08 653.072 2114.52C663.621 2228.97 690.699 2380.29 690.699 2380.29C690.699 2380.29 671.836 2630.56 675.262 2791.03C678.621 2948.33 707.101 3192.82 707.101 3192.82H911.638C911.638 3192.82 939.063 2850.37 932.864 2630.85C929.315 2505.2 911.638 2309.6 911.638 2309.6C911.638 2309.6 954.6 2073.2 956.019 1920.34C957.565 1753.93 932.864 1512.29 932.864 1512.29Z" fill="#555555"/>
<rect x="356.846" y="1455.02" width="538.359" height="334.673" fill="#555555"/>
<path d="M594.878 1782.1C594.878 1782.1 627.116 1794.85 646.127 1793.88C663.753 1792.98 688.844 1784.57 688.844 1784.57" stroke="white" stroke-width="5.45964" stroke-linecap="round"/>
<path d="M440.694 1467.55C440.694 1467.55 370.29 1650.87 364.933 1796.11C357 2011.22 429.203 2118.28 430.381 2334.26C431.238 2491.46 399.634 2573.59 399.428 2730.76C399.206 2899.54 433.958 3158.06 433.958 3158.06" stroke="white" stroke-width="5.02361"/>
<path d="M844.36 1467.55C844.36 1467.55 901.769 1645.85 907.125 1791.09C915.059 2006.19 842.856 2113.26 841.678 2329.24C840.82 2486.43 872.425 2568.56 872.631 2725.74C872.853 2894.52 838.101 3153.04 838.101 3153.04" stroke="white" stroke-width="5.02361"/>
<path d="M407.023 851.3L197.15 811.183L170.002 1002.93L150.7 1189.23L115.708 1386.44L88.5607 1578.19L243.594 1611.09L284.451 1421.14L318.671 1230.24L366.166 1041.25L407.023 851.3Z" fill="#FFC69D"/>
<path d="M89.4846 1563.23C90.6013 1559.86 94.1961 1557.9 97.6274 1558.79L242.941 1596.48C242.941 1596.48 252.762 1657 249.616 1691.61C247.432 1715.64 239.41 1746.19 232.516 1769.13C225.902 1791.15 212.333 1810.46 194.632 1825.54C188.269 1830.96 178.634 1826.2 179.398 1818.01L186.486 1741.99L151.316 1863.74C148.451 1873.66 136.032 1877.3 128.503 1870.42L96.855 1841.52C50.231 1798.94 33.3097 1733 53.4135 1672.25L89.4846 1563.23Z" fill="#FFC69D"/>
<line x1="1.66714" y1="-1.66714" x2="57.0494" y2="-1.66714" transform="matrix(-0.295999 0.955188 -0.983277 -0.182117 126.908 1792.15)" stroke="black" stroke-width="3.33428" stroke-linecap="round"/>
<line x1="1.66714" y1="-1.66714" x2="57.0494" y2="-1.66714" transform="matrix(-0.295999 0.955188 -0.983277 -0.182117 93.5098 1756.79)" stroke="black" stroke-width="3.33428" stroke-linecap="round"/>
<path d="M199.837 1690.45C199.837 1690.45 186.766 1700.41 186.001 1713.79C185.577 1721.22 186.001 1739.16 186.001 1739.16" stroke="black" stroke-width="3.33428" stroke-linecap="round"/>
<line x1="1.66714" y1="-1.66714" x2="57.0494" y2="-1.66714" transform="matrix(-0.295999 0.955188 -0.983277 -0.182117 70.8584 1719.38)" stroke="black" stroke-width="3.33428" stroke-linecap="round"/>
<path d="M286.406 1115.55C286.406 1115.55 236.392 1128.12 245.338 1139.72C252.534 1149.04 289.812 1150.53 289.812 1150.53" stroke="black" stroke-width="7.26111" stroke-linecap="round"/>
<rect width="176.835" height="78.8169" transform="matrix(-0.993628 -0.112707 -0.126615 0.991952 349.826 991.981)" fill="black"/>
<path d="M848.783 848.707L1058.66 808.59L1085.8 1000.34L1105.11 1186.64L1140.1 1383.84L1167.25 1575.6L1012.21 1608.49L971.355 1418.55L937.136 1227.65L889.641 1038.65L848.783 848.707Z" fill="#FFC69D"/>
<path d="M1166.32 1560.64C1165.21 1557.27 1161.61 1555.3 1158.18 1556.19L1012.87 1593.89C1012.87 1593.89 1003.05 1654.4 1006.19 1689.02C1008.38 1713.05 1016.4 1743.59 1023.29 1766.54C1029.91 1788.56 1043.48 1807.87 1061.18 1822.95C1067.54 1828.37 1077.17 1823.61 1076.41 1815.42L1069.32 1739.4L1104.49 1861.15C1107.36 1871.07 1119.78 1874.71 1127.31 1867.83L1158.95 1838.92C1205.58 1796.34 1222.5 1730.41 1202.39 1669.65L1166.32 1560.64Z" fill="#FFC69D"/>
<line x1="1.66714" y1="-1.66714" x2="57.0494" y2="-1.66714" transform="matrix(0.295999 0.955188 0.983277 -0.182117 1128.9 1789.56)" stroke="black" stroke-width="3.33428" stroke-linecap="round"/>
<line x1="1.66714" y1="-1.66714" x2="57.0494" y2="-1.66714" transform="matrix(0.295999 0.955188 0.983277 -0.182117 1162.3 1754.2)" stroke="black" stroke-width="3.33428" stroke-linecap="round"/>
<path d="M1055.97 1687.86C1055.97 1687.86 1069.04 1697.81 1069.81 1711.2C1070.23 1718.63 1069.81 1736.57 1069.81 1736.57" stroke="black" stroke-width="3.33428" stroke-linecap="round"/>
<line x1="1.66714" y1="-1.66714" x2="57.0494" y2="-1.66714" transform="matrix(0.295999 0.955188 0.983277 -0.182117 1184.95 1716.79)" stroke="black" stroke-width="3.33428" stroke-linecap="round"/>
<path d="M969.401 1112.95C969.401 1112.95 1019.41 1125.53 1010.47 1137.12C1003.27 1146.45 965.994 1147.93 965.994 1147.93" stroke="black" stroke-width="7.26111" stroke-linecap="round"/>
<rect width="176.835" height="78.8169" transform="matrix(0.993628 -0.112707 0.126615 0.991952 905.98 989.388)" fill="black"/>
<path d="M1062.9 800.116C1060.69 785.048 1056.57 770.25 1049.56 756.603C1037.53 733.161 1016.21 696.468 994.368 682.15C918.914 632.696 746.773 601.429 746.773 601.429L925.008 1063.2L1085.11 1012.2C1090.02 1010.63 1093.04 1005.8 1092.29 1000.7L1062.9 800.116Z" fill="#A9FF5E"/>
<path d="M329.624 694.402L507.824 604.347C511.357 602.561 515.624 603.274 518.455 606.041C533.611 620.855 582.892 665.632 625.791 666.661C673.331 667.802 729.798 615.619 742.034 603.727C743.541 602.263 745.716 601.792 747.693 602.501L926.704 666.661L930.026 1110.95C930.026 1110.95 972.202 1247.21 971.479 1340.5C970.947 1409.14 944.07 1515.18 935.766 1546.34C934.274 1551.94 930.133 1556.39 924.652 1558.28C886.018 1571.53 727.391 1623.77 625.791 1624C518.441 1624.24 366.3 1569.09 335.275 1557.4C331.639 1556.03 329.007 1553.12 327.974 1549.37C321.314 1525.22 296.75 1431.49 296.333 1361.5C295.811 1273.93 329.624 1124.82 329.624 1124.82V694.402Z" fill="#A9FF5E"/>
<path d="M192.926 802.863C195.122 787.694 199.261 772.791 206.316 759.057C218.362 735.61 239.637 699.033 261.439 684.744C336.893 635.29 509.034 604.022 509.034 604.022L330.798 1065.8L170.968 1016.15C166.026 1014.62 162.972 1009.77 163.715 1004.65L192.926 802.863Z" fill="#A9FF5E"/>
<path d="M1070.72 988.426C1070.72 988.426 1019.03 1011.86 989.949 1018.73C962.094 1025.3 939.24 1023.12 939.24 1023.12" stroke="black" stroke-width="3.57939" stroke-linecap="round"/>
<path d="M359.051 1522.14C359.051 1522.14 514.858 1576.43 619.541 1576C719.799 1575.58 887.785 1522.14 887.785 1522.14" stroke="black" stroke-width="3.57939" stroke-linecap="round"/>
<path d="M430.747 1166C430.747 1166 564.964 1134.44 646.426 1134C724.445 1133.59 842.196 1166 842.196 1166" stroke="black" stroke-width="3.57939" stroke-linecap="round"/>
<path d="M187.572 994.5C187.572 994.5 220.744 1007.77 249.829 1014.63C277.684 1021.2 323.824 1023.12 323.824 1023.12" stroke="black" stroke-width="3.57939" stroke-linecap="round"/>
<path d="M258.763 788.026C257.57 784.634 262.342 782.329 264.031 785.481L329.984 942.96L312.132 939.813L258.763 788.026Z" fill="black"/>
<path d="M989.024 788.026C990.217 784.634 985.445 782.329 983.756 785.481L917.804 942.96L935.655 939.813L989.024 788.026Z" fill="black"/>
<path d="M497.644 614.76C497.644 614.76 577.698 692.07 630.539 689.927C682.182 687.833 761.536 614.76 761.536 614.76" stroke="black" stroke-width="2.68454"/>
<path d="M521.04 422H730.356V597C730.356 616.33 714.686 632 695.356 632H566.04C541.187 632 521.04 611.853 521.04 587V422Z" fill="#FFC69D"/>
<path d="M521.04 422H732.408V534.3C732.408 534.3 676.076 575.993 632.286 578.832C586.24 581.817 521.04 543.981 521.04 543.981V422Z" fill="black"/>
<path d="M458.224 197.051C458.224 167.144 472.138 138.768 497.627 123.123C532.75 101.566 584.707 74.7338 625.155 75.1723C663.455 75.5875 713.105 101.828 747.052 123.025C772.264 138.768 786.016 167.002 786.016 196.724V431.283C786.016 447.766 779.619 463.626 767.118 474.369C739.486 498.115 685.733 538.176 634.26 541.54C582.063 544.952 524.373 509.179 489.73 483.102C468.83 467.37 458.224 442.186 458.224 416.025V197.051Z" fill="#FFC69D"/>
<path d="M430.362 134.707C516 -6.72181 730.12 -6.72324 815.758 134.706C864.642 215.436 841.388 311.886 841.388 311.886L789.18 360.208C789.18 360.208 763.329 110.066 625.687 110.066C467.162 110.066 453.144 360.208 453.144 360.208L399.037 311.886C399.037 311.886 381.478 215.437 430.362 134.707Z" fill="black"/>
<path d="M404.962 327.862C400.37 303.453 409.71 268.532 433.943 273.978C449.261 277.421 458.224 302.655 458.224 302.655V399.438L439.254 388.745C423.059 379.616 411.724 363.798 408.286 345.527L404.962 327.862Z" fill="#FFC69D"/>
<path d="M839.278 327.862C843.871 303.453 834.53 268.532 810.297 273.978C794.979 277.421 786.017 302.655 786.017 302.655V399.438L804.986 388.745C821.182 379.616 832.516 363.798 835.954 345.527L839.278 327.862Z" fill="#FFC69D"/>
<ellipse cx="547.954" cy="313.197" rx="11.391" ry="23.266" fill="black"/>
<ellipse cx="696.987" cy="313.197" rx="12.3403" ry="23.266" fill="black"/>
<path d="M582.127 447.811C582.127 447.811 606.593 456.38 621.046 456.745C637.776 457.168 659.966 447.811 659.966 447.811" stroke="black" stroke-width="9.33764" stroke-linecap="round"/>
<path d="M613.093 360.565C613.093 360.565 602.323 376.64 600.343 388.904C598.051 403.1 617.237 404.395 617.237 404.395" stroke="black" stroke-width="9.33764" stroke-linecap="round"/>
<path d="M684.646 266.664C684.646 266.664 696.072 264.875 705.411 264.875C714.751 264.875 732.109 266.664 732.109 266.664" stroke="black" stroke-width="9.33764" stroke-linecap="round"/>
<path d="M559.344 266.664C559.344 266.664 547.919 264.875 538.579 264.875C529.239 264.875 511.881 266.664 511.881 266.664" stroke="black" stroke-width="9.33764" stroke-linecap="round"/>
<ellipse cx="734.957" cy="377.625" rx="50.3104" ry="30.4248" fill="#FFB987"/>
<ellipse cx="509.034" cy="377.625" rx="50.3104" ry="30.4248" fill="#FFB987"/>
<path d="M430.292 347.418C430.292 347.418 443.756 351.551 445.584 342.642C447.511 333.252 438.173 317.203 438.173 317.203" stroke="black" stroke-width="9.33764" stroke-linecap="round"/>
<path d="M815.596 344.807C815.596 344.807 802.132 348.94 800.304 340.031C798.377 330.641 807.715 314.592 807.715 314.592" stroke="black" stroke-width="9.33764" stroke-linecap="round"/>
<path d="M498.487 81.1583C498.487 81.1583 525.251 45.4148 547.935 29.8252C574.555 11.5303 592.988 4.78471 624.53 1.07875C668.003 -4.02909 693.013 9.80223 734.09 25.7186C765.417 37.8573 794.989 67.7406 827.167 77.0517C846.384 82.6119 861.102 73.9716 861.102 73.9716L835.893 109.905L850.584 174.831C855.494 196.532 852.466 219.274 842.05 238.935L835.893 250.557L798.081 232.077C798.081 232.077 775.091 216.567 763.177 203.331C752.517 191.489 739.907 169.451 739.907 169.451C739.907 169.451 738.979 180.146 738.938 187.931C738.868 201.119 746.694 220.784 746.694 220.784C746.694 220.784 716.994 205.43 701.125 191.011C689.739 180.666 674.947 161.238 674.947 161.238C674.947 161.238 673.526 176.374 674.947 185.878C676.314 195.02 681.734 208.464 681.734 208.464C681.734 208.464 589.283 195.632 547.935 156.104C522.907 132.179 498.487 81.1583 498.487 81.1583Z" fill="black"/>
<path d="M436.958 75.2812C463.829 60.6566 515.027 68.126 515.027 68.126L536.563 149.516L456.826 269.349L413.16 249.662C413.16 249.662 378.502 205.956 385.809 169.193C393.945 128.258 400.211 95.2802 436.958 75.2812Z" fill="black"/>
</svg>
