<svg width="1435" height="3474" viewBox="0 0 1435 3474" fill="none" xmlns="http://www.w3.org/2000/svg">
<path d="M401.738 3137.79L626.886 3150.45L595.609 3281.22L416.613 3285.65L401.738 3137.79Z" fill="#FFC69D"/>
<path d="M404.657 3129.97L625.878 3150.3L606.487 3231.37L410.795 3231.22L404.657 3129.97Z" fill="black"/>
<line x1="1.59075" y1="-1.59075" x2="30.2242" y2="-1.59075" transform="matrix(-0.0991796 -0.99507 -0.997978 0.0635629 309.046 3459.67)" stroke="#589E19" stroke-width="3.18149" stroke-linecap="round"/>
<line x1="1.59075" y1="-1.59075" x2="30.2242" y2="-1.59075" transform="matrix(-0.0991796 -0.99507 -0.997978 0.0635629 350.321 3457.04)" stroke="#589E19" stroke-width="3.18149" stroke-linecap="round"/>
<line x1="1.59075" y1="-1.59075" x2="26.8654" y2="-1.59075" transform="matrix(-0.936973 -0.388156 -0.3576 0.918444 384.423 3350.37)" stroke="#589E19" stroke-width="3.18149" stroke-linecap="round"/>
<path d="M601.156 3280.81C600.993 3279.18 599.611 3277.9 597.964 3277.85L471.944 3274.07L307.948 3370.37L277.612 3464.86L617.343 3443.22L601.156 3280.81Z" fill="#A9FF5E"/>
<path d="M613.556 3405.23L289.526 3425.87L277.926 3468.03L617.342 3443.22L613.556 3405.23Z" fill="white"/>
<line x1="1.59075" y1="-1.59075" x2="272.018" y2="-1.59075" transform="matrix(-0.997978 0.0635629 0.0991796 0.99507 600.855 3406.04)" stroke="#589E19" stroke-width="3.18149" stroke-linecap="round"/>
<line x1="1.59075" y1="-1.59075" x2="30.2242" y2="-1.59075" transform="matrix(-0.0991796 -0.99507 -0.997978 0.0635629 588.451 3441.88)" stroke="#589E19" stroke-width="3.18149" stroke-linecap="round"/>
<line x1="1.59075" y1="-1.59075" x2="30.2242" y2="-1.59075" transform="matrix(-0.0991796 -0.99507 -0.997978 0.0635629 445.573 3450.98)" stroke="#589E19" stroke-width="3.18149" stroke-linecap="round"/>
<line x1="1.59075" y1="-1.59075" x2="30.2242" y2="-1.59075" transform="matrix(-0.0991796 -0.99507 -0.997978 0.0635629 490.024 3448.14)" stroke="#589E19" stroke-width="3.18149" stroke-linecap="round"/>
<line x1="1.59075" y1="-1.59075" x2="30.2242" y2="-1.59075" transform="matrix(-0.0991796 -0.99507 -0.997978 0.0635629 540.826 3444.91)" stroke="#589E19" stroke-width="3.18149" stroke-linecap="round"/>
<path d="M452.589 3248.86L330.908 3357.62L368.841 3369.54L489.724 3268.8L452.589 3248.86Z" fill="#E7FFDB"/>
<line x1="1.59075" y1="-1.59075" x2="26.8654" y2="-1.59075" transform="matrix(-0.936973 -0.388156 -0.3576 0.918444 411.104 3329.56)" stroke="#589E19" stroke-width="3.18149" stroke-linecap="round"/>
<line x1="1.59075" y1="-1.59075" x2="33.9794" y2="-1.59075" transform="matrix(-0.936973 -0.388156 -0.3576 0.918444 434.927 3312.11)" stroke="#589E19" stroke-width="3.18149" stroke-linecap="round"/>
<line x1="1.59075" y1="-1.59075" x2="31.1647" y2="-1.59075" transform="matrix(-0.920556 -0.427685 -0.397962 0.900716 458.435 3291.5)" stroke="#589E19" stroke-width="3.18149" stroke-linecap="round"/>
<path d="M430.416 3275.28C430.416 3275.28 413.643 3257.68 392.301 3259.04C381.315 3259.74 375.22 3269.73 385.026 3275.11C403.372 3285.18 430.416 3275.28 430.416 3275.28ZM430.416 3275.28C430.416 3275.28 406.391 3250.21 422.906 3232.75C436.129 3218.77 442.688 3241.53 440.203 3252.84C437.226 3266.38 430.416 3275.28 430.416 3275.28Z" stroke="#589E19" stroke-width="3.18149"/>
<path d="M1024.41 3137.79L799.263 3150.45L830.54 3281.22L1009.54 3285.65L1024.41 3137.79Z" fill="#FFC69D"/>
<path d="M1021.49 3129.97L800.27 3150.3L819.662 3231.37L1015.35 3231.22L1021.49 3129.97Z" fill="black"/>
<path d="M824.977 3280.98C825.142 3279.32 826.559 3278.03 828.228 3278.01L986.069 3276.19L1193.09 3375.38L1233.27 3470.66L808.766 3443.63L824.977 3280.98Z" fill="#A9FF5E"/>
<path d="M812.561 3405.57L1217.45 3431.36L1232.96 3473.84L808.767 3443.63L812.561 3405.57Z" fill="white"/>
<line x1="1.59075" y1="-1.59075" x2="340.292" y2="-1.59075" transform="matrix(0.997978 0.0635629 -0.0991796 0.99507 828.433 3406.58)" stroke="#589E19" stroke-width="3.18149" stroke-linecap="round"/>
<line x1="1.59075" y1="-1.59075" x2="30.2816" y2="-1.59075" transform="matrix(0.0991796 -0.99507 0.997978 0.0635629 844.789 3442.73)" stroke="#589E19" stroke-width="3.18149" stroke-linecap="round"/>
<line x1="1.59075" y1="-1.59075" x2="30.2816" y2="-1.59075" transform="matrix(0.0991796 -0.99507 0.997978 0.0635629 1023.32 3454.1)" stroke="#589E19" stroke-width="3.18149" stroke-linecap="round"/>
<line x1="1.59075" y1="-1.59075" x2="30.2816" y2="-1.59075" transform="matrix(0.0991796 -0.99507 0.997978 0.0635629 967.776 3450.56)" stroke="#589E19" stroke-width="3.18149" stroke-linecap="round"/>
<line x1="1.59075" y1="-1.59075" x2="30.2816" y2="-1.59075" transform="matrix(0.0991796 -0.99507 0.997978 0.0635629 904.299 3446.52)" stroke="#589E19" stroke-width="3.18149" stroke-linecap="round"/>
<path d="M1009.61 3251.2L1164.13 3362.23L1117.08 3373.6L963.752 3270.62L1009.61 3251.2Z" fill="#E7FFDB"/>
<line x1="1.59075" y1="-1.59075" x2="32.6724" y2="-1.59075" transform="matrix(0.963226 -0.311246 0.443954 0.877963 1063.36 3332.82)" stroke="#589E19" stroke-width="3.18149" stroke-linecap="round"/>
<line x1="1.59075" y1="-1.59075" x2="41.2382" y2="-1.59075" transform="matrix(0.963226 -0.311246 0.443954 0.877963 1033.2 3314.94)" stroke="#589E19" stroke-width="3.18149" stroke-linecap="round"/>
<line x1="1.59075" y1="-1.59075" x2="37.5761" y2="-1.59075" transform="matrix(0.951993 -0.346799 0.486896 0.854095 1003.36 3293.89)" stroke="#589E19" stroke-width="3.18149" stroke-linecap="round"/>
<path d="M1037.93 3278.05C1037.93 3278.05 1058.43 3260.66 1085.09 3262.36C1098.82 3263.23 1106.67 3273.35 1094.57 3278.6C1071.92 3288.42 1037.93 3278.05 1037.93 3278.05ZM1037.93 3278.05C1037.93 3278.05 1067.29 3253.28 1046.25 3235.5C1029.41 3221.26 1021.78 3243.99 1025.16 3255.38C1029.21 3269.02 1037.93 3278.05 1037.93 3278.05Z" stroke="#589E19" stroke-width="3.18149"/>
<path d="M441 666.132C441 666.132 607.634 582.924 714.578 583C820.831 583.075 980.626 648.429 980.626 648.429L944.739 1288.45L983.973 1463.53H441.837L485.529 1288.45L441 666.132Z" fill="#FFC69D"/>
<path d="M369.916 1504.29L719.206 1786.17C719.206 1786.17 712.306 1992.08 699.865 2106.52C687.424 2220.97 655.492 2372.29 655.492 2372.29C655.492 2372.29 677.737 2622.56 673.696 2783.03C669.736 2940.33 636.151 3184.82 636.151 3184.82H394.947C394.947 3184.82 362.606 2842.37 369.917 2622.85C374.101 2497.2 394.947 2301.6 394.947 2301.6C394.947 2301.6 344.284 2065.2 342.61 1912.34C340.788 1745.93 369.916 1504.29 369.916 1504.29Z" fill="#555555"/>
<path d="M1069.59 1504.29L720.299 1786.17C720.299 1786.17 727.2 1992.08 739.641 2106.52C752.082 2220.97 784.013 2372.29 784.013 2372.29C784.013 2372.29 761.769 2622.56 765.809 2783.03C769.77 2940.33 803.355 3184.82 803.355 3184.82H1044.56C1044.56 3184.82 1076.9 2842.37 1069.59 2622.85C1065.4 2497.2 1044.56 2301.6 1044.56 2301.6C1044.56 2301.6 1095.22 2065.2 1096.9 1912.34C1098.72 1745.93 1069.59 1504.29 1069.59 1504.29Z" fill="#555555"/>
<rect x="390.312" y="1447.02" width="634.865" height="334.673" fill="#555555"/>
<path d="M671.015 1774.1C671.015 1774.1 709.031 1786.85 731.45 1785.88C752.236 1784.98 781.825 1776.57 781.825 1776.57" stroke="white" stroke-width="5.45964" stroke-linecap="round"/>
<path d="M489.191 1459.55C489.191 1459.55 406.166 1642.87 399.849 1788.11C390.494 2003.22 475.64 2110.28 477.029 2326.26C478.04 2483.46 440.771 2565.59 440.527 2722.76C440.265 2891.54 481.247 3150.06 481.247 3150.06" stroke="white" stroke-width="5.02361"/>
<path d="M965.22 1459.55C965.22 1459.55 1032.92 1637.85 1039.24 1783.09C1048.59 1998.19 963.446 2105.26 962.056 2321.24C961.045 2478.43 998.315 2560.56 998.559 2717.74C998.82 2886.52 957.838 3145.04 957.838 3145.04" stroke="white" stroke-width="5.02361"/>
<path d="M465.102 843.3L225.281 803.183L194.26 994.934L172.203 1181.23L132.218 1378.44L101.197 1570.19L278.352 1603.09L325.04 1413.14L364.142 1222.24L418.414 1033.25L465.102 843.3Z" fill="#FFC69D"/>
<path d="M102.305 1555.1C103.557 1551.79 107.219 1549.8 110.638 1550.58L277.607 1588.48C277.607 1588.48 288.829 1649 285.235 1683.61C282.883 1706.25 274.61 1734.67 267.072 1757.08C258.785 1781.71 241.786 1803.09 220.162 1819.21C213.296 1824.33 203.958 1819.76 204.816 1811.71L213.097 1733.99L172.431 1857.19C169.288 1866.71 157.18 1870.69 149.649 1864.67L107.426 1830.92C56.6639 1790.35 39.1257 1722.19 63.1192 1658.74L102.305 1555.1Z" fill="#FFC69D"/>
<line x1="1.66714" y1="-1.66714" x2="57.8306" y2="-1.66714" transform="matrix(-0.333794 0.942646 -0.987117 -0.159998 145.018 1784.15)" stroke="black" stroke-width="3.33428" stroke-linecap="round"/>
<line x1="1.66714" y1="-1.66714" x2="57.8306" y2="-1.66714" transform="matrix(-0.333794 0.942646 -0.987117 -0.159998 106.853 1748.79)" stroke="black" stroke-width="3.33428" stroke-linecap="round"/>
<path d="M228.353 1682.45C228.353 1682.45 213.416 1692.41 212.543 1705.79C212.058 1713.22 212.543 1731.16 212.543 1731.16" stroke="black" stroke-width="3.33428" stroke-linecap="round"/>
<line x1="1.66714" y1="-1.66714" x2="57.8306" y2="-1.66714" transform="matrix(-0.333794 0.942646 -0.987117 -0.159998 80.9697 1711.38)" stroke="black" stroke-width="3.33428" stroke-linecap="round"/>
<rect width="201.766" height="79.0099" transform="matrix(-0.995109 -0.09878 -0.144328 0.98953 399.743 983.981)" fill="black"/>
<path d="M969.896 840.707L1209.72 800.59L1240.74 992.341L1262.8 1178.64L1302.78 1375.84L1333.8 1567.6L1156.65 1600.49L1109.96 1410.55L1070.86 1219.65L1016.58 1030.65L969.896 840.707Z" fill="#FFC69D"/>
<path d="M1332.69 1552.51C1331.44 1549.2 1327.78 1547.21 1324.36 1547.98L1157.39 1585.89C1157.39 1585.89 1146.17 1646.4 1149.77 1681.02C1152.12 1703.66 1160.39 1732.08 1167.93 1754.49C1176.22 1779.12 1193.21 1800.5 1214.84 1816.62C1221.7 1821.74 1231.04 1817.17 1230.18 1809.12L1221.9 1731.4L1262.57 1854.6C1265.71 1864.12 1277.82 1868.09 1285.35 1862.07L1327.57 1828.33C1378.34 1787.76 1395.87 1719.6 1371.88 1656.14L1332.69 1552.51Z" fill="#FFC69D"/>
<line x1="1.66714" y1="-1.66714" x2="57.8306" y2="-1.66714" transform="matrix(0.333794 0.942646 0.987117 -0.159998 1289.98 1781.56)" stroke="black" stroke-width="3.33428" stroke-linecap="round"/>
<line x1="1.66714" y1="-1.66714" x2="57.8306" y2="-1.66714" transform="matrix(0.333794 0.942646 0.987117 -0.159998 1328.15 1746.2)" stroke="black" stroke-width="3.33428" stroke-linecap="round"/>
<path d="M1206.65 1679.86C1206.65 1679.86 1221.58 1689.81 1222.46 1703.2C1222.94 1710.63 1222.46 1728.57 1222.46 1728.57" stroke="black" stroke-width="3.33428" stroke-linecap="round"/>
<line x1="1.66714" y1="-1.66714" x2="57.8306" y2="-1.66714" transform="matrix(0.333794 0.942646 0.987117 -0.159998 1354.03 1708.79)" stroke="black" stroke-width="3.33428" stroke-linecap="round"/>
<rect width="201.766" height="79.0099" transform="matrix(0.995109 -0.09878 0.144328 0.98953 1035.26 981.388)" fill="black"/>
<path d="M1215.02 794.86C1212.2 777.991 1206.94 761.403 1197.97 746.306C1184.01 722.829 1160.42 688.009 1136.25 674.15C1050.03 624.696 853.331 593.429 853.331 593.429L1057 1055.2L1241.06 1003.89C1246.02 1002.5 1249 997.802 1248.15 992.713L1215.02 794.86Z" fill="#A9FF5E"/>
<path d="M376.659 686.402L581.71 595.717C584.976 594.273 588.765 594.88 591.469 597.212C607.564 611.1 665.114 657.612 715.086 658.661C770.073 659.816 835.512 606.335 848.406 595.309C849.846 594.078 851.782 593.685 853.589 594.252L1058.94 658.661L1062.73 1102.95C1062.73 1102.95 1110.93 1239.21 1110.1 1332.5C1109.5 1399.77 1096.1 1490.1 1091.52 1519.11C1090.59 1525.02 1086.87 1529.9 1081.38 1532.28C1036.37 1551.8 825.808 1640.27 707.5 1640.5C583.457 1640.74 393.532 1549 358.246 1531.4C354.612 1529.59 352.163 1526.12 351.632 1522.09C348.665 1499.59 339.083 1421.89 338.617 1353.5C338.021 1265.93 376.659 1116.82 376.659 1116.82V686.402Z" fill="#A9FF5E"/>
<path d="M219.997 797.626C222.807 780.644 228.081 763.94 237.121 748.748C251.09 725.273 274.635 690.572 298.744 676.744C384.965 627.29 581.668 596.022 581.668 596.022L378 1057.8L194.23 1007.84C189.244 1006.49 186.226 1001.78 187.071 996.672L219.997 797.626Z" fill="#A9FF5E"/>
<path d="M1223.5 980.426C1223.5 980.426 1164.44 1003.86 1131.21 1010.73C1099.38 1017.3 1073.26 1015.12 1073.26 1015.12" stroke="black" stroke-width="3.57939" stroke-linecap="round"/>
<path d="M454 1546C454 1546 606.956 1641.37 709.119 1641C806.962 1640.64 970 1546 970 1546" stroke="black" stroke-width="3.57939" stroke-linecap="round"/>
<path d="M492.211 1158C492.211 1158 645.579 1126.44 738.665 1126C827.816 1125.59 962.37 1158 962.37 1158" stroke="black" stroke-width="3.57939" stroke-linecap="round"/>
<path d="M214.336 986.5C214.336 986.5 252.241 999.77 285.476 1006.63C317.307 1013.2 370.03 1015.12 370.03 1015.12" stroke="black" stroke-width="3.57939" stroke-linecap="round"/>
<path d="M295.768 780.23C294.256 776.466 299.577 774.002 301.706 777.481L377.07 934.96L356.671 931.813L295.768 780.23Z" fill="black"/>
<path d="M1130.07 780.23C1131.58 776.466 1126.26 774.002 1124.13 777.481L1048.77 934.96L1069.16 931.813L1130.07 780.23Z" fill="black"/>
<path d="M568.651 606.76C568.651 606.76 660.129 684.07 720.51 681.927C779.522 679.832 870.199 606.76 870.199 606.76" stroke="black" stroke-width="2.68454"/>
<path d="M601.025 422H826.906V597C826.906 616.33 811.236 632 791.906 632H646.025C621.173 632 601.025 611.853 601.025 587V422Z" fill="#FFC69D"/>
<path d="M601.025 422H829.121V534.3C829.121 534.3 768.331 575.993 721.076 578.832C671.385 581.817 601.025 543.981 601.025 543.981V422Z" fill="black"/>
<path d="M533.237 199.227C533.237 168.101 548.322 138.753 575.366 123.347C613.274 101.752 669.58 74.7323 713.379 75.1723C754.844 75.5888 808.637 101.999 845.279 123.231C872.053 138.745 886.971 167.957 886.971 198.901V444.777C886.971 465.289 877.021 484.566 859.203 494.73C827.842 512.62 774.475 538.435 723.205 541.54C671.53 544.67 614.866 521.925 576.993 502.682C548.815 488.366 533.237 458.575 533.237 426.968V199.227Z" fill="#FFC69D"/>
<path d="M503.17 134.707C595.586 -6.72181 826.652 -6.72324 919.067 134.706C971.82 215.436 946.726 311.886 946.726 311.886L890.385 360.208C890.385 360.208 862.489 110.066 713.954 110.066C542.883 110.066 527.756 360.208 527.756 360.208L469.366 311.886C469.366 311.886 450.418 215.437 503.17 134.707Z" fill="black"/>
<path d="M476.264 330.338C471.041 304.618 481.342 268.628 507.035 273.978C523.566 277.421 533.238 302.655 533.238 302.655V399.438L510.656 387.643C494.552 379.231 483.1 364.005 479.485 346.2L476.264 330.338Z" fill="#FFC69D"/>
<path d="M943.946 330.338C949.168 304.618 938.868 268.628 913.175 273.978C896.644 277.421 886.972 302.655 886.972 302.655V399.438L909.554 387.643C925.658 379.231 937.11 364.005 940.725 346.2L943.946 330.338Z" fill="#FFC69D"/>
<ellipse cx="630.069" cy="313.197" rx="12.2925" ry="23.266" fill="black"/>
<ellipse cx="790.897" cy="313.197" rx="13.3169" ry="23.266" fill="black"/>
<path d="M666.947 447.811C666.947 447.811 693.35 456.38 708.947 456.745C727.001 457.168 750.946 447.811 750.946 447.811" stroke="black" stroke-width="9.33764" stroke-linecap="round"/>
<path d="M700.363 360.565C700.363 360.565 688.741 376.64 686.604 388.904C684.131 403.1 704.835 404.395 704.835 404.395" stroke="black" stroke-width="9.33764" stroke-linecap="round"/>
<path d="M777.58 266.664C777.58 266.664 789.909 264.875 799.988 264.875C810.067 264.875 828.799 266.664 828.799 266.664" stroke="black" stroke-width="9.33764" stroke-linecap="round"/>
<path d="M642.36 266.664C642.36 266.664 630.031 264.875 619.952 264.875C609.873 264.875 591.141 266.664 591.141 266.664" stroke="black" stroke-width="9.33764" stroke-linecap="round"/>
<ellipse cx="831.872" cy="377.625" rx="54.292" ry="30.4248" fill="#FFB987"/>
<ellipse cx="588.069" cy="377.625" rx="54.292" ry="30.4248" fill="#FFB987"/>
<path d="M503.095 347.418C503.095 347.418 517.625 351.551 519.598 342.642C521.677 333.252 511.6 317.203 511.6 317.203" stroke="black" stroke-width="9.33764" stroke-linecap="round"/>
<path d="M918.893 344.807C918.893 344.807 904.363 348.94 902.391 340.031C900.311 330.641 910.389 314.592 910.389 314.592" stroke="black" stroke-width="9.33764" stroke-linecap="round"/>
<path d="M576.688 81.1583C576.688 81.1583 605.569 45.4148 630.048 29.8252C658.775 11.5303 678.667 4.78471 712.705 1.07875C759.619 -4.02909 786.608 9.80223 830.936 25.7186C864.742 37.8573 896.654 67.7406 931.379 77.0517C952.116 82.6119 968 73.9716 968 73.9716L940.796 109.905L956.059 172.415C961.71 195.562 958.269 219.994 946.443 240.679L940.796 250.557L899.991 232.077C899.991 232.077 875.182 216.567 862.324 203.331C850.821 191.489 837.213 169.451 837.213 169.451C837.213 169.451 836.212 180.146 836.167 187.931C836.092 201.119 844.537 220.784 844.537 220.784C844.537 220.784 812.487 205.43 795.362 191.011C783.075 180.666 767.112 161.238 767.112 161.238C767.112 161.238 765.578 176.374 767.112 185.878C768.587 195.02 774.436 208.464 774.436 208.464C774.436 208.464 674.669 195.632 630.048 156.104C603.04 132.179 576.688 81.1583 576.688 81.1583Z" fill="black"/>
<path d="M510.289 75.2812C539.287 60.6566 594.536 68.126 594.536 68.126L617.777 149.516L531.73 269.349L484.608 249.662C484.608 249.662 447.207 205.956 455.092 169.193C463.872 128.258 470.634 95.2802 510.289 75.2812Z" fill="black"/>
<path d="M765.871 458.106C765.871 458.106 758.931 455.781 754.878 448.808C750.605 441.458 750.547 434.933 750.547 434.933" stroke="black" stroke-width="5.21744" stroke-linecap="round"/>
<path d="M651.482 458.529C651.482 458.529 658.423 456.204 662.476 449.231C666.748 441.881 666.806 435.356 666.806 435.356" stroke="black" stroke-width="5.21744" stroke-linecap="round"/>
<path d="M657.438 507.036C657.438 507.036 685.321 522.155 715.278 519.291C746.854 516.272 761.381 506.653 761.381 506.653" stroke="black" stroke-width="5.21744" stroke-linecap="round"/>
</svg>
