<svg width="1164" height="3482" viewBox="0 0 1164 3482" fill="none" xmlns="http://www.w3.org/2000/svg">
<path d="M328.304 3145.79L508.285 3158.45L483.282 3289.22L340.195 3293.65L328.304 3145.79Z" fill="#FFC69D"/>
<path d="M330.638 3137.97L507.479 3158.3L491.977 3239.37L335.544 3239.22L330.638 3137.97Z" fill="black"/>
<line x1="1.59075" y1="-1.59075" x2="30.2242" y2="-1.59075" transform="matrix(-0.079424 -0.996841 -0.996841 0.079424 192.805 3472.97)" stroke="#589E19" stroke-width="3.18149" stroke-linecap="round"/>
<line x1="1.59075" y1="-1.59075" x2="30.2242" y2="-1.59075" transform="matrix(-0.079424 -0.996841 -0.996841 0.079424 234.033 3469.68)" stroke="#589E19" stroke-width="3.18149" stroke-linecap="round"/>
<line x1="1.59075" y1="-1.59075" x2="26.8654" y2="-1.59075" transform="matrix(-0.927121 -0.374762 -0.374762 0.927121 270.146 3362.12)" stroke="#589E19" stroke-width="3.18149" stroke-linecap="round"/>
<path d="M487.725 3288.93C487.595 3287.29 486.241 3286.03 484.6 3286L358.955 3284.19L193.461 3383.38L161.344 3478.66L500.688 3451.63L487.725 3288.93Z" fill="#A9FF5E"/>
<path d="M497.656 3413.57L173.995 3439.36L161.596 3481.84L500.688 3451.63L497.656 3413.57Z" fill="white"/>
<line x1="1.59075" y1="-1.59075" x2="272.018" y2="-1.59075" transform="matrix(-0.996841 0.079424 0.079424 0.996841 484.969 3414.58)" stroke="#589E19" stroke-width="3.18149" stroke-linecap="round"/>
<line x1="1.59075" y1="-1.59075" x2="30.2242" y2="-1.59075" transform="matrix(-0.079424 -0.996841 -0.996841 0.079424 471.892 3450.73)" stroke="#589E19" stroke-width="3.18149" stroke-linecap="round"/>
<line x1="1.59075" y1="-1.59075" x2="30.2242" y2="-1.59075" transform="matrix(-0.079424 -0.996841 -0.996841 0.079424 329.177 3462.1)" stroke="#589E19" stroke-width="3.18149" stroke-linecap="round"/>
<line x1="1.59075" y1="-1.59075" x2="30.2242" y2="-1.59075" transform="matrix(-0.079424 -0.996841 -0.996841 0.079424 373.577 3458.56)" stroke="#589E19" stroke-width="3.18149" stroke-linecap="round"/>
<line x1="1.59075" y1="-1.59075" x2="30.2242" y2="-1.59075" transform="matrix(-0.079424 -0.996841 -0.996841 0.079424 424.321 3454.52)" stroke="#589E19" stroke-width="3.18149" stroke-linecap="round"/>
<path d="M340.14 3259.2L216.616 3370.23L254.225 3381.6L376.795 3278.62L340.14 3259.2Z" fill="#E7FFDB"/>
<line x1="1.59075" y1="-1.59075" x2="26.8654" y2="-1.59075" transform="matrix(-0.927121 -0.374762 -0.374762 0.927121 297.172 3340.82)" stroke="#589E19" stroke-width="3.18149" stroke-linecap="round"/>
<line x1="1.59075" y1="-1.59075" x2="33.9794" y2="-1.59075" transform="matrix(-0.927121 -0.374762 -0.374762 0.927121 321.28 3322.94)" stroke="#589E19" stroke-width="3.18149" stroke-linecap="round"/>
<line x1="1.59075" y1="-1.59075" x2="31.1647" y2="-1.59075" transform="matrix(-0.909967 -0.41468 -0.41468 0.909967 345.135 3301.89)" stroke="#589E19" stroke-width="3.18149" stroke-linecap="round"/>
<path d="M317.502 3286.05C317.502 3286.05 301.115 3268.66 279.796 3270.36C268.823 3271.24 262.547 3281.35 272.224 3286.6C290.329 3296.42 317.502 3286.05 317.502 3286.05ZM317.502 3286.05C317.502 3286.05 294.027 3261.28 310.844 3243.5C324.31 3229.26 330.406 3252 327.706 3263.38C324.471 3277.02 317.502 3286.05 317.502 3286.05Z" stroke="#589E19" stroke-width="3.18149"/>
<path d="M826.06 3145.79L646.079 3158.45L671.082 3289.22L814.169 3293.65L826.06 3145.79Z" fill="#FFC69D"/>
<path d="M823.726 3137.97L646.885 3158.3L662.386 3239.37L818.819 3239.22L823.726 3137.97Z" fill="black"/>
<path d="M666.64 3288.93C666.77 3287.29 668.124 3286.03 669.765 3286L795.41 3284.19L960.904 3383.38L993.021 3478.66L653.677 3451.63L666.64 3288.93Z" fill="#A9FF5E"/>
<path d="M656.708 3413.57L980.369 3439.36L992.768 3481.84L653.676 3451.63L656.708 3413.57Z" fill="white"/>
<line x1="671.108" y1="3413.12" x2="940.68" y2="3434.6" stroke="#589E19" stroke-width="3.18149" stroke-linecap="round"/>
<line x1="681.013" y1="3449.02" x2="683.287" y2="3420.47" stroke="#589E19" stroke-width="3.18149" stroke-linecap="round"/>
<line x1="823.728" y1="3460.39" x2="826.002" y2="3431.85" stroke="#589E19" stroke-width="3.18149" stroke-linecap="round"/>
<line x1="779.327" y1="3456.85" x2="781.601" y2="3428.31" stroke="#589E19" stroke-width="3.18149" stroke-linecap="round"/>
<line x1="728.584" y1="3452.81" x2="730.858" y2="3424.26" stroke="#589E19" stroke-width="3.18149" stroke-linecap="round"/>
<path d="M814.224 3259.2L937.747 3370.23L900.139 3381.6L777.569 3278.62L814.224 3259.2Z" fill="#E7FFDB"/>
<line x1="858.071" y1="3338.75" x2="881.503" y2="3329.27" stroke="#589E19" stroke-width="3.18149" stroke-linecap="round"/>
<line x1="833.963" y1="3320.87" x2="863.991" y2="3308.73" stroke="#589E19" stroke-width="3.18149" stroke-linecap="round"/>
<line x1="810.016" y1="3299.78" x2="836.928" y2="3287.52" stroke="#589E19" stroke-width="3.18149" stroke-linecap="round"/>
<path d="M836.862 3286.05C836.862 3286.05 853.249 3268.66 874.568 3270.36C885.541 3271.23 891.817 3281.35 882.14 3286.6C864.035 3296.42 836.862 3286.05 836.862 3286.05ZM836.862 3286.05C836.862 3286.05 860.338 3261.28 843.52 3243.5C830.054 3229.26 823.958 3251.99 826.659 3263.38C829.894 3277.02 836.862 3286.05 836.862 3286.05Z" stroke="#589E19" stroke-width="3.18149"/>
<path d="M322.145 670.152C322.145 670.152 479.228 586.944 580.043 587.02C680.206 587.095 830.843 652.448 830.843 652.448L797.013 1292.47L833.998 1467.55H322.934L364.121 1292.47L322.145 670.152Z" fill="#FFC69D"/>
<path d="M302.513 1512.29L577.232 1794.17C577.232 1794.17 571.804 2000.08 562.02 2114.52C552.235 2228.97 527.121 2380.29 527.121 2380.29C527.121 2380.29 544.616 2630.56 541.438 2791.03C538.323 2948.33 511.908 3192.82 511.908 3192.82H322.2C322.2 3192.82 296.764 2850.37 302.514 2630.85C305.805 2505.2 322.2 2309.6 322.2 2309.6C322.2 2309.6 282.354 2073.2 281.037 1920.34C279.604 1753.93 302.513 1512.29 302.513 1512.29Z" fill="#555555"/>
<path d="M852.809 1512.29L578.09 1794.17C578.09 1794.17 583.518 2000.08 593.303 2114.52C603.088 2228.97 628.202 2380.29 628.202 2380.29C628.202 2380.29 610.706 2630.56 613.884 2791.03C616.999 2948.33 643.414 3192.82 643.414 3192.82H833.122C833.122 3192.82 858.558 2850.37 852.808 2630.85C849.517 2505.2 833.122 2309.6 833.122 2309.6C833.122 2309.6 872.969 2073.2 874.285 1920.34C875.718 1753.93 852.809 1512.29 852.809 1512.29Z" fill="#555555"/>
<rect x="318.556" y="1455.02" width="499.325" height="334.673" fill="#555555"/>
<path d="M539.329 1782.1C539.329 1782.1 569.229 1794.85 586.862 1793.88C603.21 1792.98 626.482 1784.57 626.482 1784.57" stroke="white" stroke-width="5.45964" stroke-linecap="round"/>
<path d="M396.324 1467.55C396.324 1467.55 331.024 1650.87 326.056 1796.11C318.698 2011.22 385.665 2118.28 386.758 2334.26C387.553 2491.46 358.241 2573.59 358.049 2730.76C357.843 2899.54 390.076 3158.06 390.076 3158.06" stroke="white" stroke-width="5.02361"/>
<path d="M770.723 1467.55C770.723 1467.55 823.969 1645.85 828.937 1791.09C836.295 2006.19 769.327 2113.26 768.235 2329.24C767.439 2486.43 796.752 2568.56 796.944 2725.74C797.15 2894.52 764.917 3153.04 764.917 3153.04" stroke="white" stroke-width="5.02361"/>
<path d="M796.83 851.379L979.246 814.39L1005.83 1005.94L1025.5 1191.94L1059.01 1389.04L1085.59 1580.59L950.892 1611.17L912.377 1421.22L879.635 1230.41L835.345 1041.33L796.83 851.379Z" fill="#FFC69D"/>
<path d="M1084.54 1562.73C1083.55 1559.55 1080.22 1557.73 1077.01 1558.62L949.433 1593.72C949.433 1593.72 940.787 1650.24 943.557 1682.56C945.527 1705.56 952.898 1734.96 959.063 1756.55C964.639 1776.08 976.077 1793.28 991.145 1806.89C996.875 1812.07 1005.98 1807.54 1005.31 1799.85L999.132 1729.61L1029.92 1842.66C1032.48 1852.09 1044.22 1855.31 1051.24 1848.51L1077.14 1823.42C1118.92 1782.94 1134.35 1722.39 1117.02 1666.86L1084.54 1562.73Z" fill="#FFC69D"/>
<line x1="1.55687" y1="-1.55687" x2="53.0078" y2="-1.55687" transform="matrix(0.280405 0.959882 0.98124 -0.192789 1051.58 1776.46)" stroke="black" stroke-width="3.11374" stroke-linecap="round"/>
<line x1="1.55687" y1="-1.55687" x2="53.0078" y2="-1.55687" transform="matrix(0.280405 0.959882 0.98124 -0.192789 1080.98 1743.43)" stroke="black" stroke-width="3.11374" stroke-linecap="round"/>
<path d="M987.379 1681.48C987.379 1681.48 998.886 1690.77 999.559 1703.28C999.932 1710.21 999.559 1726.96 999.559 1726.96" stroke="black" stroke-width="3.11374" stroke-linecap="round"/>
<line x1="1.55687" y1="-1.55687" x2="53.0078" y2="-1.55687" transform="matrix(0.280405 0.959882 0.98124 -0.192789 1100.92 1708.5)" stroke="black" stroke-width="3.11374" stroke-linecap="round"/>
<path d="M910.534 1115.63C910.534 1115.63 957.681 1128.2 949.248 1139.8C942.464 1149.12 907.323 1150.61 907.323 1150.61" stroke="black" stroke-width="7.26111" stroke-linecap="round"/>
<path d="M366.472 851.3L184.056 814.311L157.469 1005.86L137.806 1191.86L104.296 1388.96L77.7088 1580.51L212.409 1611.09L250.925 1421.14L283.666 1230.34L327.956 1041.25L366.472 851.3Z" fill="#FFC69D"/>
<path d="M78.7601 1562.65C79.7507 1559.47 83.0803 1557.66 86.2878 1558.54L213.869 1593.64C213.869 1593.64 222.514 1650.16 219.745 1682.48C217.775 1705.48 210.404 1734.88 204.238 1756.47C198.663 1776 187.225 1793.2 172.157 1806.82C166.427 1811.99 157.32 1807.46 157.996 1799.77L164.17 1729.53L133.385 1842.58C130.817 1852.01 119.077 1855.23 112.059 1848.43L86.1604 1823.34C44.3817 1782.87 28.9565 1722.31 46.2785 1666.78L78.7601 1562.65Z" fill="#FFC69D"/>
<line x1="1.55687" y1="-1.55687" x2="53.0078" y2="-1.55687" transform="matrix(-0.280405 0.959882 -0.98124 -0.192789 111.722 1776.38)" stroke="black" stroke-width="3.11374" stroke-linecap="round"/>
<line x1="1.55687" y1="-1.55687" x2="53.0078" y2="-1.55687" transform="matrix(-0.280405 0.959882 -0.98124 -0.192789 82.3198 1743.35)" stroke="black" stroke-width="3.11374" stroke-linecap="round"/>
<path d="M175.923 1681.4C175.923 1681.4 164.416 1690.7 163.743 1703.2C163.37 1710.13 163.743 1726.89 163.743 1726.89" stroke="black" stroke-width="3.11374" stroke-linecap="round"/>
<line x1="1.55687" y1="-1.55687" x2="53.0078" y2="-1.55687" transform="matrix(-0.280405 0.959882 -0.98124 -0.192789 62.3794 1708.42)" stroke="black" stroke-width="3.11374" stroke-linecap="round"/>
<path d="M252.768 1115.55C252.768 1115.55 205.621 1128.12 214.054 1139.72C220.838 1149.04 255.979 1150.53 255.979 1150.53" stroke="black" stroke-width="7.26111" stroke-linecap="round"/>
<rect width="153.914" height="78.7466" transform="matrix(-0.992839 -0.119464 -0.119464 0.992839 312.554 991.981)" fill="black"/>
<path d="M293.51 694.402L460.895 604.67C464.541 602.715 469.03 603.473 471.908 606.445C486.635 621.651 532.624 665.641 572.703 666.661C617.25 667.795 670.114 616.239 682.073 603.944C683.604 602.37 685.904 601.849 687.956 602.629L856.369 666.661L862.521 1539.33C862.585 1548.4 855.886 1556.08 846.87 1557.13C802.185 1562.32 672.131 1576.51 582.546 1576.72C486.224 1576.95 344.52 1561.24 304.433 1556.55C298.151 1555.81 293.51 1550.49 293.51 1544.17V694.402Z" fill="#A9FF5E"/>
<path d="M182.549 782.991C182.549 782.991 211.832 709.321 241.609 687.242C309.253 637.084 462.636 604.022 462.636 604.022L298.879 1066.66L131.427 1012.74C125.977 1010.99 122.863 1005.26 124.348 999.734L182.549 782.991Z" fill="#A9FF5E"/>
<rect x="846.525" y="994.063" width="153.914" height="78.7466" transform="rotate(-9.66461 846.525 994.063)" fill="black"/>
<path d="M974.488 783.492C974.488 783.492 945.204 709.823 915.428 687.744C847.784 637.586 686.348 602.232 686.348 602.232L858.158 1067.16L1035.34 1010.11L974.488 783.492Z" fill="#A9FF5E"/>
<path d="M1014.08 984.332C1014.08 984.332 965.357 1007.77 937.939 1014.63C911.681 1021.2 868.185 1023.12 868.185 1023.12" stroke="black" stroke-width="3.57939" stroke-linecap="round"/>
<path d="M321.25 1522.14C321.25 1522.14 478.493 1536.89 577.177 1536.45C671.688 1536.04 819.681 1522.14 819.681 1522.14" stroke="black" stroke-width="3.57939" stroke-linecap="round"/>
<path d="M142.149 984.332C142.149 984.332 190.869 1007.77 218.287 1014.63C244.545 1021.2 288.041 1023.12 288.041 1023.12" stroke="black" stroke-width="3.57939" stroke-linecap="round"/>
<path d="M226.684 787.949C225.611 784.711 230.153 782.465 231.675 785.481L293.848 942.96L277.02 939.813L226.684 787.949Z" fill="black"/>
<path d="M915.142 787.949C916.215 784.711 911.673 782.465 910.15 785.481L847.978 942.96L864.806 939.813L915.142 787.949Z" fill="black"/>
<path d="M451.898 614.76C451.898 614.76 527.365 692.07 577.177 689.927C625.86 687.832 700.666 614.76 700.666 614.76" stroke="black" stroke-width="2.68454"/>
<path d="M487.221 422.328H668.427V597.146C668.427 616.476 652.757 632.146 633.427 632.146H517.221C500.652 632.146 487.221 618.714 487.221 602.146V422.328Z" fill="#FFC69D"/>
<path d="M487.221 422.328H670.335V534.205C670.335 534.205 621.533 575.742 583.597 578.57C543.705 581.544 487.221 543.85 487.221 543.85V422.328Z" fill="black"/>
<path d="M414.738 195.361C414.738 166.412 427.762 138.818 452.027 123.03C485.135 101.488 534.028 74.7345 572.102 75.1723C608.162 75.587 654.896 101.764 686.895 122.947C710.879 138.824 723.743 166.271 723.743 195.034V415.157C723.743 428.492 719.549 441.511 710.983 451.731C686.918 480.442 632.572 537.943 580.685 541.54C527.593 545.222 468.473 493.062 437.12 460.619C422.031 445.005 414.738 423.843 414.738 402.13V195.361Z" fill="#FFC69D"/>
<path d="M388.473 134.707C469.203 -6.72181 671.051 -6.72324 751.781 134.706C797.863 215.436 775.943 311.886 775.943 311.886L726.726 360.208C726.726 360.208 702.357 110.066 572.604 110.066C423.164 110.066 409.95 360.208 409.95 360.208L358.944 311.886C358.944 311.886 342.391 215.437 388.473 134.707Z" fill="black"/>
<path d="M364.213 326.075C360.053 302.627 368.684 268.456 391.849 273.978C406.29 277.421 414.738 302.655 414.738 302.655V399.438L398.328 389.626C382.098 379.921 370.877 363.65 367.575 345.03L364.213 326.075Z" fill="#FFC69D"/>
<path d="M774.269 326.075C778.429 302.627 769.798 268.456 746.633 273.978C732.192 277.421 723.744 302.655 723.744 302.655V399.438L740.154 389.626C756.384 379.921 767.604 363.65 770.907 345.03L774.269 326.075Z" fill="#FFC69D"/>
<ellipse cx="499.325" cy="313.197" rx="10.7382" ry="23.266" fill="black"/>
<ellipse cx="639.816" cy="313.197" rx="11.633" ry="23.266" fill="black"/>
<path d="M531.54 447.811C531.54 447.811 554.603 456.38 568.228 456.746C584 457.169 604.917 447.811 604.917 447.811" stroke="black" stroke-width="9.33764" stroke-linecap="round"/>
<path d="M560.732 360.565C560.732 360.565 550.579 376.64 548.712 388.904C546.552 403.1 564.638 404.395 564.638 404.395" stroke="black" stroke-width="9.33764" stroke-linecap="round"/>
<path d="M628.183 266.664C628.183 266.664 638.953 264.875 647.758 264.875C656.562 264.875 672.925 266.664 672.925 266.664" stroke="black" stroke-width="9.33764" stroke-linecap="round"/>
<path d="M510.063 266.664C510.063 266.664 499.293 264.875 490.489 264.875C481.684 264.875 465.321 266.664 465.321 266.664" stroke="black" stroke-width="9.33764" stroke-linecap="round"/>
<ellipse cx="675.61" cy="377.625" rx="47.4269" ry="30.4248" fill="#FFB987"/>
<ellipse cx="462.636" cy="377.625" rx="47.4269" ry="30.4248" fill="#FFB987"/>
<path d="M388.407 347.418C388.407 347.418 401.099 351.551 402.823 342.642C404.639 333.252 395.836 317.203 395.836 317.203" stroke="black" stroke-width="9.33764" stroke-linecap="round"/>
<path d="M751.629 344.807C751.629 344.807 738.936 348.94 737.213 340.031C735.397 330.641 744.2 314.592 744.2 314.592" stroke="black" stroke-width="9.33764" stroke-linecap="round"/>
<path d="M452.694 81.1583C452.694 81.1583 477.924 45.4148 499.308 29.8252C524.402 11.5303 541.779 4.78471 571.513 1.07875C612.495 -4.02909 636.071 9.80223 674.794 25.7186C704.325 37.8573 732.202 67.7406 762.536 77.0517C780.651 82.6119 794.526 73.9716 794.526 73.9716L770.762 109.905L784.99 176.61C789.389 197.233 786.653 218.738 777.232 237.603L770.762 250.557L735.117 232.077C735.117 232.077 713.445 216.567 702.213 203.331C692.164 191.489 680.277 169.451 680.277 169.451C680.277 169.451 679.402 180.146 679.364 187.931C679.298 201.119 686.675 220.784 686.675 220.784C686.675 220.784 658.678 205.43 643.718 191.011C632.985 180.666 619.04 161.238 619.04 161.238C619.04 161.238 617.701 176.374 619.04 185.878C620.329 195.02 625.438 208.464 625.438 208.464C625.438 208.464 538.287 195.632 499.308 156.104C475.715 132.179 452.694 81.1583 452.694 81.1583Z" fill="black"/>
<path d="M394.69 75.2812C420.022 60.6566 468.285 68.126 468.285 68.126L488.587 149.516L413.42 269.349L372.257 249.662C372.257 249.662 339.585 205.956 346.473 169.193C354.143 128.258 360.05 95.2802 394.69 75.2812Z" fill="black"/>
</svg>
