<svg width="1152" height="3482" viewBox="0 0 1152 3482" fill="none" xmlns="http://www.w3.org/2000/svg">
<path d="M328.305 3145.79L508.285 3158.45L483.283 3289.22L340.195 3293.65L328.305 3145.79Z" fill="#FFC69D"/>
<path d="M330.638 3137.97L507.479 3158.3L491.978 3239.37L335.545 3239.22L330.638 3137.97Z" fill="black"/>
<line x1="1.59075" y1="-1.59075" x2="30.2242" y2="-1.59075" transform="matrix(-0.079424 -0.996841 -0.996841 0.079424 192.805 3472.97)" stroke="#589E19" stroke-width="3.18149" stroke-linecap="round"/>
<line x1="1.59075" y1="-1.59075" x2="30.2242" y2="-1.59075" transform="matrix(-0.079424 -0.996841 -0.996841 0.079424 234.033 3469.68)" stroke="#589E19" stroke-width="3.18149" stroke-linecap="round"/>
<line x1="1.59075" y1="-1.59075" x2="26.8654" y2="-1.59075" transform="matrix(-0.927121 -0.374762 -0.374762 0.927121 270.146 3362.12)" stroke="#589E19" stroke-width="3.18149" stroke-linecap="round"/>
<path d="M487.725 3288.93C487.594 3287.29 486.24 3286.03 484.599 3286L358.954 3284.19L193.461 3383.38L161.343 3478.66L500.688 3451.63L487.725 3288.93Z" fill="#A9FF5E"/>
<path d="M497.655 3413.57L173.995 3439.36L161.596 3481.84L500.688 3451.63L497.655 3413.57Z" fill="white"/>
<line x1="1.59075" y1="-1.59075" x2="272.018" y2="-1.59075" transform="matrix(-0.996841 0.079424 0.079424 0.996841 484.969 3414.58)" stroke="#589E19" stroke-width="3.18149" stroke-linecap="round"/>
<line x1="1.59075" y1="-1.59075" x2="30.2242" y2="-1.59075" transform="matrix(-0.079424 -0.996841 -0.996841 0.079424 471.893 3450.73)" stroke="#589E19" stroke-width="3.18149" stroke-linecap="round"/>
<line x1="1.59075" y1="-1.59075" x2="30.2242" y2="-1.59075" transform="matrix(-0.079424 -0.996841 -0.996841 0.079424 329.177 3462.1)" stroke="#589E19" stroke-width="3.18149" stroke-linecap="round"/>
<line x1="1.59075" y1="-1.59075" x2="30.2242" y2="-1.59075" transform="matrix(-0.079424 -0.996841 -0.996841 0.079424 373.577 3458.56)" stroke="#589E19" stroke-width="3.18149" stroke-linecap="round"/>
<line x1="1.59075" y1="-1.59075" x2="30.2242" y2="-1.59075" transform="matrix(-0.079424 -0.996841 -0.996841 0.079424 424.321 3454.52)" stroke="#589E19" stroke-width="3.18149" stroke-linecap="round"/>
<path d="M340.14 3259.2L216.616 3370.23L254.225 3381.6L376.795 3278.62L340.14 3259.2Z" fill="#E7FFDB"/>
<line x1="1.59075" y1="-1.59075" x2="26.8654" y2="-1.59075" transform="matrix(-0.927121 -0.374762 -0.374762 0.927121 297.172 3340.82)" stroke="#589E19" stroke-width="3.18149" stroke-linecap="round"/>
<line x1="1.59075" y1="-1.59075" x2="33.9794" y2="-1.59075" transform="matrix(-0.927121 -0.374762 -0.374762 0.927121 321.28 3322.94)" stroke="#589E19" stroke-width="3.18149" stroke-linecap="round"/>
<line x1="1.59075" y1="-1.59075" x2="31.1647" y2="-1.59075" transform="matrix(-0.909967 -0.41468 -0.41468 0.909967 345.135 3301.89)" stroke="#589E19" stroke-width="3.18149" stroke-linecap="round"/>
<path d="M317.502 3286.05C317.502 3286.05 301.115 3268.66 279.796 3270.36C268.823 3271.24 262.547 3281.35 272.224 3286.6C290.329 3296.42 317.502 3286.05 317.502 3286.05ZM317.502 3286.05C317.502 3286.05 294.027 3261.28 310.844 3243.5C324.31 3229.26 330.406 3252 327.706 3263.38C324.471 3277.02 317.502 3286.05 317.502 3286.05Z" stroke="#589E19" stroke-width="3.18149"/>
<path d="M826.061 3145.79L646.08 3158.45L671.083 3289.22L814.17 3293.65L826.061 3145.79Z" fill="#FFC69D"/>
<path d="M823.727 3137.97L646.886 3158.3L662.387 3239.37L818.82 3239.22L823.727 3137.97Z" fill="black"/>
<path d="M666.64 3288.93C666.77 3287.29 668.124 3286.03 669.765 3286L795.41 3284.19L960.904 3383.38L993.021 3478.66L653.677 3451.63L666.64 3288.93Z" fill="#A9FF5E"/>
<path d="M656.709 3413.57L980.369 3439.36L992.768 3481.84L653.677 3451.63L656.709 3413.57Z" fill="white"/>
<line x1="671.109" y1="3413.12" x2="940.681" y2="3434.6" stroke="#589E19" stroke-width="3.18149" stroke-linecap="round"/>
<line x1="681.013" y1="3449.02" x2="683.287" y2="3420.47" stroke="#589E19" stroke-width="3.18149" stroke-linecap="round"/>
<line x1="823.728" y1="3460.39" x2="826.002" y2="3431.85" stroke="#589E19" stroke-width="3.18149" stroke-linecap="round"/>
<line x1="779.328" y1="3456.85" x2="781.602" y2="3428.31" stroke="#589E19" stroke-width="3.18149" stroke-linecap="round"/>
<line x1="728.585" y1="3452.81" x2="730.859" y2="3424.26" stroke="#589E19" stroke-width="3.18149" stroke-linecap="round"/>
<path d="M814.224 3259.2L937.748 3370.23L900.139 3381.6L777.569 3278.62L814.224 3259.2Z" fill="#E7FFDB"/>
<line x1="858.071" y1="3338.75" x2="881.504" y2="3329.27" stroke="#589E19" stroke-width="3.18149" stroke-linecap="round"/>
<line x1="833.964" y1="3320.87" x2="863.992" y2="3308.73" stroke="#589E19" stroke-width="3.18149" stroke-linecap="round"/>
<line x1="810.016" y1="3299.78" x2="836.928" y2="3287.52" stroke="#589E19" stroke-width="3.18149" stroke-linecap="round"/>
<path d="M836.863 3286.05C836.863 3286.05 853.25 3268.66 874.569 3270.36C885.542 3271.23 891.818 3281.35 882.141 3286.6C864.036 3296.42 836.863 3286.05 836.863 3286.05ZM836.863 3286.05C836.863 3286.05 860.339 3261.28 843.521 3243.5C830.055 3229.26 823.959 3251.99 826.66 3263.38C829.895 3277.02 836.863 3286.05 836.863 3286.05Z" stroke="#589E19" stroke-width="3.18149"/>
<path d="M322.145 670.152C322.145 670.152 479.228 586.944 580.043 587.02C680.206 587.095 830.843 652.448 830.843 652.448L797.012 1292.47L833.997 1467.55H322.933L364.121 1292.47L322.145 670.152Z" fill="#FFC69D"/>
<path d="M302.513 1512.29L577.232 1794.17C577.232 1794.17 571.804 2000.08 562.02 2114.52C552.235 2228.97 527.121 2380.29 527.121 2380.29C527.121 2380.29 544.616 2630.56 541.438 2791.03C538.323 2948.33 511.908 3192.82 511.908 3192.82H322.2C322.2 3192.82 296.764 2850.37 302.514 2630.85C305.805 2505.2 322.2 2309.6 322.2 2309.6C322.2 2309.6 282.354 2073.2 281.037 1920.34C279.604 1753.93 302.513 1512.29 302.513 1512.29Z" fill="#555555"/>
<path d="M852.809 1512.29L578.09 1794.17C578.09 1794.17 583.518 2000.08 593.303 2114.52C603.088 2228.97 628.202 2380.29 628.202 2380.29C628.202 2380.29 610.706 2630.56 613.884 2791.03C616.999 2948.33 643.414 3192.82 643.414 3192.82H833.122C833.122 3192.82 858.558 2850.37 852.808 2630.85C849.517 2505.2 833.122 2309.6 833.122 2309.6C833.122 2309.6 872.969 2073.2 874.285 1920.34C875.718 1753.93 852.809 1512.29 852.809 1512.29Z" fill="#555555"/>
<rect x="318.556" y="1455.02" width="499.325" height="334.673" fill="#555555"/>
<path d="M539.329 1782.1C539.329 1782.1 569.229 1794.85 586.862 1793.88C603.21 1792.98 626.482 1784.57 626.482 1784.57" stroke="white" stroke-width="5.45964" stroke-linecap="round"/>
<path d="M396.324 1467.55C396.324 1467.55 331.025 1650.87 326.056 1796.11C318.698 2011.22 385.666 2118.28 386.759 2334.26C387.554 2491.46 358.241 2573.59 358.049 2730.76C357.844 2899.54 390.076 3158.06 390.076 3158.06" stroke="white" stroke-width="5.02361"/>
<path d="M770.723 1467.55C770.723 1467.55 823.969 1645.85 828.937 1791.09C836.295 2006.19 769.327 2113.26 768.235 2329.24C767.439 2486.43 796.752 2568.56 796.944 2725.74C797.15 2894.52 764.917 3153.04 764.917 3153.04" stroke="white" stroke-width="5.02361"/>
<path d="M785.163 849.95L967.579 812.961L1013.83 1030.65L1023.64 1190.65L1055.14 1381.65L1073.93 1579.16L939.226 1609.74L900.71 1419.79L867.969 1228.99L832.136 1128.15L785.163 849.95Z" fill="#FFC69D"/>
<path d="M1072.88 1561.3C1071.89 1558.12 1068.56 1556.31 1065.35 1557.19L937.767 1592.29C937.767 1592.29 929.121 1648.81 931.891 1681.13C933.861 1704.13 941.232 1733.53 947.397 1755.12C952.973 1774.65 964.411 1791.85 979.479 1805.47C985.209 1810.64 994.316 1806.11 993.639 1798.42L987.466 1728.18L1018.25 1841.23C1020.82 1850.66 1032.56 1853.88 1039.58 1847.08L1065.48 1821.99C1107.25 1781.52 1122.68 1720.96 1105.36 1665.43L1072.88 1561.3Z" fill="#FFC69D"/>
<line x1="1.55687" y1="-1.55687" x2="53.0078" y2="-1.55687" transform="matrix(0.280405 0.959882 0.98124 -0.192789 1039.91 1775.03)" stroke="black" stroke-width="3.11374" stroke-linecap="round"/>
<line x1="1.55687" y1="-1.55687" x2="53.0078" y2="-1.55687" transform="matrix(0.280405 0.959882 0.98124 -0.192789 1069.32 1742)" stroke="black" stroke-width="3.11374" stroke-linecap="round"/>
<path d="M975.713 1680.05C975.713 1680.05 987.22 1689.35 987.893 1701.85C988.266 1708.78 987.893 1725.54 987.893 1725.54" stroke="black" stroke-width="3.11374" stroke-linecap="round"/>
<line x1="1.55687" y1="-1.55687" x2="53.0078" y2="-1.55687" transform="matrix(0.280405 0.959882 0.98124 -0.192789 1089.26 1707.07)" stroke="black" stroke-width="3.11374" stroke-linecap="round"/>
<path d="M931.211 1149.08C931.211 1149.08 978.359 1161.65 969.925 1173.25C963.141 1182.58 928 1184.06 928 1184.06" stroke="black" stroke-width="7.26111" stroke-linecap="round"/>
<rect width="198.04" height="78.7466" transform="matrix(-0.962389 0.271677 0.271677 0.962389 997.242 957.649)" fill="black"/>
<path d="M1007.6 873.267C1018.1 824.123 1011.58 771.957 981.665 731.579C963.162 706.607 943.109 681.768 930.137 672.15C862.493 621.992 689 602.671 689 602.671L830.136 1073.15L1004.21 1017.18C1009.54 1015.47 1012.66 1009.96 1011.47 1004.5C1008.09 988.996 1001.71 958.028 999.636 935.65C998.389 922.213 1002.34 897.874 1007.6 873.267Z" fill="#A9FF5E"/>
<path d="M989.075 993C989.075 993 940.356 1016.44 912.938 1023.3C886.679 1029.87 843.183 1031.78 843.183 1031.78" stroke="black" stroke-width="3.57939" stroke-linecap="round"/>
<path d="M899.715 799.876C900.789 796.638 896.247 794.391 894.724 797.408L832.551 954.886L849.379 951.74L899.715 799.876Z" fill="black"/>
<path d="M366.472 851.3L184.056 814.311L137.807 1032L128 1192L96.5002 1383L77.709 1580.51L212.41 1611.09L250.925 1421.14L283.667 1230.34L319.5 1129.5L366.472 851.3Z" fill="#FFC69D"/>
<path d="M78.7601 1562.65C79.7507 1559.47 83.0803 1557.66 86.2878 1558.54L213.869 1593.64C213.869 1593.64 222.514 1650.16 219.745 1682.48C217.775 1705.48 210.404 1734.88 204.238 1756.47C198.663 1776 187.225 1793.2 172.157 1806.82C166.427 1811.99 157.32 1807.46 157.996 1799.77L164.17 1729.53L133.385 1842.58C130.817 1852.01 119.077 1855.23 112.059 1848.43L86.1604 1823.34C44.3817 1782.87 28.9565 1722.31 46.2785 1666.78L78.7601 1562.65Z" fill="#FFC69D"/>
<line x1="1.55687" y1="-1.55687" x2="53.0078" y2="-1.55687" transform="matrix(-0.280405 0.959882 -0.98124 -0.192789 111.722 1776.38)" stroke="black" stroke-width="3.11374" stroke-linecap="round"/>
<line x1="1.55687" y1="-1.55687" x2="53.0078" y2="-1.55687" transform="matrix(-0.280405 0.959882 -0.98124 -0.192789 82.3193 1743.35)" stroke="black" stroke-width="3.11374" stroke-linecap="round"/>
<path d="M175.923 1681.4C175.923 1681.4 164.416 1690.7 163.743 1703.2C163.37 1710.13 163.743 1726.89 163.743 1726.89" stroke="black" stroke-width="3.11374" stroke-linecap="round"/>
<line x1="1.55687" y1="-1.55687" x2="53.0078" y2="-1.55687" transform="matrix(-0.280405 0.959882 -0.98124 -0.192789 62.3789 1708.42)" stroke="black" stroke-width="3.11374" stroke-linecap="round"/>
<path d="M236.28 1151.08C236.28 1151.08 189.133 1163.65 197.566 1175.25C204.35 1184.58 239.491 1186.06 239.491 1186.06" stroke="black" stroke-width="7.26111" stroke-linecap="round"/>
<rect x="154.394" y="959" width="198.04" height="78.7466" transform="rotate(15.7641 154.394 959)" fill="black"/>
<path d="M293.51 694.402L460.894 604.67C464.54 602.715 469.03 603.473 471.908 606.445C486.635 621.651 532.623 665.641 572.702 666.661C617.25 667.795 670.114 616.239 682.072 603.944C683.603 602.37 685.904 601.849 687.956 602.629L856.369 666.661L829 1217.5L859.376 1535.03C860.285 1544.53 853.608 1553.06 844.147 1554.33C798.745 1560.45 671.313 1576.51 582.545 1576.72C487.099 1576.95 348.507 1559.21 307.409 1553.65C300.749 1552.75 296.041 1546.72 296.726 1540.03L326.5 1249.5L309 944L293.51 694.402Z" fill="#A9FF5E"/>
<path d="M143.58 888.209C129.94 842.986 127.162 793.988 148.118 751.656C164.055 719.463 183.152 685.639 197.5 675C265.144 624.842 462.636 604.022 462.636 604.022L321.501 1074.5L147.426 1018.53C142.101 1016.82 138.973 1011.31 140.166 1005.85C143.551 990.346 149.922 959.379 152 937C153.12 924.944 149.168 906.737 143.58 888.209Z" fill="#A9FF5E"/>
<path d="M129 814.5C129 814.5 138.039 870.783 143 889.5C146.964 904.452 169.538 940.061 169.538 940.061" stroke="black" stroke-width="5.26557" stroke-linecap="round"/>
<path d="M1009 803C1009 803 1013.43 847.15 1009 866C1005.46 881.059 981.681 936.237 981.681 936.237" stroke="black" stroke-width="5.26557" stroke-linecap="round"/>
<path d="M321.25 1522.14C321.25 1522.14 478.493 1536.89 577.176 1536.45C671.688 1536.04 819.68 1522.14 819.68 1522.14" stroke="black" stroke-width="3.57939" stroke-linecap="round"/>
<path d="M156.553 994C156.553 994 205.272 1017.44 232.69 1024.3C258.949 1030.87 302.445 1032.78 302.445 1032.78" stroke="black" stroke-width="3.57939" stroke-linecap="round"/>
<path d="M265.92 797.226C264.847 793.988 269.389 791.741 270.912 794.758L333.084 952.236L316.256 949.09L265.92 797.226Z" fill="black"/>
<path d="M451.898 614.76C451.898 614.76 527.365 692.07 577.177 689.927C625.86 687.832 700.666 614.76 700.666 614.76" stroke="black" stroke-width="2.68454"/>
<path d="M487.222 422.328H668.428V596.146C668.428 616.028 652.311 632.146 632.428 632.146H516.222C500.205 632.146 487.222 619.162 487.222 603.146V422.328Z" fill="#FFC69D"/>
<path d="M487.222 422.328H670.336V534.205C670.336 534.205 621.534 575.742 583.597 578.57C543.706 581.544 487.222 543.85 487.222 543.85V422.328Z" fill="black"/>
<path d="M414.739 195.361C414.739 166.412 427.763 138.818 452.028 123.03C485.136 101.488 534.029 74.7345 572.103 75.1723C608.163 75.587 654.897 101.764 686.896 122.947C710.88 138.824 723.744 166.271 723.744 195.034V415.157C723.744 428.492 719.55 441.511 710.984 451.731C686.919 480.442 632.573 537.943 580.686 541.54C527.594 545.222 468.474 493.062 437.121 460.619C422.032 445.005 414.739 423.843 414.739 402.13V195.361Z" fill="#FFC69D"/>
<path d="M388.473 134.707C469.203 -6.72181 671.051 -6.72324 751.781 134.706C797.863 215.436 775.943 311.886 775.943 311.886L726.726 360.208C726.726 360.208 702.357 110.066 572.604 110.066C423.164 110.066 409.95 360.208 409.95 360.208L358.944 311.886C358.944 311.886 342.391 215.437 388.473 134.707Z" fill="black"/>
<path d="M364.213 326.075C360.054 302.627 368.684 268.456 391.85 273.978C406.29 277.421 414.739 302.655 414.739 302.655V399.438L398.328 389.626C382.098 379.921 370.878 363.65 367.575 345.03L364.213 326.075Z" fill="#FFC69D"/>
<path d="M774.27 326.075C778.429 302.627 769.799 268.456 746.634 273.978C732.193 277.421 723.745 302.655 723.745 302.655V399.438L740.155 389.626C756.385 379.921 767.605 363.65 770.908 345.03L774.27 326.075Z" fill="#FFC69D"/>
<ellipse cx="499.325" cy="313.197" rx="10.7382" ry="23.266" fill="black"/>
<ellipse cx="639.817" cy="313.197" rx="11.633" ry="23.266" fill="black"/>
<path d="M531.54 447.811C531.54 447.811 554.604 456.38 568.229 456.746C584 457.169 604.918 447.811 604.918 447.811" stroke="black" stroke-width="9.33764" stroke-linecap="round"/>
<path d="M560.732 360.565C560.732 360.565 550.579 376.64 548.712 388.904C546.552 403.1 564.638 404.395 564.638 404.395" stroke="black" stroke-width="9.33764" stroke-linecap="round"/>
<path d="M628.184 266.664C628.184 266.664 638.954 264.875 647.758 264.875C656.563 264.875 672.926 266.664 672.926 266.664" stroke="black" stroke-width="9.33764" stroke-linecap="round"/>
<path d="M510.063 266.664C510.063 266.664 499.293 264.875 490.489 264.875C481.684 264.875 465.321 266.664 465.321 266.664" stroke="black" stroke-width="9.33764" stroke-linecap="round"/>
<ellipse cx="675.611" cy="377.625" rx="47.4269" ry="30.4248" fill="#FFB987"/>
<ellipse cx="462.637" cy="377.625" rx="47.4269" ry="30.4248" fill="#FFB987"/>
<path d="M388.407 347.418C388.407 347.418 401.1 351.551 402.823 342.642C404.64 333.252 395.836 317.203 395.836 317.203" stroke="black" stroke-width="9.33764" stroke-linecap="round"/>
<path d="M751.629 344.807C751.629 344.807 738.936 348.94 737.213 340.031C735.397 330.641 744.2 314.592 744.2 314.592" stroke="black" stroke-width="9.33764" stroke-linecap="round"/>
<path d="M452.695 81.1583C452.695 81.1583 477.925 45.4148 499.309 29.8252C524.403 11.5303 541.78 4.78471 571.514 1.07875C612.496 -4.02909 636.072 9.80223 674.795 25.7186C704.326 37.8573 732.203 67.7406 762.537 77.0517C780.652 82.6119 794.527 73.9716 794.527 73.9716L770.763 109.905L784.991 176.61C789.39 197.233 786.654 218.738 777.233 237.603L770.763 250.557L735.118 232.077C735.118 232.077 713.446 216.567 702.214 203.331C692.165 191.489 680.278 169.451 680.278 169.451C680.278 169.451 679.403 180.146 679.364 187.931C679.299 201.119 686.676 220.784 686.676 220.784C686.676 220.784 658.679 205.43 643.719 191.011C632.986 180.666 619.041 161.238 619.041 161.238C619.041 161.238 617.702 176.374 619.041 185.878C620.33 195.02 625.439 208.464 625.439 208.464C625.439 208.464 538.288 195.632 499.309 156.104C475.716 132.179 452.695 81.1583 452.695 81.1583Z" fill="black"/>
<path d="M394.691 75.2812C420.022 60.6566 468.285 68.126 468.285 68.126L488.587 149.516L413.42 269.349L372.257 249.662C372.257 249.662 339.585 205.956 346.474 169.193C354.143 128.258 360.05 95.2802 394.691 75.2812Z" fill="black"/>
<line x1="579.51" y1="1168.41" x2="579.888" y2="1351.59" stroke="black" stroke-width="2.81742" stroke-linecap="round"/>
<line x1="1.30836" y1="-1.30836" x2="159.758" y2="-1.30836" transform="matrix(-0.0152133 0.999884 -0.999705 -0.0242992 587.42 777)" stroke="black" stroke-width="2.61671" stroke-linecap="round"/>
<path d="M713.911 1397C713.911 1397 722.662 1421.72 701.793 1434.94C685.482 1445.27 636 1462.78 636 1462.78" stroke="black" stroke-width="2.70565" stroke-linecap="round"/>
<path d="M448.064 1389C448.064 1389 439.313 1413.72 460.183 1426.94C476.493 1437.27 525.976 1454.78 525.976 1454.78" stroke="black" stroke-width="2.70565" stroke-linecap="round"/>
<path d="M346.7 1027C346.7 1027 349.849 1046.28 364.242 1059.5C375.49 1069.83 387 1068 387 1068" stroke="black" stroke-width="2.70565" stroke-linecap="round"/>
<path d="M340.496 1047.32C340.496 1047.32 343.645 1066.6 358.038 1079.82C369.286 1090.15 380.796 1088.32 380.796 1088.32" stroke="black" stroke-width="2.70565" stroke-linecap="round"/>
<path d="M808.3 1029.32C808.3 1029.32 805.151 1048.6 790.758 1061.82C779.51 1072.15 768 1070.32 768 1070.32" stroke="black" stroke-width="2.70565" stroke-linecap="round"/>
<path d="M814.504 1049.63C814.504 1049.63 811.355 1068.91 796.962 1082.13C785.714 1092.47 774.204 1090.63 774.204 1090.63" stroke="black" stroke-width="2.70565" stroke-linecap="round"/>
<path d="M704.311 1180.44C704.311 1180.44 702.671 1207.69 677.293 1211.9C657.458 1215.19 602.9 1211.9 602.9 1211.9" stroke="black" stroke-width="2.81742" stroke-linecap="round"/>
<path d="M704.891 1278.43C704.891 1278.43 703.252 1305.68 677.873 1309.89C658.038 1313.18 603.48 1309.89 603.48 1309.89" stroke="black" stroke-width="2.81742" stroke-linecap="round"/>
<path d="M451.873 1180.44C451.873 1180.44 453.512 1207.69 478.891 1211.9C498.726 1215.19 553.283 1211.9 553.283 1211.9" stroke="black" stroke-width="2.81742" stroke-linecap="round"/>
<path d="M818.415 967.25C818.415 967.25 821.242 995.308 769.371 1002.4C728.83 1007.93 618.037 998.068 618.037 998.068" stroke="black" stroke-width="5.73367" stroke-linecap="round"/>
<path d="M340.569 967.022C340.569 967.022 337.742 995.081 389.613 1002.17C430.154 1007.71 540.946 997.84 540.946 997.84" stroke="black" stroke-width="5.73367" stroke-linecap="round"/>
<path d="M451.291 1278.43C451.291 1278.43 452.93 1305.68 478.309 1309.89C498.144 1313.18 552.701 1309.89 552.701 1309.89" stroke="black" stroke-width="2.81742" stroke-linecap="round"/>
</svg>
