<svg width="1027" height="3502" viewBox="0 0 1027 3502" fill="none" xmlns="http://www.w3.org/2000/svg">
<path d="M285.866 3165.79L432.883 3178.45L412.46 3309.22L295.579 3313.65L285.866 3165.79Z" fill="#FFC69D"/>
<path d="M287.772 3157.97L432.226 3178.3L419.563 3259.37L291.78 3259.22L287.772 3157.97Z" fill="black"/>
<line x1="1.59075" y1="-1.59075" x2="30.2242" y2="-1.59075" transform="matrix(-0.0794024 -0.996843 -0.996839 0.0794456 124.688 3492.97)" stroke="#589E19" stroke-width="3.18149" stroke-linecap="round"/>
<line x1="1.59075" y1="-1.59075" x2="30.2242" y2="-1.59075" transform="matrix(-0.0794024 -0.996843 -0.996839 0.0794456 165.917 3489.69)" stroke="#589E19" stroke-width="3.18149" stroke-linecap="round"/>
<line x1="1.59075" y1="-1.59075" x2="26.8654" y2="-1.59075" transform="matrix(-0.92711 -0.374743 -0.37478 0.927132 202.032 3382.13)" stroke="#589E19" stroke-width="3.18149" stroke-linecap="round"/>
<path d="M419.612 3308.93C419.482 3307.29 418.128 3306.03 416.487 3306L290.842 3304.19L125.347 3403.39L93.2277 3498.67L432.571 3471.63L419.612 3308.93Z" fill="#A9FF5E"/>
<path d="M429.54 3433.57L105.88 3459.36L93.4799 3501.84L432.571 3471.63L429.54 3433.57Z" fill="white"/>
<line x1="1.59075" y1="-1.59075" x2="272.018" y2="-1.59075" transform="matrix(-0.996839 0.0794456 0.0794024 0.996843 416.853 3434.58)" stroke="#589E19" stroke-width="3.18149" stroke-linecap="round"/>
<line x1="1.59075" y1="-1.59075" x2="30.2242" y2="-1.59075" transform="matrix(-0.0794024 -0.996843 -0.996839 0.0794456 403.775 3470.73)" stroke="#589E19" stroke-width="3.18149" stroke-linecap="round"/>
<line x1="1.59075" y1="-1.59075" x2="30.2242" y2="-1.59075" transform="matrix(-0.0794024 -0.996843 -0.996839 0.0794456 261.061 3482.11)" stroke="#589E19" stroke-width="3.18149" stroke-linecap="round"/>
<line x1="1.59075" y1="-1.59075" x2="30.2242" y2="-1.59075" transform="matrix(-0.0794024 -0.996843 -0.996839 0.0794456 305.46 3478.56)" stroke="#589E19" stroke-width="3.18149" stroke-linecap="round"/>
<line x1="1.59075" y1="-1.59075" x2="30.2242" y2="-1.59075" transform="matrix(-0.0794024 -0.996843 -0.996839 0.0794456 356.205 3474.52)" stroke="#589E19" stroke-width="3.18149" stroke-linecap="round"/>
<path d="M272.028 3279.2L148.502 3390.24L186.111 3401.6L308.682 3298.62L272.028 3279.2Z" fill="#E7FFDB"/>
<line x1="1.59075" y1="-1.59075" x2="26.8654" y2="-1.59075" transform="matrix(-0.92711 -0.374743 -0.37478 0.927132 229.059 3360.82)" stroke="#589E19" stroke-width="3.18149" stroke-linecap="round"/>
<line x1="1.59075" y1="-1.59075" x2="33.9794" y2="-1.59075" transform="matrix(-0.92711 -0.374743 -0.37478 0.927132 253.167 3342.94)" stroke="#589E19" stroke-width="3.18149" stroke-linecap="round"/>
<line x1="1.59075" y1="-1.59075" x2="31.1647" y2="-1.59075" transform="matrix(-0.909956 -0.414662 -0.414698 0.90998 277.022 3321.89)" stroke="#589E19" stroke-width="3.18149" stroke-linecap="round"/>
<path d="M249.389 3306.05C249.389 3306.05 233.002 3288.67 211.684 3290.37C200.711 3291.24 194.434 3301.36 204.111 3306.6C222.216 3316.42 249.389 3306.05 249.389 3306.05ZM249.389 3306.05C249.389 3306.05 225.914 3281.28 242.732 3263.5C256.198 3249.27 262.294 3272 259.593 3283.39C256.358 3297.02 249.389 3306.05 249.389 3306.05Z" stroke="#589E19" stroke-width="3.18149"/>
<path d="M734.987 3165.79L588.84 3178.45L609.142 3309.22L725.332 3313.65L734.987 3165.79Z" fill="#FFC69D"/>
<path d="M733.092 3157.97L589.494 3178.3L602.082 3259.37L729.108 3259.22L733.092 3157.97Z" fill="black"/>
<path d="M598.477 3308.93C598.607 3307.29 599.961 3306.03 601.602 3306L727.212 3304.19L892.66 3403.38L924.769 3498.66L585.517 3471.63L598.477 3308.93Z" fill="#A9FF5E"/>
<path d="M588.548 3433.57L912.12 3459.36L924.516 3501.84L585.517 3471.63L588.548 3433.57Z" fill="white"/>
<line x1="1.59075" y1="-1.59075" x2="271.943" y2="-1.59075" transform="matrix(0.996839 0.0794456 -0.0794024 0.996843 601.232 3434.58)" stroke="#589E19" stroke-width="3.18149" stroke-linecap="round"/>
<line x1="1.59075" y1="-1.59075" x2="30.2241" y2="-1.59075" transform="matrix(0.0794024 -0.996843 0.996839 0.0794456 614.305 3470.73)" stroke="#589E19" stroke-width="3.18149" stroke-linecap="round"/>
<line x1="1.59075" y1="-1.59075" x2="30.2241" y2="-1.59075" transform="matrix(0.0794024 -0.996843 0.996839 0.0794456 756.98 3482.1)" stroke="#589E19" stroke-width="3.18149" stroke-linecap="round"/>
<line x1="1.59075" y1="-1.59075" x2="30.2241" y2="-1.59075" transform="matrix(0.0794024 -0.996843 0.996839 0.0794456 712.592 3478.56)" stroke="#589E19" stroke-width="3.18149" stroke-linecap="round"/>
<line x1="1.59075" y1="-1.59075" x2="30.2241" y2="-1.59075" transform="matrix(0.0794024 -0.996843 0.996839 0.0794456 661.863 3474.52)" stroke="#589E19" stroke-width="3.18149" stroke-linecap="round"/>
<path d="M746.02 3279.2L869.51 3390.23L831.912 3401.6L709.375 3298.62L746.02 3279.2Z" fill="#E7FFDB"/>
<line x1="1.59075" y1="-1.59075" x2="26.8592" y2="-1.59075" transform="matrix(0.927069 -0.374844 0.37468 0.927173 788.977 3360.82)" stroke="#589E19" stroke-width="3.18149" stroke-linecap="round"/>
<line x1="1.59075" y1="-1.59075" x2="33.9717" y2="-1.59075" transform="matrix(0.927069 -0.374844 0.37468 0.927173 764.876 3342.94)" stroke="#589E19" stroke-width="3.18149" stroke-linecap="round"/>
<line x1="1.59075" y1="-1.59075" x2="31.1579" y2="-1.59075" transform="matrix(0.909908 -0.414766 0.414593 0.910027 741.026 3321.89)" stroke="#589E19" stroke-width="3.18149" stroke-linecap="round"/>
<path d="M768.653 3306.05C768.653 3306.05 785.035 3288.66 806.348 3290.36C817.318 3291.23 823.593 3301.35 813.918 3306.6C795.819 3316.41 768.653 3306.05 768.653 3306.05ZM768.653 3306.05C768.653 3306.05 792.122 3281.28 775.309 3263.5C761.847 3249.26 755.752 3271.99 758.452 3283.38C761.686 3297.02 768.653 3306.05 768.653 3306.05Z" stroke="#589E19" stroke-width="3.18149"/>
<path d="M254.077 690.152C254.077 690.152 411.117 606.944 511.905 607.02C612.04 607.095 762.636 672.448 762.636 672.448L728.815 1312.47L765.79 1487.55H254.866L296.042 1312.47L254.077 690.152Z" fill="#FFC69D"/>
<path d="M260.689 1532.45L499.864 1814.41C499.864 1814.41 495.139 2020.37 486.62 2134.85C478.101 2249.33 456.236 2400.7 456.236 2400.7C456.236 2400.7 471.468 2651.04 468.702 2811.55C465.99 2968.89 442.992 3213.45 442.992 3213.45H277.829C277.829 3213.45 255.683 2870.91 260.689 2651.33C263.555 2525.64 277.829 2329.99 277.829 2329.99C277.829 2329.99 243.137 2093.52 241.991 1940.62C240.743 1774.15 260.689 1532.45 260.689 1532.45Z" fill="#555555"/>
<path d="M755.763 1525.45L525.857 1807.41C525.857 1807.41 530.4 2013.37 538.588 2127.85C546.777 2242.33 567.794 2393.7 567.794 2393.7C567.794 2393.7 553.153 2644.04 555.812 2804.55C558.419 2961.89 580.525 3206.45 580.525 3206.45H739.287C739.287 3206.45 760.574 2863.91 755.762 2644.33C753.008 2518.64 739.287 2322.99 739.287 2322.99C739.287 2322.99 772.634 2086.52 773.736 1933.62C774.935 1767.15 755.763 1525.45 755.763 1525.45Z" fill="#555555"/>
<rect x="250.489" y="1475.02" width="499.188" height="334.673" fill="#555555"/>
<path d="M471.202 1802.1C471.202 1802.1 501.094 1814.85 518.722 1813.88C535.065 1812.98 558.331 1804.57 558.331 1804.57" stroke="white" stroke-width="5.45964" stroke-linecap="round"/>
<path d="M357.228 1488C357.228 1488 291.946 1671.32 286.979 1816.56C279.623 2031.67 346.572 2138.73 347.665 2354.71C348.46 2511.91 319.155 2594.04 318.963 2751.21C318.758 2919.99 350.981 3178.51 350.981 3178.51" stroke="white" stroke-width="5.02361"/>
<path d="M670.541 1481C670.541 1481 723.772 1659.3 728.739 1804.54C736.095 2019.64 669.146 2126.71 668.053 2342.69C667.258 2499.88 696.563 2582.01 696.754 2739.19C696.96 2907.97 664.737 3166.49 664.737 3166.49" stroke="white" stroke-width="5.02361"/>
<path d="M271.787 858.5L156.271 820L116.873 1019.5L101.346 1199L86.3811 1406.5L78.8832 1592.5L156.271 1622.59C156.271 1622.59 176.194 1511.35 187.449 1436.5C198.835 1360.78 213.942 1237.5 213.942 1237.5L246.433 1048L271.787 858.5Z" fill="#FFC69D"/>
<path d="M78.45 1579.53C79.0675 1576.19 82.1527 1574.65 85.3108 1576.12L158.502 1610.14C158.502 1610.14 163.62 1666.66 161.98 1698.98C160.577 1726.64 154.551 1763.55 150.702 1785.02C148.612 1796.68 144.368 1807.2 138.42 1816.28C134.673 1822 125.411 1816.57 125.811 1808.88L129.081 1746.03L112.052 1851.67C110.29 1862.6 97.1627 1863.18 90.7042 1852.61L83.56 1840.92C57.5353 1798.33 47.2034 1748.75 55.2599 1705.12L78.45 1579.53Z" fill="#FFC69D"/>
<line x1="1.55687" y1="-1.55687" x2="51.5961" y2="-1.55687" transform="matrix(-0.170401 0.985375 -0.949091 -0.315001 98.0332 1792.88)" stroke="black" stroke-width="3.11374" stroke-linecap="round"/>
<line x1="1.55687" y1="-1.55687" x2="51.5961" y2="-1.55687" transform="matrix(-0.170401 0.985375 -0.949091 -0.315001 80.6279 1759.85)" stroke="black" stroke-width="3.11374" stroke-linecap="round"/>
<path d="M136.039 1697.9C136.039 1697.9 129.227 1707.2 128.829 1719.7C128.608 1726.63 128.829 1743.39 128.829 1743.39" stroke="black" stroke-width="3.11374" stroke-linecap="round"/>
<line x1="1.55687" y1="-1.55687" x2="51.5961" y2="-1.55687" transform="matrix(-0.170401 0.985375 -0.949091 -0.315001 68.8237 1724.92)" stroke="black" stroke-width="3.11374" stroke-linecap="round"/>
<path d="M196.62 1132.05C196.62 1132.05 149.485 1144.62 157.916 1156.22C164.698 1165.54 199.83 1167.03 199.83 1167.03" stroke="black" stroke-width="7.26111" stroke-linecap="round"/>
<rect width="136.134" height="78.7463" transform="matrix(-0.992835 -0.119497 -0.119432 0.992842 256.389 1008.48)" fill="black"/>
<path d="M755.213 852.999L870.729 814.499L910.127 1014L925.654 1193.5L940.619 1401L948.117 1587L870.729 1617.09C870.729 1617.09 850.806 1505.85 839.551 1431C828.165 1355.28 813.058 1232 813.058 1232L780.567 1042.5L755.213 852.999Z" fill="#FFC69D"/>
<path d="M948.55 1574.03C947.932 1570.69 944.847 1569.15 941.689 1570.62L868.498 1604.64C868.498 1604.64 863.38 1661.16 865.02 1693.48C866.423 1721.14 872.449 1758.05 876.298 1779.52C878.388 1791.17 882.632 1801.7 888.58 1810.78C892.327 1816.5 901.589 1811.06 901.189 1803.38L897.919 1740.53L914.948 1846.17C916.71 1857.1 929.837 1857.68 936.296 1847.11L943.44 1835.42C969.465 1792.83 979.797 1743.25 971.74 1699.62L948.55 1574.03Z" fill="#FFC69D"/>
<line x1="1.55687" y1="-1.55687" x2="51.5961" y2="-1.55687" transform="matrix(0.170401 0.985375 0.949091 -0.315001 928.967 1787.38)" stroke="black" stroke-width="3.11374" stroke-linecap="round"/>
<line x1="1.55687" y1="-1.55687" x2="51.5961" y2="-1.55687" transform="matrix(0.170401 0.985375 0.949091 -0.315001 946.373 1754.35)" stroke="black" stroke-width="3.11374" stroke-linecap="round"/>
<path d="M890.961 1692.4C890.961 1692.4 897.773 1701.69 898.172 1714.2C898.393 1721.13 898.172 1737.88 898.172 1737.88" stroke="black" stroke-width="3.11374" stroke-linecap="round"/>
<line x1="1.55687" y1="-1.55687" x2="51.5961" y2="-1.55687" transform="matrix(0.170401 0.985375 0.949091 -0.315001 958.176 1719.42)" stroke="black" stroke-width="3.11374" stroke-linecap="round"/>
<path d="M830.38 1126.55C830.38 1126.55 877.514 1139.12 869.083 1150.72C862.301 1160.04 827.169 1161.53 827.169 1161.53" stroke="black" stroke-width="7.26111" stroke-linecap="round"/>
<rect width="136.134" height="78.7463" transform="matrix(0.992835 -0.119497 0.119432 0.992842 770.609 1002.98)" fill="black"/>
<path d="M225.45 714.402L392.786 624.671C396.432 622.716 400.923 623.474 403.801 626.447C418.526 641.654 464.5 685.641 504.566 686.661C549.1 687.795 601.948 636.242 613.905 623.945C615.436 622.371 617.738 621.849 619.79 622.63L788.155 686.661C788.155 686.661 737.238 1006.59 744.797 1212.5C749.124 1330.36 775.925 1501.23 785.088 1556.94C786.741 1566.99 779.815 1576.31 769.702 1577.51C723.787 1582.99 601.817 1596.51 514.407 1596.72C419.758 1596.94 290.715 1581.77 251.036 1576.8C244.273 1575.95 239.526 1569.96 240.253 1563.18C245.403 1515.22 263.938 1334.72 264.929 1212.5C266.51 1017.38 225.45 714.402 225.45 714.402Z" fill="#A9FF5E"/>
<path d="M137.941 797.228C137.941 797.228 167.217 723.558 196.985 701.479C264.61 651.321 395.392 623.5 395.392 623.5L254.24 1080.89L86.8357 1026.98C81.3861 1025.22 78.2715 1019.5 79.7559 1013.97L137.941 797.228Z" fill="#A9FF5E"/>
<path d="M887.899 794.991C887.899 794.991 858.623 721.322 828.855 699.243C761.229 649.085 620.332 623 620.332 623L771.6 1078.66L948.734 1021.61L887.899 794.991Z" fill="#A9FF5E"/>
<path d="M927.476 995.832C927.476 995.832 878.769 1019.27 851.359 1026.13C825.107 1032.7 781.623 1034.62 781.623 1034.62" stroke="black" stroke-width="3.57939" stroke-linecap="round"/>
<path d="M253.183 1542.14C253.183 1542.14 410.382 1556.89 509.039 1556.45C603.525 1556.04 751.476 1542.14 751.476 1542.14" stroke="black" stroke-width="3.57939" stroke-linecap="round"/>
<path d="M104.121 1001.33C104.121 1001.33 152.827 1024.77 180.237 1031.63C206.489 1038.2 249.973 1040.12 249.973 1040.12" stroke="black" stroke-width="3.57939" stroke-linecap="round"/>
<path d="M183.871 799.226C182.798 795.989 187.339 793.742 188.861 796.758L251.017 954.237L234.193 951.09L183.871 799.226Z" fill="black"/>
<path d="M818.941 799.226C820.014 795.989 815.473 793.742 813.951 796.758L751.795 954.237L768.619 951.09L818.941 799.226Z" fill="black"/>
<path d="M383.794 634.76C383.794 634.76 459.24 712.07 509.039 709.927C557.709 707.832 632.494 634.76 632.494 634.76" stroke="black" stroke-width="2.68454"/>
<rect x="417.432" y="422.328" width="172.007" height="209.818" fill="#FFC69D"/>
<path d="M417.432 422.328H591.249V534.205C591.249 534.205 544.925 575.742 508.915 578.57C471.049 581.544 417.432 543.85 417.432 543.85V422.328Z" fill="black"/>
<path d="M348.629 193.871C348.629 165.774 360.881 138.89 384.057 123.007C415.484 101.47 461.875 74.7346 498.003 75.1723C532.229 75.5869 576.584 101.758 606.958 122.94C629.849 138.904 641.946 165.636 641.946 193.544V416.01C641.946 428.817 638.08 441.345 630.117 451.374C607.419 479.963 555.609 537.928 506.151 541.54C455.52 545.239 399.113 492.576 369.461 460.168C355.362 444.758 348.629 424.366 348.629 403.479V193.871Z" fill="#FFC69D"/>
<path d="M323.697 134.707C400.329 -6.72181 591.929 -6.72324 668.561 134.706C712.303 215.436 691.496 311.886 691.496 311.886L644.778 360.208C644.778 360.208 621.646 110.066 498.48 110.066C356.627 110.066 344.084 360.208 344.084 360.208L295.667 311.886C295.667 311.886 279.955 215.437 323.697 134.707Z" fill="black"/>
<path d="M300.418 324.589C296.606 301.949 304.634 268.386 326.901 273.978C340.609 277.421 348.629 302.655 348.629 302.655V399.438L334.31 390.419C318.077 380.193 306.974 363.529 303.789 344.609L300.418 324.589Z" fill="#FFC69D"/>
<path d="M690.158 324.589C693.97 301.949 685.942 268.386 663.674 273.978C649.967 277.421 641.947 302.655 641.947 302.655V399.438L656.265 390.419C672.499 380.193 683.602 363.529 686.787 344.609L690.158 324.589Z" fill="#FFC69D"/>
<ellipse cx="421.886" cy="313" rx="10.997" ry="23" fill="black"/>
<ellipse cx="566.846" cy="313" rx="11.9967" ry="23" fill="black"/>
<path d="M459.5 447.811C459.5 447.811 481.393 456.38 494.326 456.745C509.297 457.168 529.152 447.811 529.152 447.811" stroke="black" stroke-width="9.33764" stroke-linecap="round"/>
<path d="M487.21 360.565C487.21 360.565 477.572 376.64 475.8 388.904C473.75 403.1 490.918 404.395 490.918 404.395" stroke="black" stroke-width="9.33764" stroke-linecap="round"/>
<path d="M554.849 267C554.849 267 565.919 265 574.969 265C584.018 265 600.837 267 600.837 267" stroke="black" stroke-width="9.33764" stroke-linecap="round"/>
<path d="M432.882 267C432.882 267 421.812 265 412.763 265C403.713 265 386.895 267 386.895 267" stroke="black" stroke-width="9.33764" stroke-linecap="round"/>
<ellipse cx="596.256" cy="377.625" rx="45.0191" ry="30.4248" fill="#FFB987"/>
<ellipse cx="394.095" cy="377.625" rx="45.0191" ry="30.4248" fill="#FFB987"/>
<path d="M323.634 347.418C323.634 347.418 335.682 351.551 337.318 342.642C339.042 333.252 330.686 317.203 330.686 317.203" stroke="black" stroke-width="9.33764" stroke-linecap="round"/>
<path d="M668.415 344.807C668.415 344.807 656.367 348.94 654.731 340.031C653.007 330.641 661.363 314.592 661.363 314.592" stroke="black" stroke-width="9.33764" stroke-linecap="round"/>
<path d="M384.658 81.1583C384.658 81.1583 408.607 45.4148 428.905 29.8252C452.726 11.5303 469.22 4.78471 497.445 1.07875C536.346 -4.02909 558.726 9.80223 595.482 25.7186C623.514 37.8573 649.976 67.7406 678.77 77.0517C695.965 82.6119 709.136 73.9716 709.136 73.9716L686.578 109.905L700.388 178.113C704.377 197.816 701.879 218.281 693.268 236.446L686.578 250.557L652.743 232.077C652.743 232.077 632.171 216.567 621.509 203.331C611.971 191.489 600.687 169.451 600.687 169.451C600.687 169.451 599.857 180.146 599.82 187.931C599.757 201.119 606.76 220.784 606.76 220.784C606.76 220.784 580.184 205.43 565.984 191.011C555.796 180.666 542.559 161.238 542.559 161.238C542.559 161.238 541.287 176.374 542.559 185.878C543.782 195.02 548.632 208.464 548.632 208.464C548.632 208.464 465.905 195.632 428.905 156.104C406.51 132.179 384.658 81.1583 384.658 81.1583Z" fill="black"/>
<path d="M329.598 75.2812C353.644 60.6566 399.457 68.126 399.457 68.126L418.728 149.516L347.377 269.349L308.304 249.662C308.304 249.662 277.29 205.956 283.829 169.193C291.109 128.258 296.716 95.2802 329.598 75.2812Z" fill="black"/>
</svg>
