<svg width="20" height="20" viewBox="0 0 20 20" fill="none" xmlns="http://www.w3.org/2000/svg">
<path d="M16.0068 3.44025H15.6281V2.55706C15.6281 2.06561 15.2292 1.66675 14.7378 1.66675C14.2463 1.66675 13.8475 2.06561 13.8475 2.55706V3.44025H6.7748V2.55706C6.7748 2.06561 6.37594 1.66675 5.88449 1.66675C5.39304 1.66675 4.99418 2.06561 4.99418 2.55706V3.44025H3.99465C2.71141 3.44025 1.66678 4.48489 1.66678 5.76813V16.0055C1.66678 17.2888 2.71141 18.3334 3.99465 18.3334H16.0068C17.29 18.3334 18.3346 17.2888 18.3346 16.0055V5.76813C18.3346 4.48489 17.29 3.44025 16.0068 3.44025ZM3.99465 5.22088H16.0068C16.3083 5.22088 16.554 5.46661 16.554 5.76813V7.73869H3.44741V5.76813C3.44741 5.46661 3.69313 5.22088 3.99465 5.22088ZM16.0068 16.5528H3.99465C3.69313 16.5528 3.44741 16.3071 3.44741 16.0055V9.5205H16.554V16.0055C16.554 16.3071 16.3083 16.5528 16.0068 16.5528Z" fill="#6A9700"/>
</svg>
