<svg width="22" height="22" viewBox="0 0 22 22" fill="none" xmlns="http://www.w3.org/2000/svg">
<g clip-path="url(#clip0_989_3245)">
<path d="M20.5393 3.57195V8.93005M20.5393 8.93005H15.1812M20.5393 8.93005L16.4047 5.0365C15.1728 3.8039 13.5738 3.00505 11.8484 2.76032C10.1231 2.5156 8.36498 2.83826 6.83898 3.67968C5.31298 4.5211 4.10179 5.8357 3.38792 7.42537C2.67406 9.01505 2.4962 10.7937 2.88114 12.4932C3.26608 14.1928 4.19297 15.7212 5.52214 16.8481C6.8513 17.9751 8.51073 18.6395 10.2504 18.7412C11.99 18.843 13.7156 18.3766 15.1671 17.4124C16.6186 16.4481 17.7174 15.0382 18.2978 13.3951" stroke="#6A9700" stroke-width="1.9484" stroke-linecap="round" stroke-linejoin="round"/>
</g>
<path d="M11.5256 11.0764L9.42625 7.79345" stroke="#6A9700" stroke-width="1.9484" stroke-linecap="round"/>
<line x1="9.06416" y1="12.651" x2="11.5264" y2="11.0765" stroke="#6A9700" stroke-width="1.9484" stroke-linecap="round"/>
<defs>
<clipPath id="clip0_989_3245">
<rect width="21.4324" height="21.4324" fill="white" transform="translate(0.000427246)"/>
</clipPath>
</defs>
</svg>
