<svg width="20" height="20" viewBox="0 0 20 20" fill="none" xmlns="http://www.w3.org/2000/svg">
<path d="M17.6194 9.13927H17.1469V7.148C17.1469 6.90946 16.9512 6.71618 16.7097 6.71618H14.6633V4.16675H10.9244V9.29295H9.07747V4.59857C9.07747 4.36003 8.8818 4.16675 8.64031 4.16675H5.77678C5.53529 4.16675 5.33962 4.36003 5.33962 4.59857V6.71618H3.2922C3.05071 6.71618 2.85503 6.90946 2.85503 7.148V9.25618H2.38255C1.98739 9.25618 1.66667 9.57298 1.66667 9.96331C1.66667 10.3536 1.98739 10.6704 2.38255 10.6704H2.85503V12.6617C2.85503 12.9002 3.05071 13.0935 3.2922 13.0935H5.33866V15.4016C5.33866 15.6401 5.53434 15.8334 5.77583 15.8334H8.63935C8.88084 15.8334 9.07652 15.6401 9.07652 15.4016V10.7072H10.9235V15.4016C10.9235 15.6401 11.1192 15.8334 11.3607 15.8334H14.2242C14.4657 15.8334 14.6613 15.6401 14.6613 15.4016V13.0935H16.7078C16.9493 13.0935 17.145 12.9002 17.145 12.6617V10.5535H17.6175C18.0126 10.5535 18.3333 10.2367 18.3333 9.8464C18.3333 9.45606 18.0126 9.13927 17.6175 9.13927H17.6194ZM4.72396 11.6793C4.48247 11.6793 4.2868 11.486 4.2868 11.2475V8.56226C4.2868 8.32372 4.48247 8.13044 4.72396 8.13044C4.96545 8.13044 5.16113 8.32372 5.16113 8.56226V11.2475C5.16113 11.486 4.96545 11.6793 4.72396 11.6793ZM7.20759 14.4192C6.9661 14.4192 6.77043 14.2259 6.77043 13.9873V6.01282C6.77043 5.77429 6.9661 5.581 7.20759 5.581C7.44908 5.581 7.64476 5.77429 7.64476 6.01282V13.9873C7.64476 14.2259 7.44908 14.4192 7.20759 14.4192ZM12.7934 14.4192C12.5519 14.4192 12.3562 14.2259 12.3562 13.9873V6.01282C12.3562 5.77429 12.5519 5.581 12.7934 5.581C13.0349 5.581 13.2305 5.77429 13.2305 6.01282V13.9873C13.2305 14.2259 13.0349 14.4192 12.7934 14.4192ZM15.277 11.6793C15.0355 11.6793 14.8398 11.486 14.8398 11.2475V8.56226C14.8398 8.32372 15.0355 8.13044 15.277 8.13044C15.5185 8.13044 15.7142 8.32372 15.7142 8.56226V11.2475C15.7142 11.486 15.5185 11.6793 15.277 11.6793Z" fill="#6A9700"/>
</svg>
