<svg width="20" height="20" viewBox="0 0 20 20" fill="none" xmlns="http://www.w3.org/2000/svg">
<path d="M9.99999 1.66675C5.39786 1.66675 1.66666 5.39795 1.66666 10.0001C1.66666 14.6022 5.39786 18.3334 9.99999 18.3334C14.6021 18.3334 18.3333 14.6022 18.3333 10.0001C18.3333 5.39795 14.6021 1.66675 9.99999 1.66675ZM15.8042 6.93592H13.4554C13.3293 5.98485 13.1408 5.03968 12.8921 4.10747C14.1342 4.7203 15.156 5.71379 15.803 6.93592H15.8042ZM16.5655 10.0001C16.5655 10.5693 16.4925 11.122 16.3558 11.65H13.5792C13.6652 10.5516 13.6734 9.44853 13.598 8.35015H16.3569C16.4936 8.87813 16.5667 9.43085 16.5667 10.0001H16.5655ZM3.43444 10.0001C3.43444 9.43085 3.50751 8.87813 3.64422 8.35015H6.50213C6.42671 9.44853 6.43378 10.5516 6.52099 11.65H3.64422C3.50751 11.122 3.43444 10.5693 3.43444 10.0001ZM7.92108 8.35015H12.1779C12.258 9.44853 12.2521 10.5516 12.159 11.65H7.93993C7.84801 10.5516 7.84094 9.44853 7.92108 8.35015ZM11.2822 3.56063L11.5156 4.42567C11.7383 5.25299 11.9068 6.09092 12.027 6.93592H8.07311C8.19331 6.0921 8.36184 5.25299 8.58458 4.42567L8.82265 3.54178C9.20449 3.47224 9.59811 3.43335 9.99999 3.43335C10.4384 3.43335 10.8674 3.47696 11.2822 3.55946V3.56063ZM7.21985 4.05326V4.05797C6.96294 5.0055 6.77202 5.96718 6.64356 6.93592H4.19577C4.86281 5.67726 5.92702 4.66137 7.21985 4.05443V4.05326ZM4.19577 13.0642H6.67656C6.80384 13.9552 6.98297 14.8415 7.21868 15.7147L7.28939 15.9775C5.96473 15.3741 4.87459 14.3453 4.19577 13.0642ZM8.88629 16.469L8.58458 15.347C8.38188 14.594 8.22396 13.8315 8.10728 13.0642H11.9929C11.875 13.8315 11.7183 14.594 11.5156 15.347L11.2186 16.4501C10.8238 16.5244 10.4172 16.5656 10.0012 16.5656C9.62168 16.5656 9.25045 16.5315 8.88746 16.469H8.88629ZM12.8237 15.9257L12.8803 15.7147C13.116 14.8415 13.294 13.9552 13.4224 13.0642H15.8042C15.1442 14.3088 14.0977 15.3176 12.8237 15.9269V15.9257Z" fill="#6A9700"/>
</svg>
