<svg width="13" height="12" viewBox="0 0 13 12" fill="none" xmlns="http://www.w3.org/2000/svg">
<path d="M9.07988 8.08417L9.80212 7.33428C9.91497 7.21711 10.1113 7.29913 10.1113 7.46785V10.8752C10.1113 11.4962 9.62608 12 9.02797 12H1.08336C0.485254 12 0 11.4962 0 10.8752V2.62637C0 2.00537 0.485254 1.50154 1.08336 1.50154H7.25623C7.41648 1.50154 7.49773 1.70307 7.38488 1.82258L6.66264 2.57247C6.62879 2.60763 6.58365 2.62637 6.534 2.62637H1.08336V10.8752H9.02797V8.2154C9.02797 8.16619 9.04603 8.11932 9.07988 8.08417ZM12.6143 3.35517L6.68747 9.50896L4.64715 9.7433C4.05582 9.81126 3.55251 9.29337 3.61796 8.67471L3.84366 6.55627L9.77052 0.40248C10.2874 -0.13416 11.1225 -0.13416 11.6371 0.40248L12.6121 1.41483C13.1289 1.95147 13.1289 2.82088 12.6143 3.35517ZM10.3844 4.07929L9.07311 2.71777L4.87962 7.07416L4.71486 8.6044L6.18868 8.43333L10.3844 4.07929ZM11.847 2.21159L10.8719 1.19924C10.7794 1.10316 10.6282 1.10316 10.5379 1.19924L9.84049 1.92335L11.1518 3.28487L11.8492 2.56076C11.9395 2.46233 11.9395 2.30767 11.847 2.21159Z" fill="white"/>
</svg>
