<svg width="20" height="16" viewBox="0 0 20 16" fill="none" xmlns="http://www.w3.org/2000/svg">
<path d="M18.5996 7.79998H13.1996L11.3996 10.5H7.79961L5.99961 7.79998H0.599609M18.5996 7.79998V13.2C18.5996 13.6774 18.41 14.1352 18.0724 14.4728C17.7348 14.8103 17.277 15 16.7996 15H2.39961C1.92222 15 1.46438 14.8103 1.12682 14.4728C0.789252 14.1352 0.599609 13.6774 0.599609 13.2V7.79998M18.5996 7.79998L15.4946 1.59898C15.3456 1.29908 15.1159 1.04671 14.8313 0.870227C14.5467 0.693745 14.2185 0.600153 13.8836 0.599976H5.31561C4.98073 0.600153 4.65255 0.693745 4.36795 0.870227C4.08335 1.04671 3.85363 1.29908 3.70461 1.59898L0.599609 7.79998" stroke="#515151" stroke-width="1.2" stroke-linecap="round" stroke-linejoin="round"/>
</svg>
