<svg width="21" height="21" viewBox="0 0 21 21" fill="none" xmlns="http://www.w3.org/2000/svg">
<path d="M12.3806 4.33645C13.2597 4.50796 14.0676 4.93788 14.7009 5.57119C15.3342 6.2045 15.7641 7.01239 15.9356 7.89145M12.3806 0.73645C14.207 0.939343 15.9101 1.75721 17.2102 3.05576C18.5104 4.35431 19.3304 6.05636 19.5356 7.88245M18.6356 15.0645V17.7645C18.6367 18.0151 18.5853 18.2632 18.4849 18.4929C18.3845 18.7225 18.2372 18.9287 18.0525 19.0981C17.8678 19.2676 17.6498 19.3966 17.4123 19.4769C17.1749 19.5572 16.9233 19.587 16.6736 19.5644C13.9042 19.2635 11.2439 18.3172 8.90663 16.8015C6.73208 15.4196 4.88844 13.576 3.50663 11.4015C1.98561 9.05353 1.03905 6.38035 0.743633 3.59845C0.721143 3.34957 0.750721 3.09873 0.830484 2.86191C0.910246 2.62509 1.03845 2.40747 1.20692 2.22291C1.3754 2.03835 1.58046 1.89089 1.80905 1.78992C2.03763 1.68895 2.28474 1.63669 2.53463 1.63645H5.23463C5.67141 1.63215 6.09485 1.78682 6.42602 2.07163C6.75719 2.35644 6.9735 2.75195 7.03463 3.18445C7.14859 4.04851 7.35994 4.8969 7.66463 5.71345C7.78572 6.03558 7.81193 6.38567 7.74015 6.72224C7.66837 7.05881 7.50161 7.36775 7.25963 7.61245L6.11663 8.75545C7.39783 11.0086 9.26344 12.8742 11.5166 14.1554L12.6596 13.0125C12.9043 12.7705 13.2133 12.6037 13.5498 12.5319C13.8864 12.4602 14.2365 12.4864 14.5586 12.6074C15.3752 12.9121 16.2236 13.1235 17.0876 13.2375C17.5248 13.2991 17.9241 13.5193 18.2095 13.8562C18.4949 14.1931 18.6466 14.6231 18.6356 15.0645Z" stroke="#5E5E5E" stroke-width="1.47273" stroke-linecap="round" stroke-linejoin="round"/>
</svg>
