<svg width="13" height="13" viewBox="0 0 13 13" fill="none" xmlns="http://www.w3.org/2000/svg">
<path d="M6.3659 12.7291C5.08391 12.7291 3.53691 12.1767 2.32769 11.2863C0.826507 10.1815 0 8.68193 0 7.06432C0 5.79637 0.438408 4.30763 1.20203 2.9784C2.01147 1.57076 3.06526 0.537118 4.16757 0.0694091C4.45685 -0.0531505 4.7605 -0.0116965 4.9797 0.180253C5.3678 0.519996 5.24293 0.980496 5.08481 1.56356C4.62844 3.24965 4.75421 3.90931 5.58251 4.17786C6.56264 4.49597 7.1933 3.72367 7.97669 2.5981C8.22644 2.23853 8.44295 1.92853 8.68102 1.70324C8.84272 1.55004 9.42038 1.08233 10.0537 1.49957C11.705 2.58639 12.73 4.71947 12.73 7.06522C12.73 10.523 8.95951 12.73 6.3641
 12.73L6.3659 12.7291ZM3.57105 2.09435C2.33937 3.2839 1.34757 5.37282 1.34757 7.06432C1.34757 8.57108
  2.31422 9.59932 3.12455 10.1959C4.09839 10.9132 5.3705 11.3764 6.365 11.3764C7.3595 11.3764 8.6316 10.9132 
  9.60544 10.1959C10.4158 9.59932 11.3824 8.57108 11.3824 7.06432C11.3824 5.27189 10.6745 3.65608 9.5201 2.77473C9.39073 
  2.92613 9.21735 3.17485 9.08079 3.37131C8.36658 4.39685 7.17174 6.11358 5.16746 5.46384C4.15499 5.13581 3.57284 4.40045
   3.48391 3.33706C3.44887 2.91622 3.49648 2.48546 3.57105 2.09435Z" fill="#f30000"/>
</svg>
