<svg width="52" height="52" viewBox="0 0 52 52" fill="none" xmlns="http://www.w3.org/2000/svg">
<circle cx="26" cy="26" r="26" fill="#1D1D1D"/>
<path d="M32.875 19.125H32.8875M19.75 13.5H32.25C35.7018 13.5 38.5 16.2982 38.5 19.75V32.25C38.5 35.7018 35.7018 38.5 32.25 38.5H19.75C16.2982 38.5 13.5 35.7018 13.5 32.25V19.75C13.5 16.2982 16.2982 13.5 19.75 13.5ZM31 25.2125C31.1543 26.2528 30.9766 27.3153 30.4922 28.2488C30.0078 29.1823 29.2414 29.9393 28.302 30.4121C27.3626 30.8849 26.2981 31.0495 25.2597 30.8824C24.2214 30.7153 23.2622 30.2251 22.5185 29.4815C21.7749 28.7378 21.2847 27.7786 21.1176 26.7403C20.9505 25.7019 21.1151 24.6374 21.5879 23.698C22.0607 22.7586 22.8177 21.9922 23.7512 21.5078C24.6847 21.0234 25.7472 20.8457 26.7875 21C27.8487 21.1574 28.8311 21.6518 29.5896 22.4104C30.3482 23.1689 30.8426 24.1513 31 25.2125Z" stroke="white" stroke-width="2" stroke-linecap="round" stroke-linejoin="round"/>
</svg>
