<svg xmlns="http://www.w3.org/2000/svg" xmlns:xlink="http://www.w3.org/1999/xlink" width="162" zoomAndPan="magnify" viewBox="0 0 121.5 186.749995" height="249" preserveAspectRatio="xMidYMid meet" version="1.0"><defs><clipPath id="44b5c694cc"><path d="M 0 0.257812 L 121.003906 0.257812 L 121.003906 186.242188 L 0 186.242188 Z M 0 0.257812 " clip-rule="nonzero"/></clipPath><clipPath id="e2fad459bd"><path d="M 0 21 L 120 21 L 120 185.496094 L 0 185.496094 Z M 0 21 " clip-rule="nonzero"/></clipPath><clipPath id="91631a74e6"><path d="M 29 0.257812 L 41 0.257812 L 41 44 L 29 44 Z M 29 0.257812 " clip-rule="nonzero"/></clipPath><clipPath id="d82811c9f9"><path d="M 0.105469 21 L 120 21 L 120 185.496094 L 0.105469 185.496094 Z M 0.105469 21 " clip-rule="nonzero"/></clipPath><clipPath id="0f77d8ea1f"><path d="M 29 0.257812 L 41 0.257812 L 41 44 L 29 44 Z M 29 0.257812 " clip-rule="nonzero"/></clipPath></defs><g clip-path="url(#44b5c694cc)"><path fill="#ffffff" d="M 0 0.257812 L 121.003906 0.257812 L 121.003906 186.242188 L 0 186.242188 Z M 0 0.257812 " fill-opacity="1" fill-rule="nonzero"/></g><g clip-path="url(#e2fad459bd)"><path fill="#4b6f00" d="M 25.691406 115.738281 C 23.210938 114.285156 18.628906 110.957031 15.746094 105.003906 C 13.84375 100.984375 13.3125 97.117188 13.359375 93.914062 C 7.585938 102.429688 0.03125 117.394531 0.546875 136.875 C 0.679688 141.808594 1.324219 146.882812 2.457031 151.957031 C 3.019531 154.464844 3.765625 156.949219 4.660156 159.332031 C 10.523438 174.832031 25.972656 185.242188 43.113281 185.242188 L 77.488281 185.242188 C 95.519531 185.242188 111.21875 174.179688 116.554688 157.710938 L 118.289062 157.871094 L 116.667969 157.347656 C 117.0625 156.125 117.421875 154.90625 117.746094 153.648438 C 123.777344 129.53125 110.726562 109.808594 104.839844 102.445312 C 100 96.445312 97.917969 89.015625 99.132812 82.058594 C 99.152344 81.945312 99.183594 81.835938 99.222656 81.730469 C 99.585938 79.855469 100.117188 78.097656 100.804688 76.429688 C 98.324219 77.929688 95.535156 80.183594 93.1875 83.515625 C 89.5625 88.691406 88.816406 93.992188 88.691406 96.6875 C 88.664062 97.40625 88.183594 98.027344 87.492188 98.238281 C 86.808594 98.453125 86.058594 98.203125 85.625 97.628906 C 80.773438 91.101562 77.671875 84.113281 76.410156 76.839844 C 75.089844 69.09375 76.242188 63.410156 77.265625 58.394531 C 78.105469 54.253906 78.835938 50.675781 78.144531 46.53125 C 76.660156 37.519531 68.777344 29.230469 54.683594 21.851562 C 55.804688 25.621094 56.257812 29.414062 56.03125 33.160156 C 55.34375 43.886719 49.257812 50.660156 42.816406 57.828125 C 38.789062 62.304688 34.628906 66.933594 31.527344 72.832031 C 25.769531 83.828125 24.648438 97.648438 28.210938 113.902344 C 28.359375 114.5625 28.097656 115.253906 27.550781 115.648438 C 27 116.042969 26.269531 116.082031 25.6875 115.734375 Z M 25.691406 115.738281 " fill-opacity="1" fill-rule="nonzero"/></g><path fill="#4b6f00" d="M 91.679688 22.167969 C 90.949219 25.808594 92.226562 28.832031 93.847656 32.667969 C 95.484375 36.554688 97.34375 40.957031 97.613281 47.144531 C 97.734375 49.933594 97.511719 52.738281 96.949219 55.535156 C 101.644531 49.574219 103.609375 44.179688 102.8125 39.453125 C 102.414062 37.078125 101.378906 35.203125 100.289062 33.226562 C 98.871094 30.65625 97.261719 27.742188 96.898438 23.398438 C 96.601562 19.863281 97.1875 16.261719 98.648438 12.636719 C 94.699219 15.578125 92.363281 18.765625 91.683594 22.160156 Z M 91.679688 22.167969 " fill-opacity="1" fill-rule="nonzero"/><g clip-path="url(#91631a74e6)"><path fill="#4b6f00" d="M 29.316406 9.679688 C 28.589844 13.324219 29.867188 16.347656 31.488281 20.179688 C 33.125 24.066406 34.984375 28.46875 35.253906 34.65625 C 35.371094 37.445312 35.152344 40.25 34.589844 43.050781 C 39.28125 37.085938 41.25 31.695312 40.453125 26.96875 C 40.054688 24.589844 39.019531 22.722656 37.929688 20.738281 C 36.511719 18.167969 34.902344 15.253906 34.539062 10.914062 C 34.238281 7.375 34.828125 3.777344 36.285156 0.152344 C 32.339844 3.089844 30.003906 6.28125 29.320312 9.675781 Z M 29.316406 9.679688 " fill-opacity="1" fill-rule="nonzero"/></g><g clip-path="url(#d82811c9f9)"><path fill="#4b6f00" d="M 25.796875 115.738281 C 23.316406 114.285156 18.734375 110.957031 15.851562 105.003906 C 13.945312 100.984375 13.414062 97.117188 13.464844 93.914062 C 7.691406 102.429688 0.136719 117.394531 0.648438 136.875 C 0.785156 141.808594 1.429688 146.882812 2.5625 151.957031 C 3.125 154.464844 3.871094 156.949219 4.765625 159.332031 C 10.628906 174.832031 26.078125 185.242188 43.21875 185.242188 L 77.59375 185.242188 C 95.625 185.242188 111.324219 174.179688 116.660156 157.710938 L 118.394531 157.871094 L 116.773438 157.347656 C 117.164062 156.125 117.527344 154.90625 117.851562 153.648438 C 123.878906 129.53125 110.832031 109.808594 104.945312 102.445312 C 100.105469 96.445312 98.023438 89.015625 99.238281 82.058594 C 99.257812 81.945312 99.289062 81.835938 99.328125 81.730469 C 99.691406 79.855469 100.222656 78.097656 100.910156 76.429688 C 98.429688 77.929688 95.640625 80.183594 93.292969 83.515625 C 89.667969 88.691406 88.921875 93.992188 88.796875 96.6875 C 88.765625 97.40625 88.289062 98.027344 87.597656 98.238281 C 86.914062 98.453125 86.164062 98.203125 85.730469 97.628906 C 80.878906 91.101562 77.777344 84.113281 76.515625 76.839844 C 75.195312 69.09375 76.347656 63.410156 77.371094 58.394531 C 78.210938 54.253906 78.941406 50.675781 78.25 46.53125 C 76.765625 37.519531 68.882812 29.230469 54.789062 21.851562 C 55.90625 25.621094 56.359375 29.414062 56.136719 33.160156 C 55.449219 43.886719 49.363281 50.660156 42.921875 57.828125 C 38.894531 62.304688 34.734375 66.933594 31.632812 72.832031 C 25.875 83.828125 24.753906 97.648438 28.316406 113.902344 C 28.464844 114.5625 28.199219 115.253906 27.65625 115.648438 C 27.105469 116.042969 26.375 116.082031 25.792969 115.734375 Z M 25.796875 115.738281 " fill-opacity="1" fill-rule="nonzero"/></g><path fill="#4b6f00" d="M 91.785156 22.167969 C 91.054688 25.808594 92.332031 28.832031 93.953125 32.667969 C 95.589844 36.554688 97.449219 40.957031 97.71875 47.144531 C 97.839844 49.933594 97.617188 52.738281 97.054688 55.535156 C 101.746094 49.574219 103.714844 44.179688 102.917969 39.453125 C 102.519531 37.078125 101.484375 35.203125 100.394531 33.226562 C 98.976562 30.65625 97.367188 27.742188 97.003906 23.398438 C 96.703125 19.863281 97.292969 16.261719 98.753906 12.636719 C 94.804688 15.578125 92.46875 18.765625 91.789062 22.160156 Z M 91.785156 22.167969 " fill-opacity="1" fill-rule="nonzero"/><g clip-path="url(#0f77d8ea1f)"><path fill="#4b6f00" d="M 29.421875 9.679688 C 28.695312 13.324219 29.972656 16.347656 31.59375 20.179688 C 33.230469 24.066406 35.089844 28.46875 35.359375 34.65625 C 35.476562 37.445312 35.257812 40.25 34.695312 43.050781 C 39.386719 37.085938 41.355469 31.695312 40.558594 26.96875 C 40.160156 24.589844 39.125 22.722656 38.035156 20.738281 C 36.613281 18.167969 35.007812 15.253906 34.644531 10.914062 C 34.34375 7.375 34.933594 3.777344 36.390625 0.152344 C 32.445312 3.089844 30.109375 6.28125 29.425781 9.675781 Z M 29.421875 9.679688 " fill-opacity="1" fill-rule="nonzero"/></g></svg>