<svg xmlns="http://www.w3.org/2000/svg" xmlns:xlink="http://www.w3.org/1999/xlink" width="256" zoomAndPan="magnify" viewBox="0 0 192 191.999996" height="256" preserveAspectRatio="xMidYMid meet" version="1.0"><defs><clipPath id="2e772843c7"><path d="M 0 0 L 191.25 0 L 191.25 191.25 L 0 191.25 Z M 0 0 " clip-rule="nonzero"/></clipPath><clipPath id="8c47fb0798"><path d="M 0.238281 0 L 191.488281 0 L 191.488281 191.25 L 0.238281 191.25 Z M 0.238281 0 " clip-rule="nonzero"/></clipPath></defs><g clip-path="url(#2e772843c7)"><path fill="#6a9700" d="M 189.15625 175.109375 L 150.761719 136.714844 C 149.019531 134.976562 146.105469 133.453125 143.148438 132.738281 C 140.472656 132.09375 138.117188 132.195312 136.28125 133 L 86.574219 83.289062 C 93.171875 75.570312 95.652344 64.683594 93.566406 52.332031 C 91.390625 39.464844 84.570312 26.757812 74.367188 16.554688 C 64.296875 6.484375 52.789062 0.785156 41.09375 0.0820312 C 29.953125 -0.585938 19.410156 3.441406 11.417969 11.4375 C 3.425781 19.429688 -0.609375 29.96875 0.0625 41.109375 C 0.769531 52.808594 6.464844 64.3125 16.539062 74.386719 C 26.742188 84.589844 39.445312 91.40625 52.316406 93.582031 C 55.171875 94.066406 57.949219 94.304688 60.625 94.304688 C 69.53125 94.304688 77.339844 91.664062 83.273438 86.59375 L 132.980469 136.300781 C 132.175781 138.132812 132.078125 140.488281 132.722656 143.164062 C 133.433594 146.121094 134.957031 149.039062 136.699219 150.78125 L 175.09375 189.175781 C 176.570312 190.652344 178.28125 191.382812 180.101562 191.382812 C 182.5 191.382812 185.089844 190.113281 187.59375 187.609375 C 191.996094 183.207031 192.578125 178.535156 189.15625 175.109375 Z M 67.523438 88.859375 L 57.539062 78.816406 L 66.519531 69.839844 L 79.960938 83.277344 C 76.527344 86.121094 72.347656 88.035156 67.625 88.96875 C 67.589844 88.933594 67.558594 88.894531 67.523438 88.859375 Z M 43.5 86.390625 C 39.4375 84.890625 35.433594 82.902344 31.617188 80.492188 L 42.148438 69.957031 L 50.949219 78.808594 L 43.894531 85.863281 C 43.734375 86.023438 43.605469 86.199219 43.5 86.390625 Z M 45.449219 66.65625 L 54.394531 57.710938 L 63.21875 66.539062 L 54.25 75.507812 Z M 7.460938 52.886719 L 16.34375 44 L 26.039062 53.753906 L 14.609375 65.183594 C 11.523438 61.21875 9.128906 57.09375 7.460938 52.886719 Z M 4.722656 40.828125 C 4.558594 38.089844 4.71875 35.394531 5.183594 32.777344 L 13.054688 40.691406 L 5.839844 47.90625 C 5.242188 45.558594 4.867188 43.195312 4.722656 40.828125 Z M 13.125 16.441406 L 25.214844 28.53125 L 16.355469 37.390625 L 6.566406 27.546875 C 7.992188 23.523438 10.199219 19.769531 13.125 16.441406 Z M 28.058594 6.402344 L 37.671875 16.070312 L 28.515625 25.230469 L 16.421875 13.140625 C 19.898438 10.085938 23.835938 7.816406 28.058594 6.402344 Z M 65.164062 14.628906 L 53.960938 25.832031 L 44.265625 16.082031 L 52.867188 7.480469 C 57.078125 9.144531 61.203125 11.542969 65.164062 14.628906 Z M 50.660156 29.132812 L 41.539062 38.253906 L 31.8125 28.53125 L 40.964844 19.382812 Z M 86.359375 43.484375 C 86.214844 43.574219 86.074219 43.679688 85.949219 43.808594 L 78.867188 50.890625 L 70.070312 42.039062 L 80.472656 31.632812 C 82.875 35.441406 84.859375 39.433594 86.359375 43.484375 Z M 88.960938 53.113281 C 89.464844 56.082031 89.675781 58.949219 89.601562 61.683594 L 82.160156 54.199219 L 87.933594 48.425781 C 88.351562 49.988281 88.699219 51.554688 88.960938 53.113281 Z M 69.820312 66.539062 L 78.859375 57.5 L 88.832031 67.53125 C 88.871094 67.570312 88.910156 67.605469 88.953125 67.640625 C 88.019531 72.367188 86.101562 76.542969 83.261719 79.976562 Z M 75.566406 54.1875 L 66.519531 63.238281 L 57.695312 54.410156 L 66.769531 45.339844 Z M 54.394531 51.113281 L 44.773438 41.492188 L 53.886719 32.382812 L 63.476562 42.027344 Z M 19.644531 40.699219 L 28.515625 31.832031 L 38.238281 41.554688 L 29.339844 50.453125 Z M 41.476562 44.792969 L 51.09375 54.410156 L 42.160156 63.347656 L 32.570312 53.699219 Z M 77.796875 27.707031 L 66.777344 38.726562 L 57.1875 29.082031 L 68.679688 17.585938 C 69.484375 18.3125 70.28125 19.070312 71.066406 19.855469 C 73.515625 22.304688 75.769531 24.941406 77.796875 27.707031 Z M 40.8125 4.742188 C 43.179688 4.882812 45.539062 5.257812 47.886719 5.859375 L 40.972656 12.769531 L 33.351562 5.105469 C 35.109375 4.824219 36.902344 4.675781 38.714844 4.675781 C 39.410156 4.675781 40.109375 4.699219 40.8125 4.742188 Z M 17.570312 68.699219 L 29.269531 57 L 38.859375 66.648438 L 27.691406 77.816406 C 24.921875 75.785156 22.289062 73.535156 19.839844 71.085938 C 19.050781 70.296875 18.296875 69.503906 17.570312 68.699219 Z M 53.09375 88.980469 C 51.535156 88.71875 49.96875 88.371094 48.40625 87.953125 L 54.238281 82.117188 L 61.695312 89.617188 C 58.953125 89.695312 56.074219 89.484375 53.09375 88.980469 Z M 53.09375 88.980469 " fill-opacity="1" fill-rule="nonzero"/></g><g clip-path="url(#8c47fb0798)"><path fill="#6a9700" d="M 189.394531 175.109375 L 151 136.714844 C 149.257812 134.976562 146.339844 133.453125 143.386719 132.738281 C 140.707031 132.09375 138.351562 132.195312 136.519531 133 L 86.8125 83.289062 C 93.40625 75.570312 95.890625 64.683594 93.800781 52.332031 C 91.625 39.464844 84.808594 26.757812 74.605469 16.554688 C 64.535156 6.484375 53.027344 0.785156 41.328125 0.0820312 C 30.191406 -0.585938 19.648438 3.441406 11.65625 11.4375 C 3.660156 19.429688 -0.371094 29.96875 0.300781 41.109375 C 1.007812 52.808594 6.703125 64.3125 16.773438 74.386719 C 26.976562 84.589844 39.683594 91.40625 52.554688 93.582031 C 55.410156 94.066406 58.183594 94.304688 60.863281 94.304688 C 69.769531 94.304688 77.578125 91.664062 83.511719 86.59375 L 133.21875 136.300781 C 132.414062 138.132812 132.3125 140.488281 132.957031 143.164062 C 133.671875 146.121094 135.195312 149.039062 136.9375 150.78125 L 175.332031 189.175781 C 176.808594 190.652344 178.515625 191.382812 180.335938 191.382812 C 182.734375 191.382812 185.328125 190.113281 187.828125 187.609375 C 192.234375 183.207031 192.816406 178.535156 189.394531 175.109375 Z M 67.761719 88.859375 L 57.777344 78.816406 L 66.757812 69.839844 L 80.195312 83.277344 C 76.765625 86.121094 72.585938 88.035156 67.859375 88.96875 C 67.828125 88.933594 67.796875 88.894531 67.761719 88.859375 Z M 43.738281 86.390625 C 39.675781 84.890625 35.671875 82.902344 31.851562 80.492188 L 42.386719 69.957031 L 51.1875 78.808594 L 44.132812 85.863281 C 43.972656 86.023438 43.84375 86.199219 43.738281 86.390625 Z M 45.6875 66.65625 L 54.632812 57.710938 L 63.457031 66.539062 L 54.488281 75.507812 Z M 7.699219 52.886719 L 16.582031 44 L 26.277344 53.753906 L 14.847656 65.183594 C 11.761719 61.21875 9.363281 57.09375 7.699219 52.886719 Z M 4.960938 40.828125 C 4.792969 38.089844 4.953125 35.394531 5.421875 32.777344 L 13.292969 40.691406 L 6.078125 47.90625 C 5.480469 45.558594 5.101562 43.195312 4.960938 40.828125 Z M 13.359375 16.441406 L 25.449219 28.53125 L 16.59375 37.390625 L 6.804688 27.546875 C 8.230469 23.523438 10.4375 19.769531 13.359375 16.441406 Z M 28.296875 6.402344 L 37.910156 16.070312 L 28.75 25.230469 L 16.660156 13.140625 C 20.132812 10.085938 24.070312 7.816406 28.296875 6.402344 Z M 65.402344 14.628906 L 54.195312 25.832031 L 44.5 16.082031 L 53.105469 7.480469 C 57.316406 9.144531 61.441406 11.542969 65.402344 14.628906 Z M 50.894531 29.132812 L 41.773438 38.253906 L 32.050781 28.53125 L 41.199219 19.382812 Z M 86.59375 43.484375 C 86.449219 43.574219 86.3125 43.679688 86.1875 43.808594 L 79.105469 50.890625 L 70.304688 42.039062 L 80.710938 31.632812 C 83.113281 35.441406 85.097656 39.433594 86.59375 43.484375 Z M 89.199219 53.113281 C 89.703125 56.082031 89.910156 58.949219 89.839844 61.683594 L 82.394531 54.199219 L 88.171875 48.425781 C 88.589844 49.988281 88.9375 51.554688 89.199219 53.113281 Z M 70.058594 66.539062 L 79.09375 57.5 L 89.070312 67.53125 C 89.109375 67.570312 89.148438 67.605469 89.191406 67.640625 C 88.253906 72.367188 86.339844 76.542969 83.496094 79.976562 Z M 75.804688 54.1875 L 66.757812 63.238281 L 57.929688 54.410156 L 67.003906 45.339844 Z M 54.632812 51.113281 L 45.011719 41.492188 L 54.125 32.382812 L 63.714844 42.027344 Z M 19.882812 40.699219 L 28.75 31.832031 L 38.472656 41.554688 L 29.578125 50.453125 Z M 41.710938 44.792969 L 51.332031 54.410156 L 42.394531 63.347656 L 32.804688 53.699219 Z M 78.035156 27.707031 L 67.015625 38.726562 L 57.425781 29.082031 L 68.917969 17.585938 C 69.722656 18.3125 70.519531 19.070312 71.304688 19.855469 C 73.753906 22.304688 76.003906 24.941406 78.035156 27.707031 Z M 41.046875 4.742188 C 43.414062 4.882812 45.777344 5.257812 48.125 5.859375 L 41.210938 12.769531 L 33.589844 5.105469 C 35.347656 4.824219 37.136719 4.675781 38.953125 4.675781 C 39.648438 4.675781 40.347656 4.699219 41.046875 4.742188 Z M 17.804688 68.699219 L 29.503906 57 L 39.09375 66.648438 L 27.925781 77.816406 C 25.160156 75.785156 22.523438 73.535156 20.074219 71.085938 C 19.289062 70.296875 18.535156 69.503906 17.804688 68.699219 Z M 53.332031 88.980469 C 51.773438 88.71875 50.207031 88.371094 48.644531 87.953125 L 54.476562 82.117188 L 61.933594 89.617188 C 59.1875 89.695312 56.3125 89.484375 53.332031 88.980469 Z M 53.332031 88.980469 " fill-opacity="1" fill-rule="nonzero"/></g></svg>