<svg xmlns="http://www.w3.org/2000/svg" xmlns:xlink="http://www.w3.org/1999/xlink" width="233" zoomAndPan="magnify" viewBox="0 0 174.75 175.5" height="234" preserveAspectRatio="xMidYMid meet" version="1.0"><defs><clipPath id="bc48291cca"><path d="M 28 1.515625 L 94 1.515625 L 94 52 L 28 52 Z M 28 1.515625 " clip-rule="nonzero"/></clipPath><clipPath id="6f42d2b295"><path d="M 28.628906 50.828125 L 173.472656 50.828125 L 173.472656 119.730469 L 28.628906 119.730469 Z M 28.628906 50.828125 " clip-rule="nonzero"/></clipPath><clipPath id="ef2b84fc08"><path d="M 23 110 L 92 110 L 92 174.273438 L 23 174.273438 Z M 23 110 " clip-rule="nonzero"/></clipPath><clipPath id="213f41bdae"><path d="M 0.125 70 L 20 70 L 20 98 L 0.125 98 Z M 0.125 70 " clip-rule="nonzero"/></clipPath><clipPath id="417ea83a6c"><path d="M 29 49.3125 L 173.707031 49.3125 L 173.707031 118.214844 L 29 118.214844 Z M 29 49.3125 " clip-rule="nonzero"/></clipPath><clipPath id="6d9358d889"><path d="M 23 108 L 92 108 L 92 172.757812 L 23 172.757812 Z M 23 108 " clip-rule="nonzero"/></clipPath><clipPath id="f3f297226a"><path d="M 0.359375 69 L 20 69 L 20 96 L 0.359375 96 Z M 0.359375 69 " clip-rule="nonzero"/></clipPath></defs><g clip-path="url(#bc48291cca)"><path fill="#6a9700" d="M 29.777344 47.023438 C 30.394531 48.632812 31.207031 50.058594 32.238281 51.367188 C 39.359375 39.019531 48.269531 28.414062 58.738281 19.835938 C 69.390625 11.121094 81.300781 4.914062 93.417969 1.746094 C 91.3125 1.59375 89.195312 1.515625 87.09375 1.515625 C 67.1875 1.515625 47.730469 8.460938 32.28125 21.085938 C 31.144531 24 30.242188 26.855469 29.597656 29.570312 C 28.65625 33.546875 28.269531 37.203125 28.453125 40.449219 C 28.589844 42.859375 29.035156 45.070312 29.777344 47.023438 " fill-opacity="1" fill-rule="nonzero"/></g><path fill="#6a9700" d="M 38.570312 56.445312 C 39.246094 56.800781 39.925781 57.121094 40.636719 57.421875 C 42.875 58.347656 45.464844 59.085938 48.335938 59.617188 C 52.085938 60.300781 56.277344 60.652344 60.789062 60.652344 C 60.796875 60.652344 60.796875 60.652344 60.796875 60.652344 C 63.535156 60.652344 66.476562 60.523438 69.53125 60.269531 C 76.4375 59.703125 84.101562 58.515625 93.65625 56.539062 C 100.691406 55.085938 107.988281 53.359375 115.046875 51.683594 C 124.773438 49.382812 134.839844 47 144.398438 45.292969 C 150.566406 44.195312 155.988281 43.472656 160.933594 43.089844 C 151.363281 27.292969 137.28125 15.214844 120.140625 8.117188 L 119.507812 7.863281 L 119.285156 7.753906 C 116.886719 7.457031 114.433594 7.304688 111.992188 7.304688 C 109.992188 7.304688 107.960938 7.410156 105.941406 7.605469 C 96.269531 8.546875 86.617188 11.664062 77.261719 16.871094 C 61.84375 25.445312 48.121094 39.480469 38.570312 56.445312 " fill-opacity="1" fill-rule="nonzero"/><path fill="#6a9700" d="M 28.246094 58.878906 C 27.511719 58.175781 26.824219 57.429688 26.191406 56.65625 C 23.648438 53.535156 21.917969 49.828125 21.054688 45.632812 C 20.558594 43.214844 20.339844 40.605469 20.40625 37.882812 C 20.449219 36.070312 20.621094 34.230469 20.910156 32.296875 C 15.21875 39.058594 10.609375 46.648438 7.195312 54.886719 C 6.1875 57.324219 5.28125 59.839844 4.496094 62.363281 C 9.421875 66.421875 15.234375 70.558594 21.792969 74.667969 C 22.746094 71.78125 23.828125 68.882812 25.003906 66.039062 C 25.980469 63.683594 27.070312 61.277344 28.246094 58.878906 " fill-opacity="1" fill-rule="nonzero"/><g clip-path="url(#6f42d2b295)"><path fill="#6a9700" d="M 165.128906 50.875 C 158.414062 51.167969 150.578125 52.207031 141.199219 54.050781 C 133.367188 55.585938 125.070312 57.550781 117.042969 59.453125 C 105.851562 62.105469 94.273438 64.847656 83.1875 66.636719 C 74.671875 68.003906 67.347656 68.671875 60.796875 68.671875 C 55.746094 68.671875 51.195312 68.285156 46.890625 67.5 C 43.476562 66.875 40.34375 65.972656 37.570312 64.824219 C 36.675781 64.453125 35.769531 64.035156 34.882812 63.574219 C 34.039062 65.332031 33.210938 67.1875 32.414062 69.105469 C 31.101562 72.261719 29.90625 75.5625 28.847656 78.910156 C 40.109375 85.445312 52.695312 91.605469 66.253906 97.21875 C 69.035156 98.375 71.859375 99.5 74.730469 100.613281 C 90.265625 106.605469 106.167969 111.503906 120.714844 114.777344 C 134.625 117.90625 147.34375 119.5625 157.5 119.5625 L 157.542969 119.5625 C 161.324219 119.5625 164.773438 119.324219 167.796875 118.855469 C 176.207031 96.890625 175.234375 72.164062 165.128906 50.875 " fill-opacity="1" fill-rule="nonzero"/></g><g clip-path="url(#ef2b84fc08)"><path fill="#6a9700" d="M 37.402344 125.925781 C 34.800781 122.753906 32.21875 119.605469 29.601562 116.515625 C 27.652344 114.203125 25.664062 112.171875 23.683594 110.460938 C 23.628906 114.277344 23.785156 118.078125 24.152344 121.773438 C 25.476562 135.117188 29.554688 147.542969 35.941406 157.710938 C 41.5 161.78125 47.5625 165.1875 53.964844 167.839844 C 64.539062 172.222656 75.65625 174.445312 87.011719 174.445312 C 88.546875 174.445312 90.089844 174.402344 91.625 174.320312 C 79.765625 168.550781 69.136719 160.738281 58.375 149.882812 C 50.753906 142.199219 43.96875 133.925781 37.402344 125.925781 " fill-opacity="1" fill-rule="nonzero"/></g><path fill="#6a9700" d="M 133.03125 125.347656 C 114.355469 122.292969 93.195312 116.324219 71.839844 108.097656 C 68.914062 106.964844 66.023438 105.8125 63.1875 104.632812 C 50.054688 99.1875 37.769531 93.226562 26.652344 86.898438 C 25.566406 91.480469 24.765625 96.167969 24.273438 100.847656 C 28.160156 103.414062 32.007812 106.941406 35.726562 111.339844 C 38.378906 114.480469 40.984375 117.65625 43.582031 120.820312 C 50.066406 128.71875 56.773438 136.886719 64.066406 144.238281 C 75.796875 156.054688 87.417969 164.113281 100.648438 169.601562 C 102.660156 170.4375 104.808594 171.238281 107.199219 172.046875 C 131.890625 166.113281 152.53125 149.859375 164.015625 127.347656 C 161.996094 127.496094 159.816406 127.574219 157.484375 127.578125 C 150.320312 127.578125 142.09375 126.832031 133.03125 125.347656 " fill-opacity="1" fill-rule="nonzero"/><g clip-path="url(#213f41bdae)"><path fill="#6a9700" d="M 8.160156 95.582031 C 10.96875 95.582031 13.816406 96.066406 16.640625 97.039062 C 17.273438 92.238281 18.214844 87.398438 19.445312 82.640625 C 13.078125 78.734375 7.316406 74.78125 2.304688 70.886719 C 0.585938 79.363281 0.160156 88.019531 1.035156 96.644531 C 2.824219 96.105469 4.640625 95.769531 6.429688 95.640625 C 6.996094 95.601562 7.570312 95.582031 8.160156 95.582031 " fill-opacity="1" fill-rule="nonzero"/></g><path fill="#6a9700" d="M 15.851562 105.324219 C 15.683594 105.25 15.511719 105.171875 15.34375 105.105469 C 13.246094 104.234375 11.21875 103.75 9.160156 103.625 C 8.816406 103.605469 8.488281 103.59375 8.160156 103.59375 C 6.785156 103.59375 5.386719 103.773438 4.019531 104.125 C 3.429688 104.273438 2.839844 104.460938 2.238281 104.6875 C 5.03125 118.808594 11.28125 131.988281 20.394531 143.042969 C 20.0625 142.015625 19.75 140.988281 19.453125 139.953125 C 16.351562 129.054688 15.140625 117.402344 15.851562 105.324219 " fill-opacity="1" fill-rule="nonzero"/><path fill="#6a9700" d="M 30.011719 45.507812 C 30.632812 47.117188 31.441406 48.546875 32.476562 49.851562 C 39.59375 37.503906 48.503906 26.902344 58.976562 18.320312 C 69.625 9.605469 81.535156 3.402344 93.652344 0.230469 C 91.546875 0.078125 89.433594 0 87.332031 0 C 67.421875 0 47.964844 6.949219 32.515625 19.570312 C 31.382812 22.488281 30.476562 25.34375 29.832031 28.058594 C 28.890625 32.03125 28.507812 35.691406 28.6875 38.9375 C 28.828125 41.34375 29.269531 43.558594 30.011719 45.507812 " fill-opacity="1" fill-rule="nonzero"/><path fill="#6a9700" d="M 38.808594 54.933594 C 39.480469 55.285156 40.164062 55.605469 40.875 55.90625 C 43.113281 56.835938 45.703125 57.570312 48.574219 58.101562 C 52.320312 58.789062 56.511719 59.136719 61.027344 59.136719 C 61.03125 59.136719 61.03125 59.136719 61.03125 59.136719 C 63.773438 59.136719 66.710938 59.007812 69.769531 58.757812 C 76.671875 58.1875 84.339844 57 93.894531 55.023438 C 100.925781 53.570312 108.226562 51.84375 115.28125 50.171875 C 125.011719 47.867188 135.074219 45.484375 144.632812 43.777344 C 150.804688 42.683594 156.226562 41.960938 161.171875 41.578125 C 151.601562 25.78125 137.515625 13.703125 120.375 6.605469 L 119.746094 6.351562 L 119.519531 6.238281 C 117.125 5.945312 114.671875 5.792969 112.230469 5.792969 C 110.230469 5.792969 108.195312 5.894531 106.175781 6.089844 C 96.503906 7.03125 86.855469 10.148438 77.5 15.355469 C 62.078125 23.933594 48.355469 37.96875 38.808594 54.933594 " fill-opacity="1" fill-rule="nonzero"/><path fill="#6a9700" d="M 28.480469 57.363281 C 27.75 56.660156 27.058594 55.917969 26.425781 55.144531 C 23.882812 52.023438 22.15625 48.3125 21.292969 44.121094 C 20.796875 41.699219 20.578125 39.089844 20.640625 36.367188 C 20.6875 34.558594 20.855469 32.714844 21.148438 30.78125 C 15.453125 37.542969 10.84375 45.132812 7.433594 53.371094 C 6.421875 55.808594 5.515625 58.324219 4.730469 60.851562 C 9.65625 64.910156 15.472656 69.046875 22.03125 73.152344 C 22.984375 70.265625 24.066406 67.367188 25.242188 64.523438 C 26.21875 62.167969 27.308594 59.765625 28.480469 57.363281 " fill-opacity="1" fill-rule="nonzero"/><g clip-path="url(#417ea83a6c)"><path fill="#6a9700" d="M 165.367188 49.359375 C 158.652344 49.65625 150.816406 50.695312 141.433594 52.535156 C 133.605469 54.074219 125.304688 56.039062 117.277344 57.9375 C 106.085938 60.589844 94.511719 63.335938 83.421875 65.121094 C 74.910156 66.488281 67.585938 67.15625 61.03125 67.15625 C 55.980469 67.15625 51.429688 66.773438 47.125 65.984375 C 43.714844 65.363281 40.582031 64.460938 37.804688 63.308594 C 36.910156 62.941406 36.003906 62.523438 35.117188 62.058594 C 34.277344 63.816406 33.445312 65.671875 32.648438 67.589844 C 31.339844 70.746094 30.140625 74.046875 29.082031 77.398438 C 40.34375 83.929688 52.929688 90.089844 66.492188 95.707031 C 69.273438 96.859375 72.097656 97.984375 74.964844 99.097656 C 90.503906 105.09375 106.40625 109.988281 120.953125 113.261719 C 134.859375 116.394531 147.582031 118.046875 157.734375 118.046875 L 157.78125 118.046875 C 161.5625 118.046875 165.011719 117.808594 168.035156 117.339844 C 176.441406 95.378906 175.472656 70.648438 165.367188 49.359375 " fill-opacity="1" fill-rule="nonzero"/></g><g clip-path="url(#6d9358d889)"><path fill="#6a9700" d="M 37.640625 124.410156 C 35.035156 121.238281 32.457031 118.089844 29.839844 115.003906 C 27.886719 112.6875 25.898438 110.65625 23.921875 108.945312 C 23.867188 112.761719 24.019531 116.5625 24.386719 120.257812 C 25.714844 133.605469 29.792969 146.027344 36.179688 156.195312 C 41.738281 160.265625 47.796875 163.671875 54.199219 166.324219 C 64.777344 170.710938 75.894531 172.933594 87.25 172.933594 C 88.785156 172.933594 90.328125 172.890625 91.859375 172.804688 C 80 167.039062 69.375 159.222656 58.613281 148.371094 C 50.992188 140.683594 44.203125 132.410156 37.640625 124.410156 " fill-opacity="1" fill-rule="nonzero"/></g><path fill="#6a9700" d="M 133.269531 123.835938 C 114.589844 120.78125 93.429688 114.8125 72.078125 106.582031 C 69.152344 105.449219 66.261719 104.296875 63.421875 103.117188 C 50.292969 97.675781 38.003906 91.710938 26.886719 85.386719 C 25.800781 89.964844 25 94.652344 24.507812 99.332031 C 28.394531 101.898438 32.242188 105.429688 35.964844 109.828125 C 38.613281 112.96875 41.222656 116.140625 43.820312 119.304688 C 50.304688 127.203125 57.007812 135.375 64.304688 142.726562 C 76.03125 154.539062 87.65625 162.601562 100.886719 168.085938 C 102.894531 168.921875 105.046875 169.722656 107.4375 170.535156 C 132.128906 164.597656 152.769531 148.34375 164.25 125.835938 C 162.234375 125.984375 160.054688 126.0625 157.71875 126.0625 C 150.558594 126.0625 142.328125 125.316406 133.269531 123.835938 " fill-opacity="1" fill-rule="nonzero"/><g clip-path="url(#f3f297226a)"><path fill="#6a9700" d="M 8.394531 94.066406 C 11.203125 94.066406 14.054688 94.554688 16.878906 95.523438 C 17.511719 90.722656 18.449219 85.882812 19.679688 81.128906 C 13.3125 77.21875 7.554688 73.269531 2.539062 69.371094 C 0.824219 77.851562 0.394531 86.503906 1.273438 95.128906 C 3.0625 94.589844 4.875 94.253906 6.664062 94.128906 C 7.234375 94.089844 7.804688 94.066406 8.394531 94.066406 " fill-opacity="1" fill-rule="nonzero"/></g><path fill="#6a9700" d="M 16.089844 103.8125 C 15.917969 103.734375 15.75 103.660156 15.578125 103.59375 C 13.480469 102.71875 11.457031 102.234375 9.394531 102.113281 C 9.054688 102.09375 8.726562 102.082031 8.398438 102.082031 C 7.019531 102.082031 5.625 102.257812 4.257812 102.609375 C 3.664062 102.757812 3.078125 102.945312 2.476562 103.171875 C 5.269531 117.292969 11.519531 130.472656 20.632812 141.53125 C 20.300781 140.503906 19.984375 139.472656 19.691406 138.441406 C 16.585938 127.539062 15.375 115.890625 16.089844 103.8125 " fill-opacity="1" fill-rule="nonzero"/></svg>