<svg xmlns="http://www.w3.org/2000/svg" xmlns:xlink="http://www.w3.org/1999/xlink" width="287" zoomAndPan="magnify" viewBox="0 0 215.25 186.749995" height="249" preserveAspectRatio="xMidYMid meet" version="1.0"><defs><clipPath id="863a50cab5"><path d="M 0 0.199219 L 214.503906 0.199219 L 214.503906 186.300781 L 0 186.300781 Z M 0 0.199219 " clip-rule="nonzero"/></clipPath><clipPath id="0e2a12636b"><path d="M 0 0.199219 L 213.753906 0.199219 L 213.753906 185.554688 L 0 185.554688 Z M 0 0.199219 " clip-rule="nonzero"/></clipPath></defs><g clip-path="url(#863a50cab5)"><path fill="#ffffff" d="M 0 0.199219 L 214.503906 0.199219 L 214.503906 186.300781 L 0 186.300781 Z M 0 0.199219 " fill-opacity="1" fill-rule="nonzero"/></g><g clip-path="url(#0e2a12636b)"><path fill="#4b6f00" d="M 212.75 60.71875 C 206.921875 54.808594 199.863281 50.089844 192.171875 46.910156 C 171.328125 38.1875 144.546875 41.507812 128.773438 58.167969 C 129.015625 51.851562 127.625 45.511719 125.265625 39.652344 C 119.246094 24.328125 106.925781 11.628906 91.726562 5.179688 C 84.113281 1.933594 75.832031 0.210938 67.542969 0.183594 C 65.308594 0.167969 63.492188 1.964844 63.480469 4.207031 C 63.421875 12.507812 65.074219 20.835938 68.265625 28.515625 C 77.058594 49.957031 99.203125 66.859375 122.800781 65.3125 C 121.25 66.574219 119.890625 68.066406 118.640625 69.628906 C 108.882812 81.289062 103.1875 95.589844 102.523438 110.800781 C 102.304688 115.457031 102.550781 120.179688 103.179688 124.789062 C 103.3125 125.765625 103.46875 126.75 103.652344 127.726562 C 83.132812 111.996094 51.273438 117.742188 38.890625 142.933594 C 17.859375 142.625 -0.253906 160.265625 0.0429688 181.628906 C 0.0546875 183.804688 1.828125 185.5625 4.007812 185.550781 C 4.007812 185.550781 73.09375 185.1875 73.09375 185.1875 C 73.414062 185.199219 73.71875 185.164062 74.011719 185.089844 L 138.558594 184.640625 C 138.796875 184.695312 139.050781 184.730469 139.3125 184.726562 C 143.753906 184.695312 148.207031 184.652344 152.652344 184.5625 C 165.542969 184.277344 178.609375 183.535156 191.335938 182.511719 C 191.6875 181.679688 191.835938 180.53125 191.773438 179.574219 C 191.761719 176.171875 191.019531 172.789062 189.714844 169.640625 C 182.4375 152.660156 161.3125 147.964844 147.199219 158.433594 C 145.9375 156.421875 144.503906 154.511719 142.925781 152.734375 C 135.542969 144.382812 124.746094 139.25 113.640625 138.605469 C 113.21875 137.953125 112.785156 137.316406 112.335938 136.699219 C 112.0625 133.226562 111.628906 129.753906 111.238281 126.410156 C 110.167969 118.050781 110.398438 109.496094 111.910156 101.21875 C 113.027344 95.472656 114.769531 89.761719 117.261719 84.457031 C 117.261719 84.457031 118.34375 82.167969 118.34375 82.167969 C 118.730469 81.457031 119.796875 79.503906 120.167969 78.824219 C 120.617188 78.101562 121.714844 76.332031 122.1875 75.578125 C 123.964844 72.894531 125.996094 70.519531 127.578125 67.78125 C 131.992188 72.894531 137.800781 76.703125 144.007812 79.347656 C 159.097656 85.925781 176.792969 86.191406 192.101562 80.003906 C 199.777344 76.914062 206.851562 72.273438 212.734375 66.433594 C 214.324219 64.863281 214.332031 62.308594 212.761719 60.714844 Z M 107.917969 37.519531 C 105.414062 35.449219 102.542969 33.527344 99.261719 32.890625 C 98.480469 32.820312 97.601562 32.496094 96.890625 32.984375 C 96.246094 33.441406 96.09375 34.332031 96.550781 34.976562 C 98.632812 37.765625 101.214844 39.984375 103.78125 42.304688 C 108.742188 46.960938 113.167969 52.296875 117.378906 57.683594 C 118.175781 58.703125 118.984375 59.761719 119.789062 60.824219 C 93.847656 54.535156 74.054688 35.746094 71.804688 8.4375 C 96.511719 10.125 117.035156 27.914062 122.90625 52.21875 C 118.316406 46.9375 113.363281 41.988281 107.917969 37.515625 Z M 136.503906 68.628906 C 135.546875 68.078125 134.550781 67.484375 133.554688 66.875 C 138.214844 66.378906 142.902344 65.960938 147.558594 65.707031 C 154.265625 65.484375 160.742188 65.25 167.484375 64.804688 C 167.894531 64.792969 168.289062 64.617188 168.566406 64.277344 C 169.039062 63.675781 168.9375 62.804688 168.335938 62.328125 C 166.800781 61.113281 165.050781 60.320312 163.308594 59.691406 C 158.152344 57.855469 152.6875 57.710938 147.300781 57.804688 C 143.753906 57.847656 140.214844 58.039062 136.691406 58.339844 C 158.664062 46.589844 184.113281 46.871094 203.871094 63.621094 C 185.132812 79.96875 157.886719 81.851562 136.507812 68.632812 Z M 136.503906 68.628906 " fill-opacity="1" fill-rule="nonzero"/><path fill="#4b6f00" d="M 212.75 60.71875 C 206.921875 54.808594 199.863281 50.089844 192.171875 46.910156 C 171.328125 38.1875 144.546875 41.507812 128.773438 58.167969 C 129.015625 51.851562 127.625 45.511719 125.265625 39.652344 C 119.246094 24.328125 106.925781 11.628906 91.726562 5.179688 C 84.113281 1.933594 75.832031 0.210938 67.542969 0.183594 C 65.308594 0.167969 63.492188 1.964844 63.480469 4.207031 C 63.421875 12.507812 65.074219 20.835938 68.265625 28.515625 C 77.058594 49.957031 99.203125 66.859375 122.800781 65.3125 C 121.25 66.574219 119.890625 68.066406 118.640625 69.628906 C 108.882812 81.289062 103.1875 95.589844 102.523438 110.800781 C 102.304688 115.457031 102.550781 120.179688 103.179688 124.789062 C 103.3125 125.765625 103.46875 126.75 103.652344 127.726562 C 83.132812 111.996094 51.273438 117.742188 38.890625 142.933594 C 17.859375 142.625 -0.253906 160.265625 0.0429688 181.628906 C 0.0546875 183.804688 1.828125 185.5625 4.007812 185.550781 C 4.007812 185.550781 73.09375 185.1875 73.09375 185.1875 C 73.414062 185.199219 73.71875 185.164062 74.011719 185.089844 L 138.558594 184.640625 C 138.796875 184.695312 139.050781 184.730469 139.3125 184.726562 C 143.753906 184.695312 148.207031 184.652344 152.652344 184.5625 C 165.542969 184.277344 178.609375 183.535156 191.335938 182.511719 C 191.6875 181.679688 191.835938 180.53125 191.773438 179.574219 C 191.761719 176.171875 191.019531 172.789062 189.714844 169.640625 C 182.4375 152.660156 161.3125 147.964844 147.199219 158.433594 C 145.9375 156.421875 144.503906 154.511719 142.925781 152.734375 C 135.542969 144.382812 124.746094 139.25 113.640625 138.605469 C 113.21875 137.953125 112.785156 137.316406 112.335938 136.699219 C 112.0625 133.226562 111.628906 129.753906 111.238281 126.410156 C 110.167969 118.050781 110.398438 109.496094 111.910156 101.21875 C 113.027344 95.472656 114.769531 89.761719 117.261719 84.457031 C 117.261719 84.457031 118.34375 82.167969 118.34375 82.167969 C 118.730469 81.457031 119.796875 79.503906 120.167969 78.824219 C 120.617188 78.101562 121.714844 76.332031 122.1875 75.578125 C 123.964844 72.894531 125.996094 70.519531 127.578125 67.78125 C 131.992188 72.894531 137.800781 76.703125 144.007812 79.347656 C 159.097656 85.925781 176.792969 86.191406 192.101562 80.003906 C 199.777344 76.914062 206.851562 72.273438 212.734375 66.433594 C 214.324219 64.863281 214.332031 62.308594 212.761719 60.714844 Z M 107.917969 37.519531 C 105.414062 35.449219 102.542969 33.527344 99.261719 32.890625 C 98.480469 32.820312 97.601562 32.496094 96.890625 32.984375 C 96.246094 33.441406 96.09375 34.332031 96.550781 34.976562 C 98.632812 37.765625 101.214844 39.984375 103.78125 42.304688 C 108.742188 46.960938 113.167969 52.296875 117.378906 57.683594 C 118.175781 58.703125 118.984375 59.761719 119.789062 60.824219 C 93.847656 54.535156 74.054688 35.746094 71.804688 8.4375 C 96.511719 10.125 117.035156 27.914062 122.90625 52.21875 C 118.316406 46.9375 113.363281 41.988281 107.917969 37.515625 Z M 136.503906 68.628906 C 135.546875 68.078125 134.550781 67.484375 133.554688 66.875 C 138.214844 66.378906 142.902344 65.960938 147.558594 65.707031 C 154.265625 65.484375 160.742188 65.25 167.484375 64.804688 C 167.894531 64.792969 168.289062 64.617188 168.566406 64.277344 C 169.039062 63.675781 168.9375 62.804688 168.335938 62.328125 C 166.800781 61.113281 165.050781 60.320312 163.308594 59.691406 C 158.152344 57.855469 152.6875 57.710938 147.300781 57.804688 C 143.753906 57.847656 140.214844 58.039062 136.691406 58.339844 C 158.664062 46.589844 184.113281 46.871094 203.871094 63.621094 C 185.132812 79.96875 157.886719 81.851562 136.507812 68.632812 Z M 136.503906 68.628906 " fill-opacity="1" fill-rule="nonzero"/></g></svg>