<svg width="25" height="38" viewBox="0 0 25 38" fill="none" xmlns="http://www.w3.org/2000/svg">
<path d="M24.375 18.7583C24.3626 19.1442 24.2761 19.4971 24.1153 19.8169C23.9545 20.1367 23.7072 20.4455 23.3733 20.7433L4.78596 36.7887C4.25418 37.2629 3.59874 37.5 2.81963 37.5C2.30023 37.5 1.83029 37.3897 1.40981 37.1692C0.976976 36.9486 0.636889 36.6509 0.389551 36.2759C0.129849 35.901 -3.63827e-06 35.4819 -3.59778e-06 35.0187C-3.53801e-06 34.335 0.290617 33.734 0.871859 33.2157L17.6784 18.7748L0.871861 4.31738C0.29062 3.78805 -8.14962e-07 3.18703 -7.56153e-07 2.51433C-7.14698e-07 2.04014 0.129852 1.61557 0.389554 1.24063C0.636892 0.865679 0.97698 0.56793 1.40982 0.347372C1.83029 0.115789 2.30023 -1.92984e-06 2.81963 -1.88443e-06C3.59874 -1.81632e-06 4.25419 0.242609 4.78596 0.727831L23.3733 16.7733C23.7196 17.071 23.9731 17.3798 24.1338 17.6996C24.2946 18.0304 24.375 18.3833 24.375 18.7583Z" fill="black"/>
</svg>
