<svg xmlns="http://www.w3.org/2000/svg" xmlns:xlink="http://www.w3.org/1999/xlink" width="243" zoomAndPan="magnify" viewBox="0 0 182.25 185.249996" height="247" preserveAspectRatio="xMidYMid meet" version="1.0"><defs><clipPath id="623aad291c"><path d="M 61 0.0078125 L 135 0.0078125 L 135 21 L 61 21 Z M 61 0.0078125 " clip-rule="nonzero"/></clipPath><clipPath id="da25cc6988"><path d="M 61 0.0078125 L 135 0.0078125 L 135 21 L 61 21 Z M 61 0.0078125 " clip-rule="nonzero"/></clipPath></defs><path fill="#6a9700" d="M 142.589844 35.953125 C 145.5625 40.984375 148.207031 46.484375 149.933594 50.285156 C 156.605469 53.957031 169.359375 62.125 177.644531 74.644531 C 178.648438 73.601562 179.871094 72.609375 180.917969 71.847656 C 175.292969 47.082031 159.628906 26.09375 138.429688 13.417969 L 133.199219 22.417969 C 135.25 24.96875 139.019531 29.90625 142.589844 35.953125 Z M 142.589844 35.953125 " fill-opacity="1" fill-rule="nonzero"/><path fill="#6a9700" d="M 28.621094 58.375 C 33.105469 60.511719 45.214844 66.199219 53.035156 69.09375 L 88.980469 49.070312 C 89.464844 46.117188 90.210938 41.113281 90.796875 35.074219 C 91.386719 28.996094 91.527344 24.855469 91.546875 22.589844 C 87.441406 20.128906 73.597656 12.480469 59.039062 11.53125 C 48.652344 15.425781 38.457031 22.625 34.902344 25.273438 C 32.746094 29.492188 29.089844 39.308594 28.628906 58.035156 C 28.625 58.160156 28.625 58.253906 28.621094 58.375 Z M 28.621094 58.375 " fill-opacity="1" fill-rule="nonzero"/><g clip-path="url(#623aad291c)"><path fill="#6a9700" d="M 95.152344 19.8125 C 98.585938 19.238281 104.292969 18.527344 111.578125 18.527344 C 119.289062 18.527344 126.203125 19.546875 129.535156 20.128906 L 134.675781 11.289062 C 121.804688 4.398438 107.117188 0.476562 91.527344 0.476562 C 81.511719 0.476562 71.871094 2.113281 62.839844 5.097656 L 61.957031 7.472656 C 79.289062 9.4375 94.476562 19.296875 95.183594 19.765625 Z M 95.152344 19.8125 " fill-opacity="1" fill-rule="nonzero"/></g><path fill="#6a9700" d="M 150.296875 128.214844 C 157.683594 124.304688 169.769531 116.046875 176.910156 101.566406 C 178.042969 94.082031 177.21875 85.960938 176.523438 81.285156 C 170.105469 69.023438 158.339844 60.378906 150.785156 55.800781 C 149.136719 56.828125 145.804688 58.984375 140.671875 62.726562 C 135.667969 66.375 131.097656 69.964844 128.527344 72.015625 C 129.273438 81.621094 130.109375 98.167969 128.59375 112.480469 Z M 150.296875 128.214844 " fill-opacity="1" fill-rule="nonzero"/><path fill="#6a9700" d="M 90.644531 53.082031 L 56.035156 72.367188 C 55.941406 75.421875 55.800781 81.621094 55.871094 90.660156 C 55.949219 100.496094 56.40625 106.359375 56.730469 109.355469 C 63.0625 114.550781 74.054688 122.042969 90.574219 128.484375 C 96.691406 125.769531 116.390625 116.9375 124.269531 112.304688 C 125.757812 98.402344 124.9375 81.933594 124.210938 72.398438 C 120.859375 70.296875 114.15625 66.132812 108.382812 62.804688 C 102.425781 59.375 94.429688 55.09375 90.644531 53.082031 Z M 90.644531 53.082031 " fill-opacity="1" fill-rule="nonzero"/><path fill="#6a9700" d="M 177.660156 109.082031 C 169.304688 122.273438 157.550781 129.542969 150.75 132.871094 C 148.371094 138.859375 142.617188 151.570312 133.46875 161.632812 L 138.667969 170.757812 C 159.773438 158.054688 175.347656 137.09375 180.9375 112.382812 C 179.585938 111.273438 178.476562 110.097656 177.660156 109.082031 Z M 177.660156 109.082031 " fill-opacity="1" fill-rule="nonzero"/><path fill="#6a9700" d="M 95.769531 165.015625 C 79.332031 172.757812 68.167969 174.535156 62.847656 174.890625 C 62.851562 176.246094 62.84375 177.816406 62.816406 179.210938 C 71.855469 182.199219 81.5 183.839844 91.527344 183.839844 C 107.21875 183.839844 121.996094 179.875 134.921875 172.898438 L 129.867188 164.027344 C 125.652344 165.074219 114.171875 167.167969 95.769531 165.015625 Z M 95.769531 165.015625 " fill-opacity="1" fill-rule="nonzero"/><path fill="#6a9700" d="M 24.257812 60.664062 C 24.273438 59.792969 24.289062 58.914062 24.3125 57.929688 C 24.734375 40.875 27.722656 30.757812 30.128906 25.269531 L 29.203125 25 C 11.65625 41.296875 0.496094 64.359375 -0.0976562 90 L 8.40625 90 C 9.988281 84.945312 14.449219 72.980469 24.257812 60.664062 Z M 24.257812 60.664062 " fill-opacity="1" fill-rule="nonzero"/><path fill="#6a9700" d="M 89.261719 132.613281 C 72.433594 126.105469 61.191406 118.585938 54.488281 113.148438 C 49.617188 115.554688 38.675781 121.023438 29.316406 126.179688 C 30.527344 144.109375 35.332031 154.132812 37.648438 157.992188 C 40.863281 160.445312 49.011719 166.21875 59.785156 170.636719 C 60.90625 170.695312 72.007812 170.933594 91.523438 162.195312 C 91.480469 157.304688 91.171875 145.121094 89.261719 132.613281 Z M 89.261719 132.613281 " fill-opacity="1" fill-rule="nonzero"/><path fill="#6a9700" d="M 8.25 94.316406 L -0.0976562 94.316406 C 0.492188 119.746094 11.476562 142.636719 28.777344 158.910156 L 32.613281 157.808594 C 29.785156 152.28125 25.863281 141.757812 24.929688 125.078125 C 21.125 120.058594 12.640625 107.890625 8.25 94.316406 Z M 8.25 94.316406 " fill-opacity="1" fill-rule="nonzero"/><path fill="#6a9700" d="M 142.589844 35.953125 C 145.5625 40.984375 148.207031 46.484375 149.933594 50.285156 C 156.605469 53.957031 169.359375 62.125 177.644531 74.644531 C 178.648438 73.601562 179.871094 72.609375 180.917969 71.847656 C 175.292969 47.082031 159.628906 26.09375 138.429688 13.417969 L 133.199219 22.417969 C 135.25 24.96875 139.019531 29.90625 142.589844 35.953125 Z M 142.589844 35.953125 " fill-opacity="1" fill-rule="nonzero"/><path fill="#6a9700" d="M 28.621094 58.375 C 33.105469 60.511719 45.214844 66.199219 53.035156 69.09375 L 88.980469 49.070312 C 89.464844 46.117188 90.210938 41.113281 90.796875 35.074219 C 91.386719 28.996094 91.527344 24.855469 91.546875 22.589844 C 87.441406 20.128906 73.597656 12.480469 59.039062 11.53125 C 48.652344 15.425781 38.457031 22.625 34.902344 25.273438 C 32.746094 29.492188 29.089844 39.308594 28.628906 58.035156 C 28.625 58.160156 28.625 58.253906 28.621094 58.375 Z M 28.621094 58.375 " fill-opacity="1" fill-rule="nonzero"/><g clip-path="url(#da25cc6988)"><path fill="#6a9700" d="M 95.152344 19.8125 C 98.585938 19.238281 104.292969 18.527344 111.578125 18.527344 C 119.289062 18.527344 126.203125 19.546875 129.535156 20.128906 L 134.675781 11.289062 C 121.804688 4.398438 107.117188 0.476562 91.527344 0.476562 C 81.511719 0.476562 71.871094 2.113281 62.839844 5.097656 L 61.957031 7.472656 C 79.289062 9.4375 94.476562 19.296875 95.183594 19.765625 Z M 95.152344 19.8125 " fill-opacity="1" fill-rule="nonzero"/></g><path fill="#6a9700" d="M 150.296875 128.214844 C 157.683594 124.304688 169.769531 116.046875 176.910156 101.566406 C 178.042969 94.082031 177.21875 85.960938 176.523438 81.285156 C 170.105469 69.023438 158.339844 60.378906 150.785156 55.800781 C 149.136719 56.828125 145.804688 58.984375 140.671875 62.726562 C 135.667969 66.375 131.097656 69.964844 128.527344 72.015625 C 129.273438 81.621094 130.109375 98.167969 128.59375 112.480469 Z M 150.296875 128.214844 " fill-opacity="1" fill-rule="nonzero"/><path fill="#6a9700" d="M 90.644531 53.082031 L 56.035156 72.367188 C 55.941406 75.421875 55.800781 81.621094 55.871094 90.660156 C 55.949219 100.496094 56.40625 106.359375 56.730469 109.355469 C 63.0625 114.550781 74.054688 122.042969 90.574219 128.484375 C 96.691406 125.769531 116.390625 116.9375 124.269531 112.304688 C 125.757812 98.402344 124.9375 81.933594 124.210938 72.398438 C 120.859375 70.296875 114.15625 66.132812 108.382812 62.804688 C 102.425781 59.375 94.429688 55.09375 90.644531 53.082031 Z M 90.644531 53.082031 " fill-opacity="1" fill-rule="nonzero"/><path fill="#6a9700" d="M 177.660156 109.082031 C 169.304688 122.273438 157.550781 129.542969 150.75 132.871094 C 148.371094 138.859375 142.617188 151.570312 133.46875 161.632812 L 138.667969 170.757812 C 159.773438 158.054688 175.347656 137.09375 180.9375 112.382812 C 179.585938 111.273438 178.476562 110.097656 177.660156 109.082031 Z M 177.660156 109.082031 " fill-opacity="1" fill-rule="nonzero"/><path fill="#6a9700" d="M 95.769531 165.015625 C 79.332031 172.757812 68.167969 174.535156 62.847656 174.890625 C 62.851562 176.246094 62.84375 177.816406 62.816406 179.210938 C 71.855469 182.199219 81.5 183.839844 91.527344 183.839844 C 107.21875 183.839844 121.996094 179.875 134.921875 172.898438 L 129.867188 164.027344 C 125.652344 165.074219 114.171875 167.167969 95.769531 165.015625 Z M 95.769531 165.015625 " fill-opacity="1" fill-rule="nonzero"/><path fill="#6a9700" d="M 24.257812 60.664062 C 24.273438 59.792969 24.289062 58.914062 24.3125 57.929688 C 24.734375 40.875 27.722656 30.757812 30.128906 25.269531 L 29.203125 25 C 11.65625 41.296875 0.496094 64.359375 -0.0976562 90 L 8.40625 90 C 9.988281 84.945312 14.449219 72.980469 24.257812 60.664062 Z M 24.257812 60.664062 " fill-opacity="1" fill-rule="nonzero"/><path fill="#6a9700" d="M 89.261719 132.613281 C 72.433594 126.105469 61.191406 118.585938 54.488281 113.148438 C 49.617188 115.554688 38.675781 121.023438 29.316406 126.179688 C 30.527344 144.109375 35.332031 154.132812 37.648438 157.992188 C 40.863281 160.445312 49.011719 166.21875 59.785156 170.636719 C 60.90625 170.695312 72.007812 170.933594 91.523438 162.195312 C 91.480469 157.304688 91.171875 145.121094 89.261719 132.613281 Z M 89.261719 132.613281 " fill-opacity="1" fill-rule="nonzero"/><path fill="#6a9700" d="M 8.25 94.316406 L -0.0976562 94.316406 C 0.492188 119.746094 11.476562 142.636719 28.777344 158.910156 L 32.613281 157.808594 C 29.785156 152.28125 25.863281 141.757812 24.929688 125.078125 C 21.125 120.058594 12.640625 107.890625 8.25 94.316406 Z M 8.25 94.316406 " fill-opacity="1" fill-rule="nonzero"/></svg>