<svg xmlns="http://www.w3.org/2000/svg" xmlns:xlink="http://www.w3.org/1999/xlink" width="128" zoomAndPan="magnify" viewBox="0 0 96 191.249993" height="255" preserveAspectRatio="xMidYMid meet" version="1.0"><defs><clipPath id="7bb6ec119c"><path d="M 0.1875 0 L 95.8125 0 L 95.8125 190.503906 L 0.1875 190.503906 Z M 0.1875 0 " clip-rule="nonzero"/></clipPath><clipPath id="d357c684e0"><path d="M 0.1875 0 L 95.066406 0 L 95.066406 190.503906 L 0.1875 190.503906 Z M 0.1875 0 " clip-rule="nonzero"/></clipPath></defs><g clip-path="url(#7bb6ec119c)"><path fill="#ffffff" d="M 0.1875 0 L 95.8125 0 L 95.8125 190.503906 L 0.1875 190.503906 Z M 0.1875 0 " fill-opacity="1" fill-rule="nonzero"/></g><g clip-path="url(#d357c684e0)"><path fill="#4b6f00" d="M 36.898438 5.335938 L 80.890625 0.238281 L 54.507812 60.0625 L 95.441406 43.066406 C 95.441406 43.066406 16.824219 189.796875 14.632812 190.257812 C 12.441406 190.71875 36.550781 91.328125 36.550781 91.328125 L 0.210938 104.605469 Z M 36.898438 5.335938 " fill-opacity="1" fill-rule="evenodd"/><path fill="#4b6f00" d="M 36.898438 5.335938 L 80.890625 0.238281 L 54.507812 60.0625 L 95.441406 43.066406 C 95.441406 43.066406 16.824219 189.796875 14.632812 190.257812 C 12.441406 190.71875 36.550781 91.328125 36.550781 91.328125 L 0.210938 104.605469 Z M 36.898438 5.335938 " fill-opacity="1" fill-rule="evenodd"/><path fill="#4b6f00" d="M 36.898438 5.335938 L 80.890625 0.238281 L 54.507812 60.0625 L 95.441406 43.066406 C 95.441406 43.066406 16.824219 189.796875 14.632812 190.257812 C 12.441406 190.71875 36.550781 91.328125 36.550781 91.328125 L 0.210938 104.605469 Z M 36.898438 5.335938 " fill-opacity="1" fill-rule="evenodd"/></g></svg>