<svg xmlns="http://www.w3.org/2000/svg" xmlns:xlink="http://www.w3.org/1999/xlink" width="292" zoomAndPan="magnify" viewBox="0 0 218.87999 173.999997" height="232" preserveAspectRatio="xMidYMid meet" version="1.0"><defs><clipPath id="2ad0b11861"><path d="M 47 0.046875 L 167 0.046875 L 167 109 L 47 109 Z M 47 0.046875 " clip-rule="nonzero"/></clipPath><clipPath id="3c53000898"><path d="M 0 104 L 218.761719 104 L 218.761719 136 L 0 136 Z M 0 104 " clip-rule="nonzero"/></clipPath><clipPath id="c258d31f8b"><path d="M 0 141 L 218.761719 141 L 218.761719 171.703125 L 0 171.703125 Z M 0 141 " clip-rule="nonzero"/></clipPath><clipPath id="259d7734ea"><path d="M 47 1.566406 L 167 1.566406 L 167 111 L 47 111 Z M 47 1.566406 " clip-rule="nonzero"/></clipPath><clipPath id="fb9c589887"><path d="M 0.238281 106 L 218.761719 106 L 218.761719 138 L 0.238281 138 Z M 0.238281 106 " clip-rule="nonzero"/></clipPath><clipPath id="c6ed55d934"><path d="M 0.238281 142 L 218.761719 142 L 218.761719 173.222656 L 0.238281 173.222656 Z M 0.238281 142 " clip-rule="nonzero"/></clipPath></defs><g clip-path="url(#2ad0b11861)"><path fill="#6a9700" d="M 151.222656 0.640625 C 156.960938 -1.386719 163.621094 1.9375 165.621094 7.636719 C 168.453125 13.71875 164.902344 21.570312 158.347656 23.246094 C 144.074219 27.664062 129.789062 32.117188 115.527344 36.574219 C 130.65625 59.621094 145.597656 82.792969 160.511719 105.964844 C 155.425781 108.078125 149.585938 109.4375 144.273438 107.324219 C 138.09375 104.820312 133.097656 100.050781 126.765625 97.832031 C 114.496094 93.289062 100.195312 93.894531 88.414062 99.660156 C 81.832031 102.894531 75.929688 108.609375 68.148438 108.480469 C 60.308594 108.871094 54.253906 103.171875 47.710938 99.824219 C 65.910156 88.429688 84.261719 77.253906 102.914062 66.617188 C 98.167969 59.269531 93.703125 51.730469 88.917969 44.402344 C 86.792969 40.878906 84.363281 37.390625 83.441406 33.3125 C 82.714844 27.863281 85.433594 21.757812 90.617188 19.480469 C 96.09375 16.964844 101.984375 15.527344 107.699219 13.703125 C 122.261719 9.511719 136.722656 5.03125 151.222656 0.625 Z M 151.222656 0.640625 " fill-opacity="1" fill-rule="nonzero"/></g><path fill="#6a9700" d="M 162.199219 40.238281 C 175.96875 34.964844 192.292969 46.695312 191.902344 61.34375 C 192.632812 74.109375 180.941406 85.597656 168.214844 84.742188 C 156.230469 84.542969 145.875 73.277344 146.628906 61.332031 C 146.539062 51.855469 153.375 43.246094 162.199219 40.238281 Z M 162.199219 40.238281 " fill-opacity="1" fill-rule="nonzero"/><g clip-path="url(#3c53000898)"><path fill="#6a9700" d="M 16.332031 106.242188 C 27.257812 103.121094 39.1875 105.472656 48.601562 111.667969 C 55.058594 116.019531 62.636719 119.570312 70.640625 118.386719 C 78.597656 117.898438 84.675781 112.320312 91.597656 109.136719 C 103.71875 103.21875 118.875 103.523438 130.417969 110.683594 C 137.113281 114.953125 144.449219 119.496094 152.78125 118.464844 C 162.652344 118.363281 169.738281 110.683594 178.5625 107.523438 C 190.242188 102.71875 203.960938 104.820312 214.535156 111.375 C 219.859375 114.875 219.015625 123.988281 213.035156 126.316406 C 209.523438 128.28125 205.746094 126.128906 202.601562 124.492188 C 195.300781 120.25 185.761719 121.433594 179.015625 126.214844 C 170.542969 131.945312 160.636719 136.109375 150.226562 135.570312 C 140.246094 135.78125 130.945312 131.414062 122.777344 126.078125 C 115.941406 121.445312 106.617188 120.628906 99.214844 124.367188 C 95.023438 126.507812 91.171875 129.289062 86.890625 131.277344 C 74.089844 137.542969 58.15625 136.953125 45.796875 129.890625 C 39.589844 126.304688 33.472656 121.320312 25.832031 121.863281 C 19.667969 121.167969 14.910156 125.664062 9.269531 127.046875 C 2.160156 127.6875 -2.257812 118.539062 2.132812 113.175781 C 5.910156 109.363281 11.320312 107.765625 16.320312 106.242188 Z M 16.332031 106.242188 " fill-opacity="1" fill-rule="nonzero"/></g><g clip-path="url(#c258d31f8b)"><path fill="#6a9700" d="M 18.796875 141.800781 C 24.539062 140.855469 30.476562 140.96875 36.140625 142.363281 C 47.445312 144.933594 55.953125 155.316406 68.175781 154.648438 C 78.28125 154.953125 85.683594 147.25 94.59375 143.863281 C 106.085938 139.46875 119.628906 140.375 130.242188 146.734375 C 137.125 150.8125 144.449219 155.617188 152.871094 154.675781 C 161.140625 154.472656 167.636719 148.835938 174.710938 145.335938 C 186.492188 139.105469 201.242188 140.050781 212.695312 146.582031 C 220.652344 149.339844 219.429688 163.070312 210.617188 163.222656 C 205.382812 163.472656 201.507812 158.992188 196.433594 158.425781 C 189.484375 157.128906 182.511719 159.632812 176.9375 163.699219 C 164.867188 172.171875 148.492188 174.410156 134.796875 168.644531 C 126.148438 165.550781 119.140625 157.59375 109.296875 158.375 C 102.8125 157.960938 97.085938 161.308594 91.925781 164.808594 C 77.96875 173.832031 59.023438 174.222656 44.839844 165.488281 C 38.472656 161.382812 31.398438 156.738281 23.390625 158.402344 C 16.972656 158.261719 11.875 165.386719 5.417969 162.515625 C -0.183594 160.214844 -1.289062 151.753906 3.53125 148.117188 C 8.023438 144.832031 13.410156 142.929688 18.8125 141.8125 Z M 18.796875 141.800781 " fill-opacity="1" fill-rule="nonzero"/></g><g clip-path="url(#259d7734ea)"><path fill="#6a9700" d="M 151.460938 2.15625 C 157.199219 0.128906 163.855469 3.453125 165.859375 9.15625 C 168.691406 15.234375 165.140625 23.089844 158.582031 24.761719 C 144.308594 29.179688 130.023438 33.636719 115.761719 38.09375 C 130.894531 61.136719 145.832031 84.308594 160.75 107.480469 C 155.664062 109.597656 149.824219 110.957031 144.511719 108.839844 C 138.332031 106.335938 133.335938 101.566406 127.003906 99.351562 C 114.730469 94.808594 100.433594 95.410156 88.652344 101.175781 C 82.070312 104.410156 76.164062 110.125 68.386719 110 C 60.546875 110.390625 54.492188 104.6875 47.945312 101.339844 C 66.148438 89.949219 84.5 78.773438 103.152344 68.136719 C 98.40625 60.785156 93.9375 53.246094 89.15625 45.921875 C 87.027344 42.398438 84.597656 38.910156 83.679688 34.832031 C 82.949219 29.382812 85.667969 23.277344 90.855469 21 C 96.328125 18.480469 102.21875 17.046875 107.933594 15.222656 C 122.496094 11.03125 136.960938 6.550781 151.460938 2.144531 Z M 151.460938 2.15625 " fill-opacity="1" fill-rule="nonzero"/></g><path fill="#6a9700" d="M 162.433594 41.753906 C 176.203125 36.480469 192.53125 48.210938 192.140625 62.863281 C 192.871094 75.625 181.175781 87.117188 168.453125 86.261719 C 156.46875 86.058594 146.109375 74.792969 146.867188 62.851562 C 146.777344 53.371094 153.613281 44.761719 162.433594 41.753906 Z M 162.433594 41.753906 " fill-opacity="1" fill-rule="nonzero"/><g clip-path="url(#fb9c589887)"><path fill="#6a9700" d="M 16.566406 107.757812 C 27.492188 104.636719 39.425781 106.992188 48.839844 113.183594 C 55.296875 117.539062 62.875 121.089844 70.878906 119.90625 C 78.835938 119.414062 84.914062 113.839844 91.835938 110.652344 C 103.957031 104.738281 119.113281 105.039062 130.652344 112.203125 C 137.351562 116.46875 144.6875 121.011719 153.019531 119.980469 C 162.886719 119.878906 169.972656 112.203125 178.796875 109.042969 C 190.476562 104.234375 204.199219 106.335938 214.769531 112.894531 C 220.09375 116.394531 219.25 125.507812 213.273438 127.835938 C 209.761719 129.796875 205.984375 127.644531 202.839844 126.011719 C 195.539062 121.769531 185.996094 122.953125 179.25 127.734375 C 170.78125 133.460938 160.875 137.628906 150.464844 137.085938 C 140.484375 137.300781 131.183594 132.933594 123.011719 127.597656 C 116.179688 122.964844 106.851562 122.144531 99.453125 125.882812 C 95.261719 128.023438 91.410156 130.804688 87.128906 132.792969 C 74.328125 139.0625 58.394531 138.46875 46.035156 131.410156 C 39.828125 127.824219 33.710938 122.839844 26.070312 123.378906 C 19.902344 122.6875 15.144531 127.179688 9.507812 128.566406 C 2.394531 129.207031 -2.023438 120.054688 2.371094 114.695312 C 6.144531 110.878906 11.558594 109.28125 16.554688 107.757812 Z M 16.566406 107.757812 " fill-opacity="1" fill-rule="nonzero"/></g><g clip-path="url(#c6ed55d934)"><path fill="#6a9700" d="M 19.035156 143.316406 C 24.773438 142.371094 30.714844 142.484375 36.378906 143.882812 C 47.683594 146.449219 56.191406 156.835938 68.414062 156.167969 C 78.519531 156.46875 85.921875 148.765625 94.832031 145.378906 C 106.324219 140.988281 119.867188 141.894531 130.476562 148.25 C 137.363281 152.328125 144.6875 157.136719 153.109375 156.191406 C 161.378906 155.992188 167.871094 150.351562 174.945312 146.851562 C 186.726562 140.621094 201.480469 141.566406 212.933594 148.097656 C 220.886719 150.855469 219.667969 164.589844 210.855469 164.738281 C 205.621094 164.992188 201.742188 160.511719 196.671875 159.945312 C 189.722656 158.648438 182.75 161.152344 177.175781 165.21875 C 165.101562 173.6875 148.726562 175.929688 135.035156 170.164062 C 126.386719 167.066406 119.375 159.113281 109.53125 159.894531 C 103.050781 159.476562 97.324219 162.824219 92.164062 166.324219 C 78.203125 175.347656 59.261719 175.738281 45.078125 167.003906 C 38.707031 162.902344 31.632812 158.257812 23.628906 159.917969 C 17.210938 159.78125 12.113281 166.902344 5.65625 164.035156 C 0.0546875 161.730469 -1.054688 153.273438 3.765625 149.636719 C 8.261719 146.351562 13.648438 144.449219 19.046875 143.328125 Z M 19.035156 143.316406 " fill-opacity="1" fill-rule="nonzero"/></g></svg>