<svg xmlns="http://www.w3.org/2000/svg" xmlns:xlink="http://www.w3.org/1999/xlink" width="250" zoomAndPan="magnify" viewBox="0 0 187.5 186.749995" height="249" preserveAspectRatio="xMidYMid meet" version="1.0"><defs><clipPath id="ed646d5e40"><path d="M 95 1.636719 L 143 1.636719 L 143 120 L 95 120 Z M 95 1.636719 " clip-rule="nonzero"/></clipPath><clipPath id="21bf281a1e"><path d="M 25 1.636719 L 98 1.636719 L 98 31 L 25 31 Z M 25 1.636719 " clip-rule="nonzero"/></clipPath><clipPath id="dc75276b39"><path d="M 95 0.125 L 143 0.125 L 143 119 L 95 119 Z M 95 0.125 " clip-rule="nonzero"/></clipPath><clipPath id="83fb42dc48"><path d="M 25 0.125 L 98 0.125 L 98 30 L 25 30 Z M 25 0.125 " clip-rule="nonzero"/></clipPath><clipPath id="c8208a699e"><path d="M 29 104 L 131 104 L 131 184.882812 L 29 184.882812 Z M 29 104 " clip-rule="nonzero"/></clipPath></defs><path fill="#6a9700" d="M 155.210938 136.28125 C 154.816406 136.257812 154.617188 135.800781 154.859375 135.492188 C 160.722656 127.988281 166.828125 116.464844 171.445312 103.859375 C 175.855469 91.816406 178.628906 79.75 179.648438 68.480469 C 179.695312 67.945312 180.449219 67.878906 180.597656 68.394531 C 186.894531 90.226562 184.953125 113.230469 175.042969 133.777344 C 174.980469 133.90625 174.867188 134.003906 174.730469 134.042969 C 168.140625 135.90625 161.605469 136.652344 155.210938 136.28125 " fill-opacity="1" fill-rule="nonzero"/><path fill="#6a9700" d="M 123.542969 124.535156 C 123.320312 124.378906 123.265625 124.078125 123.421875 123.859375 C 129.394531 115.453125 138.277344 99.332031 143.742188 80.621094 C 148.507812 64.316406 151.988281 41.425781 144.527344 19.144531 C 144.375 18.699219 144.878906 18.316406 145.261719 18.585938 C 150.523438 22.304688 155.378906 26.558594 159.769531 31.3125 C 164.789062 36.746094 169.140625 42.78125 172.710938 49.265625 C 172.742188 49.324219 172.761719 49.386719 172.769531 49.453125 C 176.691406 81.9375 158.753906 122.59375 146.480469 134.824219 C 146.359375 134.945312 146.1875 134.992188 146.023438 134.953125 C 138.308594 133.160156 130.769531 129.667969 123.542969 124.535156 " fill-opacity="1" fill-rule="nonzero"/><g clip-path="url(#ed646d5e40)"><path fill="#6a9700" d="M 109.542969 112.101562 C 102.585938 104.570312 98.015625 97.378906 96.082031 94.097656 C 95.996094 93.949219 95.992188 93.773438 96.082031 93.621094 C 99.039062 88.441406 106.589844 73.847656 109.140625 55.917969 C 110.859375 43.863281 109.960938 32.59375 106.46875 22.421875 C 104.007812 15.226562 100.210938 8.542969 95.171875 2.515625 C 94.898438 2.191406 95.132812 1.695312 95.554688 1.714844 C 108.882812 2.222656 122.015625 5.648438 134.019531 11.789062 C 134.117188 11.835938 134.191406 11.914062 134.242188 12.011719 C 145.992188 35.332031 142.394531 61.097656 137.246094 78.722656 C 132.050781 96.503906 123.730469 111.703125 118.125 119.640625 C 117.960938 119.875 117.628906 119.914062 117.410156 119.726562 C 114.71875 117.402344 112.082031 114.851562 109.542969 112.101562 " fill-opacity="1" fill-rule="nonzero"/></g><g clip-path="url(#21bf281a1e)"><path fill="#6a9700" d="M 26.300781 30.59375 C 25.8125 30.820312 25.378906 30.199219 25.75 29.8125 C 35.941406 19.265625 48.597656 11.207031 62.664062 6.476562 C 69.957031 4.023438 77.503906 2.492188 85.125 1.910156 C 85.265625 1.898438 85.40625 1.949219 85.507812 2.050781 C 86.359375 2.878906 87.1875 3.726562 87.976562 4.578125 C 91.75 8.667969 94.847656 13.113281 97.230469 17.863281 C 97.40625 18.214844 97.109375 18.617188 96.722656 18.5625 C 87.292969 17.230469 74.265625 17.703125 61.039062 20.007812 C 48.410156 22.207031 36.570312 25.839844 26.300781 30.59375 " fill-opacity="1" fill-rule="nonzero"/></g><path fill="#6a9700" d="M 0.257812 85.355469 C 1.523438 71.574219 5.898438 58.230469 13.15625 46.195312 C 13.1875 46.136719 13.234375 46.089844 13.285156 46.046875 C 39.460938 26.421875 83.613281 21.636719 100.328125 26.148438 C 100.492188 26.195312 100.617188 26.320312 100.667969 26.480469 C 102.976562 34.0625 103.71875 42.339844 102.890625 51.15625 C 102.863281 51.421875 102.628906 51.621094 102.363281 51.597656 C 92.09375 50.628906 73.683594 51 54.746094 55.621094 C 31.988281 61.175781 13.691406 71.484375 1.109375 85.714844 C 0.800781 86.066406 0.214844 85.824219 0.257812 85.355469 " fill-opacity="1" fill-rule="nonzero"/><path fill="#6a9700" d="M 11.410156 136.714844 C 11.265625 137.113281 10.722656 137.15625 10.523438 136.78125 C 8.234375 132.425781 6.289062 127.875 4.707031 123.175781 C 2.007812 115.152344 0.425781 106.851562 -0.00390625 98.484375 C -0.0078125 98.378906 0.0195312 98.273438 0.078125 98.183594 C 14.390625 76.332031 38.507812 66.554688 56.351562 62.199219 C 74.34375 57.804688 91.675781 57.40625 101.355469 58.292969 C 101.644531 58.320312 101.839844 58.589844 101.789062 58.875 C 98.980469 73.644531 92.765625 85.707031 90.253906 90.15625 C 90.167969 90.304688 90.015625 90.394531 89.84375 90.394531 C 83.878906 90.425781 67.46875 91.183594 50.667969 97.933594 C 39.367188 102.472656 30.058594 108.886719 22.992188 116.996094 C 17.992188 122.726562 14.113281 129.335938 11.410156 136.714844 " fill-opacity="1" fill-rule="nonzero"/><path fill="#6a9700" d="M 80.835938 138.738281 C 68.910156 125.828125 60.488281 111.847656 56.617188 103.488281 C 56.496094 103.226562 56.632812 102.917969 56.90625 102.824219 C 71.105469 97.875 84.65625 97.226562 89.761719 97.175781 C 89.933594 97.171875 90.085938 97.261719 90.175781 97.414062 C 92.246094 100.949219 97.09375 108.601562 104.570312 116.695312 C 108.308594 120.742188 112.25 124.398438 116.292969 127.566406 C 125.882812 135.089844 136.09375 139.949219 146.640625 142.007812 C 154.101562 143.46875 161.757812 143.519531 169.496094 142.171875 C 169.910156 142.101562 170.21875 142.550781 169.996094 142.90625 C 162.863281 154.25 153.347656 163.90625 142.097656 171.171875 C 142.007812 171.230469 141.90625 171.257812 141.800781 171.253906 C 126.617188 170.386719 104.089844 163.917969 80.835938 138.738281 " fill-opacity="1" fill-rule="nonzero"/><path fill="#6a9700" d="M 53.722656 158.796875 C 43.457031 147.683594 32.152344 131.367188 29.285156 120.453125 C 29.242188 120.289062 29.289062 120.117188 29.402344 119.992188 C 34.820312 114.203125 41.621094 109.417969 49.667969 105.726562 C 49.914062 105.613281 50.203125 105.71875 50.316406 105.964844 C 54.097656 114.214844 62.542969 128.910156 75.863281 143.332031 C 87.914062 156.378906 106.554688 171.753906 130.433594 176.59375 C 130.894531 176.6875 130.976562 177.3125 130.550781 177.511719 C 127.574219 178.875 124.519531 180.082031 121.398438 181.132812 C 111.3125 184.527344 100.851562 186.144531 90.296875 185.953125 C 90.234375 185.949219 90.167969 185.9375 90.105469 185.910156 C 74.679688 179.339844 61.828125 167.574219 53.722656 158.796875 " fill-opacity="1" fill-rule="nonzero"/><path fill="#6a9700" d="M 24.300781 156.292969 C 21.253906 152.996094 18.433594 149.449219 15.902344 145.734375 C 15.824219 145.617188 15.796875 145.46875 15.832031 145.332031 C 17.515625 138.679688 20.140625 132.636719 23.664062 127.277344 C 23.878906 126.949219 24.375 127 24.523438 127.367188 C 28.804688 137.953125 37.914062 151.65625 48.75 163.390625 C 48.75 163.390625 48.753906 163.390625 48.753906 163.390625 C 54.078125 169.160156 61.363281 176.15625 70.09375 182.316406 C 70.535156 182.628906 70.21875 183.316406 69.695312 183.1875 C 52.421875 178.828125 36.511719 169.511719 24.300781 156.292969 " fill-opacity="1" fill-rule="nonzero"/><path fill="#6a9700" d="M 155.210938 134.765625 C 154.816406 134.742188 154.617188 134.285156 154.859375 133.976562 C 160.722656 126.472656 166.828125 114.949219 171.445312 102.34375 C 175.855469 90.304688 178.628906 78.238281 179.648438 66.964844 C 179.695312 66.429688 180.449219 66.363281 180.597656 66.878906 C 186.894531 88.714844 184.953125 111.71875 175.042969 132.265625 C 174.980469 132.390625 174.867188 132.488281 174.730469 132.527344 C 168.140625 134.390625 161.605469 135.136719 155.210938 134.765625 " fill-opacity="1" fill-rule="nonzero"/><path fill="#6a9700" d="M 123.542969 123.023438 C 123.320312 122.867188 123.265625 122.5625 123.421875 122.34375 C 129.394531 113.9375 138.277344 97.816406 143.742188 79.105469 C 148.507812 62.804688 151.988281 39.910156 144.527344 17.628906 C 144.375 17.183594 144.878906 16.800781 145.261719 17.070312 C 150.523438 20.789062 155.378906 25.046875 159.769531 29.796875 C 164.789062 35.230469 169.140625 41.269531 172.710938 47.753906 C 172.742188 47.808594 172.761719 47.871094 172.769531 47.9375 C 176.691406 80.421875 158.753906 121.078125 146.480469 133.3125 C 146.359375 133.429688 146.1875 133.476562 146.023438 133.441406 C 138.308594 131.648438 130.769531 128.152344 123.542969 123.023438 " fill-opacity="1" fill-rule="nonzero"/><g clip-path="url(#dc75276b39)"><path fill="#6a9700" d="M 109.542969 110.585938 C 102.585938 103.058594 98.015625 95.867188 96.082031 92.585938 C 95.996094 92.433594 95.992188 92.257812 96.082031 92.109375 C 99.039062 86.929688 106.589844 72.332031 109.140625 54.402344 C 110.859375 42.347656 109.960938 31.078125 106.46875 20.910156 C 104.007812 13.714844 100.210938 7.03125 95.171875 1 C 94.898438 0.675781 95.132812 0.183594 95.554688 0.199219 C 108.882812 0.707031 122.015625 4.136719 134.019531 10.273438 C 134.117188 10.324219 134.191406 10.402344 134.242188 10.496094 C 145.992188 33.816406 142.394531 59.582031 137.246094 77.207031 C 132.050781 94.988281 123.730469 110.191406 118.125 118.128906 C 117.960938 118.363281 117.628906 118.398438 117.410156 118.210938 C 114.71875 115.890625 112.082031 113.335938 109.542969 110.585938 " fill-opacity="1" fill-rule="nonzero"/></g><g clip-path="url(#83fb42dc48)"><path fill="#6a9700" d="M 26.300781 29.082031 C 25.8125 29.308594 25.378906 28.683594 25.75 28.300781 C 35.941406 17.75 48.597656 9.695312 62.664062 4.960938 C 69.957031 2.507812 77.503906 0.976562 85.125 0.398438 C 85.265625 0.386719 85.40625 0.4375 85.507812 0.535156 C 86.359375 1.363281 87.1875 2.210938 87.976562 3.066406 C 91.75 7.152344 94.847656 11.601562 97.230469 16.347656 C 97.40625 16.699219 97.109375 17.101562 96.722656 17.046875 C 87.292969 15.71875 74.265625 16.191406 61.039062 18.492188 C 48.410156 20.691406 36.570312 24.324219 26.300781 29.082031 " fill-opacity="1" fill-rule="nonzero"/></g><path fill="#6a9700" d="M 0.257812 83.839844 C 1.523438 70.0625 5.898438 56.714844 13.15625 44.679688 C 13.1875 44.625 13.234375 44.574219 13.285156 44.535156 C 39.460938 24.90625 83.613281 20.121094 100.328125 24.632812 C 100.492188 24.679688 100.617188 24.804688 100.667969 24.96875 C 102.976562 32.550781 103.71875 40.824219 102.890625 49.640625 C 102.863281 49.910156 102.628906 50.105469 102.363281 50.082031 C 92.09375 49.113281 73.683594 49.484375 54.746094 54.109375 C 31.988281 59.664062 13.691406 69.96875 1.109375 84.199219 C 0.800781 84.550781 0.214844 84.308594 0.257812 83.839844 " fill-opacity="1" fill-rule="nonzero"/><path fill="#6a9700" d="M 11.410156 135.203125 C 11.265625 135.597656 10.722656 135.640625 10.523438 135.269531 C 8.234375 130.910156 6.289062 126.359375 4.707031 121.660156 C 2.007812 113.636719 0.425781 105.335938 -0.00390625 96.972656 C -0.0078125 96.867188 0.0195312 96.757812 0.078125 96.671875 C 14.390625 74.816406 38.507812 65.039062 56.351562 60.683594 C 74.34375 56.292969 91.675781 55.894531 101.355469 56.777344 C 101.644531 56.804688 101.839844 57.078125 101.789062 57.359375 C 98.980469 72.128906 92.765625 84.191406 90.253906 88.640625 C 90.167969 88.792969 90.015625 88.882812 89.84375 88.882812 C 83.878906 88.910156 67.46875 89.671875 50.667969 96.421875 C 39.367188 100.957031 30.058594 107.371094 22.992188 115.480469 C 17.992188 121.210938 14.113281 127.820312 11.410156 135.203125 " fill-opacity="1" fill-rule="nonzero"/><path fill="#6a9700" d="M 80.835938 137.222656 C 68.910156 124.316406 60.488281 110.332031 56.617188 101.972656 C 56.496094 101.710938 56.632812 101.40625 56.90625 101.308594 C 71.105469 96.359375 84.65625 95.710938 89.761719 95.660156 C 89.933594 95.660156 90.085938 95.746094 90.175781 95.898438 C 92.246094 99.433594 97.09375 107.085938 104.570312 115.179688 C 108.308594 119.226562 112.25 122.882812 116.292969 126.054688 C 125.882812 133.574219 136.09375 138.433594 146.640625 140.492188 C 154.101562 141.953125 161.757812 142.003906 169.496094 140.660156 C 169.910156 140.585938 170.21875 141.035156 169.996094 141.394531 C 162.863281 152.734375 153.347656 162.390625 142.097656 169.65625 C 142.007812 169.714844 141.90625 169.742188 141.800781 169.738281 C 126.617188 168.871094 104.089844 162.402344 80.835938 137.222656 " fill-opacity="1" fill-rule="nonzero"/><g clip-path="url(#c8208a699e)"><path fill="#6a9700" d="M 53.722656 157.285156 C 43.457031 146.167969 32.152344 129.851562 29.285156 118.9375 C 29.242188 118.773438 29.289062 118.601562 29.402344 118.476562 C 34.820312 112.6875 41.621094 107.902344 49.667969 104.210938 C 49.914062 104.101562 50.203125 104.203125 50.316406 104.449219 C 54.097656 112.699219 62.542969 127.398438 75.863281 141.816406 C 87.914062 154.863281 106.554688 170.238281 130.433594 175.078125 C 130.894531 175.171875 130.976562 175.800781 130.550781 175.996094 C 127.574219 177.359375 124.519531 178.570312 121.398438 179.621094 C 111.3125 183.011719 100.851562 184.632812 90.296875 184.4375 C 90.234375 184.4375 90.167969 184.421875 90.105469 184.394531 C 74.679688 177.828125 61.828125 166.058594 53.722656 157.285156 " fill-opacity="1" fill-rule="nonzero"/></g><path fill="#6a9700" d="M 24.300781 154.78125 C 21.253906 151.480469 18.433594 147.933594 15.902344 144.21875 C 15.824219 144.101562 15.796875 143.953125 15.832031 143.816406 C 17.515625 137.164062 20.140625 131.121094 23.664062 125.761719 C 23.878906 125.433594 24.375 125.488281 24.523438 125.851562 C 28.804688 136.441406 37.914062 150.144531 48.75 161.875 C 48.75 161.878906 48.753906 161.878906 48.753906 161.878906 C 54.078125 167.644531 61.363281 174.644531 70.09375 180.800781 C 70.535156 181.113281 70.21875 181.804688 69.695312 181.671875 C 52.421875 177.316406 36.511719 167.996094 24.300781 154.78125 " fill-opacity="1" fill-rule="nonzero"/></svg>