<svg width="345" height="118" viewBox="0 0 345 118" fill="none" xmlns="http://www.w3.org/2000/svg">
<path d="M344.93 97.3894C337.429 77.3707 325.363 59.3017 309.466 44.2832C293.569 29.2647 274.175 17.6113 252.465 10.0328C230.755 2.45441 207.183 -0.890351 183.186 0.202351C159.19 1.29506 135.27 6.80235 112.886 16.3887C90.5007 25.975 70.1191 39.4397 52.9825 55.9624C35.846 72.485 22.3132 91.7197 13.2087 112.495C4.10424 133.269 -0.381299 155.149 0.0253753 176.802C0.432049 198.454 5.72242 219.425 15.5742 238.437L61.8357 216.045C54.8091 202.485 51.0359 187.528 50.7458 172.085C50.4558 156.642 53.655 141.037 60.1486 126.219C66.6421 111.402 76.294 97.6835 88.5163 85.8991C100.739 74.1146 115.275 64.5113 131.241 57.674C147.206 50.8368 164.266 46.9089 181.381 46.1295C198.496 45.3502 215.308 47.7357 230.792 53.1409C246.277 58.546 260.109 66.8576 271.447 77.5691C282.785 88.2807 291.391 101.168 296.741 115.446L344.93 97.3894Z" fill="url(#paint0_linear_465_3369)"/>
<defs>
<linearGradient id="paint0_linear_465_3369" x1="8.85271" y1="223.318" x2="344.93" y2="97.3894" gradientUnits="userSpaceOnUse">
<stop stop-color="#557A00"/>
<stop offset="1"/>
</linearGradient>
</defs>
</svg>
