<svg width="322" height="168" viewBox="0 0 322 168" fill="none" xmlns="http://www.w3.org/2000/svg">
<circle cx="161.851" cy="89.5558" r="161.833" transform="rotate(-7.50102 161.851 89.5558)" fill="url(#paint0_radial_465_3370)"/>
<circle cx="162.829" cy="85.261" r="124.12" transform="rotate(-7.50102 162.829 85.261)" fill="url(#paint1_linear_465_3370)"/>
<path d="M132.84 66.6753C132.457 63.7665 131.378 60.9784 129.663 58.4701C127.949 55.9618 125.633 53.7826 122.848 52.0567C120.064 50.3309 116.864 49.0922 113.433 48.4116C110.002 47.7309 106.406 47.6215 102.851 48.0896C99.2956 48.5577 95.8506 49.5942 92.7125 51.1399C89.5745 52.6855 86.8048 54.7101 84.5617 57.0979C82.3186 59.4858 80.646 62.1902 79.6393 65.0568C78.6326 67.9233 78.3116 70.8959 78.6946 73.8047L92.231 72.0224C92.0395 70.568 92.2 69.0817 92.7033 67.6484C93.2067 66.2151 94.043 64.8629 95.1645 63.669C96.2861 62.475 97.6709 61.4628 99.2399 60.6899C100.809 59.9171 102.531 59.3989 104.309 59.1648C106.087 58.9308 107.885 58.9855 109.6 59.3258C111.316 59.6661 112.915 60.2854 114.308 61.1484C115.7 62.0113 116.858 63.1009 117.715 64.3551C118.572 65.6092 119.112 67.0033 119.304 68.4577L132.84 66.6753Z" fill="url(#paint2_linear_465_3370)"/>
<path d="M238.67 52.7408C238.287 49.8319 237.207 47.0438 235.493 44.5355C233.779 42.0273 231.463 39.848 228.678 38.1221C225.893 36.3963 222.694 35.1577 219.263 34.477C215.832 33.7963 212.236 33.6869 208.681 34.155C205.125 34.6232 201.68 35.6596 198.542 37.2053C195.404 38.7509 192.635 40.7755 190.392 43.1634C188.148 45.5512 186.476 48.2556 185.469 51.1222C184.462 53.9888 184.141 56.9613 184.525 59.8701L198.061 58.0878C197.869 56.6334 198.03 55.1471 198.533 53.7138C199.037 52.2806 199.873 50.9283 200.994 49.7344C202.116 48.5405 203.501 47.5282 205.07 46.7554C206.639 45.9825 208.361 45.4643 210.139 45.2302C211.917 44.9962 213.714 45.0509 215.43 45.3912C217.146 45.7316 218.745 46.3509 220.138 47.2138C221.53 48.0767 222.688 49.1664 223.545 50.4205C224.402 51.6746 224.942 53.0687 225.134 54.5231L238.67 52.7408Z" fill="url(#paint3_linear_465_3370)"/>
<path d="M235.013 82.0161C239.091 81.4792 242.868 84.3518 243.032 88.4615C243.355 96.5333 242.483 104.618 240.432 112.443C237.752 122.669 233.112 132.251 226.776 140.641C220.441 149.031 212.535 156.066 203.509 161.344C194.483 166.622 184.514 170.04 174.172 171.401C163.829 172.763 153.315 172.043 143.231 169.281C133.146 166.52 123.688 161.771 115.397 155.306C107.106 148.842 100.144 140.788 94.908 131.604C90.9014 124.577 87.966 116.993 86.1887 109.113C85.2838 105.101 88.1882 101.349 92.266 100.812L163.64 91.4139L235.013 82.0161Z" fill="url(#paint4_linear_465_3370)"/>
<defs>
<radialGradient id="paint0_radial_465_3370" cx="0" cy="0" r="1" gradientUnits="userSpaceOnUse" gradientTransform="translate(180.619 92.965) rotate(-109.604) scale(177.189 164.298)">
<stop stop-color="#ACF600"/>
<stop offset="0.886986" stop-color="#C4FF3C" stop-opacity="0"/>
</radialGradient>
<linearGradient id="paint1_linear_465_3370" x1="162.829" y1="-38.859" x2="162.829" y2="209.381" gradientUnits="userSpaceOnUse">
<stop stop-color="#C4FF3C"/>
<stop offset="1" stop-color="#ACF600"/>
</linearGradient>
<linearGradient id="paint2_linear_465_3370" x1="102.851" y1="48.0896" x2="108.684" y2="92.3904" gradientUnits="userSpaceOnUse">
<stop stop-color="#2E4200"/>
<stop offset="1" stop-color="#76A800"/>
</linearGradient>
<linearGradient id="paint3_linear_465_3370" x1="208.681" y1="34.155" x2="214.514" y2="78.4559" gradientUnits="userSpaceOnUse">
<stop stop-color="#2E4200"/>
<stop offset="1" stop-color="#76A800"/>
</linearGradient>
<linearGradient id="paint4_linear_465_3370" x1="153.108" y1="11.4263" x2="174.172" y2="171.401" gradientUnits="userSpaceOnUse">
<stop stop-color="#2E4200"/>
<stop offset="1" stop-color="#76A800"/>
</linearGradient>
</defs>
</svg>
