<svg width="324" height="324" viewBox="0 0 324 324" fill="none" xmlns="http://www.w3.org/2000/svg">
<circle cx="161.851" cy="161.851" r="161.833" transform="rotate(-7.50102 161.851 161.851)" fill="url(#paint0_radial_465_3370)"/>
<circle cx="162.829" cy="157.556" r="124.12" transform="rotate(-7.50102 162.829 157.556)" fill="url(#paint1_linear_465_3370)"/>
<path d="M132.84 138.97C132.457 136.061 131.378 133.273 129.663 130.765C127.949 128.257 125.633 126.077 122.848 124.352C120.064 122.626 116.864 121.387 113.433 120.706C110.002 120.026 106.406 119.916 102.851 120.385C99.2956 120.853 95.8506 121.889 92.7125 123.435C89.5745 124.98 86.8048 127.005 84.5617 129.393C82.3186 131.781 80.646 134.485 79.6393 137.352C78.6326 140.218 78.3116 143.191 78.6946 146.1L92.231 144.317C92.0395 142.863 92.2 141.377 92.7033 139.943C93.2067 138.51 94.043 137.158 95.1645 135.964C96.2861 134.77 97.6709 133.758 99.2399 132.985C100.809 132.212 102.531 131.694 104.309 131.46C106.087 131.226 107.885 131.28 109.6 131.621C111.316 131.961 112.915 132.58 114.308 133.443C115.7 134.306 116.858 135.396 117.715 136.65C118.572 137.904 119.112 139.298 119.304 140.753L132.84 138.97Z" fill="url(#paint2_linear_465_3370)"/>
<path d="M238.67 125.036C238.287 122.127 237.207 119.339 235.493 116.83C233.779 114.322 231.463 112.143 228.678 110.417C225.893 108.691 222.694 107.453 219.263 106.772C215.832 106.091 212.236 105.982 208.681 106.45C205.125 106.918 201.68 107.955 198.542 109.5C195.404 111.046 192.635 113.07 190.392 115.458C188.148 117.846 186.476 120.551 185.469 123.417C184.462 126.284 184.141 129.256 184.524 132.165L198.061 130.383C197.869 128.928 198.03 127.442 198.533 126.009C199.037 124.575 199.873 123.223 200.994 122.029C202.116 120.835 203.501 119.823 205.07 119.05C206.639 118.277 208.361 117.759 210.139 117.525C211.917 117.291 213.714 117.346 215.43 117.686C217.146 118.026 218.745 118.646 220.138 119.509C221.53 120.372 222.688 121.461 223.545 122.715C224.402 123.97 224.942 125.364 225.134 126.818L238.67 125.036Z" fill="url(#paint3_linear_465_3370)"/>
<path d="M235.013 154.311C239.091 153.774 242.868 156.647 243.032 160.756C243.355 168.828 242.483 176.913 240.432 184.738C237.752 194.964 233.112 204.545 226.776 212.936C220.441 221.326 212.535 228.361 203.509 233.639C194.483 238.917 184.514 242.335 174.172 243.696C163.829 245.058 153.315 244.338 143.231 241.576C133.146 238.815 123.688 234.066 115.397 227.601C107.106 221.137 100.144 213.083 94.908 203.899C90.9014 196.872 87.966 189.288 86.1887 181.408C85.2838 177.396 88.1882 173.644 92.266 173.107L163.64 163.709L235.013 154.311Z" fill="url(#paint4_linear_465_3370)"/>
<defs>
<radialGradient id="paint0_radial_465_3370" cx="0" cy="0" r="1" gradientUnits="userSpaceOnUse" gradientTransform="translate(180.619 165.26) rotate(-109.604) scale(177.189 164.298)">
<stop stop-color="#ACF600"/>
<stop offset="0.886986" stop-color="#C4FF3C" stop-opacity="0"/>
</radialGradient>
<linearGradient id="paint1_linear_465_3370" x1="162.829" y1="33.4359" x2="162.829" y2="281.676" gradientUnits="userSpaceOnUse">
<stop stop-color="#C4FF3C"/>
<stop offset="1" stop-color="#ACF600"/>
</linearGradient>
<linearGradient id="paint2_linear_465_3370" x1="102.851" y1="120.385" x2="108.684" y2="164.685" gradientUnits="userSpaceOnUse">
<stop stop-color="#2E4200"/>
<stop offset="1" stop-color="#76A800"/>
</linearGradient>
<linearGradient id="paint3_linear_465_3370" x1="208.681" y1="106.45" x2="214.514" y2="150.751" gradientUnits="userSpaceOnUse">
<stop stop-color="#2E4200"/>
<stop offset="1" stop-color="#76A800"/>
</linearGradient>
<linearGradient id="paint4_linear_465_3370" x1="153.108" y1="83.7212" x2="174.172" y2="243.696" gradientUnits="userSpaceOnUse">
<stop stop-color="#2E4200"/>
<stop offset="1" stop-color="#76A800"/>
</linearGradient>
</defs>
</svg>
