<svg width="13" height="13" viewBox="0 0 13 13" fill="none" xmlns="http://www.w3.org/2000/svg">
<path d="M2.94394 2.28906C2.03447 2.32606 1.47253 2.44122 1.07503 2.79966C0.489365 3.32777 0.489365 4.17776 0.489365 5.87772V8.88287C0.489365 10.5828 0.489365 11.4328 1.07503 11.9609C1.6607 12.489 2.60331 12.489 4.48855 12.489H8.48773C10.373 12.489 11.3156 12.489 11.9012 11.9609C12.4869 11.4328 12.4869 10.5828 12.4869 8.88287V5.87772C12.4869 4.17776 12.4869 3.32777 11.9012 2.79966C11.5037 2.44122 10.9418 2.32606 10.0323 2.28906" stroke="#876A00" stroke-width="0.978723" stroke-linejoin="round"/>
<path d="M3.17244 3.21341C2.85212 2.08546 2.69196 1.52149 2.95227 1.10779C3.02157 0.997656 3.11013 0.897809 3.21469 0.811914C3.60746 0.489258 4.26782 0.489258 5.58854 0.489258H7.38789C8.7086 0.489258 9.36896 0.489258 9.76174 0.811914C9.8663 0.897809 9.95485 0.997656 10.0242 1.10779C10.2845 1.52149 10.1243 2.08546 9.80399 3.21341C9.54862 4.11264 9.42093 4.56225 9.0795 4.85817C8.98657 4.9387 8.88344 5.00959 8.77215 5.06942C8.36323 5.28925 7.83678 5.28925 6.78386 5.28925H6.19257C5.13965 5.28925 4.61319 5.28925 4.20428 5.06942C4.09298 5.00959 3.98986 4.9387 3.89693 4.85817C3.55549 4.56225 3.42781 4.11264 3.17244 3.21341Z" stroke="#876A00" stroke-width="0.978723" stroke-linejoin="round"/>
<path d="M5.15523 10.0889H7.82135" stroke="#876A00" stroke-width="0.978723" stroke-linecap="round" stroke-linejoin="round"/>
<path d="M6.15529 5.28925L6.82182 3.48926" stroke="#876A00" stroke-width="0.978723" stroke-linecap="round" stroke-linejoin="round"/>
</svg>
