<svg width="23" height="24" viewBox="0 0 23 24" fill="none" xmlns="http://www.w3.org/2000/svg">
<g clip-path="url(#clip0_550_511)">
<path d="M13.1351 20.91C12.967 21.1999 12.7255 21.4406 12.4351 21.6079C12.1446 21.7752 11.8153 21.8633 11.4801 21.8633C11.1449 21.8633 10.8156 21.7752 10.5251 21.6079C10.2347 21.4406 9.99328 21.1999 9.82508 20.91M17.2201 8.47334C17.2201 6.95099 16.6154 5.491 15.5389 4.41454C14.4625 3.33809 13.0025 2.73334 11.4801 2.73334C9.95777 2.73334 8.49778 3.33809 7.42132 4.41454C6.34487 5.491 5.74012 6.95099 5.74012 8.47334C5.74012 15.17 2.87012 17.0833 2.87012 17.0833H20.0901C20.0901 17.0833 17.2201 15.17 17.2201 8.47334Z" stroke="#4E7000" stroke-width="2.55111" stroke-linecap="round" stroke-linejoin="round"/>
</g>
<circle cx="3.69" cy="3.69" r="3.28" transform="matrix(-1 0 0 1 9.83984 0)" fill="#E90A0A" stroke="#D2F57F" stroke-width="0.82"/>
<defs>
<clipPath id="clip0_550_511">
<rect width="22.96" height="22.96" fill="white" transform="translate(0 0.820007)"/>
</clipPath>
</defs>
</svg>
