<svg width="33" height="30" viewBox="0 0 33 30" fill="none" xmlns="http://www.w3.org/2000/svg">
<path d="M25.4389 0.949951V8.60273M7.07227 0.949951V8.60273" stroke="#6A9700" stroke-width="1.9" stroke-linecap="round" stroke-linejoin="round"/>
<path d="M29.2655 2.48047V4.7763M29.2655 4.7763V7.07214M29.2655 4.7763H31.5613M3.24603 2.48047V4.7763M3.24603 4.7763V7.07214M3.24603 4.7763H0.950195" stroke="#6A9700" stroke-width="1.9" stroke-linecap="round" stroke-linejoin="round"/>
<path d="M25.4385 4.77637L7.07181 4.77637" stroke="#6A9700" stroke-width="1.9" stroke-linecap="round" stroke-linejoin="round"/>
<path d="M13.1943 4.77637V11.6639M19.3166 4.77637V11.6639" stroke="#6A9700" stroke-width="1.9" stroke-linecap="round" stroke-linejoin="round"/>
<path d="M26.8958 20.8472H5.63754M19.7082 11.6638H13.511C11.9689 11.6638 11.3975 11.8846 10.5495 13.1825L5.9377 20.2415C5.65427 20.6753 5.54199 21.0213 5.54199 21.5483C5.54199 24.8441 6.87838 25.4388 9.89933 25.4388H22.5264C25.6434 25.4388 26.9698 24.8519 26.9698 21.4715C26.9698 21.0029 26.8828 20.6919 26.657 20.2887L22.7747 13.356C21.9572 11.8962 21.3694 11.6638 19.7082 11.6638Z" stroke="#6A9700" stroke-width="1.9" stroke-linecap="round" stroke-linejoin="round"/>
<path d="M22.3782 25.439V28.5001M10.1338 25.439V28.5001" stroke="#6A9700" stroke-width="1.9" stroke-linecap="round" stroke-linejoin="round"/>
</svg>
