<svg width="31" height="31" viewBox="0 0 31 31" fill="none" xmlns="http://www.w3.org/2000/svg">
<path d="M3.76983 24.5802C4.14083 24.2092 4.14083 23.6077 3.76983 23.2367C3.39884 22.8657 2.79733 22.8657 2.42633 23.2367L3.09808 23.9084L3.76983 24.5802ZM5.74764 29.2076L6.41939 29.8793V29.8793L5.74764 29.2076ZM7.74417 28.5545C8.11517 28.1835 8.11517 27.582 7.74417 27.211C7.37317 26.84 6.77166 26.84 6.40067 27.211L7.07242 27.8828L7.74417 28.5545ZM3.09808 23.9084L2.42633 23.2367L1.10156 24.5615L1.77331 25.2332L2.44506 25.905L3.76983 24.5802L3.09808 23.9084ZM5.74764 29.2076L6.41939 29.8793L7.74417 28.5545L7.07242 27.8828L6.40067 27.211L5.07589 28.5358L5.74764 29.2076ZM1.77331 29.2076L1.10156 29.8793C2.57004 31.3478 4.95091 31.3478 6.41939 29.8793L5.74764 29.2076L5.07589 28.5358C4.3494 29.2623 3.17154 29.2623 2.44506 28.5358L1.77331 29.2076ZM1.77331 25.2332L1.10156 24.5615C-0.366925 26.03 -0.366925 28.4108 1.10156 29.8793L1.77331 29.2076L2.44506 28.5358C1.71857 27.8093 1.71857 26.6315 2.44506 25.905L1.77331 25.2332Z" fill="#6A9700"/>
<path d="M23.2365 2.42633C22.8655 2.79733 22.8655 3.39884 23.2365 3.76983C23.6074 4.14083 24.209 4.14083 24.58 3.76983L23.9082 3.09808L23.2365 2.42633ZM29.2073 5.74764L29.8791 6.41939H29.8791L29.2073 5.74764ZM27.2108 6.40067C26.8398 6.77166 26.8398 7.37317 27.2108 7.74417C27.5818 8.11517 28.1833 8.11517 28.5543 7.74417L27.8825 7.07242L27.2108 6.40067ZM23.9082 3.09808L24.58 3.76983L25.9047 2.44506L25.233 1.77331L24.5612 1.10156L23.2365 2.42633L23.9082 3.09808ZM29.2073 5.74764L28.5356 5.07589L27.2108 6.40067L27.8825 7.07242L28.5543 7.74417L29.8791 6.41939L29.2073 5.74764ZM29.2073 1.77331L28.5356 2.44506C29.262 3.17154 29.262 4.3494 28.5356 5.07589L29.2073 5.74764L29.8791 6.41939C31.3475 4.95091 31.3475 2.57004 29.8791 1.10156L29.2073 1.77331ZM25.233 1.77331L25.9047 2.44506C26.6312 1.71857 27.8091 1.71857 28.5356 2.44506L29.2073 1.77331L29.8791 1.10156C28.4106 -0.366925 26.0297 -0.366925 24.5612 1.10156L25.233 1.77331Z" fill="#6A9700"/>
<path d="M8.9854 18.169C8.9854 18.169 10.3713 16.2991 11.2812 15.8731C14.0283 14.5873 14.587 14.0286 15.8729 11.2815C16.2988 10.3715 18.1687 8.98564 18.1687 8.98564M12.8118 21.9954C12.8118 21.9954 14.6817 20.6095 15.1076 19.6995C16.3935 16.9524 16.9522 16.3937 19.6993 15.1079C20.6093 14.6819 21.9951 12.812 21.9951 12.812" stroke="#6A9700" stroke-width="1.9" stroke-linecap="round" stroke-linejoin="round"/>
<path d="M23.1438 12.9261L22.472 13.5978V13.5978L23.1438 12.9261ZM18.0553 7.8376L18.727 7.16585L18.0553 7.8376ZM23.1437 2.74914L23.8155 2.07739V2.07739L23.1437 2.74914ZM28.2322 7.8376L27.5605 8.50935H27.5605L28.2322 7.8376ZM20.5995 0.950098L20.5995 9.82285e-05H20.5995V0.950098ZM16.2563 5.29337H17.2063V5.29337H16.2563ZM25.688 14.7251L25.688 15.6751H25.688L25.688 14.7251ZM30.0312 10.3818H30.9812V10.3818L30.0312 10.3818ZM23.1438 12.9261L23.8155 12.2543L18.727 7.16585L18.0553 7.8376L17.3835 8.50935L22.472 13.5978L23.1438 12.9261ZM23.1437 2.74914L22.472 3.42089L27.5605 8.50935L28.2322 7.8376L28.904 7.16585L23.8155 2.07739L23.1437 2.74914ZM18.0553 2.74914L18.727 3.42089C19.3457 2.80222 19.7436 2.40722 20.074 2.15513C20.3825 1.91976 20.5182 1.9001 20.5995 1.9001L20.5995 0.950098V9.82285e-05C19.9357 9.91821e-05 19.399 0.280273 18.9215 0.644588C18.4659 0.992177 17.9642 1.4967 17.3835 2.07739L18.0553 2.74914ZM23.1437 2.74914L23.8155 2.07739C23.2348 1.4967 22.7331 0.992176 22.2776 0.644588C21.8001 0.280273 21.2633 9.82285e-05 20.5995 9.82285e-05L20.5995 0.950098V1.9001C20.6809 1.9001 20.8166 1.91976 21.1251 2.15513C21.4555 2.40722 21.8533 2.80222 22.472 3.42089L23.1437 2.74914ZM18.0553 7.8376L18.727 7.16585C18.1084 6.54718 17.7134 6.14932 17.4613 5.81892C17.2259 5.51043 17.2063 5.37473 17.2063 5.29337H16.2563H15.3063C15.3063 5.95719 15.5864 6.49393 15.9507 6.97142C16.2983 7.42699 16.8029 7.92866 17.3835 8.50935L18.0553 7.8376ZM18.0553 2.74914L17.3835 2.07739C16.8028 2.65808 16.2983 3.15975 15.9507 3.61532C15.5864 4.09281 15.3063 4.62955 15.3063 5.29337L16.2563 5.29337H17.2063C17.2063 5.212 17.2259 5.07631 17.4613 4.76782C17.7134 4.43741 18.1084 4.03956 18.727 3.42089L18.0553 2.74914ZM28.2322 12.9261L27.5605 12.2543C26.9418 12.873 26.5439 13.268 26.2135 13.5201C25.905 13.7554 25.7693 13.7751 25.688 13.7751L25.688 14.7251L25.688 15.6751C26.3518 15.6751 26.8885 15.3949 27.366 15.0306C27.8216 14.683 28.3233 14.1785 28.904 13.5978L28.2322 12.9261ZM23.1438 12.9261L22.472 13.5978C23.0527 14.1785 23.5544 14.683 24.0099 15.0306C24.4874 15.3949 25.0242 15.6751 25.688 15.6751L25.688 14.7251V13.7751C25.6066 13.7751 25.4709 13.7554 25.1624 13.5201C24.832 13.268 24.4342 12.873 23.8155 12.2543L23.1438 12.9261ZM28.2322 12.9261L28.904 13.5978C29.4847 13.0171 29.9892 12.5154 30.3368 12.0599C30.7011 11.5824 30.9812 11.0457 30.9812 10.3818H30.0312H29.0813C29.0813 10.4632 29.0616 10.5989 28.8262 10.9074C28.5741 11.2378 28.1791 11.6356 27.5605 12.2543L28.2322 12.9261ZM28.2322 7.8376L27.5605 8.50935C28.1791 9.12802 28.5741 9.52587 28.8262 9.85628C29.0616 10.1648 29.0813 10.3005 29.0813 10.3818H30.0312L30.9812 10.3818C30.9812 9.718 30.7011 9.18127 30.3368 8.70378C29.9892 8.24821 29.4847 7.74654 28.904 7.16585L28.2322 7.8376Z" fill="#6A9700"/>
<path d="M12.9265 23.1433L13.5983 22.4715V22.4715L12.9265 23.1433ZM7.83809 18.0548L7.16633 18.7266L7.83809 18.0548ZM2.74963 23.1433L2.07788 23.815V23.815L2.74963 23.1433ZM7.83809 28.2317L8.50984 27.56V27.56L7.83809 28.2317ZM0.950586 20.599H0.00058651V20.599L0.950586 20.599ZM5.29386 16.2558V17.2058V17.2058V16.2558ZM14.7256 25.6875L15.6756 25.6875V25.6875L14.7256 25.6875ZM10.3823 30.0308L10.3823 30.9808H10.3823V30.0308ZM12.9265 23.1433L13.5983 22.4715L8.50984 17.3831L7.83809 18.0548L7.16633 18.7266L12.2548 23.815L12.9265 23.1433ZM2.74963 23.1433L2.07788 23.815L7.16634 28.9035L7.83809 28.2317L8.50984 27.56L3.42138 22.4715L2.74963 23.1433ZM2.74963 18.0548L2.07788 17.3831C1.49719 17.9637 0.992665 18.4654 0.645077 18.921C0.280762 19.3985 0.000587463 19.9352 0.00058651 20.599H0.950586L1.90059 20.599C1.90059 20.5177 1.92025 20.382 2.15562 20.0735C2.40771 19.7431 2.80271 19.3452 3.42138 18.7266L2.74963 18.0548ZM2.74963 23.1433L3.42138 22.4715C2.80271 21.8528 2.40771 21.455 2.15562 21.1246C1.92025 20.8161 1.90059 20.6804 1.90059 20.599H0.950586L0.00058651 20.599C0.00058651 21.2629 0.280762 21.7996 0.645076 22.2771C0.992664 22.7327 1.49719 23.2343 2.07788 23.815L2.74963 23.1433ZM7.83809 18.0548L8.50984 17.3831C7.92915 16.8024 7.42748 16.2978 6.97191 15.9503C6.49442 15.5859 5.95768 15.3058 5.29386 15.3058V16.2558V17.2058C5.37522 17.2058 5.51092 17.2254 5.8194 17.4608C6.14981 17.7129 6.54766 18.1079 7.16633 18.7266L7.83809 18.0548ZM2.74963 18.0548L3.42138 18.7266C4.04005 18.1079 4.4379 17.7129 4.76831 17.4608C5.07679 17.2254 5.21249 17.2058 5.29386 17.2058V16.2558L5.29386 15.3058C4.63003 15.3058 4.0933 15.5859 3.61581 15.9503C3.16023 16.2978 2.65857 16.8024 2.07788 17.3831L2.74963 18.0548ZM12.9265 28.2317L13.5983 28.9035C14.179 28.3228 14.6835 27.8211 15.0311 27.3655C15.3954 26.8881 15.6756 26.3513 15.6756 25.6875L14.7256 25.6875L13.7756 25.6875C13.7756 25.7689 13.7559 25.9046 13.5206 26.213C13.2685 26.5434 12.8735 26.9413 12.2548 27.56L12.9265 28.2317ZM12.9265 23.1433L12.2548 23.815C12.8735 24.4337 13.2685 24.8315 13.5206 25.1619C13.7559 25.4704 13.7756 25.6061 13.7756 25.6875H14.7256L15.6756 25.6875C15.6756 25.0237 15.3954 24.4869 15.0311 24.0094C14.6835 23.5539 14.179 23.0522 13.5983 22.4715L12.9265 23.1433ZM12.9265 28.2317L12.2548 27.56C11.6361 28.1786 11.2383 28.5736 10.9079 28.8257C10.5994 29.0611 10.4637 29.0808 10.3823 29.0808V30.0308V30.9808C11.0461 30.9808 11.5829 30.7006 12.0604 30.3363C12.5159 29.9887 13.0176 29.4842 13.5983 28.9035L12.9265 28.2317ZM7.83809 28.2317L7.16634 28.9035C7.74703 29.4842 8.24869 29.9887 8.70427 30.3363C9.18176 30.7006 9.71849 30.9808 10.3823 30.9808L10.3823 30.0308V29.0808C10.301 29.0808 10.1653 29.0611 9.85677 28.8257C9.52636 28.5736 9.12851 28.1786 8.50984 27.56L7.83809 28.2317Z" fill="#6A9700"/>
</svg>
