<svg width="21" height="21" viewBox="0 0 21 21" fill="none" xmlns="http://www.w3.org/2000/svg">
<path d="M10.3 0C4.61177 0 0 4.61177 0 10.3C0 15.9882 4.61177 20.6 10.3 20.6C15.9882 20.6 20.6 15.9882 20.6 10.3C20.6 4.61177 15.9882 0 10.3 0ZM10.3 18.415C5.82516 18.415 2.18498 14.7748 2.18498 10.3C2.18498 5.82516 5.82516 2.18498 10.3 2.18498C14.7748 2.18498 18.415 5.82516 18.415 10.3C18.415 14.7748 14.7748 18.415 10.3 18.415Z" fill="#2E4200"/>
<path d="M11.3925 9.84698V4.79968C11.3925 4.19662 10.9031 3.70719 10.3 3.70719C9.69694 3.70719 9.20751 4.19662 9.20751 4.79968V10.3C9.20751 10.5899 9.32259 10.8681 9.52797 11.072L12.0145 13.5585C12.2272 13.7712 12.5068 13.879 12.7865 13.879C13.0662 13.879 13.3459 13.7727 13.5585 13.5585C13.9853 13.1317 13.9853 12.4398 13.5585 12.013L11.3925 9.84698Z" fill="#2E4200"/>
</svg>
