<svg width="11" height="6" viewBox="0 0 11 6" fill="none" xmlns="http://www.w3.org/2000/svg">
<path d="M5.49757 6C5.38436 5.99696 5.28084 5.97565 5.18703 5.93607C5.09322 5.8965 5.00265 5.83562 4.91531 5.75342L0.208646 1.17808C0.0695486 1.04718 0 0.885844 0 0.694063C0 0.566209 0.0323482 0.450532 0.0970446 0.347032C0.161741 0.240487 0.249081 0.156773 0.359065 0.09589C0.469049 0.0319629 0.591972 0 0.727834 0C0.928393 0 1.10469 0.071537 1.25673 0.214612L5.49272 4.3516L9.73357 0.214612C9.88884 0.071537 10.0651 0 10.2625 0C10.4016 0 10.5261 0.0319629 10.6361 0.09589C10.7461 0.156773 10.8334 0.240487 10.8981 0.347032C10.966 0.450532 11 0.566209 11 0.694063C11 0.885844 10.9288 1.04718 10.7865 1.17808L6.07984 5.75342C5.9925 5.83866 5.90193 5.90107 5.80812 5.94064C5.71107 5.98021 5.60756 6 5.49757 6Z" fill="white"/>
</svg>
