<svg width="28" height="29" viewBox="0 0 28 29" fill="none" xmlns="http://www.w3.org/2000/svg">
<path d="M16.0183 25.4999C15.8132 25.8535 15.5188 26.147 15.1646 26.351C14.8104 26.5551 14.4088 26.6624 14 26.6624C13.5912 26.6624 13.1896 26.5551 12.8354 26.351C12.4812 26.147 12.1868 25.8535 11.9817 25.4999M21 10.3333C21 8.47674 20.2625 6.69626 18.9497 5.3835C17.637 4.07075 15.8565 3.33325 14 3.33325C12.1435 3.33325 10.363 4.07075 9.05025 5.3835C7.7375 6.69626 7 8.47674 7 10.3333C7 18.4999 3.5 20.8333 3.5 20.8333H24.5C24.5 20.8333 21 18.4999 21 10.3333Z" stroke="#4E7000" stroke-width="3.11111" stroke-linecap="round" stroke-linejoin="round"/>
</svg>
