<svg width="35" height="32" viewBox="0 0 35 32" fill="none" xmlns="http://www.w3.org/2000/svg">
<path d="M23.6342 26.7397L20.7849 32H12.8214L9.35113 26.1918L0.547474 10.0091L-0.000469208 6.6484L1.82602 2.7032L5.66163 0H8.18218L12.0178 1.86301L11.616 3.72603L9.16848 4.45662L9.78948 2.7032H7.08629L7.41505 4.3105L9.35113 5.11415L11.7621 4.3105L12.6388 4.63927L12.8214 6.0274L10.7758 7.08676L8.98583 8.80365L6.6114 9.38813L15.7073 20.0183L17.205 23.3059V21.2968L16.4014 19.4338L17.753 15.9635L20.0909 13.6256L24.2187 13.2603L20.3831 12.7489L20.7849 7.92694L24.2187 4.63927H34.7393L23.6342 26.7397Z" fill="#AFFA01"/>
</svg>
