<svg width="22" height="22" viewBox="0 0 22 22" fill="none" xmlns="http://www.w3.org/2000/svg">
<g clip-path="url(#clip0_540_2263)">
<path d="M20.5394 3.57195V8.93005M20.5394 8.93005H15.1813M20.5394 8.93005L16.4047 5.0365C15.1729 3.8039 13.5738 3.00505 11.8485 2.76032C10.1231 2.5156 8.36501 2.83826 6.83901 3.67968C5.31301 4.5211 4.10182 5.8357 3.38795 7.42537C2.67409 9.01505 2.49623 10.7937 2.88117 12.4932C3.26611 14.1928 4.193 15.7212 5.52217 16.8481C6.85133 17.9751 8.51076 18.6395 10.2504 18.7412C11.99 18.843 13.7156 18.3766 15.1671 17.4124C16.6186 16.4481 17.7174 15.0382 18.2979 13.3951" stroke="#808080" stroke-width="1.9484" stroke-linecap="round" stroke-linejoin="round"/>
</g>
<path d="M11.5256 11.0762L9.42631 7.79321" stroke="#808080" stroke-width="1.9484" stroke-linecap="round"/>
<line x1="9.06422" y1="12.6515" x2="11.5264" y2="11.077" stroke="#808080" stroke-width="1.9484" stroke-linecap="round"/>
<defs>
<clipPath id="clip0_540_2263">
<rect width="21.4324" height="21.4324" fill="white" transform="translate(0.000488281)"/>
</clipPath>
</defs>
</svg>
