<svg width="13" height="13" viewBox="0 0 13 13" fill="none" xmlns="http://www.w3.org/2000/svg">
<path d="M11.053 1.36699H10.7612V0.68624C10.7612 0.307436 10.4537 0 10.0749 0C9.69612 0 9.38868 0.307436 9.38868 0.68624V1.36699H3.93719V0.68624C3.93719 0.307436 3.62975 0 3.25095 0C2.87214 0 2.56471 0.307436 2.56471 0.68624V1.36699H1.79429C0.805189 1.36699 0 2.17218 0 3.16128V11.0521C0 12.0412 0.805189 12.8464 1.79429 12.8464H11.053C12.0421 12.8464 12.8473 12.0412 12.8473 11.0521V3.16128C12.8473 2.17218 12.0421 1.36699 11.053 1.36699ZM1.79429 2.73947H11.053C11.2854 2.73947 11.4749 2.92887 11.4749 3.16128V4.68016H1.37248V3.16128C1.37248 2.92887 1.56188 2.73947 1.79429 2.73947ZM11.053 11.4739H1.79429C1.56188 11.4739 1.37248 11.2845 1.37248 11.0521V6.05355H11.4749V11.0521C11.4749 11.2845 11.2854 11.4739 11.053 11.4739Z" fill="#6D6D6D"/>
</svg>
