<svg width="24" height="24" viewBox="0 0 24 24" fill="none" xmlns="http://www.w3.org/2000/svg">
<path d="M11.9361 23.8671C9.53234 23.8671 6.63171 22.8313 4.36443 21.1618C1.5497 19.0903 0 16.2786 0 13.2456C0 10.8682 0.822015 8.0768 2.2538 5.5845C3.7715 2.94518 5.74737 1.0071 7.81419 0.130142C8.35659 -0.0996572 8.92593 -0.021931 9.33694 0.337975C10.0646 0.974992 9.83049 1.83843 9.53402 2.93167C8.67832 6.0931 8.91414 7.32996 10.4672 7.83349C12.305 8.42995 13.4874 6.98188 14.9563 4.87144C15.4246 4.19725 15.8305 3.61599 16.2769 3.19357C16.5801 2.90632 17.6632 2.02937 18.8508 2.8117C21.9468 4.84948 23.8687 8.849 23.8687 13.2473C23.8687 19.7307 16.7991 23.8687 11.9327 23.8687L11.9361 23.8671ZM6.69571 3.9269C4.38632 6.1573 2.52668 10.074 2.52668 13.2456C2.52668 16.0708 4.33916 17.9987 5.85854 19.1173C7.68449 20.4623 10.0697 21.3308 11.9344 21.3308C13.7991 21.3308 16.1843 20.4623 18.0102 19.1173C19.5296 17.9987 21.3421 16.0708 21.3421 13.2456C21.3421 9.88478 20.0147 6.85515 17.8502 5.20262C17.6076 5.48649 17.2825 5.95285 17.0265 6.32121C15.6873 8.24409 13.447 11.463 9.68899 10.2447C7.79061 9.62964 6.69908 8.25084 6.53232 6.257C6.46663 5.46791 6.5559 4.66023 6.69571 3.9269Z" fill="#E10000"/>
</svg>
