<svg width="25" height="18" viewBox="0 0 25 18" fill="none" xmlns="http://www.w3.org/2000/svg">
<path d="M23.929 7.45878H23.2203V4.47188C23.2203 4.11407 22.9268 3.82415 22.5646 3.82415H19.4949V0H13.8867V7.68931H11.1162V0.647729C11.1162 0.289922 10.8227 0 10.4605 0H6.16517C5.80293 0 5.50942 0.289922 5.50942 0.647729V3.82415H2.43829C2.07606 3.82415 1.78254 4.11407 1.78254 4.47188V7.63415H1.07382C0.481072 7.63415 0 8.10934 0 8.69484C0 9.28035 0.481072 9.75554 1.07382 9.75554H1.78254V12.7424C1.78254 13.1003 2.07606 13.3902 2.43829 13.3902H5.50799V16.8523C5.50799 17.2101 5.8015 17.5 6.16374 17.5H10.459C10.8213 17.5 11.1148 17.2101 11.1148 16.8523V9.81069H13.8852V16.8523C13.8852 17.2101 14.1787 17.5 14.541 17.5H18.8363C19.1985 17.5 19.492 17.2101 19.492 16.8523V13.3902H22.5617C22.9239 13.3902 23.2175 13.1003 23.2175 12.7424V9.58017H23.9262C24.5189 9.58017 25 9.10498 25 8.51948C25 7.93397 24.5189 7.45878 23.9262 7.45878H23.929ZM4.58593 11.2688C4.2237 11.2688 3.93019 10.9789 3.93019 10.6211V6.59326C3.93019 6.23545 4.2237 5.94553 4.58593 5.94553C4.94817 5.94553 5.24168 6.23545 5.24168 6.59326V10.6211C5.24168 10.9789 4.94817 11.2688 4.58593 11.2688ZM8.31138 15.3786C7.94914 15.3786 7.65563 15.0887 7.65563 14.7309V2.76911C7.65563 2.41131 7.94914 2.12138 8.31138 2.12138C8.67362 2.12138 8.96713 2.41131 8.96713 2.76911V14.7309C8.96713 15.0887 8.67362 15.3786 8.31138 15.3786ZM16.6901 15.3786C16.3278 15.3786 16.0343 15.0887 16.0343 14.7309V2.76911C16.0343 2.41131 16.3278 2.12138 16.6901 2.12138C17.0523 2.12138 17.3458 2.41131 17.3458 2.76911V14.7309C17.3458 15.0887 17.0523 15.3786 16.6901 15.3786ZM20.4155 11.2688C20.0533 11.2688 19.7598 10.9789 19.7598 10.6211V6.59326C19.7598 6.23545 20.0533 5.94553 20.4155 5.94553C20.7777 5.94553 21.0712 6.23545 21.0712 6.59326V10.6211C21.0712 10.9789 20.7777 11.2688 20.4155 11.2688Z" fill="#876A00"/>
</svg>
