<svg width="8" height="10" viewBox="0 0 8 10" fill="none" xmlns="http://www.w3.org/2000/svg">
<path d="M3.18188 0.5C3.18188 0.223858 3.40574 0 3.68188 0C3.95803 0 4.18188 0.223858 4.18188 0.5L3.68188 0.5H3.18188ZM4.03544 9.85355C3.84018 10.0488 3.52359 10.0488 3.32833 9.85355L0.146351 6.67157C-0.0489113 6.47631 -0.0489113 6.15973 0.146351 5.96447C0.341613 5.7692 0.658195 5.7692 0.853458 5.96447L3.68188 8.79289L6.51031 5.96447C6.70557 5.7692 7.02216 5.7692 7.21742 5.96447C7.41268 6.15973 7.41268 6.47631 7.21742 6.67157L4.03544 9.85355ZM3.68188 0.5L4.18188 0.5L4.18188 9.5H3.68188H3.18188L3.18188 0.5H3.68188Z" fill="#808080"/>
</svg>
