<svg width="20" height="20" viewBox="0 0 20 20" fill="none" xmlns="http://www.w3.org/2000/svg">
<path d="M9 2.98116H2.875C2.41087 2.98116 1.96575 3.16553 1.63756 3.49372C1.30937 3.82191 1.125 4.26703 1.125 4.73116V16.9812C1.125 17.4453 1.30937 17.8904 1.63756 18.2186C1.96575 18.5468 2.41087 18.7312 2.875 18.7312H15.125C15.5891 18.7312 16.0342 18.5468 16.3624 18.2186C16.6906 17.8904 16.875 17.4453 16.875 16.9812V10.8562M15.5625 1.66866C15.9106 1.32056 16.3827 1.125 16.875 1.125C17.3673 1.125 17.8394 1.32056 18.1875 1.66866C18.5356 2.01675 18.7312 2.48887 18.7312 2.98116C18.7312 3.47344 18.5356 3.94556 18.1875 4.29366L9.875 12.6062L6.375 13.4812L7.25 9.98116L15.5625 1.66866Z" stroke="#1E1E1E" stroke-width="2.25" stroke-linecap="round" stroke-linejoin="round"/>
</svg>
