<svg width="20" height="20" viewBox="0 0 20 20" fill="none" xmlns="http://www.w3.org/2000/svg">
<path d="M18.629 6.87246H17.5565L18.3145 6.11304C18.8493 5.57826 18.8493 4.70725 18.3145 4.17246L15.8304 1.68841C15.571 1.42899 15.2261 1.28551 14.8594 1.28551C14.4928 1.28551 14.1478 1.42899 13.8884 1.68696L13.129 2.44493V1.37246C13.129 0.615942 12.513 0 11.7565 0H8.24348C7.48696 0 6.87101 0.615942 6.87101 1.37246V2.44493L6.11159 1.68551C5.57681 1.15072 4.7058 1.15072 4.17101 1.68551L1.68696 4.17246C1.15217 4.70725 1.15217 5.57826 1.68696 6.11304L2.44493 6.87246H1.37246C0.615942 6.87246 0 7.48841 0 8.24493V11.758C0 12.5145 0.615942 13.1304 1.37246 13.1304H2.44493L1.68551 13.8899C1.15072 14.4246 1.15072 15.2957 1.68551 15.8304L4.16957 18.3145C4.42899 18.5739 4.77391 18.7159 5.14058 18.7159C5.50725 18.7159 5.85217 18.5725 6.11159 18.313L6.87101 17.5551V18.6275C6.87101 19.3841 7.48696 20 8.24348 20H11.7565C12.513 20 13.129 19.3841 13.129 18.6275V17.5551L13.887 18.313C14.1464 18.5725 14.4913 18.7159 14.858 18.7159C15.2246 18.7159 15.5696 18.5725 15.829 18.313L18.313 15.829C18.8478 15.2942 18.8478 14.4232 18.313 13.8884L17.5551 13.129H18.6275C19.3841 13.129 20 12.513 20 11.7565V8.24348C20 7.48696 19.3841 6.87101 18.6275 6.87101L18.629 6.87246ZM18.2623 11.3928H16.671C16.1145 11.3928 15.6159 11.7246 15.4029 12.2406C15.1899 12.7551 15.3072 13.342 15.7 13.7362L16.8246 14.8609L14.858 16.8275L13.7333 15.7029C13.3391 15.3087 12.7522 15.1913 12.2377 15.4058C11.7232 15.6188 11.3899 16.1174 11.3899 16.6739V18.2652H8.6087V16.6739C8.6087 16.1174 8.27681 15.6188 7.76087 15.4058C7.24638 15.1928 6.65942 15.3087 6.26522 15.7029L5.14058 16.8275L3.17391 14.8609L4.29855 13.7362C4.69275 13.342 4.8087 12.7551 4.59565 12.2406C4.38261 11.7261 3.88406 11.3928 3.32754 11.3928H1.73913V8.61159H3.33043C3.88696 8.61159 4.38551 8.27971 4.59855 7.76377C4.81159 7.24928 4.69565 6.66232 4.30145 6.26812L3.17681 5.14348L5.14348 3.17681L6.26812 4.30145C6.66232 4.69565 7.24928 4.81159 7.76377 4.59855C8.27826 4.38551 8.61159 3.88696 8.61159 3.33043V1.74058H11.3928V3.33188C11.3928 3.88841 11.7246 4.38696 12.2406 4.6C12.7551 4.81304 13.342 4.6971 13.7362 4.3029L14.8609 3.17826L16.8275 5.14493L15.7029 6.26956C15.3087 6.66377 15.1928 7.25072 15.4058 7.76522C15.6188 8.27971 16.1174 8.61304 16.6739 8.61304H18.2652V11.3942L18.2623 11.3928Z" fill="#808080"/>
<path d="M10 5.68696C7.62029 5.68696 5.68406 7.62319 5.68406 10.0029C5.68406 12.3826 7.62029 14.3188 10 14.3188C12.3797 14.3188 14.3159 12.3826 14.3159 10.0029C14.3159 7.62319 12.3797 5.68696 10 5.68696ZM10 12.1435C8.81884 12.1435 7.85797 11.1826 7.85797 10.0014C7.85797 8.82029 8.81884 7.85942 10 7.85942C11.1812 7.85942 12.142 8.82029 12.142 10.0014C12.142 11.1826 11.1812 12.1435 10 12.1435Z" fill="#808080"/>
</svg>
