<svg width="8" height="10" viewBox="0 0 8 10" fill="none" xmlns="http://www.w3.org/2000/svg">
<path d="M3.18198 0.5C3.18198 0.223858 3.40583 0 3.68198 0C3.95812 0 4.18198 0.223858 4.18198 0.5L3.68198 0.5H3.18198ZM4.03553 9.85355C3.84027 10.0488 3.52369 10.0488 3.32842 9.85355L0.146442 6.67157C-0.0488198 6.47631 -0.0488198 6.15973 0.146442 5.96447C0.341705 5.7692 0.658287 5.7692 0.853549 5.96447L3.68198 8.79289L6.5104 5.96447C6.70567 5.7692 7.02225 5.7692 7.21751 5.96447C7.41277 6.15973 7.41277 6.47631 7.21751 6.67157L4.03553 9.85355ZM3.68198 0.5L4.18198 0.5L4.18198 9.5H3.68198H3.18198L3.18198 0.5H3.68198Z" fill="#F2F2F2"/>
</svg>
