<svg width="12" height="12" viewBox="0 0 12 12" fill="none" xmlns="http://www.w3.org/2000/svg">
<path d="M6.00081 11.9991C4.79235 11.9991 3.33407 11.4783 2.1942 10.639C0.779106 9.59757 0 8.18402 0 6.65918C0 5.46394 0.413265 4.06059 1.13309 2.80759C1.89611 1.48068 2.88947 0.506314 3.92856 0.0654285C4.20125 -0.0501023 4.48748 -0.0110257 4.69412 0.169916C5.05996 0.490174 4.94224 0.924264 4.7932 1.47388C4.36299 3.06328 4.48155 3.68511 5.26235 3.93826C6.18627 4.23813 6.78077 3.51012 7.51922 2.4491C7.75465 2.11015 7.95874 1.81793 8.18316 1.60556C8.33559 1.46114 8.88012 1.02026 9.47715 1.41357C11.0337 2.43806 11.9999 4.4488 11.9999 6.66003C11.9999 9.91953 8.44568 11.9999 5.99912 11.9999L6.00081 11.9991ZM3.36625 1.97424C2.20521 3.09556 1.27028 5.06468 1.27028 6.65918C1.27028 8.07953 2.1815 9.0488 2.94536 9.61116C3.86335 10.2874 5.0625 10.724 5.99996 10.724C6.93743 10.724 8.13658 10.2874 9.05457 9.61116C9.81843 9.0488 10.7296 8.07953 10.7296 6.65918C10.7296 4.96954 10.0623 3.4464 8.97412 2.6156C8.85217 2.75832 8.68873 2.99277 8.56001 3.17796C7.88676 4.14468 6.76044 5.76297 4.87111 5.15048C3.9167 4.84127 3.36794 4.14808 3.2841 3.14568C3.25107 2.74897 3.29596 2.34291 3.36625 1.97424Z" fill="#F60C0C"/>
</svg>
