<svg width="358" height="138" viewBox="0 0 358 138" fill="none" xmlns="http://www.w3.org/2000/svg">
<path d="M6.02125 -91.554C-0.271079 -67.3735 -1.69805 -42.1972 1.82723 -17.5591C5.35255 7.07911 13.7563 30.6633 26.5266 51.7567C39.2968 72.8501 56.1661 91.011 76.1068 105.133C96.0474 119.255 118.642 129.042 142.513 133.898C166.385 138.755 191.034 138.579 214.959 133.38C238.884 128.182 261.583 118.071 281.674 103.663C301.765 89.2547 318.827 70.8512 331.821 49.5736C344.815 28.296 353.468 4.58982 357.254 -20.1006L306.332 -27.6318C303.632 -10.0219 297.46 6.88598 288.193 22.0617C278.925 37.2375 266.756 50.3634 252.427 60.6397C238.097 70.916 221.907 78.1276 204.843 81.835C187.78 85.5425 170.199 85.6682 153.173 82.2045C136.148 78.7408 120.033 71.7603 105.81 61.6881C91.5882 51.616 79.5565 38.6631 70.4485 23.6188C61.3404 8.57442 55.3466 -8.24649 52.8322 -25.8191C50.3179 -43.3917 51.3357 -61.3481 55.8235 -78.5943L6.02125 -91.554Z" fill="url(#paint0_linear_465_3368)"/>
<defs>
<linearGradient id="paint0_linear_465_3368" x1="353.35" y1="-1.17089" x2="6.02125" y2="-91.554" gradientUnits="userSpaceOnUse">
<stop stop-color="#2A3C00"/>
<stop offset="1"/>
</linearGradient>
</defs>
</svg>
