<svg width="14" height="14" viewBox="0 0 14 14" fill="none" xmlns="http://www.w3.org/2000/svg">
<path d="M6.66667 0C2.98496 0 0 2.98496 0 6.66667C0 10.3484 2.98496 13.3333 6.66667 13.3333C10.3484 13.3333 13.3333 10.3484 13.3333 6.66667C13.3333 2.98496 10.3484 0 6.66667 0ZM6.66667 11.9191C3.77033 11.9191 1.41423 9.563 1.41423 6.66667C1.41423 3.77033 3.77033 1.41423 6.66667 1.41423C9.563 1.41423 11.9191 3.77033 11.9191 6.66667C11.9191 9.563 9.563 11.9191 6.66667 11.9191Z" fill="#4E7000"/>
<path d="M7.37378 6.37345V3.10659C7.37378 2.71626 7.05699 2.39947 6.66667 2.39947C6.27634 2.39947 5.95955 2.71626 5.95955 3.10659V6.66667C5.95955 6.85429 6.03404 7.03437 6.16697 7.16636L7.77636 8.77575C7.91401 8.9134 8.09504 8.98317 8.27606 8.98317C8.45708 8.98317 8.6381 8.91435 8.77575 8.77575C9.052 8.49951 9.052 8.05167 8.77575 7.77542L7.37378 6.37345Z" fill="#4E7000"/>
</svg>
