<svg width="21" height="21" viewBox="0 0 21 21" fill="none" xmlns="http://www.w3.org/2000/svg">
<path d="M10.3015 20.5985C8.22692 20.5985 5.72351 19.7046 3.76673 18.2638C1.33747 16.4759 0 14.0493 0 11.4317C0 9.37983 0.709442 6.97071 1.94515 4.81972C3.255 2.54185 4.96028 0.869178 6.74407 0.11232C7.21218 -0.0860095 7.70356 -0.0189276 8.05828 0.291691C8.68631 0.84147 8.48423 1.58666 8.22837 2.53018C7.48985 5.25867 7.69338 6.32614 9.03376 6.76072C10.6198 7.2755 11.6404 6.02573 12.9081 4.20431C13.3122 3.62245 13.6626 3.1208 14.0478 2.75622C14.3095 2.50831 15.2443 1.75145 16.2692 2.42664C18.9412 4.18536 20.6 7.63716 20.6 11.4331C20.6 17.0286 14.4985 20.6 10.2985 20.6L10.3015 20.5985ZM5.77876 3.38912C3.78563 5.31408 2.18066 8.69442 2.18066 11.4317C2.18066 13.8699 3.74493 15.5339 5.05623 16.4993C6.63212 17.6601 8.69067 18.4096 10.3 18.4096C11.9093 18.4096 13.9679 17.6601 15.5438 16.4993C16.8551 15.5339 18.4193 13.8699 18.4193 11.4317C18.4193 8.53109 17.2738 5.91636 15.4057 4.49014C15.1963 4.73514 14.9157 5.13763 14.6948 5.45554C13.539 7.11508 11.6055 9.89315 8.36212 8.84171C6.72371 8.31089 5.78167 7.12092 5.63774 5.40012C5.58104 4.71909 5.65809 4.02203 5.77876 3.38912Z" fill="#F60C0C"/>
</svg>
