<svg width="10" height="16" viewBox="0 0 10 16" fill="none" xmlns="http://www.w3.org/2000/svg">
<path d="M4.58333 0C3.36776 0 2.20197 0.482886 1.34243 1.34243C0.482886 2.20197 0 3.36776 0 4.58333C0 4.82645 0.0965773 5.05961 0.268486 5.23151C0.440394 5.40342 0.673552 5.5 0.916667 5.5C1.15978 5.5 1.39294 5.40342 1.56485 5.23151C1.73676 5.05961 1.83333 4.82645 1.83333 4.58333C1.83333 3.0635 3.0635 1.83333 4.58333 1.83333C6.10317 1.83333 7.33333 3.0635 7.33333 4.58333C7.33333 5.33133 7.15092 5.7695 6.93183 6.07658C6.69167 6.41117 6.35892 6.66142 5.89783 6.9795L5.7915 7.051C5.38175 7.3315 4.85375 7.69175 4.44492 8.19408C3.96183 8.78808 3.66667 9.53883 3.66667 10.5417V11C3.66667 11.2431 3.76324 11.4763 3.93515 11.6482C4.10706 11.8201 4.34022 11.9167 4.58333 11.9167C4.82645 11.9167 5.05961 11.8201 5.23151 11.6482C5.40342 11.4763 5.5 11.2431 5.5 11V10.5417C5.5 9.94033 5.66317 9.603 5.86667 9.35092C6.10225 9.06308 6.41942 8.84492 6.88783 8.52317L6.93642 8.48925C7.39108 8.17758 7.975 7.76875 8.42142 7.14358C8.89167 6.49092 9.16667 5.66775 9.16667 4.58333C9.16667 3.36776 8.68378 2.20197 7.82424 1.34243C6.9647 0.482886 5.79891 0 4.58333 0ZM4.58333 15.8125C4.88723 15.8125 5.17867 15.6918 5.39356 15.4769C5.60845 15.262 5.72917 14.9706 5.72917 14.6667C5.72917 14.3628 5.60845 14.0713 5.39356 13.8564C5.17867 13.6416 4.88723 13.5208 4.58333 13.5208C4.27944 13.5208 3.98799 13.6416 3.77311 13.8564C3.55822 14.0713 3.4375 14.3628 3.4375 14.6667C3.4375 14.9706 3.55822 15.262 3.77311 15.4769C3.98799 15.6918 4.27944 15.8125 4.58333 15.8125Z" fill="#AFFA01"/>
</svg>
