<svg width="61" height="61" viewBox="0 0 61 61" fill="none" xmlns="http://www.w3.org/2000/svg">
<circle cx="30.5" cy="30.5" r="29.5" fill="#B7FF74" stroke="#84CB00" stroke-width="2"/>
<path d="M23.3287 25.5C24.2515 25.5 25.0234 24.7147 24.6041 23.8926C24.3057 23.3073 23.8448 22.7696 23.2426 22.318C22.1174 21.4741 20.5913 21 19 21C17.4087 21 15.8826 21.4741 14.7574 22.318C14.1552 22.7696 13.6943 23.3073 13.3959 23.8926C12.9766 24.7147 13.7485 25.5 14.6713 25.5C15.5938 25.5 16.3825 24.6439 17.1205 24.0904C17.619 23.7165 18.2951 23.5065 19 23.5065C19.7049 23.5065 20.381 23.7165 20.8795 24.0904C21.6175 24.6439 22.4062 25.5 23.3287 25.5Z" fill="#84CB00"/>
<path d="M46.3287 25.5C47.2515 25.5 48.0234 24.7147 47.6041 23.8926C47.3057 23.3073 46.8448 22.7696 46.2426 22.318C45.1174 21.4741 43.5913 21 42 21C40.4087 21 38.8826 21.4741 37.7574 22.318C37.1552 22.7696 36.6943 23.3073 36.3959 23.8926C35.9766 24.7147 36.7485 25.5 37.6713 25.5C38.5938 25.5 39.3825 24.6439 40.1205 24.0904C40.619 23.7165 41.2951 23.5065 42 23.5065C42.7049 23.5065 43.381 23.7165 43.8795 24.0904C44.6175 24.6439 45.4062 25.5 46.3287 25.5Z" fill="#84CB00"/>
<path d="M43 35C43.5523 35 44.0036 35.4483 43.9656 35.9993C43.7347 39.3471 42.3496 42.5105 40.0459 44.8995C37.5142 47.525 34.0804 49 30.5 49C26.9196 49 23.4858 47.525 20.9541 44.8995C18.6504 42.5105 17.2653 39.3471 17.0344 35.9993C16.9964 35.4483 17.4477 35 18 35L30.5 35H43Z" fill="#84CB00"/>
</svg>
