<svg width="61" height="61" viewBox="0 0 61 61" fill="none" xmlns="http://www.w3.org/2000/svg">
<circle cx="30.5" cy="30.5" r="29.5" fill="#FF7D74" stroke="#CB0300" stroke-width="2"/>
<path d="M35.5029 27.3579C35.0438 27.6649 34.9644 28.2544 35.3925 28.6197C36.3303 29.4199 37.4672 29.9876 38.6505 30.2338C40.1569 30.5473 41.6151 30.314 42.7044 29.5853C43.7936 28.8567 44.4247 27.6923 44.4587 26.3483C44.4854 25.2927 44.142 24.1941 43.4889 23.2035C43.1908 22.7512 42.5136 22.6679 42.0546 22.975L38.7787 25.1664L35.5029 27.3579Z" fill="#CB0300"/>
<path d="M24.3085 27.8793C24.7676 28.1864 24.847 28.7759 24.4189 29.1412C23.4811 29.9414 22.3442 30.5091 21.1609 30.7553C19.6545 31.0688 18.1963 30.8355 17.107 30.1068C16.0178 29.3782 15.3867 28.2138 15.3527 26.8698C15.326 25.8142 15.6694 24.7156 16.3225 23.7249C16.6206 23.2727 17.2978 23.1894 17.7568 23.4965L21.0327 25.6879L24.3085 27.8793Z" fill="#CB0300"/>
<path d="M23 44C23 44 27.7872 41.9125 30.9167 42.0029C33.7252 42.0839 38 44 38 44" stroke="#CB0300" stroke-width="4" stroke-linecap="round"/>
</svg>
