<svg width="14" height="14" viewBox="0 0 14 14" fill="none" xmlns="http://www.w3.org/2000/svg">
<path d="M0.168158 7.0038C-0.0565662 7.22968 -0.0556301 7.59497 0.170249 7.81969C0.396128 8.04442 0.761414 8.04348 0.986139 7.8176L0.577148 7.4107L0.168158 7.0038ZM6.47083 0.629688L6.62584 0.0739808V0.0739808L6.47083 0.629688ZM7.96253 1.0458L8.11754 0.490094H8.11754L7.96253 1.0458ZM8.60637 1.47326L8.1582 1.83656V1.83656L8.60637 1.47326ZM12.201 7.02755L11.6759 7.26655L11.6759 7.26655L12.201 7.02755ZM4.729 1.54431L4.3047 1.15341L4.3047 1.15341L4.729 1.54431ZM6.12763 3.53845L6.03365 2.96923H6.03365L6.12763 3.53845ZM7.91143 4.36252L8.36904 4.01119L8.36904 4.01119L7.91143 4.36252ZM8.52255 6.59814L7.94913 6.66163L7.94913 6.66163L8.52255 6.59814ZM8.99191 7.80743L8.66803 8.28486C8.91048 8.44935 9.23773 8.40598 9.42897 8.18402C9.62022 7.96207 9.61474 7.63201 9.41622 7.41653L8.99191 7.80743ZM4.00811 8.15249C3.81065 8.40255 3.85329 8.76534 4.10335 8.96281C4.35341 9.16027 4.7162 9.11764 4.91366 8.86758L4.46089 8.51003L4.00811 8.15249ZM4.08163 2.68095L3.51328 2.78006V2.78006L4.08163 2.68095ZM12.9385 10.3294L13.4743 10.5432V10.5432L12.9385 10.3294ZM10.2874 11.9805L10.4678 12.5285V12.5285L10.2874 11.9805ZM7.11528 3.46705L7.33493 2.93358L7.33493 2.93357L7.11528 3.46705ZM5.70495 12.0765L6.11915 12.4781L6.11915 12.4781L5.70495 12.0765ZM1.00146 11.6322C0.785578 11.3978 0.420597 11.3829 0.186255 11.5987C-0.0480872 11.8146 -0.0630503 12.1796 0.152834 12.4139L0.577148 12.0231L1.00146 11.6322ZM5.81438 11.9235L6.02446 11.3862C5.76113 11.2833 5.46199 11.3863 5.31794 11.6296L5.81438 11.9235ZM5.79293 11.9598L5.29649 11.6659L5.29648 11.6659L5.79293 11.9598ZM6.06494 7.34473L6.24126 7.89405V7.89405L6.06494 7.34473ZM6.47083 0.629688L6.31581 1.1854L7.80751 1.60151L7.96253 1.0458L8.11754 0.490094L6.62584 0.0739808L6.47083 0.629688ZM8.60637 1.47326L8.1582 1.83656C9.77132 3.82652 10.8009 5.34408 11.6759 7.26655L12.201 7.02755L12.7261 6.78856C11.7959 4.74477 10.702 3.14233 9.05454 1.10996L8.60637 1.47326ZM8.52255 6.59814L7.94913 6.66163C8.00387 7.15599 8.16482 7.76113 8.56761 8.19834L8.99191 7.80743L9.41622 7.41653C9.25562 7.24221 9.13923 6.92533 9.09597 6.53464L8.52255 6.59814ZM7.91143 4.36252L7.45381 4.71384C7.57698 4.87428 7.661 4.98382 7.71955 5.06517C7.74834 5.10515 7.76588 5.13134 7.77627 5.14811C7.78776 5.16668 7.78299 5.16176 7.77468 5.14085L8.31083 4.92782L8.84698 4.71479C8.79897 4.59395 8.71921 4.47887 8.65601 4.39106C8.58452 4.29176 8.48739 4.16535 8.36904 4.01119L7.91143 4.36252ZM8.52255 6.59814L9.09597 6.53464C9.03795 6.01071 8.99384 5.61221 8.95957 5.3334C8.94248 5.1944 8.92711 5.07908 8.91301 4.99008C8.9029 4.92632 8.88434 4.80883 8.84698 4.71479L8.31083 4.92782L7.77468 5.14085C7.75587 5.09351 7.7585 5.07676 7.77338 5.17068C7.78427 5.23936 7.79769 5.33867 7.81434 5.47417C7.84755 5.74435 7.89074 6.13431 7.94913 6.66163L8.52255 6.59814ZM4.729 1.54431L4.3047 1.15341C4.0823 1.39481 3.86141 1.63135 3.71656 1.85966C3.55086 2.12082 3.45062 2.42072 3.51328 2.78006L4.08163 2.68095L4.64997 2.58185C4.64901 2.57631 4.63545 2.56513 4.69085 2.47782C4.76709 2.35765 4.9017 2.20832 5.15331 1.93521L4.729 1.54431ZM12.201 7.02755L11.6759 7.26655C12.0488 8.08589 12.2978 8.63736 12.4204 9.09366C12.5343 9.51784 12.5245 9.81031 12.4027 10.1156L12.9385 10.3294L13.4743 10.5432C13.71 9.95253 13.6964 9.39605 13.5347 8.79428C13.3817 8.22462 13.0832 7.57315 12.7261 6.78856L12.201 7.02755ZM10.2874 11.9805L10.4678 12.5285C11.2116 12.2836 11.8469 12.077 12.3331 11.8061C12.8566 11.5144 13.2389 11.1333 13.4743 10.5432L12.9385 10.3294L12.4027 10.1156C12.2807 10.4214 12.1019 10.6141 11.7715 10.7981C11.4038 11.003 10.8923 11.174 10.1069 11.4325L10.2874 11.9805ZM6.12763 3.53845L6.2216 4.10767C6.50677 4.06059 6.6897 4.03075 6.82224 4.01848C6.9687 4.00492 6.9552 4.02505 6.89563 4.00052L7.11528 3.46705L7.33493 2.93357C7.11646 2.84362 6.88538 2.85385 6.71587 2.86954C6.53242 2.88653 6.30097 2.9251 6.03365 2.96923L6.12763 3.53845ZM5.70495 12.0765L5.29074 11.6749C4.76525 12.2169 3.96549 12.5076 3.13425 12.4999C2.30313 12.4922 1.51251 12.1869 1.00146 11.6322L0.577148 12.0231L0.152834 12.4139C0.919734 13.2464 2.03784 13.6436 3.12354 13.6537C4.20912 13.6638 5.33428 13.2876 6.11915 12.4781L5.70495 12.0765ZM10.2874 11.9805L10.1069 11.4325C8.66951 11.9058 7.46054 11.9477 6.02446 11.3862L5.81438 11.9235L5.6043 12.4609C7.32931 13.1353 8.81829 13.0716 10.4678 12.5285L10.2874 11.9805ZM5.79293 11.9598L6.28937 12.2537L6.31082 12.2175L5.81438 11.9235L5.31794 11.6296L5.29649 11.6659L5.79293 11.9598ZM5.70495 12.0765L6.11915 12.4781C6.18959 12.4054 6.24527 12.3282 6.28937 12.2537L5.79293 11.9598L5.29648 11.6659C5.29078 11.6755 5.28828 11.6775 5.29074 11.6749L5.70495 12.0765ZM8.99191 7.80743L9.3158 7.33001C8.63896 6.87084 7.28807 6.34622 5.88862 6.79541L6.06494 7.34473L6.24126 7.89405C7.1906 7.58933 8.17103 7.9477 8.66803 8.28486L8.99191 7.80743ZM6.06494 7.34473L5.88862 6.79541C5.22071 7.00979 4.57205 7.43834 4.00811 8.15249L4.46089 8.51003L4.91366 8.86758C5.34381 8.32285 5.80409 8.03437 6.24126 7.89405L6.06494 7.34473ZM6.06494 7.34473L6.46079 6.92503C5.6241 6.13589 4.43764 5.77489 3.29871 5.78709C2.15988 5.7993 0.982034 6.18575 0.168158 7.0038L0.577148 7.4107L0.986139 7.8176C1.53892 7.26199 2.40011 6.95064 3.31108 6.94087C4.22195 6.93111 5.09606 7.22396 5.66909 7.76442L6.06494 7.34473ZM7.11528 3.46705L6.89563 4.00052C6.91594 4.00888 6.98139 4.05241 7.09817 4.207C7.15153 4.27764 7.2035 4.35444 7.26317 4.44296C7.31889 4.52562 7.38539 4.62472 7.45381 4.71384L7.91143 4.36252L8.36904 4.01119C8.32652 3.95581 8.28082 3.88834 8.21994 3.79803C8.16302 3.71358 8.094 3.611 8.01884 3.51151C7.8786 3.32585 7.65691 3.06615 7.33493 2.93358L7.11528 3.46705ZM7.96253 1.0458L7.80751 1.60151C7.90801 1.62954 7.96019 1.64455 7.9972 1.65749C8.02765 1.66814 8.02426 1.66957 8.01169 1.66122C7.99975 1.65329 8.0011 1.65076 8.0255 1.67743C8.054 1.70858 8.09062 1.75319 8.1582 1.83656L8.60637 1.47326L9.05454 1.10996C8.94792 0.97843 8.82185 0.814232 8.65039 0.700272C8.47603 0.584384 8.27624 0.534363 8.11754 0.490094L7.96253 1.0458ZM6.47083 0.629688L6.62584 0.0739808C6.02384 -0.0939481 5.53914 0.0394015 5.14386 0.319082C4.81149 0.554245 4.51358 0.926672 4.3047 1.15341L4.729 1.54431L5.15331 1.93521C5.45785 1.60465 5.61036 1.40247 5.81031 1.261C5.94734 1.16404 6.07683 1.11873 6.31581 1.1854L6.47083 0.629688ZM4.08163 2.68095L3.51328 2.78006C3.63924 3.5024 4.28321 3.84234 4.75495 3.98906C5.25681 4.14516 5.82533 4.17309 6.2216 4.10767L6.12763 3.53845L6.03365 2.96923C5.81921 3.00464 5.43231 2.99137 5.09763 2.88728C4.73284 2.77382 4.65917 2.63459 4.64997 2.58185L4.08163 2.68095Z" fill="#2D2D2D"/>
</svg>
