<svg width="15" height="15" viewBox="0 0 15 15" fill="none" xmlns="http://www.w3.org/2000/svg">
<path d="M10.625 2.8125C10.625 3.33027 10.2053 3.75 9.6875 3.75C9.16973 3.75 8.75 3.33027 8.75 2.8125C8.75 2.29473 9.16973 1.875 9.6875 1.875C10.2053 1.875 10.625 2.29473 10.625 2.8125Z" stroke="#2D2D2D" stroke-width="1.07692"/>
<path d="M9.375 13.1249L8.95993 11.49C8.82256 10.9489 8.53844 10.4547 8.13795 10.0603L7.1875 9.12436M3.75 6.97033C4.375 5.73924 5.33604 5.02589 7.5 5.0003M7.5 5.0003C7.63664 4.99868 7.84024 4.9982 8.04365 4.99823C8.35918 4.99828 8.51694 4.99831 8.64264 5.05704C8.76834 5.11576 8.89726 5.2698 9.1551 5.57788C9.22898 5.66615 9.30484 5.74524 9.375 5.79784M7.5 5.0003L6.70681 6.22418C6.27073 6.89706 6.05268 7.2335 6.04418 7.58674C6.04039 7.74408 6.06636 7.90073 6.1207 8.04844C6.24271 8.38005 6.55764 8.62815 7.1875 9.12436M9.375 5.79784C10.0967 6.33904 11.2267 6.557 12.5 5.12391M9.375 5.79784L7.1875 9.12436" stroke="#2D2D2D" stroke-width="1.07692" stroke-linecap="round" stroke-linejoin="round"/>
<path d="M2.5 11.0813L2.92389 11.1822C4.00414 11.4392 5.12703 10.9477 5.625 9.99994" stroke="#2D2D2D" stroke-width="1.07692" stroke-linecap="round" stroke-linejoin="round"/>
</svg>
