<svg width="17" height="17" viewBox="0 0 17 17" fill="none" xmlns="http://www.w3.org/2000/svg">
<path d="M14.34 1.7735H13.9613V0.890313C13.9613 0.39886 13.5624 0 13.071 0C12.5795 0 12.1807 0.39886 12.1807 0.890313V1.7735H5.10803V0.890313C5.10803 0.39886 4.70917 0 4.21771 0C3.72626 0 3.3274 0.39886 3.3274 0.890313V1.7735H2.32787C1.04463 1.7735 0 2.81814 0 4.10138V14.3388C0 15.622 1.04463 16.6667 2.32787 16.6667H14.34C15.6232 16.6667 16.6679 15.622 16.6679 14.3388V4.10138C16.6679 2.81814 15.6232 1.7735 14.34 1.7735ZM2.32787 3.55413H14.34C14.6415 3.55413 14.8872 3.79986 14.8872 4.10138V6.07194H1.78063V4.10138C1.78063 3.79986 2.02635 3.55413 2.32787 3.55413ZM14.34 14.886H2.32787C2.02635 14.886 1.78063 14.6403 1.78063 14.3388V7.85375H14.8872V14.3388C14.8872 14.6403 14.6415 14.886 14.34 14.886Z" fill="white"/>
</svg>
