<svg width="17" height="12" viewBox="0 0 17 12" fill="none" xmlns="http://www.w3.org/2000/svg">
<path d="M15.9527 4.97252H15.4802V2.98125C15.4802 2.74271 15.2845 2.54943 15.043 2.54943H12.9966V0H9.25777V5.12621H7.4108V0.431819C7.4108 0.193282 7.21513 0 6.97364 0H4.11011C3.86862 0 3.67295 0.193282 3.67295 0.431819V2.54943H1.62553C1.38404 2.54943 1.18836 2.74271 1.18836 2.98125V5.08944H0.715881C0.320715 5.08944 0 5.40623 0 5.79656C0 6.1869 0.320715 6.50369 0.715881 6.50369H1.18836V8.49496C1.18836 8.7335 1.38404 8.92678 1.62553 8.92678H3.67199V11.2348C3.67199 11.4734 3.86767 11.6667 4.10916 11.6667H6.97268C7.21417 11.6667 7.40985 11.4734 7.40985 11.2348V6.54046H9.25682V11.2348C9.25682 11.4734 9.45249 11.6667 9.69398 11.6667H12.5575C12.799 11.6667 12.9947 11.4734 12.9947 11.2348V8.92678H15.0411C15.2826 8.92678 15.4783 8.7335 15.4783 8.49496V6.38678H15.9508C16.346 6.38678 16.6667 6.06999 16.6667 5.67965C16.6667 5.28932 16.346 4.97252 15.9508 4.97252H15.9527ZM3.05729 7.51253C2.8158 7.51253 2.62013 7.31924 2.62013 7.08071V4.39551C2.62013 4.15697 2.8158 3.96369 3.05729 3.96369C3.29878 3.96369 3.49445 4.15697 3.49445 4.39551V7.08071C3.49445 7.31924 3.29878 7.51253 3.05729 7.51253ZM5.54092 10.2524C5.29943 10.2524 5.10376 10.0591 5.10376 9.82059V1.84608C5.10376 1.60754 5.29943 1.41426 5.54092 1.41426C5.78241 1.41426 5.97808 1.60754 5.97808 1.84608V9.82059C5.97808 10.0591 5.78241 10.2524 5.54092 10.2524ZM11.1267 10.2524C10.8852 10.2524 10.6895 10.0591 10.6895 9.82059V1.84608C10.6895 1.60754 10.8852 1.41426 11.1267 1.41426C11.3682 1.41426 11.5639 1.60754 11.5639 1.84608V9.82059C11.5639 10.0591 11.3682 10.2524 11.1267 10.2524ZM13.6103 7.51253C13.3688 7.51253 13.1732 7.31924 13.1732 7.08071V4.39551C13.1732 4.15697 13.3688 3.96369 13.6103 3.96369C13.8518 3.96369 14.0475 4.15697 14.0475 4.39551V7.08071C14.0475 7.31924 13.8518 7.51253 13.6103 7.51253Z" fill="white"/>
</svg>
