<svg width="1001" height="3427" viewBox="0 0 1001 3427" fill="none" xmlns="http://www.w3.org/2000/svg">
<rect x="419.016" y="443.483" width="151.306" height="114.784" fill="#FFC69D"/>
<path d="M241.623 324.253C299.889 252.085 390.32 324.251 390.32 324.251C390.32 324.251 341.153 519.887 330.32 602.93C315.187 718.926 158.144 691.63 158.144 691.63C158.144 691.63 222.012 641.569 228.579 602.93C250.167 475.926 145.1 443.805 241.623 324.253Z" fill="black"/>
<path d="M419.016 433.049H570.322V495.011C570.322 495.011 522.607 508.254 491.643 505.787C461.865 503.414 419.016 484.235 419.016 484.235V433.049Z" fill="black"/>
<path d="M330.32 221.215C330.32 140.533 395.726 75.127 476.408 75.127H512.93C593.613 75.127 659.019 140.533 659.019 221.215V277.803C659.019 345.313 634.992 413.41 578.189 449.891C552.735 466.239 524.779 479.208 499.887 479.479C474.373 479.757 444.93 467.007 417.811 450.691C357.071 414.146 330.32 342.993 330.32 272.106V221.215Z" fill="#FFC69D"/>
<ellipse cx="426.843" cy="281.217" rx="10.4349" ry="23.4785" fill="black"/>
<ellipse cx="557.278" cy="281.217" rx="10.4349" ry="23.4785" fill="black"/>
<path d="M458.147 398.609C458.147 398.609 479.466 408.617 492.06 409.044C506.639 409.538 525.974 398.609 525.974 398.609" stroke="black" stroke-width="5.21744" stroke-linecap="round"/>
<path d="M485.365 310.422C485.365 310.422 475.903 326.781 474.164 339.262C472.15 353.709 489.006 355.026 489.006 355.026" stroke="black" stroke-width="5.21744" stroke-linecap="round"/>
<path d="M546.843 234.259C546.843 234.259 556.891 231.65 565.104 231.65C573.318 231.65 588.583 234.259 588.583 234.259" stroke="black" stroke-width="5.21744" stroke-linecap="round"/>
<path d="M437.277 234.259C437.277 234.259 427.229 231.65 419.016 231.65C410.802 231.65 395.537 234.259 395.537 234.259" stroke="black" stroke-width="5.21744" stroke-linecap="round"/>
<ellipse cx="591.192" cy="346.435" rx="44.3483" ry="31.3047" fill="#FFB987"/>
<ellipse cx="392.93" cy="346.435" rx="44.3483" ry="31.3047" fill="#FFB987"/>
<path d="M306.843 119.475C385.387 -39.4399 613.352 -40.2086 690.325 119.473C736.69 215.658 690.325 315.129 690.325 315.129L661.629 268.172C661.629 268.172 586.159 103.102 494.671 103.822C403.906 104.537 330.321 268.172 330.321 268.172L306.843 315.129C306.843 315.129 268.022 198.019 306.843 119.475Z" fill="black"/>
<path d="M301.849 288.146C298.459 268.842 305.515 240.618 324.57 245.207C336.42 248.06 343.353 268.976 343.353 268.976V349.199L323.135 336.987C314.102 331.531 307.87 322.435 306.045 312.041L301.849 288.146Z" fill="#FFC69D"/>
<path d="M688.06 288.146C691.45 268.842 684.394 240.618 665.339 245.207C653.489 248.06 646.556 268.976 646.556 268.976V349.199L666.774 336.987C675.807 331.531 682.039 322.435 683.864 312.041L688.06 288.146Z" fill="#FFC69D"/>
<path d="M335.226 90.7803L499.885 98.7599C499.885 98.7599 471.574 165.999 425.957 194.515C388.825 217.728 311.704 226.434 311.704 226.434L301.623 218.454L335.226 90.7803Z" fill="black"/>
<path d="M659.328 90.7803L494.669 98.7599C494.669 98.7599 522.98 165.999 568.598 194.515C605.73 217.728 682.851 226.434 682.851 226.434L692.932 218.454L659.328 90.7803Z" fill="black"/>
<path d="M317.305 307.752C317.305 307.752 329.134 311.957 330.74 302.891C332.433 293.335 324.229 277.003 324.229 277.003" stroke="black" stroke-width="5.21744" stroke-linecap="round"/>
<path d="M671.617 310.36C671.617 310.36 659.789 314.566 658.182 305.5C656.489 295.944 664.694 279.612 664.694 279.612" stroke="black" stroke-width="5.21744" stroke-linecap="round"/>
<path d="M236.338 653.506C227.413 602.43 266.721 555.658 318.571 555.658H683.449C727.693 555.658 761.778 594.681 755.83 638.523L703.363 1025.23L689.732 1127.46C688.39 1137.53 688.331 1147.72 689.557 1157.8L693.954 1193.97C693.954 1193.97 570.11 1318.07 497.274 1317.41C426.071 1316.75 310.884 1199.23 310.884 1199.23L314.788 1183.68C321.577 1156.65 322.262 1128.44 316.795 1101.11L299.011 1012.18L236.338 653.506Z" fill="#FFC69D"/>
<line x1="500.419" y1="1033.39" x2="497.837" y2="1167.67" stroke="black" stroke-width="2.63279" stroke-linecap="round"/>
<path d="M404.904 1145.26C404.904 1145.26 406.122 1161.28 424.979 1163.76C439.718 1165.69 480.257 1163.76 480.257 1163.76" stroke="black" stroke-width="2.63279" stroke-linecap="round"/>
<ellipse cx="281.856" cy="682.18" rx="151.306" ry="125.219" fill="#FFC69D"/>
<path d="M845.459 621.094L686.514 689.693L717.775 952.825L757.267 1120.01L808.606 1403.03L928.398 1349.06L909.969 1085.78L883.641 844.881C883.641 844.881 898.066 768.762 891.53 711.925C886.767 670.511 845.459 621.094 845.459 621.094Z" fill="#FFC69D"/>
<path d="M928.595 1336.88C927.812 1333.66 924.26 1331.98 921.27 1333.41L805.235 1389.02C805.235 1389.02 800.806 1431.9 803.148 1459.23C804.814 1478.68 811.046 1503.53 816.259 1521.79C820.974 1538.3 830.645 1552.85 843.385 1564.36C848.231 1568.74 855.931 1564.91 855.359 1558.4L850.139 1499.01L876.169 1594.61C878.34 1602.58 888.266 1605.3 894.201 1599.55L920.149 1574.41C953.328 1542.27 967.006 1494.96 956.097 1450.07L928.595 1336.88Z" fill="#FFC69D"/>
<line x1="1.31639" y1="-1.31639" x2="44.8202" y2="-1.31639" transform="matrix(0.280405 0.959882 0.98124 -0.192789 894.486 1538.62)" stroke="black" stroke-width="2.63279" stroke-linecap="round"/>
<line x1="1.31639" y1="-1.31639" x2="44.8202" y2="-1.31639" transform="matrix(0.280405 0.959882 0.98124 -0.192789 919.346 1510.7)" stroke="black" stroke-width="2.63279" stroke-linecap="round"/>
<path d="M840.201 1458.32C840.201 1458.32 849.93 1466.18 850.499 1476.75C850.815 1482.61 850.499 1496.78 850.499 1496.78" stroke="black" stroke-width="2.63279" stroke-linecap="round"/>
<line x1="1.31639" y1="-1.31639" x2="44.8202" y2="-1.31639" transform="matrix(0.280405 0.959882 0.98124 -0.192789 936.207 1481.17)" stroke="black" stroke-width="2.63279" stroke-linecap="round"/>
<path d="M850.738 1063.46C850.738 1063.46 810.104 1084.37 817.828 1105.59C824.042 1122.66 854.687 1126.65 854.687 1126.65" stroke="black" stroke-width="5.26557" stroke-linecap="round"/>
<path d="M155.549 613.44L314.495 682.039L283.233 945.171L243.741 1112.35L192.402 1395.38L72.6102 1341.41L91.0397 1078.13L117.368 837.227C117.368 837.227 102.942 761.107 109.478 704.27C114.241 662.856 155.549 613.44 155.549 613.44Z" fill="#FFC69D"/>
<path d="M72.4142 1329.23C73.1973 1326.01 76.7485 1324.32 79.739 1325.76L195.774 1381.37C195.774 1381.37 200.203 1424.25 197.861 1451.58C196.195 1471.03 189.963 1495.88 184.749 1514.14C180.035 1530.65 170.364 1545.2 157.623 1556.71C152.778 1561.09 145.078 1557.25 145.65 1550.75L150.87 1491.36L124.84 1586.95C122.669 1594.92 112.742 1597.65 106.808 1591.9L80.8595 1566.76C47.6806 1534.61 34.0032 1487.3 44.9114 1442.41L72.4142 1329.23Z" fill="#FFC69D"/>
<line x1="1.31639" y1="-1.31639" x2="44.8202" y2="-1.31639" transform="matrix(-0.280405 0.959882 -0.98124 -0.192789 106.522 1530.97)" stroke="black" stroke-width="2.63279" stroke-linecap="round"/>
<line x1="1.31639" y1="-1.31639" x2="44.8202" y2="-1.31639" transform="matrix(-0.280405 0.959882 -0.98124 -0.192789 81.6626 1503.05)" stroke="black" stroke-width="2.63279" stroke-linecap="round"/>
<path d="M160.808 1450.67C160.808 1450.67 151.078 1458.52 150.51 1469.09C150.194 1474.96 150.51 1489.12 150.51 1489.12" stroke="black" stroke-width="2.63279" stroke-linecap="round"/>
<line x1="1.31639" y1="-1.31639" x2="44.8202" y2="-1.31639" transform="matrix(-0.280405 0.959882 -0.98124 -0.192789 64.8013 1473.51)" stroke="black" stroke-width="2.63279" stroke-linecap="round"/>
<path d="M150.271 1055.81C150.271 1055.81 190.905 1076.71 183.18 1097.93C176.966 1115.01 146.322 1119 146.322 1119" stroke="black" stroke-width="5.26557" stroke-linecap="round"/>
<ellipse cx="714.899" cy="682.18" rx="151.306" ry="125.219" fill="#FFC69D"/>
<path d="M232.944 695.944C231.665 692.551 236.452 690.293 238.257 693.437L305.231 842.622L287.104 839.641L232.944 695.944Z" fill="black"/>
<path d="M766.229 695.944C767.508 692.551 762.721 690.293 760.915 693.437L693.942 842.622L712.069 839.641L766.229 695.944Z" fill="black"/>
<path d="M299.023 1010.99L704.472 1015.55L702.349 1032.05L300.339 1018.89L299.023 1010.99Z" fill="black"/>
<path d="M255.413 891.556C230.273 844.262 228.574 787.961 250.818 739.238L262.289 714.11C267.549 702.588 269.723 689.896 268.596 677.279L257.764 555.962C257.497 552.968 259.808 550.368 262.812 550.282L343.079 547.989C346.52 547.891 349.744 549.433 351.834 552.168C368.17 573.541 442.762 666.71 502.491 667.833C560.008 668.915 628.943 586.121 649.993 558.954C654.113 553.637 660.395 550.441 667.12 550.441H736.8C742.746 550.441 747.49 555.401 747.225 561.341L741.854 681.646C741.414 691.507 742.531 701.375 745.163 710.887L763.074 775.598C774.885 818.267 768.072 863.942 744.325 901.308L715.307 946.967L708.479 1010.69C707.911 1015.99 703.437 1020.01 698.104 1020.01H305.319C300.184 1020.01 295.812 1016.28 295.011 1011.2L284.867 946.967L255.413 891.556Z" fill="#A9FF5E"/>
<path d="M351.093 607.834C351.093 607.834 436.576 704.949 510.317 701.747C583.267 698.579 653.705 597.399 653.705 597.399" stroke="black" stroke-width="5.21744"/>
<path d="M312.187 985.585C312.187 985.585 430.943 994.563 507.16 994.277C581.239 993.998 696.609 984.662 696.609 984.662" stroke="black" stroke-width="2.63279" stroke-linecap="round"/>
<path d="M593.342 1145.26C593.342 1145.26 592.124 1161.28 573.267 1163.76C558.528 1165.69 517.989 1163.76 517.989 1163.76" stroke="black" stroke-width="2.63279" stroke-linecap="round"/>
<path d="M592.912 1039.95C592.912 1039.95 591.694 1055.97 572.836 1058.45C558.097 1060.38 517.558 1058.45 517.558 1058.45" stroke="black" stroke-width="2.63279" stroke-linecap="round"/>
<path d="M593.342 1097.56C593.342 1097.56 592.124 1113.58 573.267 1116.06C558.528 1117.99 517.989 1116.06 517.989 1116.06" stroke="black" stroke-width="2.63279" stroke-linecap="round"/>
<path d="M269.048 3079.69L453.628 3092.67L427.987 3226.77L281.243 3231.32L269.048 3079.69Z" fill="#FFC69D"/>
<path d="M271.441 3071.67L452.802 3092.51L436.904 3175.66L276.473 3175.5L271.441 3071.67Z" fill="black"/>
<line x1="1.6314" y1="-1.6314" x2="30.9966" y2="-1.6314" transform="matrix(-0.079424 -0.996841 -0.996841 0.079424 130.083 3415.22)" stroke="#589E19" stroke-width="3.26279" stroke-linecap="round"/>
<line x1="1.6314" y1="-1.6314" x2="30.9966" y2="-1.6314" transform="matrix(-0.079424 -0.996841 -0.996841 0.079424 172.367 3411.85)" stroke="#589E19" stroke-width="3.26279" stroke-linecap="round"/>
<line x1="1.6314" y1="-1.6314" x2="27.5519" y2="-1.6314" transform="matrix(-0.927121 -0.374762 -0.374762 0.927121 209.402 3301.54)" stroke="#589E19" stroke-width="3.26279" stroke-linecap="round"/>
<path d="M432.542 3226.48C432.408 3224.8 431.019 3223.5 429.336 3223.48L300.48 3221.62L130.758 3323.34L97.8197 3421.06L445.836 3393.33L432.542 3226.48Z" fill="#A9FF5E"/>
<path d="M442.726 3354.3L110.795 3380.75L98.0788 3424.32L445.836 3393.33L442.726 3354.3Z" fill="white"/>
<line x1="1.6314" y1="-1.6314" x2="278.969" y2="-1.6314" transform="matrix(-0.996841 0.079424 0.079424 0.996841 429.715 3355.34)" stroke="#589E19" stroke-width="3.26279" stroke-linecap="round"/>
<line x1="1.6314" y1="-1.6314" x2="30.9966" y2="-1.6314" transform="matrix(-0.079424 -0.996841 -0.996841 0.079424 416.304 3392.41)" stroke="#589E19" stroke-width="3.26279" stroke-linecap="round"/>
<line x1="1.6314" y1="-1.6314" x2="30.9966" y2="-1.6314" transform="matrix(-0.079424 -0.996841 -0.996841 0.079424 269.942 3404.08)" stroke="#589E19" stroke-width="3.26279" stroke-linecap="round"/>
<line x1="1.6314" y1="-1.6314" x2="30.9966" y2="-1.6314" transform="matrix(-0.079424 -0.996841 -0.996841 0.079424 315.477 3400.45)" stroke="#589E19" stroke-width="3.26279" stroke-linecap="round"/>
<line x1="1.6314" y1="-1.6314" x2="30.9966" y2="-1.6314" transform="matrix(-0.079424 -0.996841 -0.996841 0.079424 367.517 3396.3)" stroke="#589E19" stroke-width="3.26279" stroke-linecap="round"/>
<path d="M281.185 3195.99L154.505 3309.86L193.075 3321.52L318.776 3215.91L281.185 3195.99Z" fill="#E7FFDB"/>
<line x1="1.6314" y1="-1.6314" x2="27.5519" y2="-1.6314" transform="matrix(-0.927121 -0.374762 -0.374762 0.927121 237.12 3279.69)" stroke="#589E19" stroke-width="3.26279" stroke-linecap="round"/>
<line x1="1.6314" y1="-1.6314" x2="34.8478" y2="-1.6314" transform="matrix(-0.927121 -0.374762 -0.374762 0.927121 261.843 3261.36)" stroke="#589E19" stroke-width="3.26279" stroke-linecap="round"/>
<line x1="1.6314" y1="-1.6314" x2="31.9611" y2="-1.6314" transform="matrix(-0.909967 -0.41468 -0.41468 0.909967 286.308 3239.77)" stroke="#589E19" stroke-width="3.26279" stroke-linecap="round"/>
<path d="M257.969 3223.53C257.969 3223.53 241.163 3205.7 219.299 3207.44C208.046 3208.33 201.609 3218.71 211.534 3224.09C230.101 3234.16 257.969 3223.53 257.969 3223.53ZM257.969 3223.53C257.969 3223.53 233.893 3198.12 251.14 3179.89C264.95 3165.29 271.203 3188.6 268.433 3200.28C265.115 3214.26 257.969 3223.53 257.969 3223.53Z" stroke="#589E19" stroke-width="3.26279"/>
<path d="M728.12 3081.88L543.54 3094.86L569.181 3228.96L715.925 3233.51L728.12 3081.88Z" fill="#FFC69D"/>
<path d="M725.727 3073.86L544.366 3094.7L560.264 3177.85L720.695 3177.69L725.727 3073.86Z" fill="black"/>
<path d="M564.624 3228.67C564.758 3226.99 566.147 3225.69 567.83 3225.67L696.686 3223.81L866.408 3325.53L899.346 3423.25L551.33 3395.52L564.624 3228.67Z" fill="#A9FF5E"/>
<path d="M554.44 3356.49L886.371 3382.94L899.087 3426.5L551.33 3395.52L554.44 3356.49Z" fill="white"/>
<line x1="569.206" y1="3356.03" x2="845.668" y2="3378.06" stroke="#589E19" stroke-width="3.26279" stroke-linecap="round"/>
<line x1="579.365" y1="3392.85" x2="581.697" y2="3363.58" stroke="#589E19" stroke-width="3.26279" stroke-linecap="round"/>
<line x1="725.727" y1="3404.51" x2="728.06" y2="3375.24" stroke="#589E19" stroke-width="3.26279" stroke-linecap="round"/>
<line x1="680.192" y1="3400.88" x2="682.525" y2="3371.61" stroke="#589E19" stroke-width="3.26279" stroke-linecap="round"/>
<line x1="628.152" y1="3396.73" x2="630.485" y2="3367.46" stroke="#589E19" stroke-width="3.26279" stroke-linecap="round"/>
<path d="M715.981 3198.18L842.661 3312.05L804.092 3323.71L678.39 3218.1L715.981 3198.18Z" fill="#E7FFDB"/>
<line x1="760.948" y1="3279.76" x2="784.979" y2="3270.04" stroke="#589E19" stroke-width="3.26279" stroke-linecap="round"/>
<line x1="736.224" y1="3261.42" x2="767.019" y2="3248.97" stroke="#589E19" stroke-width="3.26279" stroke-linecap="round"/>
<line x1="711.666" y1="3239.8" x2="739.265" y2="3227.22" stroke="#589E19" stroke-width="3.26279" stroke-linecap="round"/>
<path d="M739.197 3225.72C739.197 3225.72 756.003 3207.88 777.867 3209.63C789.12 3210.52 795.557 3220.9 785.632 3226.28C767.065 3236.35 739.197 3225.72 739.197 3225.72ZM739.197 3225.72C739.197 3225.72 763.273 3200.31 746.026 3182.08C732.216 3167.48 725.963 3190.79 728.733 3202.47C732.051 3216.45 739.197 3225.72 739.197 3225.72Z" stroke="#589E19" stroke-width="3.26279"/>
<path d="M306.946 1216.45C309.665 1211.35 314.978 1208.16 320.761 1208.16H687.691C693.879 1208.16 699.486 1211.81 701.997 1217.46L804.413 1448.16L610.902 1647.84C550.375 1710.29 450.538 1711.43 388.607 1650.36L183.537 1448.16L306.946 1216.45Z" fill="#555555"/>
<path d="M183.536 1448.16L465.6 1460.24C465.6 1460.24 475.422 1915.94 469.097 2109.79C464.502 2250.59 487.092 2329.04 489.919 2469.9C494.662 2706.28 463.471 3059.99 456.56 3134.85C455.806 3143.03 448.913 3149.03 440.745 3148.95L279.62 3147.49C268.362 3147.39 259.328 3138.44 259.191 3127.14C258.301 3053.85 254.424 2796.83 242.25 2623.29C236.945 2547.66 225.925 2505.69 225.993 2429.86C226.046 2371.72 234.165 2339.45 235.788 2281.33C243.094 2019.71 137.68 2035.79 149.759 1686.82C155.586 1518.5 183.536 1448.16 183.536 1448.16Z" fill="#555555"/>
<path d="M804.412 1448.16L531.812 1453.58C531.812 1453.58 522.512 1909.27 528.501 2103.11C532.852 2243.91 511.461 2322.36 508.784 2463.22C504.387 2694.61 532.598 3038.43 539.928 3123.05C540.876 3134 550.116 3142.31 561.052 3142.2L711.901 3140.75C720.344 3140.67 727.116 3133.96 727.209 3125.49C727.934 3059.78 731.497 2794.39 743.308 2616.6C748.331 2540.98 758.766 2499.01 758.701 2423.18C758.652 2365.04 750.964 2332.76 749.427 2274.65C742.508 2013.04 842.327 2029.12 830.889 1680.16C825.372 1511.83 804.412 1448.16 804.412 1448.16Z" fill="#555555"/>
<path d="M444.409 1681.65C444.409 1681.65 480.085 1693.83 501.124 1692.9C520.63 1692.04 548.398 1684.01 548.398 1684.01" stroke="white" stroke-width="5.21744" stroke-linecap="round"/>
<path d="M332.234 1356.86C332.234 1356.86 247.557 1547.25 241.114 1698.1C231.573 1921.5 318.413 2032.7 319.83 2257.01C320.861 2420.27 282.85 2505.57 282.601 2668.81C282.335 2844.1 324.132 3112.6 324.132 3112.6" stroke="white" stroke-width="5.21744"/>
<path d="M676.584 1362.08C676.584 1362.08 745.631 1547.25 752.073 1698.1C761.615 1921.5 674.775 2032.7 673.358 2257.01C672.327 2420.27 710.338 2505.57 710.587 2668.81C710.853 2844.11 669.056 3112.6 669.056 3112.6" stroke="white" stroke-width="5.21744"/>
<rect x="303.538" y="1176.86" width="396.526" height="36.5221" rx="18.2611" fill="#D9D9D9"/>
</svg>
