<svg width="25" height="38" viewBox="0 0 25 38" fill="none" xmlns="http://www.w3.org/2000/svg">
<path d="M-1.63845e-06 18.7583C0.0123652 19.1442 0.098933 19.4971 0.259702 19.8169C0.42047 20.1367 0.667807 20.4455 1.00171 20.7433L19.589 36.7887C20.1208 37.2629 20.7763 37.5 21.5554 37.5C22.0748 37.5 22.5447 37.3897 22.9652 37.1692C23.398 36.9486 23.7381 36.6509 23.9854 36.2759C24.2452 35.901 24.375 35.4819 24.375 35.0187C24.375 34.335 24.0844 33.734 23.5031 33.2157L6.69663 18.7748L23.5031 4.31738C24.0844 3.78805 24.375 3.18703 24.375 2.51433C24.375 2.04014 24.2451 1.61557 23.9854 1.24063C23.7381 0.865679 23.398 0.56793 22.9652 0.347372C22.5447 0.115789 22.0748 -1.92984e-06 21.5554 -1.88443e-06C20.7763 -1.81632e-06 20.1208 0.242609 19.589 0.727831L1.00171 16.7733C0.65544 17.071 0.40192 17.3798 0.241151 17.6996C0.0803826 18.0304 -1.67123e-06 18.3833 -1.63845e-06 18.7583Z" fill="#565656"/>
</svg>
