<svg width="2373" height="438" viewBox="0 0 2373 438" fill="none" xmlns="http://www.w3.org/2000/svg">
<path d="M323.5 366L284.5 438H175.5L128 358.5L7.5 137L0 91L25 37L77.5 0H112L164.5 25.5L159 51L125.5 61L134 37H97L101.5 59L128 70L161 59L173 63.5L175.5 82.5L147.5 97L123 120.5L90.5 128.5L215 274L235.5 319V291.5L224.5 266L243 218.5L275 186.5L331.5 181.5L279 174.5L284.5 108.5L331.5 63.5H475.5L323.5 366Z" fill="white"/>
<path d="M639.85 133.834L671.316 321.617L769.436 133.834H819.85L691.617 370H634.098L589.098 133.834H639.85ZM895.618 133.834L854.002 370H806.295L848.25 133.834H895.618ZM1014.82 250.902L1094 370H1033.77L966.779 264.774L948.17 370H900.463L942.418 133.834H989.787L971.178 239.737L1075.73 133.834H1132.91L1014.82 250.902ZM1327.49 133.834L1320.72 171.053H1258.12L1222.94 370H1175.23L1210.42 171.053H1147.49L1154.25 133.834H1327.49ZM1430.73 372.368C1410.88 372.368 1393.29 368.195 1377.95 359.85C1362.84 351.278 1351.11 339.549 1342.76 324.662C1334.42 309.549 1330.24 292.293 1330.24 272.895C1330.24 245.827 1336.22 221.466 1348.17 199.812C1360.35 178.158 1377.05 161.24 1398.25 149.06C1419.68 136.654 1443.7 130.451 1470.32 130.451C1490.39 130.451 1507.99 134.624 1523.1 142.97C1538.44 151.316 1550.28 163.045 1558.63 178.158C1566.97 193.045 1571.14 210.075 1571.14 229.248C1571.14 256.767 1565.17 281.353 1553.21 303.007C1541.26 324.662 1524.57 341.692 1503.14 354.098C1481.71 366.278 1457.57 372.368 1430.73 372.368ZM1437.5 328.722C1454.42 328.722 1469.3 324.436 1482.16 315.865C1495.24 307.293 1505.28 295.789 1512.27 281.353C1519.49 266.692 1523.1 250.789 1523.1 233.647C1523.1 215.15 1517.91 200.601 1507.54 190C1497.16 179.398 1482.61 174.098 1463.89 174.098C1447.2 174.098 1432.31 178.383 1419.23 186.955C1406.37 195.526 1396.33 207.03 1389.11 221.466C1382.12 235.902 1378.63 251.692 1378.63 268.835C1378.63 287.331 1383.7 301.992 1393.85 312.82C1404.23 323.421 1418.78 328.722 1437.5 328.722ZM1716.35 133.834C1740.48 133.834 1758.75 139.361 1771.16 150.413C1783.57 161.24 1789.77 175.451 1789.77 193.045C1789.77 197.331 1789.43 201.729 1788.75 206.241C1786.05 221.579 1779.05 235.564 1767.78 248.195C1756.72 260.601 1741.84 269.286 1723.11 274.248L1762.7 370H1707.55L1672.36 277.97H1649.69L1633.45 370H1585.75L1627.7 133.834H1716.35ZM1740.03 207.256C1740.48 203.195 1740.71 200.489 1740.71 199.135C1740.71 190.564 1738 183.91 1732.59 179.173C1727.17 174.436 1718.94 172.068 1707.89 172.068H1668.3L1655.78 242.782H1695.37C1708 242.782 1718.04 239.624 1725.48 233.308C1733.15 226.992 1738 218.308 1740.03 207.256ZM1891.82 133.834L1850.21 370H1802.5L1844.45 133.834H1891.82ZM2084.45 133.834L2077.68 171.053H1979.56L1968.74 232.97H2043.85L2037.42 269.511H1961.97L1944.37 370H1896.67L1938.62 133.834H2084.45ZM2165.41 133.834L2123.79 370H2076.08L2118.04 133.834H2165.41ZM2372.92 133.834L2366.15 171.053H2303.56L2268.37 370H2220.67L2255.85 171.053H2192.92L2199.69 133.834H2372.92Z" fill="white"/>
</svg>
