<svg width="3090" height="3416" viewBox="0 0 3090 3416" fill="none" xmlns="http://www.w3.org/2000/svg">
<path d="M984.506 2828.06L1188.81 2844.82C1188.81 2844.82 1170.71 3064.7 1199.7 3233.05C1228.7 3401.41 1226.94 3411.81 1226.94 3411.81H1082.57H886.441C886.441 3411.81 930.442 3290.18 973.61 3160.43C1042.48 2953.44 984.506 2828.06 984.506 2828.06Z" fill="#A5ED00"/>
<ellipse cx="1089.82" cy="2431.34" rx="117.318" ry="100.558" fill="#A5ED00"/>
<ellipse cx="1101" cy="2764.68" rx="337.057" ry="143.389" fill="#A5ED00"/>
<ellipse cx="1100.99" cy="2587.77" rx="206.703" ry="119.18" fill="#A5ED00"/>
<ellipse cx="1106.58" cy="2973.24" rx="398.509" ry="162.011" fill="#A5ED00"/>
<path d="M389.996 2371.63L733.961 2341.59C733.961 2341.59 696.221 2742.17 733.961 2906.73C771.702 3071.3 886.441 3411.81 886.441 3411.81H620.488H329.713C329.713 3411.81 439.64 3384.79 439.64 2906.73C439.64 2692.96 389.996 2371.63 389.996 2371.63Z" fill="#8AC500"/>
<ellipse cx="570.242" cy="2419.97" rx="375.656" ry="310.795" fill="#8AC500"/>
<ellipse cx="472.95" cy="2628.07" rx="278.364" ry="248.636" fill="#8AC500"/>
<ellipse cx="237.826" cy="2541.58" rx="237.826" ry="189.179" fill="#8AC500"/>
<ellipse cx="813.471" cy="2546.99" rx="278.364" ry="248.636" fill="#8AC500"/>
<path d="M2469.99 2704.72L2759.32 2682.12C2759.32 2682.12 2697.08 2982.98 2726.15 3103.72C2755.22 3224.46 2799.86 3401 2799.86 3401H2394.47C2394.47 3401 2478.78 3200.63 2501.34 3103.72C2536.9 2951.02 2469.99 2704.72 2469.99 2704.72Z" fill="#9CDF00"/>
<ellipse cx="2505.28" cy="2476.72" rx="229.718" ry="221.61" fill="#9CDF00"/>
<circle cx="2616.08" cy="2779.41" r="156.749" fill="#9CDF00"/>
<ellipse cx="2397.17" cy="2698.33" rx="202.692" ry="189.179" fill="#9CDF00"/>
<ellipse cx="2816.07" cy="2584.83" rx="237.826" ry="243.231" fill="#9CDF00"/>
<line x1="2821.77" y1="3407.47" x2="1570.37" y2="3407.47" stroke="#6A9700" stroke-width="14.8975" stroke-linecap="round"/>
<line x1="1257.35" y1="3408.45" x2="315.54" y2="3408.45" stroke="#6A9700" stroke-width="14.8975" stroke-linecap="round"/>
<path d="M351.639 980.172C351.639 922.485 405.468 880.689 462.841 874.673C509.332 869.797 552.755 851.763 552.755 801.402C552.755 635.667 778.932 579.996 902.847 656.151C942.364 680.437 949.867 715.479 992.232 734.363C1050.68 760.417 1113.27 715.741 1193.35 773.469C1290.7 843.649 1226.85 905.303 1265.97 911.271C1299.74 916.422 1324.53 919.989 1342.68 922.46C1369.18 926.068 1390.74 949.708 1390.74 976.448V980.172H351.639Z" fill="white"/>
<path d="M2943.81 1091.88C2943.81 1047.5 2902.19 1015.58 2858.12 1010.34C2823.89 1006.27 2792.43 992.17 2792.43 954.09C2792.43 826.343 2622.19 783.432 2528.92 842.132C2499.18 860.851 2493.53 887.862 2461.64 902.417C2417.65 922.499 2370.54 888.063 2310.27 932.559C2236.99 986.653 2285.05 1034.18 2255.6 1038.78C2232.42 1042.4 2214.85 1045 2201.58 1046.88C2179.6 1049.98 2161.69 1069.69 2161.69 1091.88H2943.81Z" fill="white"/>
<path d="M2388.88 801.382C2388.88 757.752 2345.32 729.46 2303.66 716.508C2282.08 709.8 2264.89 694.694 2264.89 663.588C2264.89 535.842 2125.46 492.931 2049.06 551.63C2024.7 570.35 2020.08 597.36 1993.96 611.915C1957.92 631.997 1919.34 597.562 1869.97 642.058C1809.96 696.152 1849.32 743.674 1825.2 748.274C1810.05 751.164 1797.83 753.407 1787.98 755.148C1766.13 759.015 1748.28 779.186 1748.28 801.382H2388.88Z" fill="#8AC500"/>
<path d="M670.072 1187.79L710.308 1215.08C715.753 1218.78 722.975 1218.46 728.077 1214.31L752.059 1194.79C757.161 1190.63 764.384 1190.32 769.828 1194.01L801.964 1215.81C806.881 1219.15 813.31 1219.24 818.323 1216.05L854.213 1193.23C859.375 1189.94 866.019 1190.15 870.967 1193.75L899.608 1214.57C905.075 1218.54 912.532 1218.34 917.773 1214.07L941.317 1194.9C946.487 1190.69 953.823 1190.43 959.28 1194.26L997.818 1221.31" stroke="#557E30" stroke-width="11.1731" stroke-linecap="round"/>
<path d="M670.072 1266L710.308 1293.29C715.753 1296.99 722.975 1296.67 728.077 1292.52L752.059 1273C757.161 1268.84 764.384 1268.53 769.828 1272.22L801.964 1294.02C806.881 1297.36 813.31 1297.45 818.323 1294.27L854.213 1271.44C859.375 1268.16 866.019 1268.36 870.967 1271.96L899.608 1292.78C905.075 1296.75 912.532 1296.55 917.773 1292.28L941.317 1273.11C946.487 1268.9 953.823 1268.64 959.28 1272.47L997.818 1299.52" stroke="#557E30" stroke-width="11.1731" stroke-linecap="round"/>
<path d="M670.072 1344.21L710.308 1371.51C715.753 1375.2 722.975 1374.89 728.077 1370.73L752.059 1351.21C757.161 1347.06 764.384 1346.74 769.828 1350.43L801.964 1372.24C806.881 1375.57 813.31 1375.67 818.323 1372.48L854.213 1349.65C859.375 1346.37 866.019 1346.57 870.967 1350.17L899.608 1370.99C905.075 1374.96 912.532 1374.76 917.773 1370.49L941.317 1351.33C946.487 1347.12 953.823 1346.86 959.28 1350.68L997.818 1377.73" stroke="#557E30" stroke-width="11.1731" stroke-linecap="round"/>
<path d="M2545.3 1911.25L2582.36 1937.91C2587.95 1941.93 2595.58 1941.59 2600.79 1937.09L2621.84 1918.93C2627.05 1914.42 2634.68 1914.09 2640.27 1918.11L2668.91 1938.71C2673.97 1942.35 2680.77 1942.45 2685.94 1938.97L2718.13 1917.26C2723.45 1913.67 2730.47 1913.89 2735.56 1917.81L2760.91 1937.35C2766.51 1941.67 2774.38 1941.45 2779.74 1936.83L2800.33 1919.05C2805.61 1914.49 2813.36 1914.21 2818.96 1918.38L2854.42 1944.77" stroke="white" stroke-width="11.1731" stroke-linecap="round"/>
<path d="M2545.3 1989.46L2582.36 2016.12C2587.95 2020.14 2595.58 2019.81 2600.79 2015.3L2621.84 1997.14C2627.05 1992.64 2634.68 1992.3 2640.27 1996.32L2668.91 2016.92C2673.97 2020.56 2680.77 2020.67 2685.94 2017.18L2718.13 1995.47C2723.45 1991.88 2730.47 1992.11 2735.56 1996.02L2760.91 2015.56C2766.51 2019.88 2774.38 2019.66 2779.74 2015.04L2800.33 1997.27C2805.61 1992.71 2813.36 1992.43 2818.96 1996.59L2854.42 2022.98" stroke="white" stroke-width="11.1731" stroke-linecap="round"/>
<path d="M2131.71 629.625L1967.62 710.332L2176.57 1135.19L2297.69 1074.33L2131.71 629.625Z" fill="#FFC69D"/>
<rect x="1699.48" y="444.631" width="151.698" height="115.081" fill="#FFC69D"/>
<path d="M1521.63 325.093C1580.05 252.738 1670.71 325.09 1670.71 325.09C1670.71 325.09 1621.42 521.233 1610.56 604.491C1595.38 720.788 1437.93 693.421 1437.93 693.421C1437.93 693.421 1501.97 643.23 1508.55 604.491C1530.2 477.158 1424.86 444.954 1521.63 325.093Z" fill="black"/>
<path d="M1699.48 434.169H1851.18V496.292C1851.18 496.292 1803.34 509.569 1772.3 507.096C1742.44 504.717 1699.48 485.488 1699.48 485.488V434.169Z" fill="black"/>
<path d="M1610.55 221.789C1610.55 140.897 1676.13 75.3218 1757.02 75.3218H1793.64C1874.53 75.3218 1940.1 140.897 1940.1 221.788V278.523C1940.1 346.207 1916.02 414.481 1859.07 451.057C1833.55 467.447 1805.52 480.449 1780.56 480.721C1754.98 480.999 1725.46 468.217 1698.27 451.858C1637.38 415.218 1610.55 343.881 1610.55 272.811V221.789Z" fill="#FFC69D"/>
<ellipse cx="1707.33" cy="281.945" rx="10.4619" ry="23.5393" fill="black"/>
<ellipse cx="1838.1" cy="281.945" rx="10.4619" ry="23.5393" fill="black"/>
<path d="M1738.71 399.641C1738.71 399.641 1760.09 409.675 1772.71 410.103C1787.33 410.598 1806.71 399.641 1806.71 399.641" stroke="black" stroke-width="5.23095" stroke-linecap="round"/>
<path d="M1766 311.226C1766 311.226 1756.52 327.627 1754.77 340.14C1752.75 354.624 1769.65 355.945 1769.65 355.945" stroke="black" stroke-width="5.23095" stroke-linecap="round"/>
<path d="M1827.64 234.865C1827.64 234.865 1837.71 232.25 1845.95 232.25C1854.18 232.25 1869.49 234.865 1869.49 234.865" stroke="black" stroke-width="5.23095" stroke-linecap="round"/>
<path d="M1717.79 234.865C1717.79 234.865 1707.72 232.25 1699.48 232.25C1691.25 232.25 1675.94 234.865 1675.94 234.865" stroke="black" stroke-width="5.23095" stroke-linecap="round"/>
<ellipse cx="1872.1" cy="347.332" rx="44.4631" ry="31.3857" fill="#FFB987"/>
<ellipse cx="1673.33" cy="347.332" rx="44.4631" ry="31.3857" fill="#FFB987"/>
<path d="M1587.02 119.784C1665.76 -39.542 1894.32 -40.3127 1971.49 119.783C2017.98 216.217 1971.49 315.945 1971.49 315.945L1942.72 268.866C1942.72 268.866 1867.06 103.369 1775.33 104.091C1684.33 104.808 1610.56 268.866 1610.56 268.866L1587.02 315.945C1587.02 315.945 1548.1 198.532 1587.02 119.784Z" fill="black"/>
<path d="M1582.01 288.892C1578.61 269.537 1585.69 241.241 1604.79 245.842C1616.67 248.702 1623.62 269.673 1623.62 269.673V350.102L1603.35 337.859C1594.3 332.389 1588.05 323.27 1586.22 312.849L1582.01 288.892Z" fill="#FFC69D"/>
<path d="M1969.22 288.892C1972.62 269.537 1965.55 241.241 1946.44 245.842C1934.56 248.702 1927.61 269.673 1927.61 269.673V350.102L1947.88 337.859C1956.94 332.389 1963.19 323.27 1965.02 312.849L1969.22 288.892Z" fill="#FFC69D"/>
<path d="M1615.48 91.0149L1780.56 99.0152C1780.56 99.0152 1752.18 166.428 1706.44 195.019C1669.21 218.291 1591.89 227.02 1591.89 227.02L1581.79 219.019L1615.48 91.0149Z" fill="black"/>
<path d="M1940.42 91.0149L1775.33 99.0152C1775.33 99.0152 1803.72 166.428 1849.45 195.019C1886.68 218.291 1964 227.02 1964 227.02L1974.11 219.019L1940.42 91.0149Z" fill="black"/>
<path d="M1597.51 308.549C1597.51 308.549 1609.37 312.765 1610.98 303.676C1612.67 294.095 1604.45 277.721 1604.45 277.721" stroke="black" stroke-width="5.23095" stroke-linecap="round"/>
<path d="M1952.74 311.164C1952.74 311.164 1940.88 315.38 1939.27 306.29C1937.57 296.71 1945.8 280.335 1945.8 280.335" stroke="black" stroke-width="5.23095" stroke-linecap="round"/>
<path d="M1516.33 655.197C1507.39 603.989 1546.8 557.096 1598.78 557.096H1964.6C2008.96 557.096 2043.14 596.22 2037.17 640.175L1984.57 1027.88L1971.26 1127.69C1969.68 1139.55 1969.88 1151.58 1971.84 1163.37L1984.57 1239.74C1984.57 1239.74 1850.97 1321.49 1777.95 1320.82C1706.56 1320.16 1579.17 1239.74 1579.17 1239.74L1593.3 1188.86C1601.21 1160.41 1602.31 1130.49 1596.52 1101.53L1579.17 1014.8L1516.33 655.197Z" fill="#FFC69D"/>
<ellipse cx="1561.97" cy="683.945" rx="151.698" ry="125.543" fill="#FFC69D"/>
<ellipse cx="1360.15" cy="1071.27" rx="101.763" ry="82.7136" fill="#FFC69D"/>
<ellipse cx="1996.13" cy="683.945" rx="151.698" ry="125.543" fill="#FFC69D"/>
<path d="M1426.23 628.623L1590.33 709.329L1381.37 1134.18L1260.25 1073.33L1426.23 628.623Z" fill="#FFC69D"/>
<path d="M1512.93 697.745C1511.65 694.343 1516.45 692.079 1518.26 695.232L1585.41 844.802L1567.23 841.814L1512.93 697.745Z" fill="black"/>
<path d="M2047.6 697.745C2048.88 694.343 2044.08 692.079 2042.27 695.232L1975.12 844.802L1993.3 841.814L2047.6 697.745Z" fill="black"/>
<path d="M1579.18 1013.61L1985.68 1018.18L1983.55 1034.72L1580.5 1021.53L1579.18 1013.61Z" fill="black"/>
<path d="M1535.46 893.863C1510.25 846.446 1508.55 790 1530.85 741.151L1542.35 715.958C1547.63 704.406 1549.81 691.681 1548.68 679.032L1537.82 557.4C1537.55 554.399 1539.87 551.792 1542.88 551.706L1623.35 549.407C1626.8 549.308 1630.03 550.855 1632.13 553.596C1648.51 575.025 1723.29 668.435 1783.18 669.561C1840.84 670.646 1909.96 587.637 1931.06 560.4C1935.19 555.07 1941.49 551.865 1948.23 551.865H2018.09C2024.05 551.865 2028.81 556.838 2028.54 562.793L2023.16 683.41C2022.72 693.296 2023.84 703.19 2026.48 712.727L2044.43 777.605C2056.28 820.385 2049.45 866.178 2025.64 903.64L1996.54 949.417L1989.7 1013.3C1989.13 1018.62 1984.64 1022.65 1979.3 1022.65H1585.49C1580.35 1022.65 1575.96 1018.91 1575.16 1013.82L1564.99 949.417L1535.46 893.863Z" fill="#A9FF5E"/>
<path d="M1592.38 988.136C1592.38 988.136 1711.45 997.138 1787.86 996.851C1862.13 996.572 1977.8 987.211 1977.8 987.211" stroke="black" stroke-width="2.6396" stroke-linecap="round"/>
<path d="M1631.39 609.407C1631.39 609.407 1717.09 706.774 1791.02 703.563C1864.16 700.387 1934.78 598.945 1934.78 598.945" stroke="black" stroke-width="5.23095"/>
<path d="M1600.27 985.545H1975.23V1111.87C1975.23 1111.87 1857.17 1089.15 1780.73 1089.81C1709.73 1090.43 1600.27 1111.87 1600.27 1111.87V985.545Z" fill="black"/>
<path d="M1333.58 1005.84L1369.64 1154.35L1745.34 1075.91L1717.7 966.02L1333.58 1005.84Z" fill="#FFC69D"/>
<path d="M1712.55 1082.8C1753.42 1085.48 1787.37 1052.48 1785.77 1011.63L1779.37 847.684C1778.99 838.111 1770.72 830.692 1761.16 831.351C1736.68 833.038 1717.64 852.973 1717.1 877.484L1712.55 1082.8Z" fill="#FFC69D"/>
<line x1="1.3198" y1="-1.3198" x2="44.9362" y2="-1.3198" transform="matrix(-0.280405 0.959882 -0.98124 -0.192789 1386.18 1534.93)" stroke="black" stroke-width="2.6396" stroke-linecap="round"/>
<path d="M1440.61 1454.42C1440.61 1454.42 1430.85 1462.3 1430.28 1472.9C1429.96 1478.78 1430.28 1492.98 1430.28 1492.98" stroke="black" stroke-width="2.6396" stroke-linecap="round"/>
<path d="M1996.67 3095.3L1818.83 3111.66L1845.48 3322.56L1987.08 3332.88L1996.67 3095.3Z" fill="#FFC69D"/>
<path d="M2006.27 3070.6L1819.63 3111.43L1829.63 3190.59L1993.37 3172.27L2006.27 3070.6Z" fill="black"/>
<path d="M2239.41 3355.96C2239.41 3343.57 2229.71 3333.35 2217.34 3332.67C2180.51 3330.65 2105.21 3326.02 2050.9 3319.39C1959.15 3308.2 1845.08 3202.54 1845.08 3202.54V3412.2H2183.17C2214.23 3412.2 2239.41 3387.02 2239.41 3355.96Z" fill="#FFC69D"/>
<path d="M1585.18 1193.2C1587.9 1188.08 1593.23 1184.88 1599.03 1184.88H1966.91C1973.11 1184.88 1978.73 1188.54 1981.25 1194.21L2083.93 1425.51L1889.92 1625.7C1829.24 1688.31 1729.14 1689.45 1667.05 1628.23L1461.45 1425.51L1585.18 1193.2Z" fill="#555555"/>
<path d="M2083.93 1425.51L1810.63 1430.94C1810.63 1430.94 1801.3 1887.81 1807.31 2082.15C1811.67 2223.32 1790.22 2301.97 1787.54 2443.19C1783.13 2675.18 1811.41 3019.89 1818.76 3104.73C1819.71 3115.71 1828.98 3124.04 1839.94 3123.93L1991.18 3122.48C1999.65 3122.4 2006.44 3115.67 2006.53 3107.17C2007.26 3041.3 2010.83 2775.22 2022.67 2596.97C2027.71 2521.15 2038.17 2479.07 2038.1 2403.05C2038.05 2344.76 2030.35 2312.4 2028.81 2254.13C2021.87 1991.84 2121.95 2007.97 2110.48 1658.1C2104.95 1489.34 2083.93 1425.51 2083.93 1425.51Z" fill="#555555"/>
<path d="M1723 1659.6C1723 1659.6 1758.77 1671.81 1779.86 1670.88C1799.42 1670.02 1827.26 1661.97 1827.26 1661.97" stroke="white" stroke-width="5.23095" stroke-linecap="round"/>
<path d="M1584.84 2513.71L1715.78 2414.14L1828.94 2573.93L1739.21 2669.07L1584.84 2513.71Z" fill="#FFC69D"/>
<path d="M1562.95 2502.92L1715.1 2414.48L1757.57 2474.45L1634.99 2563.92L1562.95 2502.92Z" fill="black"/>
<path d="M1582.25 2841.78C1574.53 2833.37 1574.76 2820.4 1582.74 2812.23C1606.48 2787.93 1654.73 2737.93 1687.48 2699.63C1742.82 2634.93 1754.51 2492.19 1754.51 2492.19L1885 2634.55L1655.43 2844.97C1634.34 2864.3 1601.58 2862.87 1582.25 2841.78Z" fill="#FFC69D"/>
<path d="M1955.78 1339.2C1955.78 1339.2 2025 1524.85 2031.46 1676.09C2041.03 1900.07 1953.96 2011.56 1952.54 2236.45C1951.51 2400.13 1989.62 2485.65 1989.87 2649.32C1990.13 2825.06 1948.23 3094.25 1948.23 3094.25" stroke="white" stroke-width="5.23095"/>
<rect x="1581.76" y="1153.5" width="397.552" height="36.6167" rx="18.3083" fill="#D9D9D9"/>
<ellipse cx="101.763" cy="82.7136" rx="101.763" ry="82.7136" transform="matrix(-1 0 0 1 2299.56 989.556)" fill="#FFC69D"/>
<path d="M2224.37 1006.85L2188.27 1155.36L1812.16 1076.91L1839.83 967.024L2224.37 1006.85Z" fill="#FFC69D"/>
<path d="M1839.48 1079.79C1807.68 1085.31 1778.79 1061.09 1778.79 1028.91L1778.79 848.937C1778.79 839.348 1786.98 831.714 1796.55 832.377C1820.79 834.057 1839.48 854.073 1839.48 878.355L1839.48 1079.79Z" fill="#FFC69D"/>
<path d="M1843.94 970.475C1843.94 970.475 1848 980.625 1847.72 987.55C1847.44 994.82 1841.77 1002.56 1841.77 1002.56" stroke="black" stroke-width="2.00518"/>
<path d="M1537.17 1320.41L1773.36 1540.54C1773.36 1540.54 1687.33 1756.72 1564.46 1865.26C1454.19 1962.67 1259.98 2087.18 1259.98 2087.18L1107.52 1987.83C1080.14 1969.99 1073.63 1932.67 1093.36 1906.61L1537.17 1320.41Z" fill="#555555"/>
<path d="M1089.98 1985.4C1078.63 1972.16 1081.41 1951.97 1095.92 1942.28L1298.64 1806.88C1298.64 1806.88 1484.8 1942.86 1568.32 2083C1643.27 2208.78 1732.42 2417.59 1732.42 2417.59L1586.49 2565.08L1089.98 1985.4Z" fill="#555555"/>
<path d="M1713.61 969.472C1713.61 969.472 1709.55 979.623 1709.82 986.548C1710.11 993.818 1715.77 1001.56 1715.77 1001.56" stroke="black" stroke-width="2.00518"/>
<path d="M1592.75 1339.46C1592.75 1339.46 1483.5 1502.84 1398.24 1621.19C1312.99 1739.53 1181.11 1821.04 1190.71 1966.58C1199.52 2100.2 1340.6 2128.68 1414.29 2222.24C1497.14 2327.44 1592.75 2474.39 1592.75 2474.39" stroke="white" stroke-width="5.01294"/>
</svg>
