<svg width="1445" height="3839" viewBox="0 0 1445 3839" fill="none" xmlns="http://www.w3.org/2000/svg">
<path d="M1209.11 708.272L1024.52 799.06L1259.58 1276.98L1395.82 1208.52L1209.11 708.272Z" fill="#FFC69D"/>
<rect x="722.893" y="500.171" width="170.646" height="129.456" fill="#FFC69D"/>
<path d="M522.824 365.7C588.537 284.307 690.527 365.697 690.527 365.697C690.527 365.697 635.076 586.34 622.858 679.998C605.791 810.821 428.674 780.036 428.674 780.036C428.674 780.036 500.705 723.576 508.113 679.998C532.46 536.76 413.963 500.533 522.824 365.7Z" fill="black"/>
<path d="M722.893 488.402H893.539V558.284C893.539 558.284 839.725 573.22 804.803 570.438C771.219 567.762 722.893 546.131 722.893 546.131V488.402Z" fill="black"/>
<path d="M622.859 249.491C622.859 158.496 696.626 84.7295 787.621 84.7295H828.812C919.807 84.7295 993.574 158.496 993.574 249.491V313.313C993.574 389.451 966.476 466.253 902.412 507.398C873.704 525.835 842.175 540.461 814.101 540.767C785.326 541.08 752.119 526.701 721.534 508.299C653.03 467.083 622.859 386.835 622.859 306.888V249.491Z" fill="#FFC69D"/>
<ellipse cx="731.72" cy="317.162" rx="11.7687" ry="26.4796" fill="black"/>
<ellipse cx="878.829" cy="317.162" rx="11.7687" ry="26.4796" fill="black"/>
<path d="M767.023 449.561C767.023 449.561 791.068 460.848 805.272 461.329C821.713 461.887 843.52 449.561 843.52 449.561" stroke="black" stroke-width="5.88436" stroke-linecap="round"/>
<path d="M797.723 350.101C797.723 350.101 787.051 368.55 785.089 382.627C782.818 398.92 801.829 400.406 801.829 400.406" stroke="black" stroke-width="5.88436" stroke-linecap="round"/>
<path d="M867.061 264.203C867.061 264.203 878.392 261.261 887.656 261.261C896.919 261.261 914.135 264.203 914.135 264.203" stroke="black" stroke-width="5.88436" stroke-linecap="round"/>
<path d="M743.488 264.203C743.488 264.203 732.157 261.261 722.893 261.261C713.63 261.261 696.413 264.203 696.413 264.203" stroke="black" stroke-width="5.88436" stroke-linecap="round"/>
<ellipse cx="917.078" cy="390.716" rx="50.017" ry="35.3061" fill="#FFB987"/>
<ellipse cx="693.47" cy="390.716" rx="50.017" ry="35.3061" fill="#FFB987"/>
<path d="M596.381 134.747C684.965 -44.4812 942.069 -45.3482 1028.88 134.745C1081.17 243.224 1028.88 355.41 1028.88 355.41L996.517 302.451C996.517 302.451 911.4 116.281 808.218 117.093C705.851 117.899 622.86 302.451 622.86 302.451L596.381 355.41C596.381 355.41 552.598 223.331 596.381 134.747Z" fill="black"/>
<path d="M590.748 324.977C586.925 303.205 594.882 271.374 616.373 276.549C629.738 279.768 637.557 303.357 637.557 303.357V393.834L614.754 380.061C604.567 373.908 597.539 363.649 595.48 351.927L590.748 324.977Z" fill="#FFC69D"/>
<path d="M1026.33 324.977C1030.15 303.205 1022.19 271.374 1000.7 276.549C987.337 279.768 979.517 303.357 979.517 303.357V393.834L1002.32 380.061C1012.51 373.908 1019.54 363.649 1021.59 351.927L1026.33 324.977Z" fill="#FFC69D"/>
<path d="M628.393 102.384L814.1 111.383C814.1 111.383 782.17 187.217 730.721 219.379C688.843 245.558 601.864 255.377 601.864 255.377L590.494 246.377L628.393 102.384Z" fill="black"/>
<path d="M993.923 102.384L808.217 111.383C808.217 111.383 840.147 187.217 891.595 219.379C933.474 245.558 1020.45 255.377 1020.45 255.377L1031.82 246.377L993.923 102.384Z" fill="black"/>
<path d="M608.182 347.09C608.182 347.09 621.523 351.833 623.334 341.608C625.244 330.83 615.991 312.411 615.991 312.411" stroke="black" stroke-width="5.88436" stroke-linecap="round"/>
<path d="M1007.78 350.031C1007.78 350.031 994.442 354.774 992.63 344.549C990.721 333.772 999.974 315.352 999.974 315.352" stroke="black" stroke-width="5.88436" stroke-linecap="round"/>
<path d="M516.867 737.039C506.801 679.434 551.133 626.684 609.611 626.684H1021.13C1071.03 626.684 1109.47 670.694 1102.76 720.14L1043.59 1156.28L1028.62 1268.56C1026.84 1281.89 1027.06 1295.42 1029.27 1308.69L1043.59 1394.59C1043.59 1394.59 893.302 1486.55 811.157 1485.8C730.852 1485.06 587.551 1394.59 587.551 1394.59L603.448 1337.36C612.34 1305.35 613.578 1271.7 607.062 1239.12L587.551 1141.56L516.867 737.039Z" fill="#FFC69D"/>
<ellipse cx="568.197" cy="769.378" rx="170.646" ry="141.225" fill="#FFC69D"/>
<ellipse cx="341.165" cy="1205.08" rx="114.474" ry="93.0454" fill="#FFC69D"/>
<ellipse cx="1056.6" cy="769.378" rx="170.646" ry="141.225" fill="#FFC69D"/>
<path d="M415.508 707.145L600.099 797.932L365.043 1275.85L228.797 1207.4L415.508 707.145Z" fill="#FFC69D"/>
<path d="M513.04 784.901C511.598 781.075 516.997 778.528 519.033 782.074L594.568 950.328L574.123 946.966L513.04 784.901Z" fill="black"/>
<path d="M1114.49 784.901C1115.93 781.075 1110.53 778.528 1108.5 782.074L1032.96 950.328L1053.41 946.966L1114.49 784.901Z" fill="black"/>
<path d="M587.566 1140.22L1044.84 1145.36L1042.45 1163.97L589.051 1149.13L587.566 1140.22Z" fill="black"/>
<path d="M538.379 1005.52C510.026 952.177 508.11 888.681 533.197 833.729L546.134 805.39C552.067 792.395 554.518 778.08 553.248 763.851L541.031 627.026C540.73 623.65 543.336 620.718 546.724 620.621L637.252 618.035C641.132 617.924 644.768 619.663 647.125 622.747C665.55 646.853 749.677 751.931 817.04 753.198C881.909 754.417 959.655 661.04 983.396 630.401C988.042 624.405 995.127 620.8 1002.71 620.8H1081.3C1088 620.8 1093.35 626.394 1093.06 633.093L1087 768.776C1086.5 779.897 1087.76 791.026 1090.73 801.755L1110.93 874.737C1124.25 922.86 1116.57 974.373 1089.79 1016.52L1057.06 1068.01L1049.36 1139.88C1048.72 1145.86 1043.67 1150.39 1037.66 1150.39H594.664C588.873 1150.39 583.943 1146.18 583.039 1140.46L571.599 1068.01L538.379 1005.52Z" fill="#A9FF5E"/>
<path d="M602.414 1111.57C602.414 1111.57 736.35 1121.69 822.31 1121.37C905.857 1121.05 1035.97 1110.52 1035.97 1110.52" stroke="black" stroke-width="2.96932" stroke-linecap="round"/>
<path d="M646.291 685.529C646.291 685.529 742.7 795.058 825.867 791.446C908.142 787.873 987.584 673.761 987.584 673.761" stroke="black" stroke-width="5.88436"/>
<path d="M611.279 1108.65H1033.09V1250.76C1033.09 1250.76 900.278 1225.2 814.287 1225.94C734.421 1226.64 611.279 1250.76 611.279 1250.76V1108.65Z" fill="black"/>
<path d="M311.279 1131.48L351.844 1298.55L774.48 1210.3L743.381 1086.69L311.279 1131.48Z" fill="#FFC69D"/>
<path d="M737.597 1218.05C783.562 1221.07 821.758 1183.95 819.962 1137.99L812.753 953.569C812.333 942.801 803.031 934.455 792.277 935.196C764.74 937.094 743.32 959.52 742.71 987.092L737.597 1218.05Z" fill="#FFC69D"/>
<line x1="1.48466" y1="-1.48466" x2="50.5492" y2="-1.48466" transform="matrix(-0.280405 0.959882 -0.98124 -0.192789 370.449 1726.66)" stroke="black" stroke-width="2.96932" stroke-linecap="round"/>
<path d="M431.678 1636.09C431.678 1636.09 420.704 1644.96 420.063 1656.88C419.707 1663.49 420.063 1679.47 420.063 1679.47" stroke="black" stroke-width="2.96932" stroke-linecap="round"/>
<path d="M1057.2 3481.93L857.146 3500.34L887.128 3737.58L1046.42 3749.19L1057.2 3481.93Z" fill="#FFC69D"/>
<path d="M1068 3454.16L858.041 3500.08L869.294 3589.12L1053.49 3568.52L1068 3454.16Z" fill="black"/>
<path d="M1330.26 3775.16C1330.26 3761.22 1319.36 3749.72 1305.43 3748.96C1264 3746.68 1179.3 3741.47 1118.21 3734.02C1015 3721.43 886.681 3602.57 886.681 3602.57V3838.42H1267C1301.94 3838.42 1330.26 3810.1 1330.26 3775.16Z" fill="#FFC69D"/>
<path d="M594.309 1342.24C597.376 1336.48 603.367 1332.89 609.89 1332.89H1023.72C1030.7 1332.89 1037.02 1337 1039.86 1343.38L1155.36 1603.57L937.118 1828.76C868.853 1899.2 756.256 1900.48 686.408 1831.61L455.125 1603.57L594.309 1342.24Z" fill="#555555"/>
<path d="M1155.36 1603.57L847.917 1609.68C847.917 1609.68 837.427 2123.62 844.182 2342.23C849.089 2501.04 824.964 2589.51 821.945 2748.37C816.986 3009.34 848.803 3397.11 857.07 3492.55C858.139 3504.9 868.56 3514.26 880.894 3514.14L1051.03 3512.51C1060.55 3512.42 1068.18 3504.85 1068.29 3495.29C1069.11 3421.19 1073.13 3121.87 1086.45 2921.36C1092.11 2836.07 1103.88 2788.73 1103.81 2703.22C1103.75 2637.64 1095.08 2601.24 1093.35 2535.7C1085.54 2240.65 1198.12 2258.78 1185.22 1865.22C1179 1675.38 1155.36 1603.57 1155.36 1603.57Z" fill="#555555"/>
<path d="M749.342 1866.9C749.342 1866.9 789.578 1880.64 813.307 1879.59C835.306 1878.62 866.623 1869.57 866.623 1869.57" stroke="white" stroke-width="5.88436" stroke-linecap="round"/>
<path d="M593.926 2827.7L741.223 2715.69L868.519 2895.44L767.583 3002.46L593.926 2827.7Z" fill="#FFC69D"/>
<path d="M569.303 2815.56L740.453 2716.07L788.23 2783.54L650.335 2884.18L569.303 2815.56Z" fill="black"/>
<path d="M591.011 3196.75C582.333 3187.28 582.584 3172.69 591.562 3163.51C618.276 3136.18 672.546 3079.93 709.393 3036.84C771.637 2964.06 784.792 2803.49 784.792 2803.49L931.581 2963.64L673.338 3200.34C649.615 3222.08 612.756 3220.48 591.011 3196.75Z" fill="#FFC69D"/>
<path d="M1011.2 1506.48C1011.2 1506.48 1089.07 1715.32 1096.33 1885.45C1107.09 2137.41 1009.15 2262.82 1007.56 2515.8C1006.39 2699.94 1049.26 2796.14 1049.54 2980.24C1049.84 3177.94 1002.7 3480.76 1002.7 3480.76" stroke="white" stroke-width="5.88436"/>
<rect x="590.465" y="1297.58" width="447.211" height="41.1905" rx="20.5952" fill="#D9D9D9"/>
<ellipse cx="114.474" cy="93.0454" rx="114.474" ry="93.0454" transform="matrix(-1 0 0 1 1397.93 1113.16)" fill="#FFC69D"/>
<path d="M1313.34 1132.61L1272.73 1299.67L849.64 1211.43L880.772 1087.82L1313.34 1132.61Z" fill="#FFC69D"/>
<path d="M880.372 1214.67C844.599 1220.87 812.107 1193.63 812.107 1157.43L812.106 954.978C812.106 944.192 821.316 935.604 832.083 936.35C859.351 938.239 880.374 960.756 880.374 988.071L880.372 1214.67Z" fill="#FFC69D"/>
<path d="M885.391 1091.7C885.391 1091.7 889.959 1103.12 889.651 1110.91C889.327 1119.08 882.956 1127.79 882.956 1127.79" stroke="black" stroke-width="2.25565"/>
<path d="M540.311 1485.34L806 1732.97C806 1732.97 709.226 1976.15 571.008 2098.25C446.957 2207.83 228.493 2347.89 228.493 2347.89L56.9933 2236.14C26.1888 2216.06 18.8686 2174.08 41.0623 2144.76L540.311 1485.34Z" fill="#555555"/>
<path d="M37.2591 2233.4C24.4942 2218.5 27.6209 2195.79 43.9384 2184.89L271.987 2032.58C271.987 2032.58 481.401 2185.54 575.345 2343.19C659.66 2484.68 759.946 2719.58 759.946 2719.58L595.788 2885.49L37.2591 2233.4Z" fill="#555555"/>
<path d="M738.777 1090.57C738.777 1090.57 734.214 1101.99 734.522 1109.78C734.845 1117.96 741.21 1126.66 741.21 1126.66" stroke="black" stroke-width="2.25565"/>
<path d="M602.824 1506.77C602.824 1506.77 479.933 1690.57 384.026 1823.69C288.12 1956.81 139.771 2048.51 150.567 2212.22C160.479 2362.54 319.187 2394.58 402.072 2499.82C495.276 2618.17 602.824 2783.47 602.824 2783.47" stroke="white" stroke-width="5.63912"/>
</svg>
