<svg width="2484" height="2598" viewBox="0 0 2484 2598" fill="none" xmlns="http://www.w3.org/2000/svg">
<path d="M580.778 988.453C604.343 701.28 191.606 549.362 320.258 278.714C525.552 -153.165 1350.98 -12.3614 1867.51 226.513C2144.42 354.569 2351.66 458.947 2415 700.341C2472.18 918.252 2205.27 1026.36 2213.99 1248.46C2223.19 1482.74 2476.26 1578.31 2483.77 1812.63C2507.33 2548.66 26.839 2548.6 0.227884 1812.63C-12.9643 1447.78 550.886 1352.73 580.778 988.453Z" fill="#E7FFD2"/>
<path d="M314.201 1612.11H460.225C460.225 1612.11 467.302 1917.03 490.927 2050.83C514.552 2184.63 578.157 2282.04 578.157 2282.04C578.157 2282.04 441.888 2251.3 360.966 2214.74C297.567 2186.1 232.486 2141.32 232.486 2141.32C232.486 2141.32 238.559 2153.95 273.735 2050.83C329.853 1886.33 314.201 1612.11 314.201 1612.11Z" fill="#B2D890"/>
<ellipse cx="408.38" cy="1439.27" rx="267.665" ry="255.429" fill="#B2D890"/>
<ellipse cx="339.552" cy="1610.58" rx="198.837" ry="203.426" fill="#B2D890"/>
<ellipse cx="169.776" cy="1538.69" rx="169.776" ry="156.011" fill="#B2D890"/>
<ellipse cx="581.216" cy="1543.28" rx="198.837" ry="203.426" fill="#B2D890"/>
<path d="M794.469 1804.83H940.493C940.493 1804.83 907.85 1970.82 931.475 2104.61C955.1 2238.41 971.194 2349.34 971.194 2349.34C971.194 2349.34 930.352 2348.64 842.763 2334.04C741.815 2317.22 723.461 2317.22 723.461 2317.22C723.461 2317.22 759.292 2184.79 794.469 2081.67C850.587 1917.17 794.469 1804.83 794.469 1804.83Z" fill="#D1F9AD"/>
<ellipse cx="888.649" cy="1615.17" rx="96.3595" ry="82.5939" fill="#D1F9AD"/>
<ellipse cx="897.825" cy="1888.95" rx="276.842" ry="117.773" fill="#D1F9AD"/>
<ellipse cx="897.825" cy="1743.65" rx="169.776" ry="97.889" fill="#D1F9AD"/>
<ellipse cx="902.414" cy="2060.26" rx="327.316" ry="133.068" fill="#D1F9AD"/>
<path d="M1970.02 2029.67L2119.91 2035.79C2119.91 2035.79 2110.05 1988.62 2127.56 2087.79C2145.07 2186.96 2162.73 2202.5 2162.73 2202.5C2162.73 2202.5 2144.98 2213.46 2083.2 2236.15C2008.25 2263.68 1976.13 2272.86 1976.13 2272.86C1976.13 2272.86 1988.55 2272.93 2002.14 2193.33C2023.55 2067.91 1970.02 2029.67 1970.02 2029.67Z" fill="#C5F29E"/>
<ellipse cx="1982.25" cy="1814.01" rx="143.775" ry="137.656" fill="#C5F29E"/>
<ellipse cx="2051.08" cy="2000.61" rx="96.3595" ry="97.889" fill="#C5F29E"/>
<ellipse cx="1915.37" cy="1951.05" rx="125.834" ry="115.631" fill="#C5F29E"/>
<ellipse cx="2175.51" cy="1879.13" rx="147.373" ry="150.774" fill="#C5F29E"/>
<path d="M235.545 608.764C235.545 561.383 279.758 527.054 326.881 522.112C365.067 518.108 400.733 503.296 400.733 461.931C400.733 325.804 586.504 280.078 688.282 342.629C720.739 362.576 726.901 391.358 761.698 406.868C809.709 428.268 861.117 391.573 926.886 438.988C1006.84 496.631 954.401 547.27 986.537 552.173C1014.27 556.403 1034.64 559.333 1049.54 561.363C1071.31 564.326 1089.01 583.743 1089.01 605.706V608.764H235.545Z" fill="white"/>
<path d="M2364.63 700.518C2364.63 664.063 2330.45 637.847 2294.25 633.542C2266.13 630.2 2240.3 618.618 2240.3 587.341C2240.3 482.416 2100.47 447.171 2023.86 495.384C1999.43 510.759 1994.79 532.944 1968.6 544.899C1932.46 561.394 1893.77 533.109 1844.27 569.656C1784.08 614.087 1823.56 653.119 1799.37 656.898C1780.33 659.872 1765.9 662.013 1755 663.553C1736.94 666.104 1722.23 682.287 1722.23 700.518H2364.63Z" fill="white"/>
<path d="M1908.84 461.914C1908.84 426.078 1873.06 402.84 1838.84 392.202C1821.12 386.692 1807 374.285 1807 348.736C1807 243.811 1692.47 208.566 1629.73 256.779C1609.72 272.155 1605.92 294.339 1584.47 306.294C1554.87 322.789 1523.18 294.505 1482.63 331.052C1433.34 375.482 1465.67 414.515 1445.86 418.293C1433.41 420.667 1423.38 422.509 1415.29 423.939C1397.34 427.115 1382.68 443.683 1382.68 461.914H1908.84Z" fill="#C5F29E"/>
<path d="M497.092 779.289L530.14 801.709C534.612 804.742 540.544 804.484 544.734 801.072L564.432 785.036C568.623 781.625 574.555 781.366 579.026 784.4L605.422 802.307C609.46 805.046 614.74 805.124 618.858 802.506L648.336 783.757C652.576 781.061 658.033 781.23 662.097 784.184L685.622 801.283C690.112 804.547 696.237 804.379 700.541 800.875L719.879 785.132C724.126 781.675 730.152 781.46 734.633 784.606L766.287 806.82" stroke="#557E30" stroke-width="9.1771" stroke-linecap="round"/>
<path d="M497.092 843.528L530.14 865.948C534.612 868.982 540.544 868.723 544.734 865.312L564.432 849.276C568.623 845.865 574.555 845.606 579.026 848.64L605.422 866.546C609.46 869.286 614.74 869.364 618.858 866.745L648.336 847.997C652.576 845.3 658.033 845.47 662.097 848.424L685.622 865.523C690.112 868.787 696.237 868.619 700.541 865.115L719.879 849.372C724.126 845.915 730.152 845.7 734.633 848.845L766.287 871.06" stroke="#557E30" stroke-width="9.1771" stroke-linecap="round"/>
<path d="M497.092 907.768L530.14 930.188C534.612 933.222 540.544 932.963 544.734 929.552L564.432 913.516C568.623 910.104 574.555 909.846 579.026 912.879L605.422 930.786C609.46 933.526 614.74 933.604 618.858 930.985L648.336 912.237C652.576 909.54 658.033 909.709 662.097 912.664L685.622 929.763C690.112 933.027 696.237 932.859 700.541 929.354L719.879 913.612C724.126 910.155 730.152 909.94 734.633 913.085L766.287 935.299" stroke="#557E30" stroke-width="9.1771" stroke-linecap="round"/>
<path d="M2037.31 1373.51L2067.76 1395.4C2072.35 1398.71 2078.61 1398.43 2082.9 1394.73L2100.18 1379.81C2104.47 1376.11 2110.73 1375.84 2115.32 1379.14L2138.84 1396.06C2143 1399.05 2148.58 1399.14 2152.83 1396.27L2179.27 1378.44C2183.64 1375.49 2189.41 1375.68 2193.58 1378.89L2214.41 1394.94C2219.01 1398.49 2225.47 1398.31 2229.87 1394.51L2246.79 1379.92C2251.13 1376.17 2257.49 1375.94 2262.09 1379.36L2291.21 1401.04" stroke="#B7EC87" stroke-width="9.1771" stroke-linecap="round"/>
<path d="M2037.31 1437.75L2067.76 1459.64C2072.35 1462.95 2078.61 1462.67 2082.9 1458.97L2100.18 1444.05C2104.47 1440.35 2110.73 1440.08 2115.32 1443.38L2138.84 1460.3C2143 1463.29 2148.58 1463.37 2152.83 1460.51L2179.27 1442.68C2183.64 1439.73 2189.41 1439.92 2193.58 1443.13L2214.41 1459.18C2219.01 1462.73 2225.47 1462.55 2229.87 1458.75L2246.79 1444.16C2251.13 1440.41 2257.49 1440.18 2262.09 1443.6L2291.21 1465.28" stroke="#B7EC87" stroke-width="9.1771" stroke-linecap="round"/>
</svg>
