<svg width="2484" height="2610" viewBox="0 0 2484 2610" fill="none" xmlns="http://www.w3.org/2000/svg">
<path d="M580.778 988.453C604.343 701.28 191.606 549.362 320.258 278.714C525.552 -153.165 1350.98 -12.3614 1867.51 226.513C2144.42 354.569 2351.66 458.947 2415 700.341C2472.18 918.252 2205.27 1026.36 2213.99 1248.46C2223.19 1482.74 2476.26 1578.31 2483.77 1812.63C2507.33 2548.66 26.839 2548.6 0.227884 1812.63C-12.9643 1447.78 550.886 1352.73 580.778 988.453Z" fill="#E7FFD2"/>
<path d="M314.201 1612.11H460.225C460.225 1612.11 467.301 1917.03 490.927 2050.83C514.552 2184.63 578.157 2282.04 578.157 2282.04C578.157 2282.04 441.888 2251.3 360.966 2214.74C297.567 2186.1 232.486 2141.32 232.486 2141.32C232.486 2141.32 238.559 2153.95 273.735 2050.83C329.853 1886.33 314.201 1612.11 314.201 1612.11Z" fill="#B2D890"/>
<ellipse cx="408.381" cy="1439.27" rx="267.665" ry="255.429" fill="#B2D890"/>
<ellipse cx="339.553" cy="1610.58" rx="198.837" ry="203.426" fill="#B2D890"/>
<ellipse cx="169.776" cy="1538.69" rx="169.776" ry="156.011" fill="#B2D890"/>
<ellipse cx="581.216" cy="1543.28" rx="198.837" ry="203.426" fill="#B2D890"/>
<path d="M794.469 1804.83H940.493C940.493 1804.83 907.85 1970.82 931.475 2104.61C955.1 2238.41 971.194 2349.34 971.194 2349.34C971.194 2349.34 930.352 2348.64 842.763 2334.04C741.815 2317.22 723.461 2317.22 723.461 2317.22C723.461 2317.22 759.292 2184.79 794.469 2081.67C850.587 1917.17 794.469 1804.83 794.469 1804.83Z" fill="#D1F9AD"/>
<ellipse cx="888.649" cy="1615.17" rx="96.3595" ry="82.5939" fill="#D1F9AD"/>
<ellipse cx="897.826" cy="1888.95" rx="276.842" ry="117.773" fill="#D1F9AD"/>
<ellipse cx="897.825" cy="1743.65" rx="169.776" ry="97.889" fill="#D1F9AD"/>
<ellipse cx="902.414" cy="2060.26" rx="327.316" ry="133.068" fill="#D1F9AD"/>
<path d="M1970.02 2029.67L2119.91 2035.79C2119.91 2035.79 2110.05 1988.62 2127.56 2087.79C2145.07 2186.96 2162.74 2202.5 2162.74 2202.5C2162.74 2202.5 2144.98 2213.46 2083.2 2236.15C2008.25 2263.68 1976.13 2272.86 1976.13 2272.86C1976.13 2272.86 1988.55 2272.93 2002.14 2193.33C2023.55 2067.91 1970.02 2029.67 1970.02 2029.67Z" fill="#C5F29E"/>
<ellipse cx="1982.25" cy="1814.01" rx="143.775" ry="137.656" fill="#C5F29E"/>
<ellipse cx="2051.08" cy="2000.61" rx="96.3595" ry="97.889" fill="#C5F29E"/>
<ellipse cx="1915.37" cy="1951.05" rx="125.834" ry="115.631" fill="#C5F29E"/>
<ellipse cx="2175.51" cy="1879.13" rx="147.373" ry="150.774" fill="#C5F29E"/>
<line x1="2083.2" y1="2603.24" x2="1055.37" y2="2603.24" stroke="#275200" stroke-width="12.2361" stroke-linecap="round"/>
<line x1="902.414" y1="2603.24" x2="394.615" y2="2603.24" stroke="#275200" stroke-width="12.2361" stroke-linecap="round"/>
<path d="M235.546 608.764C235.546 561.383 279.759 527.053 326.882 522.112C365.068 518.107 400.734 503.295 400.734 461.93C400.734 325.804 586.504 280.078 688.283 342.628C720.74 362.576 726.902 391.358 761.699 406.868C809.71 428.267 861.118 391.573 926.887 438.988C1006.84 496.63 954.402 547.27 986.538 552.172C1014.27 556.402 1034.64 559.333 1049.54 561.363C1071.31 564.326 1089.02 583.742 1089.02 605.706V608.764H235.546Z" fill="white"/>
<path d="M2364.63 700.518C2364.63 664.062 2330.45 637.846 2294.25 633.542C2266.13 630.199 2240.3 618.617 2240.3 587.34C2240.3 482.415 2100.47 447.17 2023.86 495.383C1999.43 510.759 1994.79 532.943 1968.6 544.898C1932.47 561.393 1893.77 533.109 1844.27 569.656C1784.09 614.086 1823.56 653.119 1799.37 656.897C1780.33 659.872 1765.9 662.012 1755 663.553C1736.95 666.103 1722.24 682.287 1722.24 700.518H2364.63Z" fill="white"/>
<path d="M1908.84 461.913C1908.84 426.077 1873.06 402.84 1838.84 392.201C1821.12 386.692 1807 374.285 1807 348.736C1807 243.811 1692.47 208.566 1629.73 256.779C1609.72 272.154 1605.92 294.339 1584.47 306.294C1554.87 322.789 1523.18 294.505 1482.63 331.051C1433.34 375.482 1465.67 414.514 1445.86 418.293C1433.41 420.666 1423.38 422.509 1415.29 423.939C1397.34 427.115 1382.68 443.682 1382.68 461.913H1908.84Z" fill="#C5F29E"/>
<path d="M497.093 779.289L530.141 801.709C534.613 804.742 540.545 804.484 544.735 801.072L564.433 785.036C568.624 781.625 574.556 781.366 579.027 784.4L605.423 802.307C609.461 805.046 614.741 805.124 618.859 802.506L648.337 783.757C652.577 781.061 658.034 781.23 662.098 784.184L685.623 801.283C690.113 804.547 696.237 804.379 700.542 800.875L719.88 785.132C724.127 781.675 730.152 781.46 734.634 784.606L766.288 806.82" stroke="#557E30" stroke-width="9.1771" stroke-linecap="round"/>
<path d="M497.093 843.528L530.141 865.948C534.613 868.982 540.545 868.723 544.735 865.312L564.433 849.276C568.624 845.865 574.556 845.606 579.027 848.64L605.423 866.546C609.461 869.286 614.741 869.364 618.859 866.745L648.337 847.997C652.577 845.3 658.034 845.47 662.098 848.424L685.623 865.523C690.113 868.787 696.237 868.619 700.542 865.115L719.88 849.372C724.127 845.915 730.152 845.7 734.634 848.845L766.288 871.06" stroke="#557E30" stroke-width="9.1771" stroke-linecap="round"/>
<path d="M497.093 907.768L530.141 930.188C534.613 933.222 540.545 932.963 544.735 929.552L564.433 913.516C568.624 910.104 574.556 909.846 579.027 912.879L605.423 930.786C609.461 933.526 614.741 933.604 618.859 930.985L648.337 912.237C652.577 909.54 658.034 909.709 662.098 912.664L685.623 929.763C690.113 933.027 696.237 932.859 700.542 929.354L719.88 913.612C724.127 910.155 730.152 909.94 734.634 913.085L766.288 935.299" stroke="#557E30" stroke-width="9.1771" stroke-linecap="round"/>
<path d="M2037.32 1373.51L2067.76 1395.4C2072.35 1398.71 2078.61 1398.43 2082.9 1394.73L2100.18 1379.81C2104.47 1376.11 2110.73 1375.84 2115.32 1379.14L2138.85 1396.06C2143 1399.05 2148.58 1399.14 2152.83 1396.27L2179.27 1378.44C2183.64 1375.49 2189.41 1375.68 2193.58 1378.89L2214.41 1394.94C2219.01 1398.49 2225.48 1398.31 2229.87 1394.51L2246.79 1379.92C2251.13 1376.17 2257.49 1375.94 2262.09 1379.36L2291.22 1401.04" stroke="#B7EC87" stroke-width="9.1771" stroke-linecap="round"/>
<path d="M2037.32 1437.75L2067.76 1459.64C2072.35 1462.95 2078.61 1462.67 2082.9 1458.97L2100.18 1444.05C2104.47 1440.35 2110.73 1440.08 2115.32 1443.38L2138.85 1460.3C2143 1463.29 2148.58 1463.37 2152.83 1460.51L2179.27 1442.68C2183.64 1439.73 2189.41 1439.92 2193.58 1443.13L2214.41 1459.18C2219.01 1462.73 2225.48 1462.55 2229.87 1458.75L2246.79 1444.16C2251.13 1440.41 2257.49 1440.18 2262.09 1443.6L2291.22 1465.28" stroke="#B7EC87" stroke-width="9.1771" stroke-linecap="round"/>
<path d="M678.94 1470.25L577.566 1620.74L476.167 1533.31L544.127 1406.4L678.94 1470.25Z" fill="#FFC69D"/>
<path d="M684.584 1476.21L578.105 1620.11L515.238 1565.9L593.899 1429.67L684.584 1476.21Z" fill="black"/>
<path d="M566.876 1412.92C568.168 1414.03 568.4 1415.94 567.413 1417.33L491.802 1523.78L307.055 1601.63L207.459 1570.07L438.437 1302.18L566.876 1412.92Z" fill="#A9FF5E"/>
<path d="M468.481 1328.08L248.178 1583.59L204.955 1567.91L438.437 1302.17L468.481 1328.08Z" fill="white"/>
<line x1="460.019" y1="1340.42" x2="276.531" y2="1553.24" stroke="#589E19" stroke-width="3.30579" stroke-linecap="round"/>
<line x1="423.844" y1="1326.69" x2="446.377" y2="1346.12" stroke="#589E19" stroke-width="3.30579" stroke-linecap="round"/>
<line x1="233.881" y1="1547.02" x2="256.414" y2="1566.45" stroke="#589E19" stroke-width="3.30579" stroke-linecap="round"/>
<line x1="261.942" y1="1514.47" x2="284.475" y2="1533.9" stroke="#589E19" stroke-width="3.30579" stroke-linecap="round"/>
<line x1="326.703" y1="1439.36" x2="349.236" y2="1458.79" stroke="#589E19" stroke-width="3.30579" stroke-linecap="round"/>
<line x1="356.925" y1="1404.31" x2="379.458" y2="1423.74" stroke="#589E19" stroke-width="3.30579" stroke-linecap="round"/>
<line x1="391.465" y1="1364.25" x2="413.998" y2="1383.68" stroke="#589E19" stroke-width="3.30579" stroke-linecap="round"/>
<path d="M501.204 1554.9L332.293 1590.29L345.851 1551.79L507.424 1512.24L501.204 1554.9Z" fill="#E7FFDB"/>
<line x1="373.15" y1="1552.4" x2="366.706" y2="1577.86" stroke="#589E19" stroke-width="3.30579" stroke-linecap="round"/>
<line x1="407.601" y1="1542.82" x2="401.157" y2="1568.28" stroke="#589E19" stroke-width="3.30579" stroke-linecap="round"/>
<line x1="437.389" y1="1533.59" x2="429.132" y2="1566.21" stroke="#589E19" stroke-width="3.30579" stroke-linecap="round"/>
<line x1="469.766" y1="1526.46" x2="463.528" y2="1556.54" stroke="#589E19" stroke-width="3.30579" stroke-linecap="round"/>
<path d="M464.799 1557.39C464.799 1557.39 469.316 1581.8 454.806 1598.63C447.336 1607.29 435.003 1606.35 436.544 1595.01C439.428 1573.81 464.799 1557.39 464.799 1557.39ZM464.799 1557.39C464.799 1557.39 471.156 1592.28 496.384 1589.09C516.585 1586.54 501.27 1567.48 490.067 1562.75C476.648 1557.09 464.799 1557.39 464.799 1557.39Z" stroke="#589E19" stroke-width="3.30579"/>
<path d="M1297.99 585.885L1424.58 621.578L1412.88 747.931C1412.88 747.931 1425.23 758.269 1434.58 772.736C1440.55 781.983 1441.68 782.893 1444.6 792.576C1455.52 828.782 1427.92 802.486 1402.89 785.944C1384.16 773.562 1336.49 752.573 1314.24 743.027C1307.08 739.953 1302.33 733.025 1302.1 725.234L1297.99 585.885Z" fill="#FFC69D"/>
<path d="M1299.08 609.107L1421.4 680.181L1416.44 711.586L1415.17 715.827C1412.87 723.471 1406.65 729.375 1398.73 728.354C1384.34 726.498 1359.14 717.257 1330.49 680.181C1314.57 659.594 1299.08 609.107 1299.08 609.107Z" fill="black"/>
<path d="M1302.76 632.355L1274.29 607.485C1274.29 607.485 1255.51 571.798 1266.11 552.908C1270.06 545.883 1287.5 536.163 1287.5 536.163L1315.96 547.825L1357.49 465.937L1497.53 479.707C1497.53 479.707 1502.05 552.034 1497.53 598.014C1493.01 643.981 1466.11 673.57 1451.24 685.14C1400.72 724.426 1302.76 632.355 1302.76 632.355Z" fill="#FFC69D"/>
<ellipse cx="1406.81" cy="558.34" rx="6.61157" ry="18.1818" fill="black"/>
<ellipse cx="1477.68" cy="557.867" rx="6.61157" ry="18.1818" fill="black"/>
<path d="M1458.47 579.834C1458.47 579.834 1465.85 585.967 1468.83 596.265C1471.82 606.564 1465.85 614.066 1465.85 614.066" stroke="black" stroke-width="4.69466" stroke-linecap="round"/>
<path d="M1300.09 575.44C1300.09 575.44 1288.84 559.52 1281.54 566.132C1274.24 572.743 1278.65 586.187 1278.65 586.187" stroke="black" stroke-width="4.69466" stroke-linecap="round"/>
<path d="M1287.87 576.665C1289.37 599.19 1301.38 599.19 1301.38 599.19" stroke="black" stroke-width="4.69466" stroke-linecap="round"/>
<path d="M1434.07 653.725C1434.07 653.725 1424.69 659.169 1411.11 653.725C1397.53 648.282 1396.28 639.58 1396.28 639.58" stroke="black" stroke-width="4.69466" stroke-linecap="round"/>
<path d="M1468.83 529.281C1468.83 529.281 1473.16 525.968 1480.42 525.314C1489.83 524.467 1494.16 526.199 1494.16 526.199" stroke="black" stroke-width="4.69466" stroke-linecap="round"/>
<path d="M1420.58 530.091C1420.58 530.091 1415.98 527.094 1408.68 526.957C1399.22 526.779 1395.05 528.812 1395.05 528.812" stroke="black" stroke-width="4.69466" stroke-linecap="round"/>
<path d="M1079.34 466.958C1109.07 401.686 1164.56 362.942 1212.22 351.256C1245.28 343.148 1268.59 336.75 1299.39 351.256C1321.84 361.828 1345.62 394.841 1345.62 394.841L1299.39 430.502C1299.39 430.502 1258.5 450.151 1242.6 472.766C1203.58 528.249 1287.6 640.512 1287.6 640.512C1287.6 640.512 1290.65 674.976 1287.6 696.71C1285.1 714.54 1276.03 741.339 1276.03 741.339L953.718 938.033C953.718 938.033 922.851 839.338 944.102 796.355C978.875 726.021 1067.42 735.784 1099.17 668.611C1121.52 621.33 1045.15 541.993 1079.34 466.958Z" fill="black"/>
<path d="M1469.77 401.445C1487.87 416.819 1494.21 428.941 1494.21 428.941C1494.21 428.941 1512.95 465.91 1510.74 475.222C1508.95 482.815 1498.82 491.257 1498.82 491.257C1498.82 491.257 1488.62 482.804 1480.99 479.37C1461.94 470.8 1403.3 475.222 1403.3 475.222C1403.3 475.222 1384.15 478.143 1361.46 491.257C1331.12 508.799 1342.26 585.22 1312.6 566.541C1304.87 561.678 1304.34 551.5 1296.75 549.371C1289.15 547.241 1284.26 546.874 1276.94 549.371C1255.45 556.694 1269.47 598.052 1276.94 607.485C1284.4 616.918 1303.35 623.334 1303.35 623.334C1303.35 623.334 1301.42 629.7 1300.83 633.9C1299.91 640.29 1299.17 648.776 1299.17 648.776L1265.05 628.617C1265.05 628.617 1207.21 523.048 1234.67 463.521C1259.6 409.483 1302.42 386.436 1361.46 378.991C1404.32 373.588 1436.85 373.481 1469.77 401.445Z" fill="black"/>
<path d="M1497.52 2293.41L1677.68 2271.92V2405.8L1537.19 2437.21L1497.52 2293.41Z" fill="#FFC69D"/>
<path d="M1498.34 2285.24L1676.86 2271.92V2354.93L1522.31 2384.31L1498.34 2285.24Z" fill="black"/>
<path d="M1527.27 2415.72C1527.27 2414.01 1528.57 2412.59 1530.27 2412.43L1660.26 2400.18L1839.86 2489.27L1880.99 2585.31H1527.27V2415.72Z" fill="#A9FF5E"/>
<path d="M1527.27 2545.64H1864.64L1880.99 2588.61L1527.27 2585.31V2545.64Z" fill="white"/>
<line x1="1542.15" y1="2543.98" x2="1823.14" y2="2543.98" stroke="#589E19" stroke-width="3.30579" stroke-linecap="round"/>
<line x1="1555.37" y1="2580.35" x2="1555.37" y2="2550.6" stroke="#589E19" stroke-width="3.30579" stroke-linecap="round"/>
<line x1="1846.28" y1="2580.35" x2="1846.28" y2="2550.6" stroke="#589E19" stroke-width="3.30579" stroke-linecap="round"/>
<line x1="1803.3" y1="2580.35" x2="1803.3" y2="2550.6" stroke="#589E19" stroke-width="3.30579" stroke-linecap="round"/>
<line x1="1704.13" y1="2580.35" x2="1704.13" y2="2550.6" stroke="#589E19" stroke-width="3.30579" stroke-linecap="round"/>
<line x1="1657.85" y1="2580.35" x2="1657.85" y2="2550.6" stroke="#589E19" stroke-width="3.30579" stroke-linecap="round"/>
<line x1="1604.96" y1="2580.35" x2="1604.96" y2="2550.6" stroke="#589E19" stroke-width="3.30579" stroke-linecap="round"/>
<path d="M1677.68 2372.74L1814.79 2477.56L1776.77 2492.43L1641.32 2395.88L1677.68 2372.74Z" fill="#E7FFDB"/>
<line x1="1759.41" y1="2471.35" x2="1782.9" y2="2459.61" stroke="#589E19" stroke-width="3.30579" stroke-linecap="round"/>
<line x1="1729.66" y1="2451.52" x2="1753.15" y2="2439.77" stroke="#589E19" stroke-width="3.30579" stroke-linecap="round"/>
<line x1="1703.22" y1="2434.99" x2="1733.32" y2="2419.94" stroke="#589E19" stroke-width="3.30579" stroke-linecap="round"/>
<line x1="1676.67" y1="2415.12" x2="1703.53" y2="2400.2" stroke="#589E19" stroke-width="3.30579" stroke-linecap="round"/>
<path d="M1703.35 2398.69C1703.35 2398.69 1718.89 2379.33 1741.11 2379.33C1752.55 2379.33 1759.88 2389.29 1750.29 2395.52C1732.35 2407.18 1703.35 2398.69 1703.35 2398.69ZM1703.35 2398.69C1703.35 2398.69 1725.62 2371.09 1706.73 2354.07C1691.61 2340.43 1687.17 2364.48 1690.91 2376.05C1695.38 2389.91 1703.35 2398.69 1703.35 2398.69Z" stroke="#589E19" stroke-width="3.30579"/>
<path d="M1163.73 1214.36L1461.15 1324.81C1461.15 1324.81 1364.81 1671.73 1214.52 1833.42C1166.24 1885.35 1141.58 1921.05 1078.93 1954.18C978.313 2007.4 876.981 1909.16 876.981 1909.16L567.436 1632.39C553.101 1619.57 549.025 1598.79 557.457 1581.51L616.377 1460.75C623.886 1445.36 642.805 1439.47 657.724 1447.88L877.155 1571.55L970.739 1612.43C981.175 1616.99 993.298 1611.87 997.34 1601.22C1013.55 1558.52 1052.7 1457.2 1076.46 1410.91C1113.59 1338.56 1163.73 1214.36 1163.73 1214.36Z" fill="#434343"/>
<path d="M1163.63 1662C1163.63 1662 1051.24 1782.66 1016.53 1782.66C981.815 1782.66 669.418 1561.17 669.418 1561.17" stroke="white" stroke-width="3.30579" stroke-linecap="round"/>
<path d="M982.697 1624.29C981.926 1623.8 980.905 1624.03 980.416 1624.8C979.928 1625.57 980.157 1626.59 980.928 1627.08L981.812 1625.69L982.697 1624.29ZM981.812 1625.69C980.928 1627.08 980.927 1627.08 980.927 1627.08C980.926 1627.08 980.926 1627.08 980.926 1627.08C980.925 1627.08 980.925 1627.08 980.926 1627.08C980.926 1627.08 980.927 1627.08 980.93 1627.08C980.935 1627.09 980.944 1627.09 980.958 1627.1C980.986 1627.12 981.031 1627.15 981.093 1627.19C981.217 1627.28 981.408 1627.41 981.663 1627.59C982.173 1627.97 982.939 1628.55 983.931 1629.38C985.916 1631.03 988.808 1633.66 992.376 1637.53C999.51 1645.26 1009.35 1657.94 1020.03 1677.66L1021.48 1676.88L1022.94 1676.09C1012.13 1656.14 1002.14 1643.23 994.805 1635.28C991.141 1631.31 988.144 1628.58 986.047 1626.84C984.999 1625.96 984.177 1625.34 983.608 1624.92C983.324 1624.72 983.104 1624.56 982.951 1624.46C982.874 1624.41 982.815 1624.37 982.772 1624.34C982.751 1624.32 982.734 1624.31 982.721 1624.31C982.715 1624.3 982.71 1624.3 982.706 1624.3C982.704 1624.29 982.702 1624.29 982.701 1624.29C982.7 1624.29 982.699 1624.29 982.699 1624.29C982.698 1624.29 982.697 1624.29 981.812 1625.69Z" fill="white"/>
<path d="M1059.86 1939.66C1060.05 1940.55 1059.48 1941.43 1058.58 1941.62C1057.69 1941.8 1056.81 1941.23 1056.63 1940.34L1058.24 1940L1059.86 1939.66ZM1058.24 1940C1056.63 1940.34 1056.63 1940.34 1056.63 1940.34C1056.63 1940.34 1056.63 1940.34 1056.63 1940.34C1056.63 1940.34 1056.62 1940.34 1056.62 1940.33C1056.62 1940.33 1056.62 1940.32 1056.62 1940.3C1056.61 1940.28 1056.6 1940.23 1056.59 1940.17C1056.56 1940.05 1056.52 1939.86 1056.45 1939.62C1056.33 1939.14 1056.14 1938.43 1055.87 1937.55C1055.32 1935.77 1054.44 1933.29 1053.15 1930.48C1050.54 1924.85 1046.28 1918 1039.62 1912.88C1033 1907.8 1023.93 1904.36 1011.52 1905.62C999.057 1906.9 983.135 1912.93 962.925 1927L961.981 1925.65L961.036 1924.29C981.516 1910.03 997.971 1903.68 1011.19 1902.34C1024.45 1900.98 1034.36 1904.67 1041.64 1910.26C1048.87 1915.82 1053.41 1923.18 1056.15 1929.09C1057.52 1932.06 1058.44 1934.68 1059.02 1936.57C1059.32 1937.51 1059.52 1938.28 1059.66 1938.81C1059.73 1939.07 1059.77 1939.28 1059.81 1939.43C1059.82 1939.5 1059.84 1939.55 1059.85 1939.59C1059.85 1939.61 1059.85 1939.63 1059.86 1939.64C1059.86 1939.65 1059.86 1939.65 1059.86 1939.65C1059.86 1939.66 1059.86 1939.66 1059.86 1939.66C1059.86 1939.66 1059.86 1939.66 1058.24 1940Z" fill="white"/>
<path d="M1110.49 1528.95C1058.74 1414.06 1138.84 1258.69 1138.84 1258.69L1452.36 1258.69C1458.74 1258.69 1464.53 1262.33 1467.22 1268.11C1494.35 1326.35 1638.07 1641 1664.31 1825.49C1687.34 1987.41 1694.84 2226.55 1696.8 2307.46C1697.18 2323.21 1685.12 2336.31 1669.41 2337.48L1535.37 2347.51C1505.98 2349.7 1480.17 2327.55 1476.2 2298.35C1466.9 2229.99 1443.71 2105.39 1388.85 1982.76C1304.11 1793.34 1170.94 1663.16 1110.49 1528.95Z" fill="#747474"/>
<path d="M1274.38 1306.63C1274.38 1306.63 1419.83 1599.19 1504.13 1805.8C1588.43 2012.41 1583.47 2270.26 1583.47 2270.26" stroke="white" stroke-width="3.30579" stroke-linecap="round"/>
<path d="M1625.51 1729.81C1626.27 1729.3 1627.29 1729.51 1627.8 1730.27C1628.3 1731.03 1628.1 1732.06 1627.34 1732.56L1626.42 1731.19L1625.51 1729.81ZM1626.42 1731.19C1627.34 1732.56 1627.34 1732.56 1627.34 1732.56C1627.34 1732.56 1627.34 1732.56 1627.34 1732.56C1627.34 1732.56 1627.33 1732.56 1627.33 1732.57C1627.32 1732.57 1627.31 1732.58 1627.29 1732.59C1627.26 1732.62 1627.21 1732.65 1627.13 1732.7C1626.99 1732.8 1626.78 1732.95 1626.5 1733.16C1625.95 1733.56 1625.14 1734.17 1624.14 1734.98C1622.16 1736.59 1619.43 1739 1616.5 1742.12C1610.63 1748.39 1604 1757.5 1600.76 1768.97C1597.54 1780.41 1597.65 1794.3 1605.41 1810.24C1613.19 1826.23 1628.69 1844.36 1656.39 1864.13L1655.43 1865.48L1654.47 1866.82C1626.5 1846.86 1610.53 1828.33 1602.44 1811.69C1594.32 1795 1594.14 1780.28 1597.58 1768.08C1601.01 1755.92 1608 1746.36 1614.09 1739.86C1617.14 1736.61 1619.98 1734.11 1622.06 1732.41C1623.1 1731.57 1623.95 1730.92 1624.55 1730.49C1624.85 1730.27 1625.08 1730.1 1625.25 1729.99C1625.33 1729.93 1625.39 1729.89 1625.43 1729.86C1625.46 1729.84 1625.47 1729.83 1625.49 1729.82C1625.49 1729.82 1625.5 1729.82 1625.5 1729.81C1625.5 1729.81 1625.5 1729.81 1625.5 1729.81C1625.51 1729.81 1625.51 1729.81 1626.42 1731.19Z" fill="white"/>
<path d="M1654.56 1224.45C1595.04 1210.76 1357.73 1052.16 1357.73 1052.16L1446.6 905.397L1626.98 1062.98C1630 1065.61 1634.64 1064.98 1636.85 1061.65L1740.13 905.397L1826.82 947.343C1826.82 947.343 1709.41 1245.7 1654.56 1224.45Z" fill="#FFC69D"/>
<path d="M1679.4 1214.68C1679.4 1214.68 1672.29 1190.98 1646.28 1212.59" stroke="black" stroke-width="3.30579" stroke-linecap="round"/>
<path d="M1619.94 1096.97C1619.94 1096.97 1619.37 1087.59 1621.19 1082.27C1623.02 1076.9 1629.3 1069.79 1629.3 1069.79" stroke="black" stroke-width="3.30579" stroke-linecap="round"/>
<path d="M1816.16 812.379C1808.88 812.561 1794.97 819.562 1794.97 819.562C1794.97 819.562 1787.91 815.162 1782.82 814.685C1775.78 814.026 1765.58 820.204 1765.58 820.204C1765.58 820.204 1758.54 815.473 1753.42 815.328C1746.41 815.128 1737.37 823.392 1737.37 823.392C1737.37 823.392 1716.97 821.453 1706.61 827.76C1687.33 839.496 1695.15 884.415 1695.15 884.415C1695.15 884.415 1698.23 911.221 1704.44 927.117C1711.1 944.158 1728.62 967.244 1728.62 967.244L1825.4 954.523C1825.4 954.523 1842.45 917.838 1842.15 897.271C1841.48 851.809 1843.86 845.978 1828.52 819.019C1825.18 813.147 1822.7 812.217 1816.16 812.379Z" fill="#FFC69D"/>
<path d="M1805.1 872.56L1804.01 873.166V873.166L1805.1 872.56ZM1795.33 820.864C1795.32 820.172 1795.87 819.6 1796.56 819.588C1797.25 819.576 1797.82 820.127 1797.84 820.82L1796.58 820.842L1795.33 820.864ZM1820.79 877.038L1820.47 875.826V875.826L1820.79 877.038ZM1805.1 872.56L1804.01 873.166C1801.95 869.429 1800.4 864.266 1799.23 858.71C1798.05 853.133 1797.22 847.068 1796.65 841.471C1796.07 835.871 1795.74 830.723 1795.55 826.976C1795.46 825.101 1795.4 823.576 1795.37 822.518C1795.35 821.989 1795.34 821.577 1795.34 821.297C1795.33 821.156 1795.33 821.049 1795.33 820.976C1795.33 820.94 1795.33 820.912 1795.33 820.894C1795.33 820.884 1795.33 820.877 1795.33 820.872C1795.33 820.87 1795.33 820.868 1795.33 820.867C1795.33 820.866 1795.33 820.865 1795.33 820.865C1795.33 820.865 1795.33 820.864 1796.58 820.842C1797.84 820.82 1797.84 820.82 1797.84 820.821C1797.84 820.821 1797.84 820.821 1797.84 820.822C1797.84 820.823 1797.84 820.824 1797.84 820.826C1797.84 820.83 1797.84 820.837 1797.84 820.845C1797.84 820.863 1797.84 820.889 1797.84 820.924C1797.84 820.994 1797.84 821.098 1797.85 821.236C1797.85 821.51 1797.86 821.916 1797.88 822.439C1797.91 823.484 1797.97 824.994 1798.06 826.852C1798.24 830.568 1798.57 835.67 1799.14 841.214C1799.71 846.761 1800.53 852.731 1801.68 858.191C1802.84 863.672 1804.33 868.547 1806.2 871.955L1805.1 872.56ZM1830.82 869.048C1831.81 869.816 1831.81 869.816 1831.81 869.816C1831.81 869.816 1831.81 869.816 1831.81 869.817C1831.81 869.817 1831.81 869.818 1831.81 869.818C1831.81 869.82 1831.8 869.821 1831.8 869.823C1831.8 869.827 1831.79 869.833 1831.79 869.841C1831.78 869.855 1831.76 869.876 1831.74 869.903C1831.7 869.956 1831.64 870.033 1831.56 870.131C1831.4 870.325 1831.17 870.602 1830.88 870.938C1830.3 871.607 1829.47 872.514 1828.49 873.465C1826.57 875.32 1823.87 877.522 1821.11 878.251L1820.79 877.038L1820.47 875.826C1822.55 875.273 1824.86 873.48 1826.75 871.66C1827.66 870.774 1828.44 869.924 1828.98 869.295C1829.25 868.981 1829.47 868.724 1829.61 868.547C1829.68 868.458 1829.74 868.39 1829.77 868.345C1829.79 868.322 1829.8 868.305 1829.81 868.294C1829.82 868.289 1829.82 868.285 1829.82 868.283C1829.82 868.282 1829.82 868.281 1829.82 868.28C1829.82 868.28 1829.82 868.28 1829.82 868.28C1829.82 868.28 1829.82 868.28 1829.82 868.28C1829.82 868.28 1829.82 868.281 1830.82 869.048ZM1820.79 877.038L1821.11 878.251C1814.81 879.921 1807.52 879.548 1804.01 873.166L1805.1 872.56L1806.2 871.955C1808.83 876.734 1814.45 877.419 1820.47 875.826L1820.79 877.038Z" fill="black"/>
<path d="M1776.89 875.748L1775.77 876.316V876.316L1776.89 875.748ZM1765.15 822.531C1765.12 821.839 1765.65 821.249 1766.34 821.213C1767.03 821.177 1767.62 821.709 1767.66 822.401L1766.41 822.466L1765.15 822.531ZM1792.14 881.222L1792.43 882.443L1792.43 882.443L1792.14 881.222ZM1776.89 875.748L1775.77 876.316C1771.37 867.635 1768.73 854.125 1767.18 842.923C1766.4 837.295 1765.9 832.201 1765.58 828.514C1765.43 826.67 1765.32 825.177 1765.25 824.144C1765.22 823.627 1765.19 823.225 1765.18 822.952C1765.17 822.815 1765.16 822.711 1765.16 822.64C1765.16 822.605 1765.16 822.578 1765.15 822.56C1765.15 822.551 1765.15 822.544 1765.15 822.539C1765.15 822.536 1765.15 822.535 1765.15 822.533C1765.15 822.533 1765.15 822.532 1765.15 822.532C1765.15 822.531 1765.15 822.531 1766.41 822.466C1767.66 822.401 1767.66 822.401 1767.66 822.401C1767.66 822.402 1767.66 822.402 1767.66 822.402C1767.66 822.403 1767.66 822.405 1767.66 822.407C1767.66 822.411 1767.66 822.417 1767.66 822.426C1767.66 822.442 1767.66 822.468 1767.66 822.502C1767.67 822.57 1767.67 822.671 1767.68 822.805C1767.7 823.072 1767.72 823.467 1767.76 823.977C1767.82 824.997 1767.93 826.475 1768.09 828.302C1768.39 831.957 1768.9 837.006 1769.67 842.58C1771.21 853.782 1773.81 866.913 1778.01 875.18L1776.89 875.748ZM1803.62 872.794C1804.58 873.604 1804.58 873.604 1804.58 873.605C1804.58 873.605 1804.57 873.605 1804.57 873.605C1804.57 873.606 1804.57 873.606 1804.57 873.607C1804.57 873.608 1804.57 873.61 1804.57 873.612C1804.57 873.616 1804.56 873.623 1804.55 873.63C1804.54 873.646 1804.52 873.668 1804.5 873.696C1804.45 873.753 1804.38 873.834 1804.28 873.938C1804.1 874.144 1803.83 874.438 1803.5 874.794C1802.83 875.504 1801.87 876.466 1800.74 877.47C1798.53 879.436 1795.46 881.733 1792.43 882.443L1792.14 881.222L1791.86 880C1794.24 879.443 1796.9 877.527 1799.08 875.595C1800.14 874.651 1801.04 873.743 1801.67 873.071C1801.99 872.735 1802.24 872.46 1802.41 872.27C1802.49 872.175 1802.56 872.102 1802.6 872.053C1802.62 872.028 1802.64 872.01 1802.65 871.998C1802.65 871.992 1802.66 871.988 1802.66 871.985C1802.66 871.984 1802.66 871.983 1802.66 871.983C1802.66 871.983 1802.66 871.983 1802.66 871.983C1802.66 871.983 1802.66 871.983 1802.66 871.983C1802.66 871.983 1802.66 871.983 1803.62 872.794ZM1792.14 881.222L1792.43 882.443C1789.06 883.231 1785.76 883.384 1782.84 882.478C1779.88 881.559 1777.43 879.577 1775.77 876.316L1776.89 875.748L1778.01 875.18C1779.37 877.856 1781.3 879.37 1783.59 880.082C1785.92 880.808 1788.74 880.729 1791.86 880L1792.14 881.222Z" fill="black"/>
<path d="M1745.64 879.274L1744.63 880.026V880.026L1745.64 879.274ZM1736.82 823.681C1736.88 822.991 1737.48 822.48 1738.17 822.54C1738.87 822.599 1739.38 823.208 1739.32 823.898L1738.07 823.79L1736.82 823.681ZM1762.98 883.082L1762.69 881.862V881.862L1762.98 883.082ZM1745.64 879.274L1744.63 880.026C1741.7 876.105 1739.79 870.574 1738.55 864.611C1737.3 858.624 1736.69 852.078 1736.44 846.03C1736.18 839.977 1736.28 834.395 1736.44 830.327C1736.51 828.293 1736.61 826.635 1736.68 825.484C1736.72 824.909 1736.75 824.46 1736.78 824.154C1736.79 824.001 1736.8 823.884 1736.81 823.805C1736.81 823.765 1736.81 823.735 1736.81 823.714C1736.81 823.704 1736.82 823.696 1736.82 823.69C1736.82 823.688 1736.82 823.685 1736.82 823.684C1736.82 823.683 1736.82 823.683 1736.82 823.682C1736.82 823.682 1736.82 823.681 1738.07 823.79C1739.32 823.898 1739.32 823.898 1739.32 823.898C1739.32 823.898 1739.32 823.899 1739.32 823.899C1739.32 823.9 1739.32 823.902 1739.32 823.904C1739.32 823.908 1739.31 823.915 1739.31 823.924C1739.31 823.943 1739.31 823.971 1739.31 824.009C1739.3 824.084 1739.29 824.197 1739.28 824.346C1739.26 824.643 1739.23 825.082 1739.19 825.648C1739.11 826.779 1739.02 828.415 1738.94 830.425C1738.79 834.446 1738.69 839.957 1738.95 845.924C1739.2 851.896 1739.79 858.294 1741 864.099C1742.22 869.929 1744.03 875.036 1746.64 878.522L1745.64 879.274ZM1775.55 873.941C1776.5 874.761 1776.5 874.761 1776.5 874.761C1776.5 874.761 1776.5 874.762 1776.5 874.762C1776.5 874.762 1776.49 874.763 1776.49 874.763C1776.49 874.765 1776.49 874.767 1776.49 874.769C1776.49 874.774 1776.48 874.78 1776.47 874.788C1776.46 874.805 1776.44 874.828 1776.41 874.859C1776.36 874.919 1776.28 875.007 1776.18 875.118C1775.98 875.34 1775.69 875.656 1775.32 876.039C1774.58 876.803 1773.54 877.839 1772.3 878.922C1769.88 881.046 1766.54 883.515 1763.28 884.302L1762.98 883.082L1762.69 881.862C1765.32 881.228 1768.27 879.126 1770.65 877.035C1771.82 876.01 1772.81 875.027 1773.51 874.3C1773.86 873.937 1774.13 873.639 1774.32 873.433C1774.41 873.33 1774.48 873.25 1774.53 873.197C1774.55 873.171 1774.57 873.151 1774.58 873.138C1774.59 873.131 1774.59 873.127 1774.59 873.124C1774.6 873.122 1774.6 873.121 1774.6 873.121C1774.6 873.121 1774.6 873.121 1774.6 873.121C1774.6 873.121 1774.6 873.121 1774.6 873.121C1774.6 873.121 1774.6 873.121 1775.55 873.941ZM1762.98 883.082L1763.28 884.302C1756.47 885.942 1749.29 886.24 1744.63 880.026L1745.64 879.274L1746.64 878.522C1750.3 883.411 1756.01 883.472 1762.69 881.862L1762.98 883.082Z" fill="black"/>
<path d="M1729.63 882.953C1735.12 887.326 1741.9 883.416 1747.5 876.39C1753.1 869.365 1755.4 861.884 1749.91 857.511C1744.42 853.138 1740.89 848.439 1735.29 855.464C1729.7 862.49 1724.15 878.58 1729.63 882.953Z" fill="#FFC69D"/>
<path d="M1696.56 883.932C1696.56 883.932 1699.09 874.717 1732.76 856.626C1740.74 852.343 1747.84 847.78 1751.58 857.179C1754.15 863.65 1749.65 871.684 1745.74 876.59C1742.99 880.039 1735.57 889.347 1735.57 889.347C1735.57 889.347 1744.54 903.07 1746.98 911.273C1750.35 922.623 1740.96 944.989 1740.96 944.989" stroke="black" stroke-width="2.50953" stroke-linecap="round"/>
<path d="M910.966 972.208C1002.56 888.794 1087.32 833.258 1087.32 833.258L1191.96 960.637L1106.01 1015.18L1068.06 1040.94C1064.12 1043.61 1064.21 1049.44 1068.22 1051.99L1135.76 1094.9L1239.89 1158.08L1180.39 1249.89L915.072 1124.3C905.745 1119.89 896.694 1114.7 889.793 1107.03C870.896 1086.01 841.283 1035.67 910.966 972.208Z" fill="#FFC69D"/>
<path d="M893.685 1096.2C893.685 1096.2 910.896 1078.42 879.335 1066.27" stroke="black" stroke-width="3.30579" stroke-linecap="round"/>
<path d="M1018.18 883.488L1057.17 850.592L1160.13 980.631L1119.28 1005.96C1119.28 1005.96 1097.29 962.177 1077.49 938.411C1056.43 913.133 1018.18 883.488 1018.18 883.488Z" fill="black"/>
<path d="M998.344 1022.38C998.344 1022.38 1018.55 1026.03 1030.83 1030.54C1043.23 1035.09 1061.15 1045.52 1061.15 1045.52" stroke="black" stroke-width="3.30579" stroke-linecap="round"/>
<path d="M1173.4 750.58C1237.2 708.154 1352.94 737.033 1403.43 752.8C1419.63 757.859 1433.04 768.83 1441.23 783.69C1468.15 832.483 1524.72 950.389 1496.05 1035.06C1457.61 1148.64 1461.68 1213.73 1466.96 1241.24C1468.54 1249.48 1463.56 1258.54 1455.32 1260.15C1422.63 1266.57 1346.84 1280.3 1297.5 1280.18C1246.2 1280.06 1167.81 1265.93 1140.32 1260.66C1135.63 1259.77 1133.38 1254.29 1135.89 1250.23C1150.34 1226.84 1188.35 1157.47 1189.95 1072.64C1192.71 925.922 1060.87 825.416 1173.4 750.58Z" fill="#A9FF5E"/>
<path d="M1298.89 741.29C1347.31 786.525 1307.57 867.953 1270.47 938.588C1253.53 970.838 1227.48 998.848 1208.51 1016.75C1197.86 1026.8 1181.22 1020.77 1178.34 1006.41L1170.24 966.132L1078 891.811C1070.05 885.406 1068.38 874.03 1074.48 865.849C1110.04 818.213 1227.17 674.291 1298.89 741.29Z" fill="black"/>
<path d="M1312.66 752.209C1350.38 806.686 1294.27 877.829 1243.03 938.986C1219.2 967.419 1197.87 990.041 1184.35 1003.84C1176.3 1012.06 1163.05 1011.27 1155.75 1002.39L1042.12 864.133C1035.47 856.036 1036.4 844.181 1044.45 837.481C1093.64 796.585 1256.5 671.098 1312.66 752.209Z" fill="#A9FF5E"/>
<path d="M1067.96 837.206C1067.96 837.206 1113.05 878.533 1135.53 906.628C1158.66 935.525 1183.66 982.661 1183.66 982.661" stroke="#557E30" stroke-width="3.30579" stroke-linecap="round"/>
<path d="M1446.28 810.76C1446.28 810.76 1433.19 807.454 1416.53 795.884C1357.02 754.562 1310.74 741.339 1310.74 741.339" stroke="black" stroke-width="3.30579" stroke-linecap="round"/>
<path d="M1434.71 1220.68V1250.43" stroke="#557E30" stroke-width="3.30579" stroke-linecap="round"/>
<path d="M1279.34 1243.82V1263.65" stroke="#557E30" stroke-width="3.30579" stroke-linecap="round"/>
<path d="M1305.78 1240.51V1266.96" stroke="#557E30" stroke-width="3.30579" stroke-linecap="round"/>
<path d="M1335.54 1240.51V1266.96" stroke="#557E30" stroke-width="3.30579" stroke-linecap="round"/>
<path d="M1361.98 1237.21V1263.65" stroke="#557E30" stroke-width="3.30579" stroke-linecap="round"/>
<path d="M1388.43 1230.6V1260.35" stroke="#557E30" stroke-width="3.30579" stroke-linecap="round"/>
<path d="M1411.57 1227.29V1257.04" stroke="#557E30" stroke-width="3.30579" stroke-linecap="round"/>
<path d="M1456.97 1201.5C1456.97 1201.5 1376.57 1228.04 1328.76 1226.94C1279.6 1225.8 1200.49 1219.75 1200.49 1219.75" stroke="#557E30" stroke-width="3.30579" stroke-linecap="round"/>
<path d="M1446.39 1250.03C1446.39 1250.03 1355.8 1271.72 1302.76 1267.75C1248.19 1263.67 1160.61 1252.87 1160.61 1252.87" stroke="#557E30" stroke-width="3.30579" stroke-linecap="round"/>
<path d="M1172.06 1120.08C1172.06 1120.08 1209.62 1126.59 1228.36 1135.78C1247.1 1144.98 1268.03 1167.19 1268.03 1167.19C1268.03 1167.19 1277.85 1174.37 1277.99 1182.07C1278.13 1190 1273.38 1198.21 1268.03 1201.9C1263.65 1204.92 1263.07 1205.21 1256.46 1201.9C1261.42 1206.86 1260.85 1205.78 1259.77 1210.16C1258.53 1215.22 1253.6 1221.43 1249.85 1225.04C1245.28 1229.46 1244.89 1229.17 1239.93 1228.35C1241.59 1231.65 1242.8 1231.73 1241.59 1236.61C1240.09 1242.63 1233.5 1248.82 1228.36 1252.31C1224.48 1254.96 1225.06 1253.97 1218.45 1253.97C1220.14 1259.75 1221.05 1258.63 1220.14 1263.06C1218.79 1269.56 1212.4 1274.18 1206.92 1277.93C1198.24 1283.87 1201.34 1282.61 1193.69 1281.24C1166.65 1276.39 1150.77 1264.63 1135.84 1241.57C1128.74 1230.6 1114.31 1210.16 1114.31 1210.16L1172.06 1120.08Z" fill="#FFC69D"/>
<line x1="1214.62" y1="1250.57" x2="1197.74" y2="1242.13" stroke="black" stroke-width="3.30579" stroke-linecap="round"/>
<line x1="1237.76" y1="1227.43" x2="1220.88" y2="1218.99" stroke="black" stroke-width="3.30579" stroke-linecap="round"/>
<line x1="1254.28" y1="1200.99" x2="1237.41" y2="1192.55" stroke="black" stroke-width="3.30579" stroke-linecap="round"/>
</svg>
