<svg width="2514" height="3918" viewBox="0 0 2514 3918" fill="none" xmlns="http://www.w3.org/2000/svg">
<path d="M1336.98 3386.94L1604.98 3340.17L1615.82 3540.63L1408.02 3599.03L1336.98 3386.94Z" fill="#FFC69D"/>
<path d="M1337.55 3374.65L1603.74 3340.24L1610.47 3464.52L1381.46 3521.04L1337.55 3374.65Z" fill="#275200"/>
<path d="M1391.43 3567.66C1391.29 3565.11 1393.12 3562.87 1395.65 3562.49L1589.28 3533.62L1865.39 3652.44L1934.75 3792.91L1405.17 3821.56L1391.43 3567.66Z" fill="#A9FF5E"/>
<path d="M1401.95 3762.17L1907.06 3734.84L1935.02 3797.86L1405.16 3821.57L1401.95 3762.17Z" fill="white"/>
<line x1="1424.09" y1="3758.49" x2="1844.79" y2="3735.73" stroke="#589E19" stroke-width="4.95664" stroke-linecap="round"/>
<line x1="1446.83" y1="3811.86" x2="1444.42" y2="3767.32" stroke="#589E19" stroke-width="4.95664" stroke-linecap="round"/>
<line x1="1882.38" y1="3788.29" x2="1879.97" y2="3743.75" stroke="#589E19" stroke-width="4.95664" stroke-linecap="round"/>
<line x1="1818.04" y1="3791.78" x2="1815.63" y2="3747.23" stroke="#589E19" stroke-width="4.95664" stroke-linecap="round"/>
<line x1="1669.56" y1="3799.81" x2="1667.15" y2="3755.27" stroke="#589E19" stroke-width="4.95664" stroke-linecap="round"/>
<line x1="1600.26" y1="3803.56" x2="1597.85" y2="3759.02" stroke="#589E19" stroke-width="4.95664" stroke-linecap="round"/>
<line x1="1521.08" y1="3807.85" x2="1518.67" y2="3763.3" stroke="#589E19" stroke-width="4.95664" stroke-linecap="round"/>
<path d="M1613.14 3491.13L1826.91 3636.95L1771.2 3662.3L1560.58 3528.72L1613.14 3491.13Z" fill="#E7FFDB"/>
<line x1="1743.5" y1="3632.15" x2="1777.71" y2="3612.66" stroke="#589E19" stroke-width="4.95664" stroke-linecap="round"/>
<line x1="1697.35" y1="3604.86" x2="1731.56" y2="3585.37" stroke="#589E19" stroke-width="4.95664" stroke-linecap="round"/>
<line x1="1656.41" y1="3582.26" x2="1700.26" y2="3557.28" stroke="#589E19" stroke-width="4.95664" stroke-linecap="round"/>
<line x1="1615.06" y1="3554.66" x2="1654.07" y2="3530.14" stroke="#589E19" stroke-width="4.95664" stroke-linecap="round"/>
<path d="M1653.67 3527.89C1653.67 3527.89 1675.37 3497.65 1708.64 3495.85C1725.76 3494.92 1737.55 3509.24 1723.7 3519.35C1697.78 3538.26 1653.67 3527.89 1653.67 3527.89ZM1653.67 3527.89C1653.67 3527.89 1684.78 3484.77 1655.12 3460.81C1631.38 3441.62 1626.68 3477.99 1633.21 3495.01C1641.04 3515.39 1653.67 3527.89 1653.67 3527.89Z" stroke="#589E19" stroke-width="4.95664"/>
<path d="M453.16 3347.31L722.964 3382.2L673.822 3576.84L458.047 3570.92L453.16 3347.31Z" fill="#FFC69D"/>
<path d="M457.356 3335.74L721.761 3381.9L691.292 3502.57L455.833 3488.57L457.356 3335.74Z" fill="#275200"/>
<path d="M1422.88 674.183C1422.88 674.183 1486.92 707.917 1518.35 740.325C1547.02 769.883 1576.87 827.512 1576.87 827.512C1576.87 827.512 1675.31 836.108 1724.7 869.603C1768.97 899.629 1810.93 974.829 1810.93 974.829L1856.56 1122.36C1881.51 1203.04 1815.39 1281.61 1733.11 1262.62C1678.75 1250.07 1621.52 1233.46 1576.87 1212.34C1517.09 1184.07 1432.12 1125.15 1432.12 1125.15L1422.88 674.183Z" fill="#FFC69D"/>
<path d="M1422.88 665.236C1422.88 665.236 1479.64 687.084 1509.11 714.512C1538.58 741.941 1540.54 776.451 1573.79 803.826C1585.45 813.428 1604.06 824.321 1612.49 829.09C1615.05 830.536 1616.28 833.567 1615.41 836.374L1511.6 1171.52C1510.37 1175.5 1505.62 1177.13 1502.2 1174.75L1438.28 1130.29L1422.88 665.236Z" fill="#A9FF5E"/>
<path d="M1450.59 843.863C1450.59 843.863 1480.58 911.731 1490.63 957.816C1508.05 1037.72 1490.63 1167.24 1490.63 1167.24L1438.27 1133.36C1438.27 1133.36 1454.35 1040.61 1456.75 973.215C1459.15 905.818 1450.59 843.863 1450.59 843.863Z" fill="black"/>
<path d="M1452.42 1127.89C1452.42 1127.89 1486.02 1075.47 1528.64 977.188C1547.01 934.828 1572.08 829.738 1572.08 829.738" stroke="#557E30" stroke-width="6.15959" stroke-linecap="round"/>
<path d="M1810.92 974.829C1810.92 974.829 1905.36 864.119 1937.19 779.409C1967.36 699.124 1971.07 562.943 1971.07 562.943L2143.54 535.885C2143.54 535.885 2131.11 980.655 2029.59 1170.25C1999.04 1227.3 1961.02 1260.63 1936.04 1277.94C1919.41 1289.47 1899 1292.35 1878.97 1289.49C1815.91 1280.51 1669.38 1256.09 1576.86 1212.34L1810.92 974.829Z" fill="#FFC69D"/>
<path d="M2429.57 640.596H2328.33V264.896H2429.57C2429.57 264.896 2513.12 257.838 2513.12 442.144C2513.12 633.538 2429.57 640.596 2429.57 640.596Z" fill="#787878"/>
<path d="M2376.92 665.235H2279.05V227.947H2376.92C2376.92 227.947 2457.68 219.732 2457.68 434.251C2457.68 657.02 2376.92 665.235 2376.92 665.235Z" fill="#555555"/>
<ellipse cx="2282.13" cy="446.57" rx="101.633" ry="218.665" transform="rotate(180 2282.13 446.57)" fill="#8C8C8C"/>
<path d="M2277.91 478.647C2274.98 483.789 2269.39 486.607 2263.47 486.607H1866.36V400.373H2265.68C2270.13 400.373 2274.24 402.762 2276.2 406.758C2280.72 415.982 2288.29 433.375 2288.29 446.57C2288.29 458.209 2282.4 470.761 2277.91 478.647Z" fill="#D9D9D9"/>
<path d="M1877.99 665.235H1780.13V227.947H1877.99C1877.99 227.947 1958.75 219.732 1958.75 434.251C1958.75 657.02 1877.99 665.235 1877.99 665.235Z" fill="#555555"/>
<ellipse cx="1786.28" cy="446.57" rx="110.873" ry="218.665" transform="rotate(180 1786.28 446.57)" fill="#747474"/>
<path d="M1780.51 609.799H1706.21V283.345H1780.51C1780.51 283.345 1844.8 277.183 1844.8 437.33C1844.8 603.637 1780.51 609.799 1780.51 609.799Z" fill="#555555"/>
<ellipse cx="1709.29" cy="446.57" rx="83.1545" ry="163.229" transform="rotate(180 1709.29 446.57)" fill="#747474"/>
<path d="M1667.28 474.288H1650.77V418.857H1667.28C1667.28 418.857 1681.57 417.811 1681.57 445.003C1681.57 473.242 1667.28 474.288 1667.28 474.288Z" fill="#B8B8B8"/>
<ellipse cx="1647.69" cy="446.57" rx="15.399" ry="27.7182" transform="rotate(180 1647.69 446.57)" fill="#E6E6E6"/>
<path d="M1965.3 402.195C1965.08 395.904 1969.64 390.458 1975.87 389.568L2134.72 366.875C2148.9 364.849 2162.57 372.86 2166.69 386.58C2176.43 419.017 2190.08 478.369 2174.34 517.405C2165.85 538.451 2143.54 566.682 2143.54 566.682H1971.07L1965.3 402.195Z" fill="#FFC69D"/>
<path d="M2008.02 383.101C2008.02 383.101 2017.63 397.446 2020.8 407.346C2025.23 421.169 2022.79 444.064 2022.79 444.064" stroke="black" stroke-width="6.15959" stroke-linecap="round"/>
<path d="M2061.55 379.37C2061.55 379.37 2070.44 391.333 2073.11 401.092C2076.52 413.59 2072.78 433.659 2072.78 433.659" stroke="black" stroke-width="6.15959" stroke-linecap="round"/>
<path d="M2112.74 371.005C2112.74 371.005 2122.88 386.356 2125.42 397.568C2127.79 408.096 2125.77 425.203 2125.77 425.203" stroke="black" stroke-width="6.15959" stroke-linecap="round"/>
<path d="M757.635 1564.54L1385.91 1552.22L1447.51 1927.95L1121.05 2044.98L631.363 1894.07L757.635 1564.54Z" fill="#424240"/>
<path d="M631.363 1894.07L1121.05 2001.87L744.376 3438.71C741.218 3450.75 731.148 3459.7 718.767 3461.05C688.233 3464.37 629.785 3469.39 588.244 3464.77C541.851 3459.61 477.83 3438.12 451.955 3428.93C444.942 3426.44 440.251 3420.05 440.053 3412.61C438.453 3352.79 433.566 3084.83 468.133 2910.41C495.501 2772.31 572.847 2565.47 572.847 2565.47C572.847 2565.47 579.9 2373.19 591.326 2242.09C602.752 2110.99 631.363 1894.07 631.363 1894.07Z" fill="#424240"/>
<path d="M1007.08 1985.59L1447.51 1927.95L1625.76 3397.52C1627.24 3409.69 1621.37 3421.56 1610.6 3427.42C1585.91 3440.85 1540.01 3464.28 1504.52 3473.59C1464.71 3484.04 1405.28 3485.31 1379.91 3485.34C1372.5 3485.35 1366.02 3480.93 1363.33 3474.03C1341.7 3418.48 1246.61 3168.65 1216.18 2993.47C1192.09 2854.8 1186.31 2634.98 1186.31 2634.98C1186.31 2634.98 1126.89 2452.24 1091.9 2325.43C1056.9 2198.63 1007.08 1985.59 1007.08 1985.59Z" fill="#424240"/>
<path d="M668.318 628.279L954.178 567.457C956.417 566.981 958.651 567.683 960.142 569.419C979.116 591.512 1109.75 738.666 1182.64 689.874C1213.7 669.085 1218.79 620.732 1219.53 600.49C1219.69 596.115 1224.11 592.96 1228.22 594.457L1422.87 665.236C1422.87 665.236 1444.41 946.334 1438.27 1130.29C1432.18 1312.47 1398.23 1595.33 1398.23 1595.33C1398.23 1595.33 1198.2 1641.19 1068.69 1635.37C940.968 1629.63 748.393 1567.62 748.393 1567.62C748.393 1567.62 744.73 1454.29 732.994 1382.83C722.167 1316.91 692.957 1216.52 692.957 1216.52L668.318 628.279Z" fill="#A9FF5E"/>
<path d="M1277.37 1297.2C1277.37 1297.2 1276.08 1328.58 1256.12 1333.43C1240.53 1337.21 1197.64 1333.43 1197.64 1333.43" stroke="#557E30" stroke-width="6.15959" stroke-linecap="round"/>
<path d="M1277.82 1410.03C1277.82 1410.03 1276.53 1441.41 1256.58 1446.26C1240.98 1450.05 1198.09 1446.26 1198.09 1446.26" stroke="#557E30" stroke-width="6.15959" stroke-linecap="round"/>
<path d="M1016.03 1297.2C1016.03 1297.2 1018 1328.58 1048.52 1333.43C1072.37 1337.21 1137.97 1333.43 1137.97 1333.43" stroke="#557E30" stroke-width="6.15959" stroke-linecap="round"/>
<path d="M1015.33 1410.03C1015.33 1410.03 1017.3 1441.41 1047.82 1446.26C1071.67 1450.05 1137.27 1446.26 1137.27 1446.26" stroke="#557E30" stroke-width="6.15959" stroke-linecap="round"/>
<path d="M789.22 946.225C789.22 946.225 796.763 1020.04 792.076 1066.97C783.948 1148.35 711.43 1284.27 711.43 1284.27L688.023 1217.74C688.023 1217.74 731.982 1134.5 755.097 1071.15C778.212 1007.79 789.22 946.225 789.22 946.225Z" fill="black"/>
<path d="M933.171 652.915C933.171 652.915 1065.24 794.072 1167.28 766.699C1238.48 747.602 1249.75 652.914 1249.75 652.914" stroke="#557E30" stroke-width="6.15959"/>
<path d="M668.319 628.278L856.186 726.832C856.186 726.832 839.519 867.412 806.909 957.816C783.358 1023.1 736.073 1127.21 736.073 1127.21C736.073 1127.21 718.45 1195.78 692.956 1231.92C656.762 1283.22 563.605 1327.39 563.605 1327.39C563.605 1327.39 579.354 1394.55 579.004 1438.26C578.673 1479.6 563.605 1542.98 563.605 1542.98C563.605 1542.98 538.777 1617.1 529.727 1666.17C520.523 1716.07 517.408 1795.52 517.408 1795.52L360.339 1841.72C360.339 1841.72 311.579 1667.09 298.743 1552.22C290.191 1475.67 290.958 1366.31 291.909 1315.41C292.255 1296.94 297.295 1278.96 305.669 1262.49C315.457 1243.25 328.367 1216.35 335.701 1194.96C351.231 1149.67 346.271 1120.62 360.339 1074.85C389.275 980.711 480.451 853.103 480.451 853.103C480.451 853.103 500.394 774.344 529.728 732.991C568.976 677.663 668.319 628.278 668.319 628.278Z" fill="#FFC69D"/>
<path d="M843.463 1114.9C843.463 1114.9 882.266 1158.29 926.311 1176.48C1006.24 1209.49 1151.44 1145.7 1151.44 1145.7" stroke="#557E30" stroke-width="6.15959" stroke-linecap="round"/>
<path d="M773.032 1533.74C773.032 1533.74 884.613 1573.79 1084.09 1595.33C1170.07 1604.62 1373.59 1573.78 1373.59 1573.78" stroke="#557E30" stroke-width="6.15959" stroke-linecap="round"/>
<path d="M1396.54 1178.3C1396.54 1178.3 1369.23 1191.92 1342.4 1193.67C1293.71 1196.86 1221.87 1148.06 1221.87 1148.06" stroke="#557E30" stroke-width="6.15959" stroke-linecap="round"/>
<path d="M997.854 314.14L1213.44 326.459L1222.68 606.72C1222.68 606.72 1229.01 673.443 1204.2 702.194C1195.25 712.569 1180.25 720.299 1166.1 725.735C1143.16 734.547 1117.85 733.114 1094.8 724.582C1073.02 716.52 1046.06 704.57 1028.65 689.875C989.88 657.139 960.896 579.002 960.896 579.002L997.854 314.14Z" fill="#FFC69D"/>
<path d="M1056.38 418.853L1225.76 514.326V597.481C1225.76 597.481 1163.51 589.911 1105.65 548.204C1021.06 487.229 1056.38 418.853 1056.38 418.853Z" fill="black"/>
<path d="M982.454 153.988C1016.24 35.2888 1194.5 -30.7455 1287.35 76.9952C1359.63 160.858 1347.66 251.495 1327.39 360.335C1321.58 391.519 1310.03 434.382 1303.83 456.571C1301.11 466.31 1297.02 475.592 1291.21 483.868C1283.92 494.239 1273 508.593 1262.71 517.405C1251.27 527.214 1233.21 536.494 1220.84 542.254C1211.92 546.405 1202.34 548.843 1192.51 549.178C1174.82 549.779 1144.62 548.981 1121.04 538.963C1084.18 523.299 1044.05 471.208 1044.05 471.208L1011.71 309.518C1011.71 309.518 964.826 215.922 982.454 153.988Z" fill="#FFC69D"/>
<ellipse cx="1154.88" cy="325.267" rx="10.6857" ry="23.1523" fill="black"/>
<ellipse cx="1280.46" cy="324.973" rx="11.5762" ry="23.1523" fill="black"/>
<path d="M1157.01 459.225C1157.01 459.225 1179.96 467.752 1193.52 468.115C1209.21 468.537 1230.03 459.225 1230.03 459.225" stroke="black" stroke-width="9.292" stroke-linecap="round"/>
<path d="M1216.07 364.246C1216.07 364.246 1226.17 380.242 1228.03 392.447C1230.18 406.574 1212.18 407.862 1212.18 407.862" stroke="black" stroke-width="9.292" stroke-linecap="round"/>
<path d="M1253.18 278.963C1253.18 278.963 1263.9 277.182 1272.66 277.182C1281.42 277.182 1297.7 278.963 1297.7 278.963" stroke="black" stroke-width="9.292" stroke-linecap="round"/>
<path d="M1165.57 278.963C1165.57 278.963 1154.85 277.182 1146.09 277.182C1137.33 277.182 1121.04 278.963 1121.04 278.963" stroke="black" stroke-width="9.292" stroke-linecap="round"/>
<path d="M662.16 625.353L811.159 597.48L902.384 783.301L742.974 1141.08C740.292 1147.1 733.382 1149.94 727.285 1147.44C698.262 1135.54 617.885 1101.37 567.894 1068.22C505.071 1026.57 421.936 941.248 421.936 941.248L479.711 851.435L502.724 770.301C513.34 732.874 537.73 700.852 570.99 680.671L662.16 625.353Z" fill="#A9FF5E"/>
<path d="M945.501 283.341C947.908 282.035 950.776 281.006 953.779 280.194C968.039 276.338 982.746 281.91 994.658 290.645L1022.5 311.059L991.697 400.373C991.697 400.373 961.309 390.575 945.501 375.735C938.48 369.145 933.046 358.492 929.089 348.278C922.145 330.352 921.789 309.417 933.451 294.134C936.739 289.825 940.733 285.927 945.501 283.341Z" fill="#FFC69D"/>
<path d="M960.951 352.803C960.951 352.803 977.023 358.035 979.206 346.754C981.506 334.864 970.359 314.541 970.359 314.541" stroke="black" stroke-width="6.15959" stroke-linecap="round"/>
<path d="M927.028 180.002C929.692 148.822 932.083 128.187 951.972 103.693C967.738 84.2763 1004.98 67.0652 1004.98 67.0652C1004.98 67.0652 1047.75 23.7344 1082.93 9.0709C1155.18 -21.0486 1282.48 33.4892 1282.48 33.4892C1282.48 33.4892 1354.8 23.8009 1382.25 51.8032C1404.95 74.9617 1411.88 99.9901 1404.08 131.164C1397.47 157.565 1360.43 186.106 1360.43 186.106C1360.43 186.106 1365.22 227.457 1360.43 253.257C1355.53 279.611 1335.48 317.356 1335.48 317.356L1332.56 211.637C1332.46 207.85 1329.02 205.034 1325.29 205.667C1307.58 208.665 1260.55 215.866 1229.47 213.577C1201.5 211.517 1165.15 201.895 1140.79 194.615C1123.49 189.441 1104.55 189.366 1089.07 198.676C1084.52 201.41 1080.14 204.407 1076.69 207.472C1064.43 218.372 1051.75 241.048 1051.75 241.048L1042.12 307.041C1040.38 318.968 1032.03 328.879 1020.57 332.618L1012.5 311.558C1011.64 309.323 1010.62 307.162 1009.24 305.203C1004.5 298.444 991.512 282.463 973.798 280.728C958.811 279.26 948.854 280.728 948.854 280.728C948.854 280.728 923.605 220.073 927.028 180.002Z" fill="black"/>
<path d="M443.236 3569.21C444.853 3560.44 452.496 3554.08 461.408 3554.08H700.002C705.739 3554.08 710.716 3558.04 712.006 3563.63L763.125 3785.24C772.919 3827.69 740.674 3868.22 697.104 3868.22H462.058C423.562 3868.22 394.499 3833.31 401.485 3795.45L443.236 3569.21Z" fill="#A9FF5E"/>
<path d="M492.24 3528.86C492.539 3525.7 495.195 3523.28 498.372 3523.28H665.715C668.924 3523.28 671.595 3525.75 671.855 3528.95L687.715 3724.56C688.878 3738.91 677.55 3751.19 663.158 3751.19H498.288C483.764 3751.19 472.391 3738.69 473.759 3724.23L492.24 3528.86Z" fill="#D9D9D9"/>
<line x1="526.642" y1="3557.16" x2="637.515" y2="3557.16" stroke="#589E19" stroke-width="6.15959" stroke-linecap="round"/>
<line x1="526.642" y1="3606.44" x2="637.515" y2="3606.44" stroke="#589E19" stroke-width="6.15959" stroke-linecap="round"/>
<path d="M581.09 3552.8C581.09 3552.8 462.349 3515.84 503.534 3505.65C560.647 3491.5 581.09 3552.8 581.09 3552.8Z" stroke="#589E19" stroke-width="6.15959" stroke-linecap="round"/>
<path d="M585.157 3554.08C585.157 3554.08 678.453 3521.74 646.093 3512.82C601.219 3500.44 585.157 3554.08 585.157 3554.08Z" stroke="#589E19" stroke-width="6.15959" stroke-linecap="round"/>
<line x1="526.642" y1="3655.72" x2="637.515" y2="3655.72" stroke="#589E19" stroke-width="6.15959" stroke-linecap="round"/>
<line x1="526.642" y1="3711.15" x2="637.515" y2="3711.15" stroke="#589E19" stroke-width="6.15959" stroke-linecap="round"/>
<rect x="437.332" y="3818.95" width="289.501" height="49.2767" rx="24.6384" fill="white"/>
<line x1="3.0798" y1="-3.0798" x2="218.834" y2="-3.0798" transform="matrix(-0.0460126 0.998941 -0.999635 -0.0270102 1168.22 1268.94)" stroke="#557E30" stroke-width="6.15959" stroke-linecap="round"/>
<path d="M467.473 930.721C467.473 930.721 512.717 973.499 601.334 1033.68C639.53 1059.62 738.109 1103.83 738.109 1103.83" stroke="#557E30" stroke-width="6.15959" stroke-linecap="round"/>
<line x1="1086.38" y1="2134.92" x2="1063.15" y2="2233.64" stroke="black" stroke-width="6.15959" stroke-linecap="round"/>
<path d="M1165.11 2094.26C1165.11 2094.26 1114.9 2122.14 1095.96 2127.4C1075.36 2133.12 1042.15 2131.04 1042.15 2131.04" stroke="black" stroke-width="6.15959" stroke-linecap="round"/>
<path d="M819.225 1635.37C819.225 1635.37 740.906 1817.83 708.352 1940.27C646.296 2173.68 705.274 2320.45 652.914 2556.23C613.417 2734.09 535.848 2819.65 508.134 2999.72C482.13 3168.68 508.135 3437.47 508.135 3437.47" stroke="white" stroke-width="6.15959" stroke-linecap="round"/>
<path d="M1815.14 980.431C1815.14 980.431 1797.63 1001.21 1804.76 1022.49C1816.3 1056.95 1835.56 1071.77 1835.56 1071.77" stroke="black" stroke-width="6.15959" stroke-linecap="round"/>
<path d="M461.967 1334.71C461.967 1334.71 480.205 1354.86 502.248 1350.66C537.946 1343.86 555.22 1326.77 555.22 1326.77" stroke="black" stroke-width="6.15959" stroke-linecap="round"/>
<path d="M1596.52 1071.77C1596.52 1071.77 1620.29 1137.53 1669.25 1164.16C1748.54 1207.29 1791.02 1188.79 1791.02 1188.79" stroke="black" stroke-width="6.15959" stroke-linecap="round"/>
<path d="M446.705 1027.69C446.705 1027.69 391.748 1070.92 381.854 1125.77C365.832 1214.6 396.748 1249.11 396.748 1249.11" stroke="black" stroke-width="6.15959" stroke-linecap="round"/>
<path d="M83.5463 1737H184.788V2112.7H83.5463C83.5463 2112.7 0 2119.76 0 1935.46C0 1744.06 83.5463 1737 83.5463 1737Z" fill="#787878"/>
<path d="M136.197 1712.37H234.064V2149.65H136.197C136.197 2149.65 55.4355 2157.87 55.4355 1943.35C55.4355 1720.58 136.197 1712.37 136.197 1712.37Z" fill="#555555"/>
<ellipse cx="230.983" cy="1931.03" rx="101.633" ry="218.665" fill="#8C8C8C"/>
<path d="M235.208 1898.95C238.138 1893.81 243.729 1890.99 249.647 1890.99H646.76V1977.23H247.431C242.981 1977.23 238.879 1974.84 236.919 1970.84C232.393 1961.62 224.828 1944.23 224.828 1931.03C224.828 1919.39 230.714 1906.84 235.208 1898.95Z" fill="#D9D9D9"/>
<path d="M351.101 1773.96H517.41C517.41 1773.96 527.726 1804 542.048 1817.08C553.178 1827.24 575.926 1835.56 575.926 1835.56L566.687 1887.91C566.687 1887.91 551.129 1886.46 542.048 1897.15C518.625 1924.73 560.527 1986.47 560.527 1986.47C560.527 1986.47 537.008 2020.95 517.41 2029.58C491.998 2040.78 446.575 2035.74 446.575 2035.74L394.218 2029.58L348.021 2023.43C348.021 2023.43 321.073 1953.36 320.303 1906.39C319.432 1853.3 351.101 1773.96 351.101 1773.96Z" fill="#FFC69D"/>
<path d="M635.123 1712.37H732.989V2149.65H635.123C635.123 2149.65 554.361 2157.87 554.361 1943.35C554.361 1720.58 635.123 1712.37 635.123 1712.37Z" fill="#555555"/>
<ellipse cx="726.832" cy="1931.03" rx="110.873" ry="218.665" fill="#747474"/>
<path d="M732.603 1767.8H806.909V2094.26H732.603C732.603 2094.26 668.318 2100.42 668.318 1940.27C668.318 1773.96 732.603 1767.8 732.603 1767.8Z" fill="#555555"/>
<ellipse cx="803.826" cy="1931.03" rx="83.1545" ry="163.229" fill="#747474"/>
<path d="M845.832 1903.31H862.345V1958.74H845.832C845.832 1958.74 831.547 1959.79 831.547 1932.6C831.547 1904.36 845.832 1903.31 845.832 1903.31Z" fill="#B8B8B8"/>
<ellipse cx="865.42" cy="1931.03" rx="15.399" ry="27.7182" fill="#E6E6E6"/>
</svg>
