<svg width="3090" height="3398" viewBox="0 0 3090 3398" fill="none" xmlns="http://www.w3.org/2000/svg">
<path d="M984.506 2761.06L1188.81 2777.82C1188.81 2777.82 1170.71 2997.7 1199.7 3166.05C1228.7 3334.41 1226.94 3344.81 1226.94 3344.81H1082.57H886.441C886.441 3344.81 930.442 3223.18 973.61 3093.43C1042.48 2886.44 984.506 2761.06 984.506 2761.06Z" fill="#A5ED00"/>
<ellipse cx="1089.82" cy="2364.34" rx="117.318" ry="100.558" fill="#A5ED00"/>
<ellipse cx="1101" cy="2697.68" rx="337.057" ry="143.389" fill="#A5ED00"/>
<ellipse cx="1100.99" cy="2520.77" rx="206.703" ry="119.18" fill="#A5ED00"/>
<ellipse cx="1106.58" cy="2906.24" rx="398.509" ry="162.011" fill="#A5ED00"/>
<path d="M389.996 2304.63L733.961 2274.59C733.961 2274.59 696.221 2675.17 733.961 2839.73C771.702 3004.3 886.441 3344.81 886.441 3344.81H620.488H329.713C329.713 3344.81 439.64 3317.79 439.64 2839.73C439.64 2625.96 389.996 2304.63 389.996 2304.63Z" fill="#8AC500"/>
<ellipse cx="570.241" cy="2352.97" rx="375.656" ry="310.795" fill="#8AC500"/>
<ellipse cx="472.949" cy="2561.07" rx="278.364" ry="248.636" fill="#8AC500"/>
<ellipse cx="237.826" cy="2474.58" rx="237.826" ry="189.179" fill="#8AC500"/>
<ellipse cx="813.471" cy="2479.99" rx="278.364" ry="248.636" fill="#8AC500"/>
<path d="M2469.99 2637.72L2759.32 2615.12C2759.32 2615.12 2697.08 2915.98 2726.15 3036.72C2755.22 3157.46 2799.86 3334 2799.86 3334H2394.47C2394.47 3334 2478.78 3133.63 2501.34 3036.72C2536.9 2884.02 2469.99 2637.72 2469.99 2637.72Z" fill="#9CDF00"/>
<ellipse cx="2505.28" cy="2409.72" rx="229.718" ry="221.61" fill="#9CDF00"/>
<circle cx="2616.08" cy="2712.41" r="156.749" fill="#9CDF00"/>
<ellipse cx="2397.17" cy="2631.33" rx="202.692" ry="189.179" fill="#9CDF00"/>
<ellipse cx="2816.07" cy="2517.83" rx="237.826" ry="243.231" fill="#9CDF00"/>
<line x1="2821.77" y1="3340.47" x2="1570.37" y2="3340.47" stroke="#6A9700" stroke-width="14.8975" stroke-linecap="round"/>
<line x1="1257.35" y1="3341.45" x2="315.54" y2="3341.45" stroke="#6A9700" stroke-width="14.8975" stroke-linecap="round"/>
<path d="M351.639 913.172C351.639 855.485 405.468 813.689 462.841 807.673C509.332 802.797 552.755 784.763 552.755 734.402C552.755 568.667 778.932 512.996 902.847 589.151C942.364 613.437 949.867 648.479 992.232 667.363C1050.68 693.417 1113.27 648.741 1193.35 706.469C1290.7 776.649 1226.85 838.303 1265.97 844.271C1299.74 849.422 1324.53 852.989 1342.68 855.46C1369.18 859.068 1390.74 882.708 1390.74 909.448V913.172H351.639Z" fill="white"/>
<path d="M2943.81 1024.88C2943.81 980.499 2902.19 948.581 2858.12 943.341C2823.89 939.271 2792.43 925.17 2792.43 887.09C2792.43 759.343 2622.19 716.432 2528.92 775.132C2499.18 793.851 2493.53 820.862 2461.64 835.417C2417.65 855.499 2370.54 821.063 2310.27 865.559C2236.99 919.653 2285.05 967.176 2255.6 971.776C2232.42 975.397 2214.85 978.004 2201.58 979.879C2179.6 982.984 2161.69 1002.69 2161.69 1024.88H2943.81Z" fill="white"/>
<path d="M2388.88 734.382C2388.88 690.752 2345.32 662.46 2303.66 649.508C2282.08 642.8 2264.89 627.694 2264.89 596.588C2264.89 468.842 2125.46 425.931 2049.06 484.63C2024.7 503.35 2020.08 530.36 1993.96 544.915C1957.92 564.997 1919.34 530.562 1869.97 575.058C1809.96 629.152 1849.32 676.674 1825.2 681.274C1810.05 684.164 1797.83 686.407 1787.98 688.148C1766.13 692.015 1748.28 712.186 1748.28 734.382H2388.88Z" fill="#8AC500"/>
<path d="M670.072 1120.79L710.308 1148.08C715.753 1151.78 722.975 1151.46 728.077 1147.31L752.059 1127.79C757.161 1123.63 764.384 1123.32 769.828 1127.01L801.964 1148.81C806.881 1152.15 813.31 1152.24 818.323 1149.05L854.213 1126.23C859.375 1122.94 866.019 1123.15 870.967 1126.75L899.608 1147.57C905.075 1151.54 912.532 1151.34 917.773 1147.07L941.317 1127.9C946.487 1123.69 953.823 1123.43 959.28 1127.26L997.818 1154.31" stroke="#557E30" stroke-width="11.1731" stroke-linecap="round"/>
<path d="M670.072 1199L710.308 1226.29C715.753 1229.99 722.975 1229.67 728.077 1225.52L752.059 1206C757.161 1201.84 764.384 1201.53 769.828 1205.22L801.964 1227.02C806.881 1230.36 813.31 1230.45 818.323 1227.27L854.213 1204.44C859.375 1201.16 866.019 1201.36 870.967 1204.96L899.608 1225.78C905.075 1229.75 912.532 1229.55 917.773 1225.28L941.317 1206.11C946.487 1201.9 953.823 1201.64 959.28 1205.47L997.818 1232.52" stroke="#557E30" stroke-width="11.1731" stroke-linecap="round"/>
<path d="M670.072 1277.21L710.308 1304.51C715.753 1308.2 722.975 1307.89 728.077 1303.73L752.059 1284.21C757.161 1280.06 764.384 1279.74 769.828 1283.43L801.964 1305.24C806.881 1308.57 813.31 1308.67 818.323 1305.48L854.213 1282.65C859.375 1279.37 866.019 1279.57 870.967 1283.17L899.608 1303.99C905.075 1307.96 912.532 1307.76 917.773 1303.49L941.317 1284.33C946.487 1280.12 953.823 1279.86 959.28 1283.68L997.818 1310.73" stroke="#557E30" stroke-width="11.1731" stroke-linecap="round"/>
<path d="M2545.3 1844.25L2582.36 1870.91C2587.95 1874.93 2595.58 1874.59 2600.79 1870.09L2621.84 1851.93C2627.05 1847.42 2634.68 1847.09 2640.27 1851.11L2668.91 1871.71C2673.97 1875.35 2680.77 1875.45 2685.94 1871.97L2718.13 1850.26C2723.45 1846.67 2730.47 1846.89 2735.56 1850.81L2760.91 1870.35C2766.51 1874.67 2774.38 1874.45 2779.74 1869.83L2800.33 1852.05C2805.61 1847.49 2813.36 1847.21 2818.96 1851.38L2854.42 1877.77" stroke="white" stroke-width="11.1731" stroke-linecap="round"/>
<path d="M2545.3 1922.46L2582.36 1949.12C2587.95 1953.14 2595.58 1952.81 2600.79 1948.3L2621.84 1930.14C2627.05 1925.64 2634.68 1925.3 2640.27 1929.32L2668.91 1949.92C2673.97 1953.56 2680.77 1953.67 2685.94 1950.18L2718.13 1928.47C2723.45 1924.88 2730.47 1925.11 2735.56 1929.02L2760.91 1948.56C2766.51 1952.88 2774.38 1952.66 2779.74 1948.04L2800.33 1930.27C2805.61 1925.71 2813.36 1925.43 2818.96 1929.59L2854.42 1955.98" stroke="white" stroke-width="11.1731" stroke-linecap="round"/>
<path d="M1949.4 3010.49L2162.03 2973.38L2170.64 3132.42L2005.76 3178.76L1949.4 3010.49Z" fill="#FFC69D"/>
<path d="M1949.85 3000.74L2161.05 2973.44L2166.39 3072.04L1984.69 3116.89L1949.85 3000.74Z" fill="#275200"/>
<path d="M1992.6 3153.87C1992.49 3151.85 1993.94 3150.07 1995.95 3149.77L2149.58 3126.87L2368.65 3221.14L2423.68 3332.59L2003.5 3355.32L1992.6 3153.87Z" fill="#A9FF5E"/>
<path d="M2000.95 3308.2L2401.71 3286.51L2423.89 3336.51L2003.5 3355.32L2000.95 3308.2Z" fill="white"/>
<line x1="2018.52" y1="3305.28" x2="2352.3" y2="3287.22" stroke="#589E19" stroke-width="3.93267" stroke-linecap="round"/>
<line x1="2036.56" y1="3347.63" x2="2034.65" y2="3312.29" stroke="#589E19" stroke-width="3.93267" stroke-linecap="round"/>
<line x1="2382.13" y1="3328.93" x2="2380.22" y2="3293.58" stroke="#589E19" stroke-width="3.93267" stroke-linecap="round"/>
<line x1="2331.08" y1="3331.69" x2="2329.17" y2="3296.35" stroke="#589E19" stroke-width="3.93267" stroke-linecap="round"/>
<line x1="2213.28" y1="3338.06" x2="2211.36" y2="3302.72" stroke="#589E19" stroke-width="3.93267" stroke-linecap="round"/>
<line x1="2158.29" y1="3341.04" x2="2156.38" y2="3305.7" stroke="#589E19" stroke-width="3.93267" stroke-linecap="round"/>
<line x1="2095.47" y1="3344.44" x2="2093.55" y2="3309.1" stroke="#589E19" stroke-width="3.93267" stroke-linecap="round"/>
<path d="M2168.52 3093.15L2338.12 3208.84L2293.92 3228.96L2126.81 3122.98L2168.52 3093.15Z" fill="#E7FFDB"/>
<line x1="2271.94" y1="3205.04" x2="2299.09" y2="3189.58" stroke="#589E19" stroke-width="3.93267" stroke-linecap="round"/>
<line x1="2235.32" y1="3183.39" x2="2262.47" y2="3167.93" stroke="#589E19" stroke-width="3.93267" stroke-linecap="round"/>
<line x1="2202.85" y1="3165.45" x2="2237.64" y2="3145.64" stroke="#589E19" stroke-width="3.93267" stroke-linecap="round"/>
<line x1="2170.04" y1="3143.56" x2="2200.99" y2="3124.11" stroke="#589E19" stroke-width="3.93267" stroke-linecap="round"/>
<path d="M2200.67 3122.32C2200.67 3122.32 2217.88 3098.32 2244.28 3096.89C2257.87 3096.16 2267.22 3107.52 2256.23 3115.54C2235.66 3130.55 2200.67 3122.32 2200.67 3122.32ZM2200.67 3122.32C2200.67 3122.32 2225.35 3088.11 2201.82 3069.1C2182.98 3053.87 2179.25 3082.73 2184.44 3096.23C2190.64 3112.4 2200.67 3122.32 2200.67 3122.32Z" stroke="#589E19" stroke-width="3.93267"/>
<path d="M1156.95 2903.62L1390.99 2933.89L1348.36 3102.72L1161.19 3097.59L1156.95 2903.62Z" fill="#FFC69D"/>
<path d="M1160.59 2893.58L1389.95 2933.62L1363.52 3038.3L1159.27 3026.15L1160.59 2893.58Z" fill="#275200"/>
<path d="M1998.12 584.818C1998.12 584.818 2053.68 614.081 2080.94 642.193C2105.81 667.833 2131.7 717.824 2131.7 717.824C2131.7 717.824 2217.1 725.28 2259.94 754.335C2298.34 780.381 2334.74 845.614 2334.74 845.614L2374.32 973.59C2395.96 1043.58 2338.61 1111.73 2267.23 1095.25C2220.08 1084.37 2170.44 1069.96 2131.7 1051.64C2079.85 1027.12 2006.14 976.011 2006.14 976.011L1998.12 584.818Z" fill="#FFC69D"/>
<path d="M1998.12 577.058C1998.12 577.058 2047.36 596.01 2072.93 619.803C2098.5 643.596 2100.2 673.531 2129.03 697.278C2139.15 705.607 2155.29 715.056 2162.61 719.193C2164.83 720.447 2165.89 723.076 2165.14 725.511L2075.09 1016.23C2074.02 1019.69 2069.9 1021.1 2066.93 1019.04L2011.48 980.464L1998.12 577.058Z" fill="#AFFA01"/>
<path d="M2022.17 732.008C2022.17 732.008 2048.18 790.879 2056.9 830.856C2072.01 900.172 2056.9 1012.52 2056.9 1012.52L2011.48 983.135C2011.48 983.135 2025.43 902.676 2027.51 844.214C2029.59 785.751 2022.17 732.008 2022.17 732.008Z" fill="black"/>
<path d="M2023.76 978.385C2023.76 978.385 2052.91 932.912 2089.88 847.66C2105.81 810.915 2127.56 719.755 2127.56 719.755" stroke="black" stroke-width="5.34313" stroke-linecap="round"/>
<path d="M2334.74 845.614C2334.74 845.614 2416.66 749.579 2444.27 676.096C2470.44 606.453 2473.66 488.324 2473.66 488.324L2623.27 464.852C2623.27 464.852 2612.49 850.667 2524.42 1015.13C2497.92 1064.62 2464.95 1093.53 2443.28 1108.55C2428.85 1118.55 2411.14 1121.04 2393.77 1118.57C2339.07 1110.78 2211.96 1089.6 2131.71 1051.64L2334.74 845.614Z" fill="#FFC69D"/>
<path d="M2871.39 555.684H2783.57V229.784H2871.39C2871.39 229.784 2943.86 223.662 2943.86 383.537C2943.86 549.562 2871.39 555.684 2871.39 555.684Z" fill="#787878"/>
<path d="M2825.72 577.057H2740.82V197.732H2825.72C2825.72 197.732 2895.78 190.606 2895.78 376.69C2895.78 569.931 2825.72 577.057 2825.72 577.057Z" fill="#555555"/>
<ellipse cx="2743.5" cy="387.376" rx="88.1616" ry="189.681" transform="rotate(180 2743.5 387.376)" fill="#8C8C8C"/>
<path d="M2739.84 415.202C2737.29 419.662 2732.44 422.107 2727.31 422.107H2382.84V347.303H2729.23C2733.09 347.303 2736.65 349.376 2738.35 352.841C2742.28 360.843 2748.84 375.93 2748.84 387.377C2748.84 397.473 2743.73 408.361 2739.84 415.202Z" fill="#D9D9D9"/>
<path d="M2392.92 577.057H2308.03V197.732H2392.92C2392.92 197.732 2462.98 190.606 2462.98 376.69C2462.98 569.931 2392.92 577.057 2392.92 577.057Z" fill="#555555"/>
<ellipse cx="2313.37" cy="387.376" rx="96.1763" ry="189.681" transform="rotate(180 2313.37 387.376)" fill="#747474"/>
<path d="M2308.36 528.969H2243.91V245.787H2308.36C2308.36 245.787 2364.13 240.442 2364.13 379.362C2364.13 523.624 2308.36 528.969 2308.36 528.969Z" fill="#555555"/>
<ellipse cx="2246.58" cy="387.377" rx="72.1322" ry="141.593" transform="rotate(180 2246.58 387.377)" fill="#747474"/>
<path d="M2210.15 411.42H2195.82V363.337H2210.15C2210.15 363.337 2222.54 362.429 2222.54 386.017C2222.54 410.513 2210.15 411.42 2210.15 411.42Z" fill="#B8B8B8"/>
<ellipse cx="2193.14" cy="387.376" rx="13.3578" ry="24.0441" transform="rotate(180 2193.14 387.376)" fill="#E6E6E6"/>
<path d="M2468.66 348.883C2468.46 343.426 2472.42 338.702 2477.82 337.93L2615.62 318.245C2627.92 316.487 2639.77 323.436 2643.35 335.337C2651.8 363.475 2663.64 414.96 2649.98 448.822C2642.62 467.078 2623.27 491.567 2623.27 491.567H2473.66L2468.66 348.883Z" fill="#FFC69D"/>
<path d="M2505.72 332.32C2505.72 332.32 2514.05 344.763 2516.8 353.351C2520.64 365.342 2518.52 385.202 2518.52 385.202" stroke="black" stroke-width="5.34313" stroke-linecap="round"/>
<path d="M2552.15 329.084C2552.15 329.084 2559.86 339.461 2562.18 347.926C2565.14 358.768 2561.9 376.176 2561.9 376.176" stroke="black" stroke-width="5.34313" stroke-linecap="round"/>
<path d="M2596.56 321.828C2596.56 321.828 2605.35 335.145 2607.55 344.871C2609.61 354.003 2607.86 368.843 2607.86 368.843" stroke="black" stroke-width="5.34313" stroke-linecap="round"/>
<path d="M1421.07 1357.15L1966.07 1346.47L2019.5 1672.4L1736.32 1773.92L1311.54 1643.01L1421.07 1357.15Z" fill="#424240"/>
<path d="M1311.54 1643.01L1736.32 1736.52L1409.58 2982.9C1406.84 2993.35 1398.1 3001.12 1387.36 3002.28C1360.87 3005.16 1310.17 3009.52 1274.14 3005.51C1233.9 3001.03 1178.36 2982.39 1155.92 2974.42C1149.83 2972.26 1145.76 2966.72 1145.59 2960.27C1144.2 2908.37 1139.96 2675.93 1169.95 2524.63C1193.69 2404.84 1260.78 2225.41 1260.78 2225.41C1260.78 2225.41 1266.9 2058.62 1276.81 1944.9C1286.72 1831.18 1311.54 1643.01 1311.54 1643.01Z" fill="#424240"/>
<path d="M1637.45 1722.4L2019.5 1672.4L2174.12 2947.17C2175.41 2957.73 2170.32 2968.03 2160.97 2973.11C2139.55 2984.76 2099.74 3005.08 2068.96 3013.16C2034.43 3022.22 1982.87 3023.33 1960.86 3023.36C1954.44 3023.36 1948.81 3019.53 1946.48 3013.54C1927.71 2965.36 1845.23 2748.64 1818.83 2596.69C1797.94 2476.4 1792.92 2285.71 1792.92 2285.71C1792.92 2285.71 1741.38 2127.19 1711.02 2017.19C1680.67 1907.2 1637.45 1722.4 1637.45 1722.4Z" fill="#424240"/>
<path d="M1343.59 544.998L1591.56 492.239C1593.5 491.826 1595.44 492.435 1596.73 493.941C1613.19 513.105 1726.51 640.754 1789.74 598.43C1816.68 580.396 1821.1 538.452 1821.74 520.894C1821.88 517.098 1825.71 514.362 1829.28 515.66L1998.12 577.057C1998.12 577.057 2016.81 820.895 2011.48 980.463C2006.2 1138.5 1976.75 1383.87 1976.75 1383.87C1976.75 1383.87 1803.23 1423.65 1690.89 1418.6C1580.1 1413.62 1413.05 1359.83 1413.05 1359.83C1413.05 1359.83 1409.87 1261.52 1399.69 1199.53C1390.3 1142.35 1364.96 1055.27 1364.96 1055.27L1343.59 544.998Z" fill="#AFFA01"/>
<path d="M1871.91 1125.25C1871.91 1125.25 1870.79 1152.47 1853.48 1156.68C1839.96 1159.97 1802.75 1156.68 1802.75 1156.68" stroke="black" stroke-width="5.34313" stroke-linecap="round"/>
<path d="M1872.3 1223.13C1872.3 1223.13 1871.18 1250.35 1853.87 1254.56C1840.35 1257.84 1803.14 1254.56 1803.14 1254.56" stroke="black" stroke-width="5.34313" stroke-linecap="round"/>
<path d="M1645.22 1125.25C1645.22 1125.25 1646.93 1152.47 1673.4 1156.68C1694.09 1159.97 1750.99 1156.68 1750.99 1156.68" stroke="black" stroke-width="5.34313" stroke-linecap="round"/>
<path d="M1644.61 1223.13C1644.61 1223.13 1646.32 1250.35 1672.79 1254.56C1693.48 1257.84 1750.39 1254.56 1750.39 1254.56" stroke="black" stroke-width="5.34313" stroke-linecap="round"/>
<path d="M1448.47 820.801C1448.47 820.801 1455.01 884.83 1450.94 925.543C1443.89 996.137 1380.99 1114.04 1380.99 1114.04L1360.68 1056.33C1360.68 1056.33 1398.82 984.12 1418.87 929.164C1438.92 874.208 1448.47 820.801 1448.47 820.801Z" fill="black"/>
<path d="M1573.34 566.37C1573.34 566.37 1687.9 688.816 1776.42 665.072C1838.18 648.507 1847.95 566.369 1847.95 566.369" stroke="black" stroke-width="5.34313"/>
<path d="M1343.59 545L1506.56 630.49C1506.56 630.49 1492.1 752.436 1463.81 830.857C1443.38 887.49 1402.36 977.793 1402.36 977.793C1402.36 977.793 1387.08 1037.28 1364.96 1068.63C1333.57 1113.13 1252.76 1151.44 1252.76 1151.44C1252.76 1151.44 1266.42 1209.7 1266.11 1247.62C1265.83 1283.47 1252.76 1338.45 1252.76 1338.45C1252.76 1338.45 1231.22 1402.75 1223.37 1445.32C1215.39 1488.6 1212.68 1557.52 1212.68 1557.52L1076.43 1597.6C1076.43 1597.6 1034.14 1446.12 1023 1346.47C1015.58 1280.07 1016.25 1185.2 1017.08 1141.05C1017.37 1125.03 1021.75 1109.43 1029.01 1095.15C1037.5 1078.45 1048.7 1055.12 1055.06 1036.57C1068.53 997.276 1064.23 972.079 1076.43 932.376C1101.54 850.716 1180.63 740.024 1180.63 740.024C1180.63 740.024 1197.93 671.704 1223.37 635.833C1257.42 587.839 1343.59 545 1343.59 545Z" fill="#FFC69D"/>
<path d="M1495.52 967.119C1495.52 967.119 1529.18 1004.76 1567.39 1020.54C1636.72 1049.17 1762.68 993.835 1762.68 993.835" stroke="black" stroke-width="5.34313" stroke-linecap="round"/>
<path d="M1434.43 1330.44C1434.43 1330.44 1531.22 1365.18 1704.25 1383.87C1778.83 1391.92 1955.38 1365.17 1955.38 1365.17" stroke="black" stroke-width="5.34313" stroke-linecap="round"/>
<path d="M1975.29 1022.11C1975.29 1022.11 1951.6 1033.93 1928.32 1035.45C1886.09 1038.22 1823.77 995.88 1823.77 995.88" stroke="black" stroke-width="5.34313" stroke-linecap="round"/>
<path d="M1629.45 272.499L1816.46 283.186L1824.47 526.298C1824.47 526.298 1829.97 584.176 1808.44 609.116C1800.68 618.116 1787.67 624.822 1775.4 629.537C1755.49 637.181 1733.54 635.938 1713.54 628.537C1694.65 621.544 1671.26 611.178 1656.17 598.43C1622.53 570.033 1597.39 502.254 1597.39 502.254L1629.45 272.499Z" fill="#FFC69D"/>
<path d="M1680.21 363.333L1827.14 446.151V518.284C1827.14 518.284 1773.14 511.718 1722.95 475.539C1649.57 422.646 1680.21 363.333 1680.21 363.333Z" fill="black"/>
<path d="M1616.09 133.578C1645.4 30.6121 1800.03 -26.6693 1880.58 66.7903C1943.27 139.537 1932.89 218.16 1915.31 312.573C1910.27 339.624 1900.25 376.805 1894.87 396.052C1892.51 404.501 1888.96 412.552 1883.92 419.731C1877.6 428.728 1868.13 441.179 1859.21 448.823C1849.27 457.332 1833.61 465.382 1822.88 470.378C1815.14 473.979 1806.83 476.094 1798.31 476.384C1782.96 476.906 1756.77 476.213 1736.31 467.524C1704.34 453.936 1669.53 408.749 1669.53 408.749L1641.47 268.492C1641.47 268.492 1600.8 187.302 1616.09 133.578Z" fill="#FFC69D"/>
<ellipse cx="1765.66" cy="282.152" rx="9.26928" ry="20.0835" fill="black"/>
<ellipse cx="1874.59" cy="281.896" rx="10.0417" ry="20.0835" fill="black"/>
<path d="M1767.5 398.354C1767.5 398.354 1787.41 405.75 1799.17 406.066C1812.79 406.431 1830.84 398.354 1830.84 398.354" stroke="black" stroke-width="8.06033" stroke-linecap="round"/>
<path d="M1818.74 315.965C1818.74 315.965 1827.5 329.841 1829.11 340.428C1830.98 352.682 1815.37 353.799 1815.37 353.799" stroke="black" stroke-width="8.06033" stroke-linecap="round"/>
<path d="M1850.93 241.986C1850.93 241.986 1860.22 240.441 1867.82 240.441C1875.42 240.441 1889.55 241.986 1889.55 241.986" stroke="black" stroke-width="8.06033" stroke-linecap="round"/>
<path d="M1774.93 241.986C1774.93 241.986 1765.63 240.441 1758.03 240.441C1750.43 240.441 1736.31 241.986 1736.31 241.986" stroke="black" stroke-width="8.06033" stroke-linecap="round"/>
<path d="M1338.25 542.462L1467.5 518.284L1546.64 679.473L1408.36 989.832C1406.03 995.053 1400.03 997.518 1394.75 995.35C1369.57 985.026 1299.85 955.383 1256.48 926.63C1201.99 890.496 1129.87 816.484 1129.87 816.484L1179.99 738.576L1199.95 668.197C1209.16 635.731 1230.32 607.953 1259.17 590.447L1338.25 542.462Z" fill="#AFFA01"/>
<path d="M1584.04 245.784C1586.13 244.651 1588.61 243.758 1591.22 243.054C1603.59 239.709 1616.35 244.542 1626.68 252.12L1650.83 269.828L1624.11 347.303C1624.11 347.303 1597.75 338.804 1584.04 325.931C1577.95 320.214 1573.23 310.973 1569.8 302.113C1563.78 286.563 1563.47 268.403 1573.58 255.146C1576.44 251.408 1579.9 248.027 1584.04 245.784Z" fill="#FFC69D"/>
<path d="M1597.44 306.037C1597.44 306.037 1611.38 310.577 1613.27 300.791C1615.27 290.476 1605.6 272.847 1605.6 272.847" stroke="black" stroke-width="5.34313" stroke-linecap="round"/>
<path d="M1568.01 156.142C1570.32 129.095 1572.39 111.195 1589.65 89.9486C1603.32 73.1053 1635.63 58.1756 1635.63 58.1756C1635.63 58.1756 1672.73 20.5884 1703.24 7.86854C1765.92 -18.2585 1876.34 29.0502 1876.34 29.0502C1876.34 29.0502 1939.08 20.646 1962.89 44.9366C1982.58 65.0254 1988.59 86.7363 1981.82 113.778C1976.09 136.68 1943.96 161.437 1943.96 161.437C1943.96 161.437 1948.12 197.307 1943.96 219.688C1939.71 242.548 1922.32 275.29 1922.32 275.29L1919.79 183.585C1919.7 180.299 1916.72 177.857 1913.48 178.405C1898.12 181.006 1857.32 187.252 1830.36 185.267C1806.1 183.48 1774.57 175.133 1753.44 168.818C1738.43 164.33 1722 164.265 1708.57 172.341C1704.63 174.713 1700.82 177.313 1697.83 179.971C1687.2 189.426 1676.2 209.097 1676.2 209.097L1667.84 266.342C1666.33 276.689 1659.09 285.285 1649.15 288.529L1642.15 270.26C1641.41 268.322 1640.52 266.447 1639.32 264.748C1635.21 258.885 1623.95 245.022 1608.58 243.517C1595.58 242.244 1586.94 243.517 1586.94 243.517C1586.94 243.517 1565.04 190.902 1568.01 156.142Z" fill="black"/>
<path d="M1148.34 3096.11C1149.75 3088.5 1156.38 3082.98 1164.11 3082.98H1371.07C1376.05 3082.98 1380.37 3086.42 1381.49 3091.27L1425.83 3283.5C1434.33 3320.33 1406.36 3355.48 1368.56 3355.48H1164.67C1131.28 3355.48 1106.07 3325.2 1112.13 3292.36L1148.34 3096.11Z" fill="#A9FF5E"/>
<path d="M1190.85 3061.11C1191.11 3058.37 1193.42 3056.27 1196.17 3056.27H1341.34C1344.12 3056.27 1346.44 3058.41 1346.66 3061.18L1360.42 3230.87C1361.43 3243.31 1351.6 3253.96 1339.12 3253.96H1196.1C1183.5 3253.96 1173.64 3243.12 1174.82 3230.58L1190.85 3061.11Z" fill="#D9D9D9"/>
<line x1="1220.7" y1="3085.66" x2="1316.87" y2="3085.66" stroke="#589E19" stroke-width="5.34313" stroke-linecap="round"/>
<line x1="1220.7" y1="3128.4" x2="1316.87" y2="3128.4" stroke="#589E19" stroke-width="5.34313" stroke-linecap="round"/>
<path d="M1267.92 3081.87C1267.92 3081.87 1164.92 3049.81 1200.65 3040.97C1250.19 3028.7 1267.92 3081.87 1267.92 3081.87Z" stroke="#589E19" stroke-width="5.34313" stroke-linecap="round"/>
<path d="M1271.46 3082.98C1271.46 3082.98 1352.39 3054.93 1324.32 3047.19C1285.39 3036.45 1271.46 3082.98 1271.46 3082.98Z" stroke="#589E19" stroke-width="5.34313" stroke-linecap="round"/>
<line x1="1220.7" y1="3171.15" x2="1316.87" y2="3171.15" stroke="#589E19" stroke-width="5.34313" stroke-linecap="round"/>
<line x1="1220.7" y1="3219.23" x2="1316.87" y2="3219.23" stroke="#589E19" stroke-width="5.34313" stroke-linecap="round"/>
<rect x="1143.22" y="3312.74" width="251.127" height="42.745" rx="21.3725" fill="white"/>
<line x1="2.67156" y1="-2.67156" x2="189.828" y2="-2.67156" transform="matrix(-0.0460126 0.998941 -0.999635 -0.0270102 1777.23 1100.74)" stroke="black" stroke-width="5.34313" stroke-linecap="round"/>
<path d="M1169.37 807.353C1169.37 807.353 1208.62 844.461 1285.49 896.666C1318.62 919.167 1404.13 957.517 1404.13 957.517" stroke="black" stroke-width="5.34313" stroke-linecap="round"/>
<line x1="1706.24" y1="1851.93" x2="1686.09" y2="1937.57" stroke="black" stroke-width="5.34313" stroke-linecap="round"/>
<path d="M1774.53 1816.66C1774.53 1816.66 1730.98 1840.85 1714.55 1845.41C1696.68 1850.37 1667.87 1848.57 1667.87 1848.57" stroke="black" stroke-width="5.34313" stroke-linecap="round"/>
<path d="M1474.5 1418.6C1474.5 1418.6 1406.56 1576.87 1378.32 1683.09C1324.49 1885.56 1375.65 2012.87 1330.23 2217.4C1295.97 2371.68 1228.68 2445.9 1204.64 2602.1C1182.09 2748.67 1204.64 2981.83 1204.64 2981.83" stroke="white" stroke-width="5.34313" stroke-linecap="round"/>
<path d="M2338.4 850.473C2338.4 850.473 2323.21 868.502 2329.39 886.959C2339.41 916.849 2356.11 929.704 2356.11 929.704" stroke="black" stroke-width="5.34313" stroke-linecap="round"/>
<path d="M1164.59 1157.79C1164.59 1157.79 1180.41 1175.27 1199.54 1171.63C1230.5 1165.73 1245.49 1150.91 1245.49 1150.91" stroke="black" stroke-width="5.34313" stroke-linecap="round"/>
<path d="M2148.76 929.705C2148.76 929.705 2169.38 986.75 2211.85 1009.85C2280.62 1047.26 2317.47 1031.21 2317.47 1031.21" stroke="black" stroke-width="5.34313" stroke-linecap="round"/>
<path d="M1151.36 891.465C1151.36 891.465 1103.68 928.971 1095.1 976.548C1081.2 1053.6 1108.02 1083.54 1108.02 1083.54" stroke="black" stroke-width="5.34313" stroke-linecap="round"/>
<path d="M836.333 1506.76H924.155V1832.66H836.333C836.333 1832.66 763.861 1838.78 763.861 1678.91C763.861 1512.88 836.333 1506.76 836.333 1506.76Z" fill="#787878"/>
<path d="M882.006 1485.39H966.9V1864.72H882.006C882.006 1864.72 811.949 1871.84 811.949 1685.76C811.949 1492.52 882.006 1485.39 882.006 1485.39Z" fill="#555555"/>
<ellipse cx="964.222" cy="1675.07" rx="88.1616" ry="189.681" fill="#8C8C8C"/>
<path d="M967.889 1647.25C970.431 1642.79 975.281 1640.34 980.414 1640.34H1324.89V1715.14H978.492C974.632 1715.14 971.073 1713.07 969.373 1709.61C965.447 1701.6 958.885 1686.52 958.885 1675.07C958.885 1664.97 963.991 1654.09 967.889 1647.25Z" fill="#D9D9D9"/>
<path d="M1068.42 1538.82H1212.69C1212.69 1538.82 1221.64 1564.88 1234.06 1576.22C1243.71 1585.04 1263.45 1592.25 1263.45 1592.25L1255.43 1637.67C1255.43 1637.67 1241.94 1636.41 1234.06 1645.68C1213.74 1669.61 1250.09 1723.16 1250.09 1723.16C1250.09 1723.16 1229.69 1753.07 1212.69 1760.56C1190.64 1770.27 1151.24 1765.9 1151.24 1765.9L1105.82 1760.56L1065.75 1755.22C1065.75 1755.22 1042.38 1694.44 1041.71 1653.7C1040.95 1607.64 1068.42 1538.82 1068.42 1538.82Z" fill="#FFC69D"/>
<path d="M1314.79 1485.39H1399.69V1864.72H1314.79C1314.79 1864.72 1244.74 1871.84 1244.74 1685.76C1244.74 1492.52 1314.79 1485.39 1314.79 1485.39Z" fill="#555555"/>
<ellipse cx="1394.35" cy="1675.07" rx="96.1763" ry="189.681" fill="#747474"/>
<path d="M1399.35 1533.48H1463.81V1816.66H1399.35C1399.35 1816.66 1343.59 1822.01 1343.59 1683.09C1343.59 1538.82 1399.35 1533.48 1399.35 1533.48Z" fill="#555555"/>
<ellipse cx="1461.13" cy="1675.07" rx="72.1322" ry="141.593" fill="#747474"/>
<path d="M1497.58 1651.03H1511.9V1699.11H1497.58C1497.58 1699.11 1485.19 1700.02 1485.19 1676.43C1485.19 1651.93 1497.58 1651.03 1497.58 1651.03Z" fill="#B8B8B8"/>
<ellipse cx="1514.57" cy="1675.07" rx="13.3578" ry="24.0441" fill="#E6E6E6"/>
</svg>
