<svg width="2484" height="2859" viewBox="0 0 2484 2859" fill="none" xmlns="http://www.w3.org/2000/svg">
<path d="M580.778 988.453C604.343 701.28 191.606 549.362 320.258 278.714C525.552 -153.165 1350.98 -12.3614 1867.51 226.513C2144.42 354.569 2351.66 458.947 2415 700.341C2472.18 918.252 2205.27 1026.36 2213.99 1248.46C2223.19 1482.74 2476.26 1578.31 2483.77 1812.63C2507.33 2548.66 26.839 2548.6 0.227884 1812.63C-12.9643 1447.78 550.886 1352.73 580.778 988.453Z" fill="#E7FFD2"/>
<path d="M314.201 1612.11H460.225C460.225 1612.11 467.302 1917.03 490.927 2050.83C514.552 2184.63 578.157 2282.04 578.157 2282.04C578.157 2282.04 441.888 2251.3 360.966 2214.74C297.567 2186.1 232.486 2141.32 232.486 2141.32C232.486 2141.32 238.559 2153.95 273.735 2050.83C329.853 1886.33 314.201 1612.11 314.201 1612.11Z" fill="#B2D890"/>
<ellipse cx="408.38" cy="1439.27" rx="267.665" ry="255.429" fill="#B2D890"/>
<ellipse cx="339.552" cy="1610.58" rx="198.837" ry="203.426" fill="#B2D890"/>
<ellipse cx="169.776" cy="1538.69" rx="169.776" ry="156.011" fill="#B2D890"/>
<ellipse cx="581.216" cy="1543.28" rx="198.837" ry="203.426" fill="#B2D890"/>
<path d="M794.469 1804.83H940.493C940.493 1804.83 907.85 1970.82 931.475 2104.61C955.1 2238.41 971.194 2349.34 971.194 2349.34C971.194 2349.34 930.352 2348.64 842.763 2334.04C741.815 2317.22 723.461 2317.22 723.461 2317.22C723.461 2317.22 759.292 2184.79 794.469 2081.67C850.587 1917.17 794.469 1804.83 794.469 1804.83Z" fill="#D1F9AD"/>
<ellipse cx="888.649" cy="1615.17" rx="96.3595" ry="82.5939" fill="#D1F9AD"/>
<ellipse cx="897.825" cy="1888.95" rx="276.842" ry="117.773" fill="#D1F9AD"/>
<ellipse cx="897.825" cy="1743.65" rx="169.776" ry="97.889" fill="#D1F9AD"/>
<ellipse cx="902.414" cy="2060.26" rx="327.316" ry="133.068" fill="#D1F9AD"/>
<path d="M1970.02 2029.67L2119.91 2035.79C2119.91 2035.79 2110.05 1988.62 2127.56 2087.79C2145.07 2186.96 2162.73 2202.5 2162.73 2202.5C2162.73 2202.5 2144.98 2213.46 2083.2 2236.15C2008.25 2263.68 1976.13 2272.86 1976.13 2272.86C1976.13 2272.86 1988.55 2272.93 2002.14 2193.33C2023.55 2067.91 1970.02 2029.67 1970.02 2029.67Z" fill="#C5F29E"/>
<ellipse cx="1982.25" cy="1814.01" rx="143.775" ry="137.656" fill="#C5F29E"/>
<ellipse cx="2051.08" cy="2000.61" rx="96.3595" ry="97.889" fill="#C5F29E"/>
<ellipse cx="1915.37" cy="1951.05" rx="125.834" ry="115.631" fill="#C5F29E"/>
<ellipse cx="2175.51" cy="1879.13" rx="147.373" ry="150.774" fill="#C5F29E"/>
<path d="M235.545 608.764C235.545 561.383 279.758 527.054 326.881 522.112C365.067 518.108 400.733 503.296 400.733 461.931C400.733 325.804 586.504 280.078 688.282 342.629C720.739 362.576 726.901 391.358 761.698 406.868C809.709 428.268 861.117 391.573 926.886 438.988C1006.84 496.631 954.401 547.27 986.537 552.173C1014.27 556.403 1034.64 559.333 1049.54 561.363C1071.31 564.326 1089.01 583.743 1089.01 605.706V608.764H235.545Z" fill="white"/>
<path d="M2364.63 700.518C2364.63 664.063 2330.45 637.847 2294.25 633.542C2266.13 630.2 2240.3 618.618 2240.3 587.341C2240.3 482.416 2100.47 447.171 2023.86 495.384C1999.43 510.759 1994.79 532.944 1968.6 544.899C1932.46 561.394 1893.77 533.109 1844.27 569.656C1784.08 614.087 1823.56 653.119 1799.37 656.898C1780.33 659.872 1765.9 662.013 1755 663.553C1736.94 666.104 1722.23 682.287 1722.23 700.518H2364.63Z" fill="white"/>
<path d="M1908.84 461.914C1908.84 426.078 1873.06 402.84 1838.84 392.202C1821.12 386.692 1807 374.285 1807 348.736C1807 243.811 1692.47 208.566 1629.73 256.779C1609.72 272.155 1605.92 294.339 1584.47 306.294C1554.87 322.789 1523.18 294.505 1482.63 331.052C1433.34 375.482 1465.67 414.515 1445.86 418.293C1433.41 420.667 1423.38 422.509 1415.29 423.939C1397.34 427.115 1382.68 443.683 1382.68 461.914H1908.84Z" fill="#C5F29E"/>
<path d="M497.092 779.289L530.14 801.709C534.612 804.742 540.544 804.484 544.734 801.072L564.432 785.036C568.623 781.625 574.555 781.366 579.026 784.4L605.422 802.307C609.46 805.046 614.74 805.124 618.858 802.506L648.336 783.757C652.576 781.061 658.033 781.23 662.097 784.184L685.622 801.283C690.112 804.547 696.237 804.379 700.541 800.875L719.879 785.132C724.126 781.675 730.152 781.46 734.633 784.606L766.287 806.82" stroke="#557E30" stroke-width="9.1771" stroke-linecap="round"/>
<path d="M497.092 843.528L530.14 865.948C534.612 868.982 540.544 868.723 544.734 865.312L564.432 849.276C568.623 845.865 574.555 845.606 579.026 848.64L605.422 866.546C609.46 869.286 614.74 869.364 618.858 866.745L648.336 847.997C652.576 845.3 658.033 845.47 662.097 848.424L685.622 865.523C690.112 868.787 696.237 868.619 700.541 865.115L719.879 849.372C724.126 845.915 730.152 845.7 734.633 848.845L766.287 871.06" stroke="#557E30" stroke-width="9.1771" stroke-linecap="round"/>
<path d="M497.092 907.768L530.14 930.188C534.612 933.222 540.544 932.963 544.734 929.552L564.432 913.516C568.623 910.104 574.555 909.846 579.026 912.879L605.422 930.786C609.46 933.526 614.74 933.604 618.858 930.985L648.336 912.237C652.576 909.54 658.033 909.709 662.097 912.664L685.622 929.763C690.112 933.027 696.237 932.859 700.541 929.354L719.879 913.612C724.126 910.155 730.152 909.94 734.633 913.085L766.287 935.299" stroke="#557E30" stroke-width="9.1771" stroke-linecap="round"/>
<path d="M2037.31 1373.51L2067.76 1395.4C2072.35 1398.71 2078.61 1398.43 2082.9 1394.73L2100.18 1379.81C2104.47 1376.11 2110.73 1375.84 2115.32 1379.14L2138.84 1396.06C2143 1399.05 2148.58 1399.14 2152.83 1396.27L2179.27 1378.44C2183.64 1375.49 2189.41 1375.68 2193.58 1378.89L2214.41 1394.94C2219.01 1398.49 2225.47 1398.31 2229.87 1394.51L2246.79 1379.92C2251.13 1376.17 2257.49 1375.94 2262.09 1379.36L2291.21 1401.04" stroke="#B7EC87" stroke-width="9.1771" stroke-linecap="round"/>
<path d="M2037.31 1437.75L2067.76 1459.64C2072.35 1462.95 2078.61 1462.67 2082.9 1458.97L2100.18 1444.05C2104.47 1440.35 2110.73 1440.08 2115.32 1443.38L2138.84 1460.3C2143 1463.29 2148.58 1463.37 2152.83 1460.51L2179.27 1442.68C2183.64 1439.73 2189.41 1439.92 2193.58 1443.13L2214.41 1459.18C2219.01 1462.73 2225.47 1462.55 2229.87 1458.75L2246.79 1444.16C2251.13 1440.41 2257.49 1440.18 2262.09 1443.6L2291.21 1465.28" stroke="#B7EC87" stroke-width="9.1771" stroke-linecap="round"/>
<path d="M1489.37 2481.45L1645.12 2454.26L1651.42 2570.76L1530.65 2604.7L1489.37 2481.45Z" fill="#FFC69D"/>
<path d="M1489.7 2474.3L1644.4 2454.3L1648.31 2526.53L1515.22 2559.38L1489.7 2474.3Z" fill="#275200"/>
<path d="M1521.01 2586.47C1520.93 2584.99 1521.99 2583.68 1523.46 2583.47L1635.99 2566.69L1796.46 2635.74L1836.77 2717.37L1529 2734.03L1521.01 2586.47Z" fill="#A9FF5E"/>
<path d="M1527.13 2699.51L1820.68 2683.63L1836.93 2720.25L1528.99 2734.03L1527.13 2699.51Z" fill="white"/>
<line x1="1540" y1="2697.38" x2="1784.49" y2="2684.14" stroke="#589E19" stroke-width="2.88061" stroke-linecap="round"/>
<line x1="1553.21" y1="2728.39" x2="1551.81" y2="2702.51" stroke="#589E19" stroke-width="2.88061" stroke-linecap="round"/>
<line x1="1806.34" y1="2714.7" x2="1804.94" y2="2688.81" stroke="#589E19" stroke-width="2.88061" stroke-linecap="round"/>
<line x1="1768.94" y1="2716.72" x2="1767.54" y2="2690.83" stroke="#589E19" stroke-width="2.88061" stroke-linecap="round"/>
<line x1="1682.65" y1="2721.39" x2="1681.25" y2="2695.5" stroke="#589E19" stroke-width="2.88061" stroke-linecap="round"/>
<line x1="1642.38" y1="2723.57" x2="1640.98" y2="2697.68" stroke="#589E19" stroke-width="2.88061" stroke-linecap="round"/>
<line x1="1596.36" y1="2726.06" x2="1594.96" y2="2700.17" stroke="#589E19" stroke-width="2.88061" stroke-linecap="round"/>
<path d="M1649.87 2542L1774.1 2626.74L1741.72 2641.47L1619.32 2563.84L1649.87 2542Z" fill="#E7FFDB"/>
<line x1="1725.62" y1="2623.95" x2="1745.51" y2="2612.62" stroke="#589E19" stroke-width="2.88061" stroke-linecap="round"/>
<line x1="1698.8" y1="2608.09" x2="1718.69" y2="2596.76" stroke="#589E19" stroke-width="2.88061" stroke-linecap="round"/>
<line x1="1675.01" y1="2594.95" x2="1700.5" y2="2580.44" stroke="#589E19" stroke-width="2.88061" stroke-linecap="round"/>
<line x1="1650.98" y1="2578.92" x2="1673.65" y2="2564.67" stroke="#589E19" stroke-width="2.88061" stroke-linecap="round"/>
<path d="M1673.42 2563.36C1673.42 2563.36 1686.03 2545.78 1705.36 2544.74C1715.31 2544.2 1722.17 2552.52 1714.11 2558.39C1699.05 2569.39 1673.42 2563.36 1673.42 2563.36ZM1673.42 2563.36C1673.42 2563.36 1691.5 2538.3 1674.26 2524.37C1660.46 2513.22 1657.73 2534.36 1661.53 2544.25C1666.08 2556.1 1673.42 2563.36 1673.42 2563.36Z" stroke="#589E19" stroke-width="2.88061"/>
<path d="M908.912 2403.16L1080.34 2425.33L1049.12 2549L912.017 2545.25L908.912 2403.16Z" fill="#FFC69D"/>
<path d="M911.58 2395.81L1079.58 2425.14L1060.22 2501.82L910.612 2492.92L911.58 2395.81Z" fill="#275200"/>
<path d="M1525.06 704.683C1525.06 704.683 1565.75 726.117 1585.72 746.709C1603.94 765.49 1622.9 802.107 1622.9 802.107C1622.9 802.107 1685.45 807.569 1716.83 828.851C1744.96 847.929 1771.63 895.711 1771.63 895.711L1800.62 989.451C1816.47 1040.72 1774.46 1090.64 1722.18 1078.57C1687.64 1070.6 1651.27 1060.04 1622.9 1046.62C1584.92 1028.66 1530.93 991.225 1530.93 991.225L1525.06 704.683Z" fill="#FFC69D"/>
<path d="M1525.06 698.999C1525.06 698.999 1561.13 712.881 1579.85 730.309C1598.58 747.737 1599.83 769.664 1620.95 787.058C1628.36 793.159 1640.18 800.08 1645.54 803.11C1647.17 804.029 1647.95 805.955 1647.39 807.738L1581.44 1020.69C1580.65 1023.22 1577.64 1024.25 1575.46 1022.74L1534.84 994.487L1525.06 698.999Z" fill="#AFFA01"/>
<path d="M1542.67 812.497C1542.67 812.497 1561.73 855.619 1568.11 884.901C1579.18 935.674 1568.11 1017.97 1568.11 1017.97L1534.84 996.443C1534.84 996.443 1545.06 937.509 1546.58 894.686C1548.11 851.863 1542.67 812.497 1542.67 812.497Z" fill="black"/>
<path d="M1543.84 992.964C1543.84 992.964 1565.19 959.656 1592.27 897.21C1603.94 870.295 1619.87 803.522 1619.87 803.522" stroke="black" stroke-width="3.91375" stroke-linecap="round"/>
<path d="M1771.62 895.711C1771.62 895.711 1831.63 825.367 1851.85 771.543C1871.02 720.531 1873.38 634.003 1873.38 634.003L1982.97 616.81C1982.97 616.81 1975.07 899.413 1910.56 1019.88C1891.15 1056.13 1867 1077.31 1851.13 1088.31C1840.56 1095.63 1827.59 1097.46 1814.86 1095.65C1774.79 1089.94 1681.69 1074.42 1622.9 1046.62L1771.62 895.711Z" fill="#FFC69D"/>
<path d="M2164.71 683.343H2100.38V444.627H2164.71C2164.71 444.627 2217.79 440.142 2217.79 557.248C2217.79 678.858 2164.71 683.343 2164.71 683.343Z" fill="#787878"/>
<path d="M2131.26 698.999H2069.07V421.149H2131.26C2131.26 421.149 2182.57 415.93 2182.57 552.233C2182.57 693.779 2131.26 698.999 2131.26 698.999Z" fill="#555555"/>
<ellipse cx="2071.03" cy="560.06" rx="64.5769" ry="138.938" transform="rotate(180 2071.03 560.06)" fill="#8C8C8C"/>
<path d="M2068.35 580.442C2066.49 583.709 2062.93 585.5 2059.17 585.5H1806.85V530.708H2060.58C2063.41 530.708 2066.02 532.226 2067.26 534.764C2070.14 540.625 2074.94 551.677 2074.94 560.061C2074.94 567.456 2071.2 575.431 2068.35 580.442Z" fill="#D9D9D9"/>
<path d="M1814.24 698.999H1752.06V421.149H1814.24C1814.24 421.149 1865.56 415.93 1865.56 552.233C1865.56 693.779 1814.24 698.999 1814.24 698.999Z" fill="#555555"/>
<ellipse cx="1755.97" cy="560.06" rx="70.4475" ry="138.938" transform="rotate(180 1755.97 560.06)" fill="#747474"/>
<path d="M1752.3 663.775H1705.09V456.349H1752.3C1752.3 456.349 1793.15 452.434 1793.15 554.19C1793.15 659.86 1752.3 663.775 1752.3 663.775Z" fill="#555555"/>
<ellipse cx="1707.05" cy="560.061" rx="52.8356" ry="103.714" transform="rotate(180 1707.05 560.061)" fill="#747474"/>
<path d="M1680.36 577.672H1669.87V542.452H1680.36C1680.36 542.452 1689.44 541.787 1689.44 559.065C1689.44 577.008 1680.36 577.672 1680.36 577.672Z" fill="#B8B8B8"/>
<ellipse cx="1667.91" cy="560.06" rx="9.78437" ry="17.6119" transform="rotate(180 1667.91 560.06)" fill="#E6E6E6"/>
<path d="M1869.71 531.865C1869.57 527.867 1872.47 524.407 1876.43 523.841L1977.36 509.422C1986.37 508.135 1995.06 513.225 1997.67 521.943C2003.86 542.553 2012.54 580.265 2002.53 605.068C1997.14 618.44 1982.97 636.378 1982.97 636.378H1873.38L1869.71 531.865Z" fill="#FFC69D"/>
<path d="M1896.86 519.732C1896.86 519.732 1902.97 528.847 1904.98 535.138C1907.79 543.92 1906.24 558.468 1906.24 558.468" stroke="black" stroke-width="3.91375" stroke-linecap="round"/>
<path d="M1930.87 517.362C1930.87 517.362 1936.52 524.963 1938.22 531.164C1940.39 539.105 1938.01 551.856 1938.01 551.856" stroke="black" stroke-width="3.91375" stroke-linecap="round"/>
<path d="M1963.4 512.047C1963.4 512.047 1969.84 521.802 1971.45 528.926C1972.96 535.615 1971.68 546.485 1971.68 546.485" stroke="black" stroke-width="3.91375" stroke-linecap="round"/>
<path d="M1102.38 1270.41L1501.58 1262.58L1540.72 1501.32L1333.29 1575.68L1022.14 1479.79L1102.38 1270.41Z" fill="#424240"/>
<path d="M1022.15 1479.79L1333.29 1548.28L1093.96 2461.24C1091.95 2468.89 1085.55 2474.58 1077.68 2475.43C1058.28 2477.54 1021.15 2480.73 994.751 2477.8C965.273 2474.52 924.595 2460.86 908.154 2455.02C903.698 2453.44 900.718 2449.39 900.591 2444.66C899.575 2406.65 896.47 2236.39 918.434 2125.56C935.823 2037.82 984.968 1906.39 984.968 1906.39C984.968 1906.39 989.449 1784.22 996.709 1700.92C1003.97 1617.62 1022.15 1479.79 1022.15 1479.79Z" fill="#424240"/>
<path d="M1260.87 1537.94L1540.71 1501.32L1653.98 2435.07C1654.91 2442.8 1651.19 2450.34 1644.34 2454.07C1628.65 2462.6 1599.49 2477.49 1576.94 2483.4C1551.65 2490.04 1513.88 2490.85 1497.77 2490.87C1493.06 2490.88 1488.94 2488.07 1487.23 2483.68C1473.48 2448.39 1413.06 2289.65 1393.73 2178.34C1378.43 2090.23 1374.75 1950.56 1374.75 1950.56C1374.75 1950.56 1337 1834.44 1314.76 1753.87C1292.53 1673.3 1260.87 1537.94 1260.87 1537.94Z" fill="#424240"/>
<path d="M1045.62 675.516L1227.26 636.871C1228.68 636.568 1230.1 637.014 1231.05 638.117C1243.1 652.155 1326.1 745.655 1372.42 714.653C1392.16 701.444 1395.39 670.721 1395.86 657.86C1395.96 655.079 1398.77 653.075 1401.38 654.026L1525.06 698.998C1525.06 698.998 1538.75 877.605 1534.84 994.486C1530.97 1110.24 1509.4 1289.97 1509.4 1289.97C1509.4 1289.97 1382.31 1319.11 1300.02 1315.41C1218.86 1311.76 1096.5 1272.36 1096.5 1272.36C1096.5 1272.36 1094.17 1200.35 1086.72 1154.95C1079.84 1113.07 1061.28 1049.28 1061.28 1049.28L1045.62 675.516Z" fill="#AFFA01"/>
<path d="M1432.61 1100.54C1432.61 1100.54 1431.79 1120.48 1419.11 1123.56C1409.2 1125.97 1381.95 1123.56 1381.95 1123.56" stroke="black" stroke-width="3.91375" stroke-linecap="round"/>
<path d="M1432.89 1172.24C1432.89 1172.24 1432.08 1192.18 1419.4 1195.26C1409.49 1197.66 1382.23 1195.26 1382.23 1195.26" stroke="black" stroke-width="3.91375" stroke-linecap="round"/>
<path d="M1266.56 1100.54C1266.56 1100.54 1267.81 1120.48 1287.2 1123.56C1302.36 1125.97 1344.04 1123.56 1344.04 1123.56" stroke="black" stroke-width="3.91375" stroke-linecap="round"/>
<path d="M1266.12 1172.24C1266.12 1172.24 1267.37 1192.18 1286.76 1195.26C1301.92 1197.66 1343.6 1195.26 1343.6 1195.26" stroke="black" stroke-width="3.91375" stroke-linecap="round"/>
<path d="M1122.44 877.537C1122.44 877.537 1127.24 924.437 1124.26 954.259C1119.09 1005.97 1073.02 1092.33 1073.02 1092.33L1058.14 1050.06C1058.14 1050.06 1086.08 997.165 1100.76 956.91C1115.45 916.656 1122.44 877.537 1122.44 877.537Z" fill="black"/>
<path d="M1213.91 691.17C1213.91 691.17 1297.82 780.86 1362.66 763.468C1407.9 751.334 1415.06 691.17 1415.06 691.17" stroke="black" stroke-width="3.91375"/>
<path d="M1045.62 675.517L1164.99 738.137C1164.99 738.137 1154.4 827.46 1133.68 884.902C1118.72 926.385 1088.67 992.53 1088.67 992.53C1088.67 992.53 1077.48 1036.1 1061.28 1059.06C1038.28 1091.66 979.09 1119.73 979.09 1119.73C979.09 1119.73 989.097 1162.4 988.874 1190.17C988.664 1216.44 979.09 1256.71 979.09 1256.71C979.09 1256.71 963.315 1303.81 957.564 1334.98C951.716 1366.69 949.737 1417.17 949.737 1417.17L849.937 1446.53C849.937 1446.53 818.955 1335.57 810.8 1262.58C805.365 1213.94 805.853 1144.45 806.457 1112.11C806.677 1100.38 809.879 1088.95 815.2 1078.49C821.419 1066.26 829.622 1049.17 834.282 1035.58C844.15 1006.8 840.998 988.345 849.937 959.263C868.323 899.449 926.255 818.368 926.255 818.368C926.255 818.368 938.926 768.326 957.565 742.05C982.503 706.895 1045.62 675.517 1045.62 675.517Z" fill="#FFC69D"/>
<path d="M1156.91 984.712C1156.91 984.712 1181.57 1012.28 1209.55 1023.84C1260.34 1044.81 1352.6 1004.28 1352.6 1004.28" stroke="black" stroke-width="3.91375" stroke-linecap="round"/>
<path d="M1112.16 1250.84C1112.16 1250.84 1183.06 1276.29 1309.8 1289.97C1364.43 1295.87 1493.75 1276.28 1493.75 1276.28" stroke="black" stroke-width="3.91375" stroke-linecap="round"/>
<path d="M1508.33 1024.99C1508.33 1024.99 1490.98 1033.65 1473.93 1034.76C1442.99 1036.79 1397.34 1005.78 1397.34 1005.78" stroke="black" stroke-width="3.91375" stroke-linecap="round"/>
<path d="M1255.01 475.915L1391.99 483.743L1397.86 661.818C1397.86 661.818 1401.89 704.213 1386.12 722.481C1380.43 729.074 1370.9 733.985 1361.91 737.439C1347.34 743.038 1331.25 742.128 1316.61 736.707C1302.77 731.584 1285.64 723.991 1274.58 714.654C1249.94 693.853 1231.53 644.206 1231.53 644.206L1255.01 475.915Z" fill="#FFC69D"/>
<path d="M1292.19 542.449L1399.81 603.112V655.948C1399.81 655.948 1360.26 651.139 1323.5 624.638C1269.75 585.895 1292.19 542.449 1292.19 542.449Z" fill="black"/>
<path d="M1245.23 374.157C1266.69 298.737 1379.96 256.779 1438.96 325.237C1484.88 378.522 1477.27 436.112 1464.4 505.268C1460.71 525.083 1453.37 552.317 1449.43 566.415C1447.7 572.604 1445.1 578.501 1441.41 583.76C1436.78 590.35 1429.84 599.47 1423.3 605.069C1416.03 611.302 1404.56 617.198 1396.69 620.858C1391.03 623.495 1384.94 625.045 1378.69 625.257C1367.45 625.639 1348.27 625.132 1333.29 618.767C1309.86 608.814 1284.36 575.716 1284.36 575.716L1263.82 472.98C1263.82 472.98 1234.03 413.51 1245.23 374.157Z" fill="#FFC69D"/>
<ellipse cx="1354.79" cy="482.986" rx="6.78959" ry="14.7108" fill="black"/>
<ellipse cx="1434.57" cy="482.798" rx="7.35539" ry="14.7108" fill="black"/>
<path d="M1356.13 568.101C1356.13 568.101 1370.72 573.519 1379.33 573.75C1389.3 574.017 1402.53 568.101 1402.53 568.101" stroke="black" stroke-width="5.90405" stroke-linecap="round"/>
<path d="M1393.66 507.753C1393.66 507.753 1400.08 517.917 1401.26 525.671C1402.63 534.648 1391.19 535.466 1391.19 535.466" stroke="black" stroke-width="5.90405" stroke-linecap="round"/>
<path d="M1417.24 453.564C1417.24 453.564 1424.05 452.433 1429.62 452.433C1435.18 452.433 1445.53 453.564 1445.53 453.564" stroke="black" stroke-width="5.90405" stroke-linecap="round"/>
<path d="M1361.57 453.564C1361.57 453.564 1354.76 452.433 1349.2 452.433C1343.63 452.433 1333.28 453.564 1333.28 453.564" stroke="black" stroke-width="5.90405" stroke-linecap="round"/>
<path d="M1041.71 673.658L1136.39 655.948L1194.35 774.016L1093.06 1001.35C1091.36 1005.17 1086.97 1006.98 1083.09 1005.39C1064.65 997.828 1013.58 976.115 981.819 955.054C941.902 928.587 889.078 874.374 889.078 874.374L925.788 817.308L940.411 765.756C947.156 741.975 962.653 721.629 983.786 708.806L1041.71 673.658Z" fill="#AFFA01"/>
<path d="M1221.75 456.346C1223.28 455.517 1225.1 454.862 1227.01 454.346C1236.07 451.897 1245.41 455.437 1252.98 460.987L1270.67 473.958L1251.1 530.708C1251.1 530.708 1231.79 524.482 1221.75 515.053C1217.29 510.865 1213.83 504.097 1211.32 497.606C1206.91 486.217 1206.68 472.914 1214.09 463.204C1216.18 460.466 1218.72 457.989 1221.75 456.346Z" fill="#FFC69D"/>
<path d="M1231.56 500.481C1231.56 500.481 1241.77 503.806 1243.16 496.638C1244.62 489.083 1237.54 476.17 1237.54 476.17" stroke="black" stroke-width="3.91375" stroke-linecap="round"/>
<path d="M1210.01 390.685C1211.7 370.874 1213.22 357.763 1225.86 342.2C1235.87 329.862 1259.54 318.927 1259.54 318.927C1259.54 318.927 1286.71 291.395 1309.06 282.078C1354.98 262.94 1435.86 297.593 1435.86 297.593C1435.86 297.593 1481.81 291.437 1499.25 309.229C1513.68 323.944 1518.08 339.847 1513.12 359.654C1508.92 376.429 1485.38 394.564 1485.38 394.564C1485.38 394.564 1488.43 420.838 1485.38 437.231C1482.27 453.977 1469.54 477.959 1469.54 477.959L1467.68 410.786C1467.61 408.38 1465.43 406.591 1463.06 406.993C1451.8 408.898 1421.92 413.473 1402.18 412.019C1384.4 410.71 1361.31 404.596 1345.83 399.97C1334.84 396.683 1322.8 396.635 1312.97 402.551C1310.08 404.288 1307.29 406.192 1305.1 408.14C1297.31 415.065 1289.25 429.474 1289.25 429.474L1283.13 471.405C1282.03 478.983 1276.72 485.281 1269.44 487.656L1264.32 474.275C1263.77 472.855 1263.12 471.482 1262.24 470.237C1259.23 465.943 1250.98 455.789 1239.72 454.686C1230.2 453.754 1223.88 454.686 1223.88 454.686C1223.88 454.686 1207.83 416.146 1210.01 390.685Z" fill="black"/>
<path d="M902.611 2544.16C903.638 2538.59 908.494 2534.55 914.157 2534.55H1065.76C1069.4 2534.55 1072.57 2537.06 1073.38 2540.61L1105.87 2681.42C1112.09 2708.4 1091.6 2734.15 1063.92 2734.15H914.57C890.11 2734.15 871.643 2711.96 876.082 2687.91L902.611 2544.16Z" fill="#A9FF5E"/>
<path d="M933.749 2518.52C933.94 2516.51 935.627 2514.98 937.646 2514.98H1043.97C1046.01 2514.98 1047.71 2516.54 1047.88 2518.57L1057.95 2642.87C1058.69 2651.98 1051.49 2659.79 1042.35 2659.79H937.592C928.364 2659.79 921.138 2651.84 922.007 2642.66L933.749 2518.52Z" fill="#D9D9D9"/>
<line x1="955.607" y1="2536.5" x2="1026.05" y2="2536.5" stroke="#589E19" stroke-width="3.91375" stroke-linecap="round"/>
<line x1="955.607" y1="2567.81" x2="1026.05" y2="2567.81" stroke="#589E19" stroke-width="3.91375" stroke-linecap="round"/>
<path d="M990.203 2533.73C990.203 2533.73 914.756 2510.25 940.924 2503.77C977.214 2494.78 990.203 2533.73 990.203 2533.73Z" stroke="#589E19" stroke-width="3.91375" stroke-linecap="round"/>
<path d="M992.791 2534.55C992.791 2534.55 1052.07 2514 1031.51 2508.33C1003 2500.46 992.791 2534.55 992.791 2534.55Z" stroke="#589E19" stroke-width="3.91375" stroke-linecap="round"/>
<line x1="955.607" y1="2599.12" x2="1026.05" y2="2599.12" stroke="#589E19" stroke-width="3.91375" stroke-linecap="round"/>
<line x1="955.607" y1="2634.35" x2="1026.05" y2="2634.35" stroke="#589E19" stroke-width="3.91375" stroke-linecap="round"/>
<rect x="898.859" y="2702.84" width="183.946" height="31.31" rx="15.655" fill="white"/>
<line x1="1.95687" y1="-1.95687" x2="139.045" y2="-1.95687" transform="matrix(-0.0460126 0.998941 -0.999635 -0.0270102 1363.26 1082.59)" stroke="black" stroke-width="3.91375" stroke-linecap="round"/>
<path d="M918.011 867.686C918.011 867.686 946.758 894.867 1003.06 933.106C1027.33 949.588 1089.97 977.679 1089.97 977.679" stroke="black" stroke-width="3.91375" stroke-linecap="round"/>
<line x1="1311.26" y1="1632.82" x2="1296.5" y2="1695.55" stroke="black" stroke-width="3.91375" stroke-linecap="round"/>
<path d="M1361.28 1606.99C1361.28 1606.99 1329.38 1624.7 1317.35 1628.04C1304.26 1631.68 1283.15 1630.36 1283.15 1630.36" stroke="black" stroke-width="3.91375" stroke-linecap="round"/>
<path d="M1141.51 1315.41C1141.51 1315.41 1091.75 1431.34 1071.06 1509.14C1031.63 1657.45 1069.11 1750.71 1035.84 1900.52C1010.74 2013.53 961.455 2067.9 943.846 2182.31C927.323 2289.67 943.846 2460.45 943.846 2460.45" stroke="white" stroke-width="3.91375" stroke-linecap="round"/>
<path d="M1774.31 899.271C1774.31 899.271 1763.18 912.477 1767.71 925.996C1775.04 947.89 1787.28 957.306 1787.28 957.306" stroke="black" stroke-width="3.91375" stroke-linecap="round"/>
<path d="M914.512 1124.38C914.512 1124.38 926.1 1137.18 940.106 1134.51C962.788 1130.19 973.764 1119.33 973.764 1119.33" stroke="black" stroke-width="3.91375" stroke-linecap="round"/>
<path d="M1635.39 957.307C1635.39 957.307 1650.5 999.091 1681.61 1016.01C1731.98 1043.42 1758.98 1031.66 1758.98 1031.66" stroke="black" stroke-width="3.91375" stroke-linecap="round"/>
<path d="M904.814 929.297C904.814 929.297 869.895 956.77 863.609 991.619C853.428 1048.06 873.072 1069.99 873.072 1069.99" stroke="black" stroke-width="3.91375" stroke-linecap="round"/>
<path d="M674.067 1379.99H738.395V1618.71H674.067C674.067 1618.71 620.982 1623.19 620.982 1506.09C620.982 1384.48 674.067 1379.99 674.067 1379.99Z" fill="#787878"/>
<path d="M707.52 1364.34H769.704V1642.19H707.52C707.52 1642.19 656.205 1647.41 656.205 1511.1C656.205 1369.56 707.52 1364.34 707.52 1364.34Z" fill="#555555"/>
<ellipse cx="767.743" cy="1503.27" rx="64.5769" ry="138.938" fill="#8C8C8C"/>
<path d="M770.43 1482.89C772.291 1479.63 775.844 1477.83 779.604 1477.83H1031.93V1532.63H778.196C775.368 1532.63 772.762 1531.11 771.516 1528.57C768.641 1522.71 763.834 1511.66 763.834 1503.27C763.834 1495.88 767.574 1487.9 770.43 1482.89Z" fill="#D9D9D9"/>
<path d="M844.068 1403.47H949.74C949.74 1403.47 956.295 1422.56 965.395 1430.87C972.466 1437.33 986.92 1442.61 986.92 1442.61L981.05 1475.88C981.05 1475.88 971.164 1474.96 965.395 1481.75C950.512 1499.27 977.136 1538.5 977.136 1538.5C977.136 1538.5 962.192 1560.41 949.74 1565.89C933.593 1573 904.732 1569.81 904.732 1569.81L871.465 1565.89L842.111 1561.98C842.111 1561.98 824.989 1517.46 824.499 1487.62C823.946 1453.89 844.068 1403.47 844.068 1403.47Z" fill="#FFC69D"/>
<path d="M1024.53 1364.34H1086.72V1642.19H1024.53C1024.53 1642.19 973.217 1647.41 973.217 1511.1C973.217 1369.56 1024.53 1364.34 1024.53 1364.34Z" fill="#555555"/>
<ellipse cx="1082.81" cy="1503.27" rx="70.4475" ry="138.938" fill="#747474"/>
<path d="M1086.47 1399.56H1133.68V1606.99H1086.47C1086.47 1606.99 1045.62 1610.9 1045.62 1509.15C1045.62 1403.48 1086.47 1399.56 1086.47 1399.56Z" fill="#555555"/>
<ellipse cx="1131.72" cy="1503.27" rx="52.8356" ry="103.714" fill="#747474"/>
<path d="M1158.42 1485.66H1168.91V1520.88H1158.42C1158.42 1520.88 1149.34 1521.55 1149.34 1504.27C1149.34 1486.33 1158.42 1485.66 1158.42 1485.66Z" fill="#B8B8B8"/>
<ellipse cx="1170.86" cy="1503.27" rx="9.78437" ry="17.6119" fill="#E6E6E6"/>
<line x1="1905.11" y1="2738.53" x2="627.832" y2="2738.53" stroke="#275200" stroke-width="13.632" stroke-linecap="round"/>
</svg>
