<svg width="2906" height="3866" viewBox="0 0 2906 3866" fill="none" xmlns="http://www.w3.org/2000/svg">
<path d="M815.714 1940.64L641.252 2199.61L466.749 2049.15L583.704 1830.74L815.714 1940.64Z" fill="#FFC69D"/>
<path d="M825.425 1950.89L642.178 2198.53L533.986 2105.25L669.359 1870.79L825.425 1950.89Z" fill="black"/>
<path d="M622.855 1841.96C625.078 1843.88 625.478 1847.17 623.778 1849.56L493.654 2032.75L175.71 2166.73L4.30891 2112.41L401.816 1651.38L622.855 1841.96Z" fill="#A9FF5E"/>
<path d="M453.521 1695.96L74.3856 2135.68L3.45349e-05 2108.7L401.816 1651.38L453.521 1695.96Z" fill="white"/>
<line x1="438.956" y1="1717.2" x2="123.179" y2="2083.45" stroke="#589E19" stroke-width="5.68915" stroke-linecap="round"/>
<line x1="376.7" y1="1693.57" x2="415.479" y2="1727.01" stroke="#589E19" stroke-width="5.68915" stroke-linecap="round"/>
<line x1="49.7804" y1="2072.74" x2="88.5589" y2="2106.18" stroke="#589E19" stroke-width="5.68915" stroke-linecap="round"/>
<line x1="98.0744" y1="2016.73" x2="136.853" y2="2050.16" stroke="#589E19" stroke-width="5.68915" stroke-linecap="round"/>
<line x1="209.524" y1="1887.47" x2="248.302" y2="1920.9" stroke="#589E19" stroke-width="5.68915" stroke-linecap="round"/>
<line x1="261.534" y1="1827.14" x2="300.313" y2="1860.58" stroke="#589E19" stroke-width="5.68915" stroke-linecap="round"/>
<line x1="320.976" y1="1758.21" x2="359.754" y2="1791.64" stroke="#589E19" stroke-width="5.68915" stroke-linecap="round"/>
<path d="M509.832 2086.3L219.143 2147.22L242.476 2080.95L520.537 2012.9L509.832 2086.3Z" fill="#E7FFDB"/>
<line x1="289.459" y1="2082.01" x2="278.37" y2="2125.83" stroke="#589E19" stroke-width="5.68915" stroke-linecap="round"/>
<line x1="348.748" y1="2065.52" x2="337.659" y2="2109.34" stroke="#589E19" stroke-width="5.68915" stroke-linecap="round"/>
<line x1="400.012" y1="2049.63" x2="385.801" y2="2105.78" stroke="#589E19" stroke-width="5.68915" stroke-linecap="round"/>
<line x1="455.732" y1="2037.36" x2="444.996" y2="2089.14" stroke="#589E19" stroke-width="5.68915" stroke-linecap="round"/>
<path d="M447.182 2090.59C447.182 2090.59 454.956 2132.61 429.983 2161.57C417.129 2176.48 395.903 2174.84 398.556 2155.34C403.519 2118.85 447.182 2090.59 447.182 2090.59ZM447.182 2090.59C447.182 2090.59 458.121 2150.63 501.539 2145.15C536.303 2140.76 509.947 2107.95 490.667 2099.82C467.574 2090.08 447.182 2090.59 447.182 2090.59Z" stroke="#589E19" stroke-width="5.68915"/>
<path d="M1881.08 418.665L2098.93 480.093L2078.8 697.541C2078.8 697.541 2100.06 715.333 2116.14 740.23C2126.42 756.143 2128.35 757.71 2133.38 774.375C2152.17 836.683 2104.68 791.428 2061.61 762.96C2029.37 741.651 1947.34 705.531 1909.05 689.101C1896.72 683.811 1888.54 671.889 1888.15 658.481L1881.08 418.665Z" fill="#FFC69D"/>
<path d="M1882.96 458.63L2093.46 580.947L2084.92 634.994L2082.73 642.291C2078.79 655.447 2068.08 665.607 2054.45 663.851C2029.68 660.657 1986.32 644.752 1937.01 580.947C1909.62 545.516 1882.96 458.63 1882.96 458.63Z" fill="black"/>
<path d="M1889.28 498.639L1840.29 455.839C1840.29 455.839 1807.96 394.422 1826.22 361.915C1833.01 349.824 1863.02 333.097 1863.02 333.097L1912.01 353.167L1983.48 212.24L2224.48 235.937C2224.48 235.937 2232.27 360.41 2224.48 439.541C2216.7 518.648 2170.41 569.569 2144.81 589.48C2057.88 657.092 1889.28 498.639 1889.28 498.639Z" fill="#FFC69D"/>
<ellipse cx="2068.35" cy="371.261" rx="11.3783" ry="31.2903" fill="black"/>
<ellipse cx="2190.32" cy="370.448" rx="11.3783" ry="31.2903" fill="black"/>
<path d="M2157.25 408.252C2157.25 408.252 2169.96 418.806 2175.09 436.53C2180.22 454.254 2169.96 467.164 2169.96 467.164" stroke="black" stroke-width="8.07936" stroke-linecap="round"/>
<path d="M1884.68 400.69C1884.68 400.69 1865.32 373.293 1852.76 384.671C1840.19 396.049 1847.79 419.185 1847.79 419.185" stroke="black" stroke-width="8.07936" stroke-linecap="round"/>
<path d="M1863.66 402.798C1866.24 441.563 1886.92 441.563 1886.92 441.563" stroke="black" stroke-width="8.07936" stroke-linecap="round"/>
<path d="M2115.27 535.417C2115.27 535.417 2099.11 544.786 2075.74 535.417C2052.38 526.048 2050.23 511.073 2050.23 511.073" stroke="black" stroke-width="8.07936" stroke-linecap="round"/>
<path d="M2175.08 321.251C2175.08 321.251 2182.53 315.549 2195.04 314.424C2211.23 312.967 2218.69 315.948 2218.69 315.948" stroke="black" stroke-width="8.07936" stroke-linecap="round"/>
<path d="M2092.05 322.646C2092.05 322.646 2084.13 317.489 2071.56 317.252C2055.29 316.946 2048.12 320.445 2048.12 320.445" stroke="black" stroke-width="8.07936" stroke-linecap="round"/>
<path d="M1504.78 213.996C1555.95 101.665 1651.45 34.9882 1733.46 14.8756C1790.36 0.921896 1830.48 -10.0888 1883.48 14.8756C1922.11 33.0709 1963.04 89.8847 1963.04 89.8847L1883.48 151.256C1883.48 151.256 1813.11 185.071 1785.74 223.992C1718.6 319.476 1863.2 512.677 1863.2 512.677C1863.2 512.677 1868.45 571.989 1863.2 609.392C1858.89 640.077 1843.29 686.196 1843.29 686.196L1288.59 1024.7C1288.59 1024.7 1235.47 854.85 1272.04 780.878C1331.89 659.834 1484.28 676.636 1538.92 561.034C1577.37 479.665 1445.95 343.129 1504.78 213.996Z" fill="black"/>
<path d="M2176.7 101.249C2207.85 127.708 2218.77 148.57 2218.77 148.57C2218.77 148.57 2251.01 212.193 2247.22 228.218C2244.13 241.285 2226.71 255.813 2226.71 255.813C2226.71 255.813 2209.15 241.266 2196.02 235.356C2163.23 220.608 2062.32 228.218 2062.32 228.218C2062.32 228.218 2029.36 233.244 1990.32 255.813C1938.09 286.002 1957.26 417.52 1906.21 385.374C1892.93 377.006 1892.01 359.49 1878.94 355.825C1865.86 352.161 1857.45 351.529 1844.84 355.825C1807.87 368.428 1831.99 439.604 1844.84 455.837C1857.69 472.071 1890.3 483.114 1890.3 483.114C1890.3 483.114 1886.99 494.069 1885.96 501.298C1884.39 512.295 1883.11 526.899 1883.11 526.899L1824.39 492.206C1824.39 492.206 1724.85 310.525 1772.11 208.08C1815.01 115.083 1888.7 75.4204 1990.32 62.6081C2064.07 53.3087 2120.04 53.1255 2176.7 101.249Z" fill="black"/>
<path d="M2224.46 3357.25L2534.52 3320.27V3550.68L2292.73 3604.73L2224.46 3357.25Z" fill="#FFC69D"/>
<path d="M2225.88 3343.2L2533.09 3320.27V3463.13L2267.13 3513.71L2225.88 3343.2Z" fill="black"/>
<path d="M2275.66 3567.75C2275.66 3564.82 2277.89 3562.36 2280.82 3562.09L2504.53 3541.01L2813.62 3694.32L2884.4 3859.61H2275.66V3567.75Z" fill="#A9FF5E"/>
<path d="M2275.66 3791.34H2856.26L2884.4 3865.3L2275.66 3859.61V3791.34Z" fill="white"/>
<line x1="2301.26" y1="3788.49" x2="2784.84" y2="3788.49" stroke="#589E19" stroke-width="5.68915" stroke-linecap="round"/>
<line x1="2324.02" y1="3851.07" x2="2324.02" y2="3799.87" stroke="#589E19" stroke-width="5.68915" stroke-linecap="round"/>
<line x1="2824.66" y1="3851.07" x2="2824.66" y2="3799.87" stroke="#589E19" stroke-width="5.68915" stroke-linecap="round"/>
<line x1="2750.7" y1="3851.07" x2="2750.7" y2="3799.87" stroke="#589E19" stroke-width="5.68915" stroke-linecap="round"/>
<line x1="2580.03" y1="3851.07" x2="2580.03" y2="3799.87" stroke="#589E19" stroke-width="5.68915" stroke-linecap="round"/>
<line x1="2500.38" y1="3851.07" x2="2500.38" y2="3799.87" stroke="#589E19" stroke-width="5.68915" stroke-linecap="round"/>
<line x1="2409.35" y1="3851.07" x2="2409.35" y2="3799.87" stroke="#589E19" stroke-width="5.68915" stroke-linecap="round"/>
<path d="M2534.52 3493.79L2770.47 3674.17L2705.05 3699.77L2471.93 3533.62L2534.52 3493.79Z" fill="#E7FFDB"/>
<line x1="2675.17" y1="3663.5" x2="2715.6" y2="3643.28" stroke="#589E19" stroke-width="5.68915" stroke-linecap="round"/>
<line x1="2623.97" y1="3629.36" x2="2664.4" y2="3609.15" stroke="#589E19" stroke-width="5.68915" stroke-linecap="round"/>
<line x1="2578.46" y1="3600.92" x2="2630.26" y2="3575.01" stroke="#589E19" stroke-width="5.68915" stroke-linecap="round"/>
<line x1="2532.78" y1="3566.73" x2="2579.01" y2="3541.05" stroke="#589E19" stroke-width="5.68915" stroke-linecap="round"/>
<path d="M2578.68 3538.44C2578.68 3538.44 2605.42 3505.12 2643.67 3505.12C2663.35 3505.12 2675.97 3522.26 2659.47 3532.99C2628.59 3553.06 2578.68 3538.44 2578.68 3538.44ZM2578.68 3538.44C2578.68 3538.44 2617.01 3490.95 2584.51 3461.65C2558.48 3438.18 2550.84 3479.57 2557.27 3499.48C2564.98 3523.33 2578.68 3538.44 2578.68 3538.44Z" stroke="#589E19" stroke-width="5.68915"/>
<path d="M1650.02 1500.25L2161.88 1690.33C2161.88 1690.33 1996.07 2287.37 1737.42 2565.63C1654.34 2655.01 1611.9 2716.43 1504.08 2773.46C1330.92 2865.05 1156.53 2695.98 1156.53 2695.98L623.816 2219.67C599.146 2197.61 592.132 2161.85 606.643 2132.1L708.042 1924.28C720.965 1897.79 753.524 1887.65 779.199 1902.12L1156.83 2114.96L1317.89 2185.31C1335.85 2193.16 1356.71 2184.35 1363.67 2166.03C1391.57 2092.54 1458.94 1918.18 1499.82 1838.51C1563.74 1713.99 1650.02 1500.25 1650.02 1500.25Z" fill="#434343"/>
<path d="M1649.85 2270.62C1649.85 2270.62 1456.42 2478.28 1396.69 2478.28C1336.95 2478.28 799.325 2097.1 799.325 2097.1" stroke="white" stroke-width="5.68915" stroke-linecap="round"/>
<path d="M1338.47 2205.72C1337.14 2204.88 1335.38 2205.28 1334.54 2206.61C1333.7 2207.93 1334.09 2209.69 1335.42 2210.53L1336.94 2208.13L1338.47 2205.72ZM1336.94 2208.13C1335.42 2210.53 1335.42 2210.53 1335.42 2210.53C1335.42 2210.53 1335.42 2210.53 1335.42 2210.53C1335.42 2210.53 1335.42 2210.53 1335.42 2210.53C1335.42 2210.53 1335.42 2210.53 1335.43 2210.53C1335.43 2210.54 1335.45 2210.55 1335.47 2210.56C1335.52 2210.6 1335.6 2210.65 1335.71 2210.72C1335.92 2210.86 1336.25 2211.09 1336.69 2211.41C1337.57 2212.05 1338.88 2213.06 1340.59 2214.48C1344.01 2217.32 1348.98 2221.85 1355.12 2228.5C1367.4 2241.81 1384.33 2263.64 1402.72 2297.58L1405.22 2296.23L1407.72 2294.87C1389.12 2260.54 1371.92 2238.32 1359.3 2224.65C1353 2217.81 1347.84 2213.11 1344.23 2210.11C1342.43 2208.6 1341.01 2207.53 1340.04 2206.81C1339.55 2206.46 1339.17 2206.19 1338.9 2206.01C1338.77 2205.92 1338.67 2205.86 1338.6 2205.81C1338.56 2205.78 1338.53 2205.77 1338.51 2205.75C1338.5 2205.74 1338.49 2205.74 1338.48 2205.73C1338.48 2205.73 1338.48 2205.73 1338.47 2205.73C1338.47 2205.73 1338.47 2205.73 1338.47 2205.73C1338.47 2205.73 1338.47 2205.72 1336.94 2208.13Z" fill="white"/>
<path d="M1471.26 2748.47C1471.59 2750.01 1470.6 2751.51 1469.06 2751.84C1467.53 2752.16 1466.02 2751.17 1465.7 2749.63L1468.48 2749.05L1471.26 2748.47ZM1468.48 2749.05C1465.7 2749.63 1465.7 2749.64 1465.7 2749.64C1465.7 2749.64 1465.7 2749.64 1465.7 2749.64C1465.7 2749.63 1465.69 2749.63 1465.69 2749.63C1465.69 2749.62 1465.69 2749.6 1465.68 2749.57C1465.67 2749.53 1465.65 2749.45 1465.63 2749.34C1465.58 2749.14 1465.51 2748.82 1465.4 2748.4C1465.19 2747.57 1464.86 2746.36 1464.39 2744.83C1463.44 2741.77 1461.94 2737.5 1459.71 2732.67C1455.23 2722.98 1447.9 2711.19 1436.43 2702.38C1425.04 2693.63 1409.43 2687.71 1388.07 2689.89C1366.62 2692.08 1339.22 2702.46 1304.44 2726.69L1302.82 2724.35L1301.19 2722.02C1336.43 2697.47 1364.75 2686.56 1387.5 2684.23C1410.33 2681.9 1427.38 2688.25 1439.9 2697.87C1452.35 2707.43 1460.17 2720.11 1464.87 2730.28C1467.23 2735.39 1468.82 2739.9 1469.82 2743.15C1470.33 2744.78 1470.68 2746.09 1470.91 2747C1471.03 2747.46 1471.12 2747.82 1471.17 2748.06C1471.2 2748.19 1471.22 2748.28 1471.24 2748.35C1471.25 2748.39 1471.25 2748.41 1471.26 2748.43C1471.26 2748.44 1471.26 2748.45 1471.26 2748.46C1471.26 2748.46 1471.26 2748.46 1471.26 2748.46C1471.26 2748.47 1471.26 2748.47 1468.48 2749.05Z" fill="white"/>
<path d="M1558.39 2041.66C1469.33 1843.94 1607.18 1576.55 1607.18 1576.55L2146.75 1576.55C2157.72 1576.55 2167.69 1582.8 2172.32 1592.75C2219.01 1692.98 2466.35 2234.48 2511.51 2551.99C2551.14 2830.64 2564.05 3242.2 2567.41 3381.45C2568.07 3408.55 2547.32 3431.08 2520.29 3433.11L2289.59 3450.36C2239.01 3454.14 2194.6 3416.02 2187.76 3365.76C2171.76 3248.11 2131.86 3033.69 2037.45 2822.65C1891.62 2496.66 1662.43 2272.63 1558.39 2041.66Z" fill="#747474"/>
<path d="M1840.44 1659.04C1840.44 1659.04 2090.76 2162.53 2235.83 2518.1C2380.91 2873.68 2372.37 3317.43 2372.37 3317.43" stroke="white" stroke-width="5.68915" stroke-linecap="round"/>
<path d="M2444.72 2387.32C2446.03 2386.45 2447.8 2386.81 2448.67 2388.12C2449.54 2389.42 2449.18 2391.19 2447.87 2392.06L2446.3 2389.69L2444.72 2387.32ZM2446.3 2389.69C2447.87 2392.06 2447.88 2392.06 2447.88 2392.06C2447.88 2392.06 2447.88 2392.06 2447.87 2392.06C2447.87 2392.06 2447.87 2392.06 2447.86 2392.07C2447.85 2392.08 2447.83 2392.09 2447.8 2392.11C2447.74 2392.15 2447.65 2392.22 2447.52 2392.3C2447.28 2392.47 2446.91 2392.73 2446.43 2393.08C2445.48 2393.78 2444.09 2394.83 2442.38 2396.22C2438.96 2399 2434.27 2403.13 2429.23 2408.51C2419.12 2419.29 2407.71 2434.97 2402.14 2454.73C2396.58 2474.41 2396.78 2498.3 2410.13 2525.74C2423.52 2553.25 2450.2 2584.46 2497.87 2618.49L2496.22 2620.81L2494.57 2623.12C2446.42 2588.76 2418.96 2556.88 2405.02 2528.23C2391.04 2499.51 2390.74 2474.18 2396.66 2453.18C2402.56 2432.26 2414.6 2415.8 2425.08 2404.62C2430.32 2399.02 2435.21 2394.72 2438.79 2391.8C2440.58 2390.35 2442.05 2389.24 2443.08 2388.49C2443.59 2388.11 2443.99 2387.83 2444.27 2387.63C2444.41 2387.53 2444.52 2387.46 2444.6 2387.41C2444.63 2387.38 2444.66 2387.36 2444.68 2387.35C2444.7 2387.34 2444.7 2387.34 2444.71 2387.33C2444.71 2387.33 2444.72 2387.33 2444.72 2387.33C2444.72 2387.33 2444.72 2387.32 2446.3 2389.69Z" fill="white"/>
<path d="M2494.72 1517.62C2392.29 1494.05 1983.89 1221.1 1983.89 1221.1L2136.83 968.535L2447.26 1239.73C2452.45 1244.26 2460.44 1243.18 2464.24 1237.43L2641.98 968.535L2791.18 1040.72C2791.18 1040.72 2589.11 1554.19 2494.72 1517.62Z" fill="#FFC69D"/>
<path d="M2537.47 1500.8C2537.47 1500.8 2525.24 1460.01 2480.47 1497.2" stroke="black" stroke-width="5.68915" stroke-linecap="round"/>
<path d="M2435.13 1298.23C2435.13 1298.23 2434.16 1282.08 2437.29 1272.93C2440.45 1263.69 2451.26 1251.44 2451.26 1251.44" stroke="black" stroke-width="5.68915" stroke-linecap="round"/>
<path d="M2772.83 808.455C2760.3 808.767 2736.37 820.815 2736.37 820.815C2736.37 820.815 2724.21 813.244 2715.45 812.423C2703.34 811.289 2685.79 821.921 2685.79 821.921C2685.79 821.921 2673.66 813.779 2664.86 813.529C2652.79 813.186 2637.23 827.407 2637.23 827.407C2637.23 827.407 2602.14 824.07 2584.3 834.925C2551.12 855.122 2564.58 932.425 2564.58 932.425C2564.58 932.425 2569.88 978.558 2580.57 1005.91C2592.03 1035.24 2622.18 1074.97 2622.18 1074.97L2788.74 1053.08C2788.74 1053.08 2818.08 989.945 2817.56 954.551C2816.4 876.312 2820.51 866.277 2794.1 819.882C2788.35 809.775 2784.08 808.175 2772.83 808.455Z" fill="#FFC69D"/>
<path d="M2753.81 912.025L2751.91 913.066L2753.81 912.025ZM2736.98 823.057C2736.96 821.865 2737.91 820.881 2739.1 820.86C2740.29 820.839 2741.28 821.789 2741.3 822.982L2739.14 823.019L2736.98 823.057ZM2780.8 919.731L2781.35 921.819L2780.8 919.731ZM2753.81 912.025L2751.91 913.066C2748.37 906.636 2745.71 897.75 2743.69 888.189C2741.66 878.591 2740.24 868.152 2739.25 858.521C2738.26 848.884 2737.69 840.024 2737.37 833.575C2737.21 830.349 2737.11 827.724 2737.06 825.904C2737.03 824.993 2737.01 824.284 2737 823.801C2736.99 823.56 2736.99 823.375 2736.98 823.25C2736.98 823.187 2736.98 823.14 2736.98 823.108C2736.98 823.092 2736.98 823.079 2736.98 823.071C2736.98 823.067 2736.98 823.063 2736.98 823.061C2736.98 823.06 2736.98 823.059 2736.98 823.059C2736.98 823.058 2736.98 823.057 2739.14 823.019C2741.3 822.982 2741.3 822.982 2741.3 822.982C2741.3 822.982 2741.3 822.983 2741.3 822.984C2741.3 822.985 2741.3 822.988 2741.3 822.992C2741.3 822.999 2741.3 823.01 2741.3 823.025C2741.3 823.055 2741.3 823.1 2741.3 823.16C2741.3 823.28 2741.31 823.46 2741.31 823.696C2741.32 824.169 2741.34 824.868 2741.37 825.767C2741.43 827.565 2741.53 830.164 2741.68 833.361C2742 839.758 2742.56 848.538 2743.54 858.078C2744.53 867.624 2745.93 877.899 2747.92 887.295C2749.91 896.728 2752.47 905.117 2755.7 910.983L2753.81 912.025ZM2798.05 905.98C2799.76 907.301 2799.76 907.301 2799.76 907.302C2799.76 907.302 2799.76 907.302 2799.76 907.303C2799.76 907.303 2799.76 907.304 2799.76 907.305C2799.76 907.308 2799.76 907.31 2799.75 907.314C2799.75 907.321 2799.74 907.331 2799.73 907.344C2799.71 907.369 2799.68 907.405 2799.64 907.451C2799.57 907.543 2799.47 907.676 2799.33 907.843C2799.06 908.178 2798.66 908.655 2798.16 909.232C2797.16 910.384 2795.74 911.945 2794.05 913.581C2790.75 916.773 2786.09 920.563 2781.35 921.819L2780.8 919.731L2780.25 917.644C2783.84 916.693 2787.81 913.606 2791.05 910.475C2792.63 908.949 2793.96 907.487 2794.9 906.405C2795.36 905.865 2795.73 905.422 2795.98 905.118C2796.1 904.965 2796.2 904.847 2796.26 904.769C2796.29 904.73 2796.31 904.701 2796.33 904.683C2796.33 904.673 2796.34 904.667 2796.34 904.663C2796.34 904.661 2796.35 904.659 2796.35 904.659C2796.35 904.659 2796.35 904.658 2796.35 904.658C2796.35 904.659 2796.35 904.659 2796.35 904.659C2796.35 904.659 2796.35 904.659 2798.05 905.98ZM2780.8 919.731L2781.35 921.819C2770.51 924.691 2757.96 924.051 2751.91 913.066L2753.81 912.025L2755.7 910.983C2760.22 919.208 2769.89 920.387 2780.25 917.644L2780.8 919.731Z" fill="black"/>
<path d="M2705.25 917.511L2707.17 916.533L2705.25 917.511ZM2685.05 825.926C2684.99 824.735 2685.9 823.719 2687.09 823.657C2688.28 823.596 2689.3 824.511 2689.36 825.702L2687.2 825.814L2685.05 825.926ZM2731.49 926.93L2731.99 929.033L2731.99 929.033L2731.49 926.93ZM2705.25 917.511L2703.32 918.488C2695.74 903.548 2691.2 880.297 2688.54 861.019C2687.2 851.334 2686.33 842.567 2685.79 836.222C2685.52 833.049 2685.34 830.479 2685.22 828.701C2685.16 827.812 2685.12 827.12 2685.09 826.65C2685.07 826.415 2685.06 826.235 2685.06 826.113C2685.05 826.052 2685.05 826.006 2685.05 825.975C2685.05 825.959 2685.05 825.947 2685.05 825.939C2685.05 825.935 2685.05 825.932 2685.05 825.929C2685.05 825.928 2685.05 825.927 2685.05 825.927C2685.05 825.926 2685.05 825.926 2687.2 825.814C2689.36 825.702 2689.36 825.702 2689.36 825.702C2689.36 825.703 2689.36 825.703 2689.36 825.704C2689.36 825.706 2689.36 825.708 2689.36 825.712C2689.36 825.719 2689.36 825.73 2689.36 825.744C2689.36 825.773 2689.37 825.817 2689.37 825.875C2689.38 825.992 2689.39 826.167 2689.4 826.397C2689.43 826.856 2689.47 827.537 2689.53 828.414C2689.64 830.17 2689.83 832.713 2690.09 835.858C2690.63 842.148 2691.49 850.837 2692.81 860.429C2695.47 879.707 2699.95 902.305 2707.17 916.533L2705.25 917.511ZM2751.24 912.426C2752.89 913.821 2752.89 913.821 2752.89 913.822C2752.89 913.822 2752.89 913.822 2752.89 913.823C2752.89 913.823 2752.89 913.824 2752.89 913.825C2752.89 913.828 2752.88 913.831 2752.88 913.834C2752.87 913.842 2752.87 913.852 2752.85 913.866C2752.83 913.892 2752.8 913.93 2752.76 913.979C2752.67 914.076 2752.55 914.217 2752.39 914.395C2752.08 914.75 2751.62 915.256 2751.04 915.868C2749.88 917.091 2748.24 918.746 2746.3 920.474C2742.49 923.857 2737.21 927.811 2731.99 929.033L2731.49 926.93L2731 924.827C2735.1 923.87 2739.69 920.571 2743.43 917.247C2745.26 915.622 2746.81 914.059 2747.9 912.903C2748.44 912.325 2748.87 911.852 2749.16 911.525C2749.31 911.361 2749.42 911.235 2749.49 911.151C2749.53 911.108 2749.56 911.077 2749.57 911.057C2749.58 911.047 2749.59 911.039 2749.59 911.035C2749.59 911.033 2749.6 911.031 2749.6 911.031C2749.6 911.03 2749.6 911.03 2749.6 911.03C2749.6 911.03 2749.6 911.03 2749.6 911.03C2749.6 911.03 2749.6 911.031 2751.24 912.426ZM2731.49 926.93L2731.99 929.033C2726.19 930.388 2720.51 930.651 2715.49 929.093C2710.4 927.51 2706.17 924.1 2703.32 918.488L2705.25 917.511L2707.17 916.533C2709.51 921.139 2712.83 923.743 2716.77 924.968C2720.8 926.218 2725.64 926.082 2731 924.827L2731.49 926.93Z" fill="black"/>
<path d="M2651.46 923.579L2649.73 924.873V924.873L2651.46 923.579ZM2636.28 827.906C2636.38 826.718 2637.43 825.838 2638.62 825.941C2639.81 826.044 2640.69 827.091 2640.58 828.279L2638.43 828.092L2636.28 827.906ZM2681.31 930.133L2680.81 928.034L2681.31 930.133ZM2651.46 923.579L2649.73 924.873C2644.68 918.125 2641.4 908.606 2639.26 898.345C2637.11 888.042 2636.07 876.775 2635.63 866.367C2635.19 855.95 2635.35 846.343 2635.63 839.343C2635.76 835.842 2635.93 832.989 2636.05 831.009C2636.12 830.018 2636.18 829.246 2636.22 828.72C2636.24 828.457 2636.25 828.255 2636.26 828.118C2636.27 828.05 2636.27 827.997 2636.28 827.962C2636.28 827.944 2636.28 827.931 2636.28 827.921C2636.28 827.917 2636.28 827.913 2636.28 827.91C2636.28 827.909 2636.28 827.908 2636.28 827.907C2636.28 827.907 2636.28 827.906 2638.43 828.092C2640.58 828.279 2640.58 828.279 2640.58 828.279C2640.58 828.279 2640.58 828.28 2640.58 828.281C2640.58 828.282 2640.58 828.285 2640.58 828.289C2640.58 828.297 2640.58 828.308 2640.58 828.324C2640.58 828.356 2640.57 828.405 2640.57 828.47C2640.56 828.599 2640.54 828.794 2640.52 829.05C2640.48 829.561 2640.43 830.317 2640.36 831.291C2640.24 833.238 2640.08 836.052 2639.94 839.511C2639.67 846.431 2639.51 855.917 2639.95 866.185C2640.38 876.462 2641.4 887.474 2643.49 897.464C2645.58 907.496 2648.7 916.286 2653.19 922.285L2651.46 923.579ZM2702.94 914.401C2704.57 915.812 2704.57 915.812 2704.57 915.813C2704.57 915.813 2704.57 915.813 2704.57 915.814C2704.57 915.815 2704.57 915.815 2704.57 915.817C2704.56 915.819 2704.56 915.822 2704.56 915.826C2704.55 915.834 2704.54 915.845 2704.53 915.859C2704.5 915.888 2704.47 915.928 2704.42 915.98C2704.33 916.085 2704.2 916.235 2704.02 916.426C2703.68 916.808 2703.17 917.353 2702.54 918.011C2701.28 919.327 2699.48 921.109 2697.36 922.973C2693.19 926.63 2687.44 930.877 2681.82 932.232L2681.31 930.133L2680.81 928.034C2685.34 926.943 2690.4 923.324 2694.51 919.726C2696.52 917.963 2698.22 916.27 2699.43 915.019C2700.03 914.394 2700.5 913.881 2700.82 913.527C2700.98 913.35 2701.1 913.213 2701.19 913.121C2701.23 913.075 2701.26 913.041 2701.28 913.019C2701.29 913.008 2701.29 913 2701.3 912.995C2701.3 912.993 2701.3 912.991 2701.3 912.99C2701.3 912.99 2701.3 912.989 2701.3 912.989C2701.3 912.989 2701.3 912.989 2701.3 912.989C2701.3 912.99 2701.3 912.99 2702.94 914.401ZM2681.31 930.133L2681.82 932.232C2670.11 935.054 2657.74 935.567 2649.73 924.873L2651.46 923.579L2653.19 922.285C2659.49 930.698 2669.31 930.804 2680.81 928.034L2681.31 930.133Z" fill="black"/>
<path d="M2623.92 929.911C2633.36 937.437 2645.03 930.708 2654.67 918.617C2664.3 906.526 2668.26 893.652 2658.81 886.126C2649.37 878.6 2643.3 870.513 2633.66 882.603C2624.03 894.694 2614.48 922.386 2623.92 929.911Z" fill="#FFC69D"/>
<path d="M2567.01 931.595C2567.01 931.595 2571.36 915.736 2629.31 884.602C2643.03 877.232 2655.25 869.378 2661.69 885.553C2666.12 896.69 2658.36 910.516 2651.63 918.959C2646.9 924.895 2634.13 940.913 2634.13 940.913C2634.13 940.913 2649.56 964.532 2653.76 978.648C2659.58 998.181 2643.42 1036.67 2643.42 1036.67" stroke="black" stroke-width="4.31883" stroke-linecap="round"/>
<path d="M1215.02 1083.51C1372.65 939.961 1518.51 844.385 1518.51 844.385L1698.6 1063.6L1550.68 1157.47L1485.37 1201.79C1478.59 1206.39 1478.74 1216.42 1485.65 1220.81L1601.88 1294.66L1781.09 1403.39L1678.69 1561.4L1222.09 1345.26C1206.03 1337.66 1190.46 1328.74 1178.58 1315.53C1146.06 1279.37 1095.1 1192.73 1215.02 1083.51Z" fill="#FFC69D"/>
<path d="M1185.28 1296.9C1185.28 1296.9 1214.9 1266.29 1160.59 1245.39" stroke="black" stroke-width="5.68915" stroke-linecap="round"/>
<path d="M1399.53 930.829L1466.64 874.217L1643.83 1098.01L1573.52 1141.61C1573.52 1141.61 1535.67 1066.25 1501.6 1025.35C1465.37 981.849 1399.53 930.829 1399.53 930.829Z" fill="black"/>
<path d="M1365.39 1169.85C1365.39 1169.85 1400.17 1176.14 1421.3 1183.9C1442.64 1191.73 1473.49 1209.68 1473.49 1209.68" stroke="black" stroke-width="5.68915" stroke-linecap="round"/>
<path d="M1666.66 702.1C1776.46 629.086 1975.65 678.785 2062.54 705.921C2090.42 714.627 2113.49 733.506 2127.6 759.081C2173.92 843.052 2271.27 1045.96 2221.94 1191.68C2155.77 1387.16 2162.78 1499.16 2171.86 1546.5C2174.59 1560.7 2166.02 1576.27 2151.84 1579.06C2095.57 1590.1 1965.14 1613.74 1880.23 1613.53C1791.94 1613.31 1657.04 1589.01 1609.73 1579.94C1601.66 1578.39 1597.79 1568.98 1602.11 1561.99C1626.98 1521.73 1692.4 1402.34 1695.14 1256.35C1699.89 1003.86 1473 830.89 1666.66 702.1Z" fill="#A9FF5E"/>
<path d="M1882.62 686.112C1965.95 763.959 1897.56 904.093 1833.71 1025.66C1804.56 1081.16 1759.73 1129.36 1727.09 1160.16C1708.75 1177.46 1680.13 1167.09 1675.16 1142.37L1661.23 1073.06L1502.49 945.153C1488.81 934.131 1485.92 914.552 1496.43 900.473C1557.62 818.493 1759.2 570.808 1882.62 686.112Z" fill="black"/>
<path d="M1906.32 704.903C1971.23 798.656 1874.67 921.091 1786.49 1026.34C1745.49 1075.27 1708.77 1114.2 1685.5 1137.96C1671.64 1152.1 1648.85 1150.75 1636.28 1135.45L1440.74 897.52C1429.28 883.586 1430.88 863.183 1444.75 851.652C1529.4 781.272 1809.67 565.313 1906.32 704.903Z" fill="#A9FF5E"/>
<path d="M1485.21 851.18C1485.21 851.18 1562.8 922.302 1601.49 970.652C1641.3 1020.38 1684.33 1101.5 1684.33 1101.5" stroke="#557E30" stroke-width="5.68915" stroke-linecap="round"/>
<path d="M2136.28 805.667C2136.28 805.667 2113.75 799.978 2085.08 780.066C1982.67 708.951 1903.02 686.195 1903.02 686.195" stroke="black" stroke-width="5.68915" stroke-linecap="round"/>
<path d="M2116.36 1511.12V1562.32" stroke="#557E30" stroke-width="5.68915" stroke-linecap="round"/>
<path d="M1848.97 1550.95V1585.08" stroke="#557E30" stroke-width="5.68915" stroke-linecap="round"/>
<path d="M1894.49 1545.26V1590.77" stroke="#557E30" stroke-width="5.68915" stroke-linecap="round"/>
<path d="M1945.69 1545.26V1590.77" stroke="#557E30" stroke-width="5.68915" stroke-linecap="round"/>
<path d="M1991.2 1539.57V1585.08" stroke="#557E30" stroke-width="5.68915" stroke-linecap="round"/>
<path d="M2036.72 1528.19V1579.39" stroke="#557E30" stroke-width="5.68915" stroke-linecap="round"/>
<path d="M2076.54 1522.5V1573.7" stroke="#557E30" stroke-width="5.68915" stroke-linecap="round"/>
<path d="M2154.68 1478.12C2154.68 1478.12 2016.3 1523.8 1934.04 1521.9C1849.42 1519.94 1713.28 1509.52 1713.28 1509.52" stroke="#557E30" stroke-width="5.68915" stroke-linecap="round"/>
<path d="M2136.46 1561.63C2136.46 1561.63 1980.57 1598.96 1889.28 1592.13C1795.38 1585.1 1644.64 1566.53 1644.64 1566.53" stroke="#557E30" stroke-width="5.68915" stroke-linecap="round"/>
<path d="M1664.36 1338C1664.36 1338 1729 1349.19 1761.25 1365.02C1793.5 1380.85 1829.52 1419.07 1829.52 1419.07C1829.52 1419.07 1846.42 1431.43 1846.66 1444.67C1846.9 1458.33 1838.72 1472.46 1829.52 1478.81C1821.99 1484.01 1820.99 1484.5 1809.61 1478.81C1818.15 1487.34 1817.16 1485.48 1815.3 1493.03C1813.16 1501.73 1804.68 1512.41 1798.23 1518.63C1790.36 1526.23 1789.7 1525.74 1781.17 1524.32C1784.01 1530.01 1786.1 1530.15 1784.01 1538.54C1781.43 1548.91 1770.09 1559.56 1761.25 1565.57C1754.57 1570.11 1755.56 1568.41 1744.19 1568.41C1747.1 1578.37 1748.67 1576.44 1747.1 1584.06C1744.78 1595.26 1733.78 1603.2 1724.34 1609.66C1709.42 1619.87 1714.75 1617.71 1701.58 1615.35C1655.04 1607.01 1627.72 1586.77 1602.02 1547.08C1589.8 1528.19 1564.98 1493.03 1564.98 1493.03L1664.36 1338Z" fill="#FFC69D"/>
<line x1="1737.59" y1="1562.57" x2="1708.54" y2="1548.05" stroke="black" stroke-width="5.68915" stroke-linecap="round"/>
<line x1="1777.42" y1="1522.75" x2="1748.37" y2="1508.22" stroke="black" stroke-width="5.68915" stroke-linecap="round"/>
<line x1="1805.86" y1="1477.23" x2="1776.81" y2="1462.71" stroke="black" stroke-width="5.68915" stroke-linecap="round"/>
</svg>
