<svg width="3090" height="3193" viewBox="0 0 3090 3193" fill="none" xmlns="http://www.w3.org/2000/svg">
<path d="M984.506 2604.72L1188.81 2621.48C1188.81 2621.48 1170.71 2841.36 1199.7 3009.72C1228.7 3178.08 1226.94 3188.48 1226.94 3188.48H1082.57H886.441C886.441 3188.48 930.442 3066.85 973.61 2937.1C1042.48 2730.11 984.506 2604.72 984.506 2604.72Z" fill="#A5ED00"/>
<ellipse cx="1089.82" cy="2208.01" rx="117.318" ry="100.558" fill="#A5ED00"/>
<ellipse cx="1101" cy="2541.34" rx="337.057" ry="143.389" fill="#A5ED00"/>
<ellipse cx="1100.99" cy="2364.43" rx="206.703" ry="119.18" fill="#A5ED00"/>
<ellipse cx="1106.58" cy="2749.91" rx="398.509" ry="162.011" fill="#A5ED00"/>
<path d="M389.996 2148.29L733.961 2118.26C733.961 2118.26 696.221 2518.84 733.961 2683.4C771.702 2847.96 886.441 3188.48 886.441 3188.48H620.488H329.713C329.713 3188.48 439.64 3161.45 439.64 2683.4C439.64 2469.62 389.996 2148.29 389.996 2148.29Z" fill="#8AC500"/>
<ellipse cx="570.241" cy="2196.64" rx="375.656" ry="310.795" fill="#8AC500"/>
<ellipse cx="472.949" cy="2404.73" rx="278.364" ry="248.636" fill="#8AC500"/>
<ellipse cx="237.826" cy="2318.25" rx="237.826" ry="189.179" fill="#8AC500"/>
<ellipse cx="813.472" cy="2323.66" rx="278.364" ry="248.636" fill="#8AC500"/>
<path d="M2469.99 2481.39L2759.32 2458.78C2759.32 2458.78 2697.08 2759.65 2726.15 2880.38C2755.22 3001.12 2799.86 3177.67 2799.86 3177.67H2394.47C2394.47 3177.67 2478.78 2977.3 2501.35 2880.38C2536.9 2727.68 2469.99 2481.39 2469.99 2481.39Z" fill="#9CDF00"/>
<ellipse cx="2505.28" cy="2253.39" rx="229.718" ry="221.61" fill="#9CDF00"/>
<circle cx="2616.08" cy="2556.08" r="156.749" fill="#9CDF00"/>
<ellipse cx="2397.17" cy="2475" rx="202.692" ry="189.179" fill="#9CDF00"/>
<ellipse cx="2816.07" cy="2361.49" rx="237.826" ry="243.231" fill="#9CDF00"/>
<line x1="2821.77" y1="3184.14" x2="1570.37" y2="3184.14" stroke="#6A9700" stroke-width="14.8975" stroke-linecap="round"/>
<line x1="1257.35" y1="3185.12" x2="315.541" y2="3185.12" stroke="#6A9700" stroke-width="14.8975" stroke-linecap="round"/>
<path d="M351.639 756.838C351.639 699.152 405.468 657.355 462.841 651.339C509.332 646.464 552.755 628.43 552.755 578.068C552.755 412.333 778.932 356.662 902.847 432.817C942.364 457.103 949.867 492.146 992.232 511.029C1050.68 537.083 1113.27 492.407 1193.35 550.135C1290.7 620.315 1226.85 681.969 1265.97 687.938C1299.74 693.088 1324.53 696.656 1342.68 699.127C1369.18 702.735 1390.74 726.375 1390.74 753.115V756.838H351.639Z" fill="white"/>
<path d="M2943.81 868.551C2943.81 824.166 2902.19 792.248 2858.12 787.007C2823.88 782.937 2792.43 768.836 2792.43 730.756C2792.43 603.01 2622.19 560.099 2528.92 618.798C2499.18 637.518 2493.53 664.528 2461.64 679.083C2417.65 699.166 2370.54 664.73 2310.26 709.226C2236.99 763.32 2285.05 810.842 2255.6 815.443C2232.42 819.064 2214.85 821.67 2201.58 823.546C2179.6 826.651 2161.69 846.354 2161.69 868.551H2943.81Z" fill="white"/>
<path d="M2388.88 578.049C2388.88 534.418 2345.32 506.127 2303.66 493.174C2282.08 486.466 2264.89 471.361 2264.89 440.255C2264.89 312.508 2125.46 269.597 2049.06 328.297C2024.7 347.016 2020.08 374.026 1993.96 388.582C1957.92 408.664 1919.34 374.228 1869.97 418.724C1809.96 472.818 1849.32 520.34 1825.2 524.941C1810.05 527.83 1797.83 530.074 1787.98 531.815C1766.13 535.681 1748.28 555.853 1748.28 578.049H2388.88Z" fill="#8AC500"/>
<path d="M670.072 964.454L710.308 991.75C715.753 995.444 722.975 995.129 728.077 990.975L752.059 971.452C757.161 967.298 764.384 966.983 769.828 970.677L801.964 992.478C806.881 995.814 813.31 995.909 818.323 992.721L854.213 969.894C859.375 966.611 866.019 966.818 870.967 970.414L899.608 991.233C905.075 995.206 912.532 995.002 917.773 990.735L941.317 971.568C946.487 967.36 953.823 967.098 959.28 970.927L997.818 997.973" stroke="#557E30" stroke-width="11.1731" stroke-linecap="round"/>
<path d="M670.072 1042.66L710.308 1069.96C715.753 1073.65 722.975 1073.34 728.077 1069.19L752.059 1049.66C757.161 1045.51 764.384 1045.19 769.828 1048.89L801.964 1070.69C806.881 1074.02 813.31 1074.12 818.323 1070.93L854.213 1048.11C859.375 1044.82 866.019 1045.03 870.967 1048.63L899.608 1069.44C905.075 1073.42 912.532 1073.21 917.773 1068.95L941.317 1049.78C946.487 1045.57 953.823 1045.31 959.28 1049.14L997.818 1076.18" stroke="#557E30" stroke-width="11.1731" stroke-linecap="round"/>
<path d="M670.072 1120.88L710.308 1148.17C715.753 1151.87 722.975 1151.55 728.077 1147.4L752.059 1127.88C757.161 1123.72 764.384 1123.41 769.828 1127.1L801.964 1148.9C806.881 1152.24 813.31 1152.33 818.323 1149.14L854.213 1126.32C859.375 1123.04 866.019 1123.24 870.967 1126.84L899.608 1147.66C905.075 1151.63 912.532 1151.43 917.773 1147.16L941.317 1127.99C946.487 1123.78 953.823 1123.52 959.28 1127.35L997.818 1154.4" stroke="#557E30" stroke-width="11.1731" stroke-linecap="round"/>
<path d="M2545.3 1687.92L2582.36 1714.57C2587.95 1718.6 2595.58 1718.26 2600.79 1713.76L2621.84 1695.59C2627.06 1691.09 2634.68 1690.75 2640.27 1694.78L2668.91 1715.38C2673.97 1719.02 2680.77 1719.12 2685.94 1715.63L2718.13 1693.92C2723.45 1690.34 2730.47 1690.56 2735.56 1694.48L2760.91 1714.02C2766.52 1718.33 2774.38 1718.12 2779.74 1713.49L2800.33 1695.72C2805.61 1691.16 2813.36 1690.88 2818.96 1695.05L2854.42 1721.43" stroke="white" stroke-width="11.1731" stroke-linecap="round"/>
<path d="M2545.3 1766.13L2582.36 1792.79C2587.95 1796.81 2595.58 1796.47 2600.79 1791.97L2621.84 1773.81C2627.06 1769.3 2634.68 1768.97 2640.27 1772.99L2668.91 1793.59C2673.97 1797.23 2680.77 1797.33 2685.94 1793.85L2718.13 1772.14C2723.45 1768.55 2730.47 1768.77 2735.56 1772.69L2760.91 1792.23C2766.52 1796.55 2774.38 1796.33 2779.74 1791.71L2800.33 1773.93C2805.61 1769.37 2813.36 1769.09 2818.96 1773.26L2854.42 1799.65" stroke="white" stroke-width="11.1731" stroke-linecap="round"/>
<path d="M815.24 1595.35L671.819 1808.25L528.364 1684.56L624.51 1505.01L815.24 1595.35Z" fill="#FFC69D"/>
<path d="M823.224 1603.78L672.581 1807.36L583.639 1730.68L694.926 1537.93L823.224 1603.78Z" fill="black"/>
<path d="M656.698 1514.23C658.525 1515.81 658.854 1518.52 657.457 1520.48L550.485 1671.08L289.111 1781.22L148.206 1736.56L474.987 1357.56L656.698 1514.23Z" fill="#A9FF5E"/>
<path d="M517.487 1394.21L205.809 1755.69L144.659 1733.51L474.982 1357.56L517.487 1394.21Z" fill="white"/>
<line x1="505.517" y1="1411.67" x2="245.925" y2="1712.75" stroke="#589E19" stroke-width="4.67692" stroke-linecap="round"/>
<line x1="454.341" y1="1392.25" x2="486.22" y2="1419.74" stroke="#589E19" stroke-width="4.67692" stroke-linecap="round"/>
<line x1="185.583" y1="1703.96" x2="217.462" y2="1731.44" stroke="#589E19" stroke-width="4.67692" stroke-linecap="round"/>
<line x1="225.287" y1="1657.91" x2="257.166" y2="1685.39" stroke="#589E19" stroke-width="4.67692" stroke-linecap="round"/>
<line x1="316.905" y1="1551.64" x2="348.784" y2="1579.13" stroke="#589E19" stroke-width="4.67692" stroke-linecap="round"/>
<line x1="359.661" y1="1502.05" x2="391.54" y2="1529.54" stroke="#589E19" stroke-width="4.67692" stroke-linecap="round"/>
<line x1="408.529" y1="1445.38" x2="440.407" y2="1472.87" stroke="#589E19" stroke-width="4.67692" stroke-linecap="round"/>
<path d="M563.778 1715.1L324.808 1765.18L343.99 1710.7L572.578 1654.76L563.778 1715.1Z" fill="#E7FFDB"/>
<line x1="382.617" y1="1711.57" x2="373.501" y2="1747.59" stroke="#589E19" stroke-width="4.67692" stroke-linecap="round"/>
<line x1="431.358" y1="1698.02" x2="422.242" y2="1734.04" stroke="#589E19" stroke-width="4.67692" stroke-linecap="round"/>
<line x1="473.501" y1="1684.95" x2="461.819" y2="1731.11" stroke="#589E19" stroke-width="4.67692" stroke-linecap="round"/>
<line x1="519.308" y1="1674.86" x2="510.482" y2="1717.43" stroke="#589E19" stroke-width="4.67692" stroke-linecap="round"/>
<path d="M512.28 1718.63C512.28 1718.63 518.67 1753.17 498.141 1776.98C487.574 1789.23 470.124 1787.89 472.305 1771.86C476.385 1741.86 512.28 1718.63 512.28 1718.63ZM512.28 1718.63C512.28 1718.63 521.273 1767.99 556.965 1763.48C585.544 1759.87 563.877 1732.9 548.027 1726.22C529.043 1718.21 512.28 1718.63 512.28 1718.63Z" stroke="#589E19" stroke-width="4.67692"/>
<path d="M1691.04 344.176L1870.14 394.674L1853.59 573.434C1853.59 573.434 1871.06 588.06 1884.28 608.527C1892.73 621.609 1894.32 622.897 1898.46 636.597C1913.91 687.819 1874.87 650.616 1839.46 627.213C1812.95 609.695 1745.51 580.002 1714.04 566.495C1703.91 562.147 1697.18 552.346 1696.86 541.323L1691.04 344.176Z" fill="#FFC69D"/>
<path d="M1692.59 377.029L1865.64 477.583L1858.62 522.014L1856.82 528.012C1853.58 538.827 1844.77 547.18 1833.57 545.736C1813.2 543.111 1777.57 530.036 1737.02 477.583C1714.51 448.456 1692.59 377.029 1692.59 377.029Z" fill="black"/>
<path d="M1697.79 409.919L1657.52 374.734C1657.52 374.734 1630.94 324.244 1645.95 297.521C1651.53 287.581 1676.21 273.831 1676.21 273.831L1716.48 290.329L1775.23 174.477L1973.35 193.958C1973.35 193.958 1979.75 296.284 1973.35 361.335C1966.96 426.368 1928.9 468.228 1907.85 484.597C1836.39 540.179 1697.79 409.919 1697.79 409.919Z" fill="#FFC69D"/>
<ellipse cx="1845" cy="305.204" rx="9.35384" ry="25.7231" fill="black"/>
<ellipse cx="1945.27" cy="304.536" rx="9.35384" ry="25.7231" fill="black"/>
<path d="M1918.08 335.614C1918.08 335.614 1928.53 344.29 1932.75 358.86C1936.96 373.431 1928.53 384.044 1928.53 384.044" stroke="black" stroke-width="6.64185" stroke-linecap="round"/>
<path d="M1694.01 329.397C1694.01 329.397 1678.09 306.875 1667.77 316.228C1657.44 325.582 1663.68 344.602 1663.68 344.602" stroke="black" stroke-width="6.64185" stroke-linecap="round"/>
<path d="M1676.73 331.13C1678.85 362.998 1695.85 362.998 1695.85 362.998" stroke="black" stroke-width="6.64185" stroke-linecap="round"/>
<path d="M1883.57 440.154C1883.57 440.154 1870.29 447.855 1851.08 440.153C1831.87 432.452 1830.1 420.141 1830.1 420.141" stroke="black" stroke-width="6.64185" stroke-linecap="round"/>
<path d="M1932.74 264.091C1932.74 264.091 1938.86 259.404 1949.15 258.479C1962.46 257.281 1968.59 259.732 1968.59 259.732" stroke="black" stroke-width="6.64185" stroke-linecap="round"/>
<path d="M1864.48 265.238C1864.48 265.238 1857.97 260.999 1847.64 260.804C1834.26 260.553 1828.37 263.429 1828.37 263.429" stroke="black" stroke-width="6.64185" stroke-linecap="round"/>
<path d="M1381.71 175.921C1423.77 83.5767 1502.28 28.763 1569.7 12.2289C1616.48 0.757869 1649.46 -8.29379 1693.03 12.2289C1724.78 27.1868 1758.43 73.8921 1758.43 73.8921L1693.03 124.344C1693.03 124.344 1635.18 152.143 1612.68 184.138C1557.49 262.634 1676.35 421.459 1676.35 421.459C1676.35 421.459 1680.67 470.219 1676.35 500.967C1672.81 526.192 1659.98 564.105 1659.98 564.105L1203.98 842.382C1203.98 842.382 1160.31 702.752 1190.38 641.941C1239.58 542.434 1364.85 556.247 1409.77 461.213C1441.38 394.321 1333.35 282.078 1381.71 175.921Z" fill="black"/>
<path d="M1934.08 83.2354C1959.68 104.987 1968.66 122.137 1968.66 122.137C1968.66 122.137 1995.17 174.439 1992.05 187.614C1989.5 198.355 1975.19 210.299 1975.19 210.299C1975.19 210.299 1960.75 198.34 1949.95 193.482C1923 181.357 1840.05 187.614 1840.05 187.614C1840.05 187.614 1812.95 191.745 1780.85 210.299C1737.92 235.117 1753.68 343.234 1711.72 316.808C1700.79 309.928 1700.04 295.529 1689.29 292.517C1678.54 289.504 1671.62 288.985 1661.26 292.517C1630.87 302.877 1650.7 361.389 1661.26 374.734C1671.83 388.08 1698.63 397.157 1698.63 397.157C1698.63 397.157 1695.91 406.164 1695.06 412.106C1693.77 421.147 1692.72 433.152 1692.72 433.152L1644.45 404.632C1644.45 404.632 1562.62 255.276 1601.47 171.059C1636.74 94.6078 1697.32 62.0021 1780.85 51.4694C1841.48 43.8246 1887.5 43.6741 1934.08 83.2354Z" fill="black"/>
<path d="M1973.34 2759.92L2228.23 2729.52V2918.94L2029.46 2963.37L1973.34 2759.92Z" fill="#FFC69D"/>
<path d="M1974.5 2748.37L2227.06 2729.52V2846.96L2008.41 2888.54L1974.5 2748.37Z" fill="black"/>
<path d="M2015.43 2932.97C2015.43 2930.55 2017.26 2928.54 2019.66 2928.31L2203.57 2910.99L2457.67 3037.02L2515.86 3172.89H2015.43V2932.97Z" fill="#A9FF5E"/>
<path d="M2015.43 3116.77H2492.73L2515.86 3177.57L2015.43 3172.89V3116.77Z" fill="white"/>
<line x1="2036.47" y1="3114.43" x2="2434.01" y2="3114.43" stroke="#589E19" stroke-width="4.67692" stroke-linecap="round"/>
<line x1="2055.18" y1="3165.88" x2="2055.18" y2="3123.78" stroke="#589E19" stroke-width="4.67692" stroke-linecap="round"/>
<line x1="2466.75" y1="3165.88" x2="2466.75" y2="3123.78" stroke="#589E19" stroke-width="4.67692" stroke-linecap="round"/>
<line x1="2405.95" y1="3165.88" x2="2405.95" y2="3123.78" stroke="#589E19" stroke-width="4.67692" stroke-linecap="round"/>
<line x1="2265.64" y1="3165.88" x2="2265.64" y2="3123.78" stroke="#589E19" stroke-width="4.67692" stroke-linecap="round"/>
<line x1="2200.17" y1="3165.88" x2="2200.17" y2="3123.78" stroke="#589E19" stroke-width="4.67692" stroke-linecap="round"/>
<line x1="2125.33" y1="3165.88" x2="2125.33" y2="3123.78" stroke="#589E19" stroke-width="4.67692" stroke-linecap="round"/>
<path d="M2228.23 2872.17L2422.2 3020.45L2368.42 3041.5L2176.78 2904.91L2228.23 2872.17Z" fill="#E7FFDB"/>
<line x1="2343.86" y1="3011.68" x2="2377.09" y2="2995.06" stroke="#589E19" stroke-width="4.67692" stroke-linecap="round"/>
<line x1="2301.76" y1="2983.61" x2="2334.99" y2="2967" stroke="#589E19" stroke-width="4.67692" stroke-linecap="round"/>
<line x1="2264.35" y1="2960.23" x2="2306.93" y2="2938.94" stroke="#589E19" stroke-width="4.67692" stroke-linecap="round"/>
<line x1="2226.8" y1="2932.12" x2="2264.8" y2="2911.01" stroke="#589E19" stroke-width="4.67692" stroke-linecap="round"/>
<path d="M2264.54 2908.87C2264.54 2908.87 2286.52 2881.48 2317.96 2881.48C2334.14 2881.48 2344.52 2895.57 2330.95 2904.39C2305.57 2920.89 2264.54 2908.87 2264.54 2908.87ZM2264.54 2908.87C2264.54 2908.87 2296.04 2869.83 2269.32 2845.74C2247.93 2826.45 2241.65 2860.47 2246.94 2876.84C2253.27 2896.45 2264.54 2908.87 2264.54 2908.87Z" stroke="#589E19" stroke-width="4.67692"/>
<path d="M1501.1 1233.32L1921.88 1389.58C1921.88 1389.58 1785.58 1880.4 1572.95 2109.14C1504.65 2182.62 1469.76 2233.11 1381.13 2280C1238.78 2355.29 1095.41 2216.3 1095.41 2216.3L657.481 1824.74C637.2 1806.6 631.434 1777.2 643.364 1752.75L726.721 1581.9C737.345 1560.13 764.111 1551.79 785.218 1563.69L1095.66 1738.66L1228.06 1796.49C1242.83 1802.94 1259.98 1795.71 1265.7 1780.64C1288.63 1720.23 1344.01 1576.89 1377.63 1511.4C1430.17 1409.03 1501.1 1233.32 1501.1 1233.32Z" fill="#434343"/>
<path d="M1500.96 1866.63C1500.96 1866.63 1341.95 2037.33 1292.84 2037.33C1243.73 2037.33 801.764 1723.98 801.764 1723.98" stroke="white" stroke-width="4.67692" stroke-linecap="round"/>
<path d="M1244.98 1813.27C1243.89 1812.58 1242.44 1812.91 1241.75 1814C1241.06 1815.09 1241.39 1816.53 1242.48 1817.23L1243.73 1815.25L1244.98 1813.27ZM1243.73 1815.25C1242.48 1817.23 1242.48 1817.22 1242.47 1817.22C1242.47 1817.22 1242.47 1817.22 1242.47 1817.22C1242.47 1817.22 1242.47 1817.22 1242.47 1817.22C1242.47 1817.22 1242.48 1817.23 1242.48 1817.23C1242.49 1817.23 1242.5 1817.24 1242.52 1817.25C1242.56 1817.28 1242.62 1817.32 1242.71 1817.38C1242.89 1817.5 1243.16 1817.69 1243.52 1817.95C1244.24 1818.48 1245.32 1819.3 1246.73 1820.47C1249.53 1822.81 1253.63 1826.53 1258.67 1832C1268.77 1842.94 1282.69 1860.89 1297.8 1888.79L1299.85 1887.67L1301.91 1886.56C1286.62 1858.34 1272.48 1840.07 1262.11 1828.83C1256.93 1823.21 1252.69 1819.35 1249.72 1816.88C1248.24 1815.64 1247.07 1814.75 1246.27 1814.17C1245.87 1813.88 1245.56 1813.66 1245.34 1813.51C1245.23 1813.44 1245.15 1813.38 1245.09 1813.34C1245.06 1813.32 1245.03 1813.31 1245.01 1813.3C1245.01 1813.29 1245 1813.29 1244.99 1813.28C1244.99 1813.28 1244.99 1813.28 1244.98 1813.28C1244.98 1813.28 1244.98 1813.28 1244.98 1813.28C1244.98 1813.28 1244.98 1813.27 1243.73 1815.25Z" fill="white"/>
<path d="M1354.15 2259.45C1354.41 2260.72 1353.6 2261.96 1352.34 2262.22C1351.07 2262.48 1349.83 2261.67 1349.57 2260.41L1351.86 2259.93L1354.15 2259.45ZM1351.86 2259.93C1349.57 2260.41 1349.57 2260.41 1349.57 2260.41C1349.57 2260.41 1349.57 2260.41 1349.57 2260.41C1349.57 2260.41 1349.57 2260.41 1349.57 2260.4C1349.57 2260.4 1349.56 2260.38 1349.56 2260.36C1349.55 2260.32 1349.54 2260.26 1349.52 2260.17C1349.48 2260 1349.41 2259.74 1349.33 2259.4C1349.15 2258.72 1348.88 2257.72 1348.49 2256.46C1347.72 2253.95 1346.48 2250.44 1344.65 2246.46C1340.97 2238.49 1334.94 2228.8 1325.51 2221.56C1316.15 2214.37 1303.32 2209.5 1285.76 2211.3C1268.13 2213.1 1245.6 2221.63 1217.01 2241.55L1215.67 2239.63L1214.33 2237.71C1243.31 2217.53 1266.59 2208.55 1285.28 2206.65C1304.05 2204.73 1318.07 2209.95 1328.36 2217.86C1338.6 2225.72 1345.03 2236.14 1348.89 2244.5C1350.83 2248.7 1352.14 2252.41 1352.96 2255.08C1353.38 2256.42 1353.67 2257.49 1353.86 2258.25C1353.96 2258.62 1354.03 2258.92 1354.07 2259.12C1354.1 2259.22 1354.11 2259.3 1354.13 2259.36C1354.13 2259.38 1354.14 2259.41 1354.14 2259.42C1354.14 2259.43 1354.14 2259.44 1354.15 2259.44C1354.15 2259.44 1354.15 2259.45 1354.15 2259.45C1354.15 2259.45 1354.15 2259.45 1351.86 2259.93Z" fill="white"/>
<path d="M1425.78 1678.4C1352.56 1515.85 1465.89 1296.04 1465.89 1296.04L1909.45 1296.04C1918.48 1296.04 1926.66 1301.18 1930.48 1309.36C1968.85 1391.75 2172.19 1836.91 2209.31 2097.93C2241.9 2327 2252.51 2665.33 2255.27 2779.81C2255.81 2802.09 2238.75 2820.61 2216.53 2822.27L2026.88 2836.46C1985.3 2839.57 1948.79 2808.23 1943.17 2766.91C1930.02 2670.19 1897.21 2493.92 1819.6 2320.43C1699.71 2052.44 1511.31 1868.27 1425.78 1678.4Z" fill="#747474"/>
<path d="M1657.64 1363.86C1657.64 1363.86 1863.43 1777.76 1982.69 2070.07C2101.95 2362.38 2094.93 2727.18 2094.93 2727.18" stroke="white" stroke-width="4.67692" stroke-linecap="round"/>
<path d="M2154.41 1962.56C2155.48 1961.85 2156.94 1962.14 2157.65 1963.21C2158.37 1964.29 2158.08 1965.74 2157 1966.45L2155.71 1964.51L2154.41 1962.56ZM2155.71 1964.51C2157 1966.45 2157 1966.45 2157 1966.45C2157 1966.45 2157 1966.45 2157 1966.46C2157 1966.46 2157 1966.46 2156.99 1966.46C2156.98 1966.47 2156.96 1966.48 2156.94 1966.5C2156.89 1966.53 2156.81 1966.58 2156.71 1966.65C2156.51 1966.79 2156.21 1967.01 2155.82 1967.29C2155.03 1967.87 2153.89 1968.73 2152.48 1969.87C2149.67 1972.16 2145.82 1975.56 2141.67 1979.98C2133.37 1988.84 2123.98 2001.73 2119.4 2017.97C2114.84 2034.15 2115 2053.79 2125.97 2076.35C2136.98 2098.97 2158.91 2124.62 2198.1 2152.6L2196.74 2154.5L2195.39 2156.4C2155.81 2128.15 2133.23 2101.95 2121.77 2078.4C2110.28 2054.79 2110.03 2033.97 2114.9 2016.7C2119.75 1999.5 2129.64 1985.97 2138.26 1976.78C2142.57 1972.18 2146.59 1968.64 2149.53 1966.25C2151 1965.05 2152.21 1964.14 2153.06 1963.52C2153.48 1963.21 2153.81 1962.98 2154.04 1962.82C2154.15 1962.74 2154.24 1962.67 2154.31 1962.63C2154.34 1962.61 2154.36 1962.59 2154.38 1962.58C2154.39 1962.58 2154.39 1962.57 2154.4 1962.57C2154.4 1962.57 2154.4 1962.57 2154.41 1962.56C2154.41 1962.56 2154.41 1962.56 2155.71 1964.51Z" fill="white"/>
<path d="M2195.51 1247.6C2111.3 1228.23 1775.57 1003.84 1775.57 1003.84L1901.29 796.208L2156.49 1019.15C2160.76 1022.87 2167.33 1021.99 2170.45 1017.26L2316.57 796.208L2439.22 855.552C2439.22 855.552 2273.11 1277.66 2195.51 1247.6Z" fill="#FFC69D"/>
<path d="M2230.66 1233.77C2230.66 1233.77 2220.6 1200.24 2183.8 1230.81" stroke="black" stroke-width="4.67692" stroke-linecap="round"/>
<path d="M2146.53 1067.24C2146.53 1067.24 2145.73 1053.96 2148.3 1046.44C2150.89 1038.85 2159.78 1028.78 2159.78 1028.78" stroke="black" stroke-width="4.67692" stroke-linecap="round"/>
<path d="M2424.14 664.611C2413.84 664.867 2394.17 674.772 2394.17 674.772C2394.17 674.772 2384.17 668.548 2376.97 667.873C2367.01 666.941 2352.58 675.681 2352.58 675.681C2352.58 675.681 2342.62 668.987 2335.38 668.782C2325.46 668.5 2312.67 680.191 2312.67 680.191C2312.67 680.191 2283.82 677.447 2269.15 686.371C2241.87 702.974 2252.94 766.524 2252.94 766.524C2252.94 766.524 2257.3 804.448 2266.09 826.938C2275.51 851.046 2300.29 883.708 2300.29 883.708L2437.22 865.71C2437.22 865.71 2461.34 813.809 2460.91 784.712C2459.96 720.394 2463.33 712.145 2441.63 674.004C2436.9 665.696 2433.39 664.381 2424.14 664.611Z" fill="#FFC69D"/>
<path d="M2408.5 749.752L2406.94 750.608V750.608L2408.5 749.752ZM2394.66 676.614C2394.65 675.633 2395.43 674.825 2396.41 674.808C2397.39 674.79 2398.2 675.571 2398.21 676.551L2396.44 676.582L2394.66 676.614ZM2430.69 756.087L2430.23 754.371L2430.69 756.087ZM2408.5 749.752L2406.94 750.608C2404.03 745.321 2401.84 738.017 2400.18 730.157C2398.51 722.267 2397.34 713.685 2396.53 705.767C2395.71 697.845 2395.25 690.562 2394.99 685.26C2394.85 682.608 2394.77 680.45 2394.73 678.953C2394.7 678.205 2394.69 677.622 2394.68 677.225C2394.67 677.027 2394.67 676.875 2394.67 676.772C2394.67 676.721 2394.67 676.681 2394.66 676.655C2394.66 676.642 2394.66 676.632 2394.66 676.625C2394.66 676.621 2394.66 676.619 2394.66 676.617C2394.66 676.616 2394.66 676.615 2394.66 676.615C2394.66 676.614 2394.66 676.614 2396.44 676.582C2398.21 676.551 2398.21 676.551 2398.21 676.552C2398.21 676.552 2398.21 676.552 2398.21 676.553C2398.21 676.554 2398.21 676.557 2398.21 676.56C2398.21 676.565 2398.21 676.575 2398.21 676.587C2398.22 676.611 2398.22 676.649 2398.22 676.698C2398.22 676.797 2398.22 676.945 2398.23 677.139C2398.24 677.528 2398.25 678.102 2398.28 678.841C2398.32 680.319 2398.4 682.456 2398.53 685.084C2398.79 690.343 2399.25 697.561 2400.06 705.403C2400.87 713.251 2402.02 721.698 2403.65 729.422C2405.3 737.177 2407.4 744.073 2410.05 748.896L2408.5 749.752ZM2444.87 744.782C2446.28 745.868 2446.28 745.869 2446.28 745.869C2446.28 745.869 2446.28 745.869 2446.28 745.87C2446.28 745.87 2446.27 745.871 2446.27 745.872C2446.27 745.874 2446.27 745.876 2446.27 745.879C2446.26 745.885 2446.26 745.893 2446.25 745.904C2446.23 745.924 2446.21 745.954 2446.18 745.992C2446.12 746.067 2446.03 746.176 2445.92 746.314C2445.7 746.59 2445.37 746.981 2444.96 747.456C2444.14 748.402 2442.97 749.686 2441.58 751.031C2438.86 753.655 2435.04 756.77 2431.14 757.803L2430.69 756.087L2430.23 754.371C2433.18 753.589 2436.45 751.052 2439.11 748.478C2440.41 747.223 2441.51 746.021 2442.28 745.132C2442.66 744.688 2442.96 744.324 2443.17 744.073C2443.27 743.948 2443.35 743.851 2443.4 743.787C2443.42 743.755 2443.44 743.731 2443.45 743.716C2443.46 743.708 2443.46 743.703 2443.47 743.699C2443.47 743.698 2443.47 743.697 2443.47 743.696C2443.47 743.696 2443.47 743.696 2443.47 743.696C2443.47 743.696 2443.47 743.696 2443.47 743.696C2443.47 743.696 2443.47 743.697 2444.87 744.782ZM2430.69 756.087L2431.14 757.803C2422.23 760.165 2411.91 759.638 2406.94 750.608L2408.5 749.752L2410.05 748.896C2413.77 755.656 2421.72 756.626 2430.23 754.371L2430.69 756.087Z" fill="black"/>
<path d="M2368.58 754.261L2367 755.065V755.065L2368.58 754.261ZM2351.98 678.971C2351.93 677.992 2352.68 677.157 2353.66 677.106C2354.64 677.056 2355.47 677.808 2355.52 678.787L2353.75 678.879L2351.98 678.971ZM2390.16 762.005L2390.56 763.733L2390.56 763.733L2390.16 762.005ZM2368.58 754.261L2367 755.065C2360.77 742.783 2357.03 723.669 2354.84 707.821C2353.74 699.858 2353.03 692.652 2352.59 687.435C2352.37 684.827 2352.21 682.715 2352.12 681.253C2352.07 680.522 2352.03 679.953 2352.01 679.567C2352 679.373 2351.99 679.225 2351.98 679.125C2351.98 679.075 2351.98 679.037 2351.98 679.011C2351.98 678.999 2351.98 678.989 2351.98 678.982C2351.98 678.979 2351.98 678.976 2351.98 678.974C2351.98 678.973 2351.98 678.973 2351.98 678.972C2351.98 678.972 2351.98 678.971 2353.75 678.879C2355.52 678.787 2355.52 678.787 2355.52 678.788C2355.52 678.788 2355.52 678.788 2355.52 678.789C2355.52 678.79 2355.52 678.792 2355.52 678.795C2355.52 678.801 2355.52 678.81 2355.52 678.822C2355.53 678.846 2355.53 678.882 2355.53 678.93C2355.54 679.026 2355.54 679.169 2355.55 679.358C2355.58 679.736 2355.61 680.296 2355.66 681.017C2355.75 682.46 2355.91 684.551 2356.12 687.136C2356.56 692.307 2357.27 699.45 2358.36 707.335C2360.55 723.184 2364.23 741.761 2370.17 753.458L2368.58 754.261ZM2406.4 750.081C2407.75 751.228 2407.75 751.228 2407.75 751.228C2407.75 751.228 2407.75 751.229 2407.75 751.229C2407.75 751.23 2407.75 751.231 2407.75 751.231C2407.75 751.233 2407.74 751.236 2407.74 751.239C2407.74 751.245 2407.73 751.254 2407.72 751.264C2407.7 751.286 2407.67 751.318 2407.64 751.358C2407.57 751.438 2407.47 751.553 2407.34 751.699C2407.08 751.992 2406.7 752.408 2406.23 752.911C2405.28 753.916 2403.93 755.276 2402.33 756.697C2399.2 759.478 2394.86 762.729 2390.56 763.733L2390.16 762.005L2389.75 760.276C2393.12 759.489 2396.9 756.777 2399.97 754.044C2401.47 752.708 2402.75 751.424 2403.64 750.473C2404.09 749.998 2404.45 749.609 2404.69 749.34C2404.8 749.206 2404.9 749.102 2404.96 749.032C2404.99 748.998 2405.01 748.972 2405.02 748.955C2405.03 748.947 2405.03 748.941 2405.04 748.937C2405.04 748.936 2405.04 748.934 2405.04 748.934C2405.04 748.934 2405.04 748.933 2405.04 748.933C2405.04 748.933 2405.04 748.934 2405.04 748.934C2405.04 748.934 2405.04 748.934 2406.4 750.081ZM2390.16 762.005L2390.56 763.733C2385.8 764.847 2381.13 765.063 2377 763.782C2372.82 762.481 2369.34 759.678 2367 755.065L2368.58 754.261L2370.17 753.458C2372.09 757.243 2374.82 759.385 2378.06 760.392C2381.36 761.419 2385.35 761.307 2389.75 760.276L2390.16 762.005Z" fill="black"/>
<path d="M2324.36 759.251L2322.94 760.315L2322.94 760.315L2324.36 759.251ZM2311.88 680.6C2311.97 679.624 2312.83 678.9 2313.8 678.985C2314.78 679.07 2315.5 679.93 2315.42 680.907L2313.65 680.753L2311.88 680.6ZM2348.9 764.639L2349.32 766.365L2348.9 764.639ZM2324.36 759.251L2322.94 760.315C2318.79 754.768 2316.09 746.942 2314.33 738.507C2312.56 730.036 2311.71 720.774 2311.35 712.218C2310.99 703.655 2311.12 695.757 2311.34 690.003C2311.46 687.124 2311.59 684.779 2311.7 683.151C2311.75 682.337 2311.8 681.702 2311.83 681.269C2311.85 681.053 2311.86 680.887 2311.87 680.775C2311.87 680.718 2311.88 680.675 2311.88 680.646C2311.88 680.632 2311.88 680.621 2311.88 680.613C2311.88 680.609 2311.88 680.606 2311.88 680.604C2311.88 680.603 2311.88 680.602 2311.88 680.601C2311.88 680.601 2311.88 680.6 2313.65 680.753C2315.42 680.907 2315.42 680.907 2315.42 680.907C2315.42 680.907 2315.42 680.908 2315.42 680.908C2315.42 680.91 2315.42 680.912 2315.42 680.915C2315.42 680.921 2315.42 680.931 2315.42 680.944C2315.41 680.971 2315.41 681.011 2315.41 681.064C2315.4 681.17 2315.38 681.33 2315.37 681.54C2315.34 681.961 2315.29 682.583 2315.24 683.383C2315.13 684.983 2315 687.297 2314.89 690.14C2314.67 695.83 2314.54 703.627 2314.89 712.069C2315.25 720.517 2316.09 729.569 2317.8 737.782C2319.53 746.03 2322.09 753.256 2325.78 758.187L2324.36 759.251ZM2366.68 751.706C2368.02 752.866 2368.02 752.866 2368.02 752.866C2368.02 752.867 2368.02 752.867 2368.02 752.867C2368.02 752.868 2368.02 752.869 2368.02 752.87C2368.02 752.872 2368.01 752.874 2368.01 752.877C2368 752.884 2368 752.893 2367.99 752.905C2367.97 752.928 2367.94 752.961 2367.9 753.004C2367.82 753.09 2367.71 753.214 2367.57 753.371C2367.29 753.685 2366.87 754.132 2366.35 754.674C2365.31 755.756 2363.84 757.221 2362.09 758.753C2358.66 761.759 2353.94 765.251 2349.32 766.365L2348.9 764.639L2348.49 762.913C2352.21 762.016 2356.38 759.041 2359.75 756.083C2361.4 754.634 2362.8 753.243 2363.79 752.214C2364.29 751.7 2364.68 751.278 2364.94 750.987C2365.07 750.842 2365.17 750.729 2365.24 750.654C2365.27 750.616 2365.3 750.588 2365.31 750.57C2365.32 750.561 2365.33 750.554 2365.33 750.55C2365.33 750.548 2365.33 750.547 2365.33 750.546C2365.33 750.546 2365.33 750.545 2365.33 750.545C2365.33 750.545 2365.33 750.545 2365.33 750.545C2365.33 750.546 2365.33 750.546 2366.68 751.706ZM2348.9 764.639L2349.32 766.365C2339.69 768.684 2329.52 769.106 2322.94 760.315L2324.36 759.251L2325.78 758.187C2330.96 765.103 2339.03 765.19 2348.49 762.913L2348.9 764.639Z" fill="black"/>
<path d="M2301.72 764.456C2309.49 770.642 2319.08 765.11 2327 755.171C2334.92 745.231 2338.17 734.648 2330.41 728.461C2322.65 722.274 2317.66 715.625 2309.74 725.565C2301.81 735.505 2293.96 758.269 2301.72 764.456Z" fill="#FFC69D"/>
<path d="M2254.94 765.841C2254.94 765.841 2258.52 752.805 2306.15 727.21C2317.43 721.151 2327.48 714.694 2332.77 727.992C2336.41 737.147 2330.04 748.513 2324.5 755.454C2320.62 760.334 2310.12 773.502 2310.12 773.502C2310.12 773.502 2322.81 792.918 2326.26 804.523C2331.04 820.58 2317.75 852.224 2317.75 852.224" stroke="black" stroke-width="3.55041" stroke-linecap="round"/>
<path d="M1143.5 890.731C1273.08 772.721 1392.99 694.15 1392.99 694.15L1541.03 874.362L1419.43 951.531L1365.74 987.964C1360.17 991.743 1360.3 999.99 1365.98 1003.6L1461.53 1064.31L1608.85 1153.7L1524.67 1283.59L1149.31 1105.91C1136.11 1099.66 1123.31 1092.32 1113.54 1081.47C1086.81 1051.74 1044.91 980.513 1143.5 890.731Z" fill="#FFC69D"/>
<path d="M1119.05 1066.15C1119.05 1066.15 1143.4 1040.99 1098.75 1023.81" stroke="black" stroke-width="4.67692" stroke-linecap="round"/>
<path d="M1295.18 765.214L1350.34 718.674L1496.01 902.65L1438.21 938.489C1438.21 938.489 1407.1 876.541 1379.09 842.917C1349.3 807.155 1295.18 765.214 1295.18 765.214Z" fill="black"/>
<path d="M1267.12 961.708C1267.12 961.708 1295.7 966.876 1313.08 973.256C1330.62 979.698 1355.98 994.446 1355.98 994.446" stroke="black" stroke-width="4.67692" stroke-linecap="round"/>
<path d="M1514.78 577.18C1605.04 517.157 1768.79 558.014 1840.23 580.321C1863.15 587.478 1882.11 602.999 1893.71 624.023C1931.79 693.053 2011.81 859.862 1971.26 979.656C1916.87 1140.35 1922.63 1232.43 1930.1 1271.34C1932.34 1283.01 1925.29 1295.82 1913.63 1298.11C1867.38 1307.19 1760.16 1326.61 1690.35 1326.44C1617.77 1326.27 1506.87 1306.29 1467.98 1298.83C1461.35 1297.56 1458.16 1289.82 1461.71 1284.07C1482.16 1250.98 1535.94 1152.83 1538.19 1032.81C1542.09 825.248 1355.58 683.055 1514.78 577.18Z" fill="#8DED18"/>
<path d="M1692.32 564.037C1760.82 628.033 1704.6 743.234 1652.11 843.168C1628.15 888.793 1591.3 928.421 1564.46 953.742C1549.38 967.966 1525.85 959.436 1521.77 939.115L1510.32 882.136L1379.82 776.989C1368.57 767.928 1366.2 751.832 1374.84 740.258C1425.14 672.865 1590.86 469.249 1692.32 564.037Z" fill="black"/>
<path d="M1711.8 579.484C1765.16 656.556 1685.78 757.207 1613.29 843.73C1579.58 883.956 1549.4 915.961 1530.27 935.487C1518.88 947.111 1500.13 946.001 1489.8 933.428L1329.05 737.83C1319.64 726.375 1320.95 709.602 1332.35 700.123C1401.94 642.265 1632.34 464.73 1711.8 579.484Z" fill="#8DED18"/>
<path d="M1365.61 699.736C1365.61 699.736 1429.4 758.204 1461.21 797.952C1493.93 838.834 1529.31 905.52 1529.31 905.52" stroke="#557E30" stroke-width="4.67692" stroke-linecap="round"/>
<path d="M1900.84 662.321C1900.84 662.321 1882.32 657.644 1858.75 641.275C1774.56 582.813 1709.09 564.106 1709.09 564.106" stroke="black" stroke-width="4.67692" stroke-linecap="round"/>
<path d="M1884.47 1242.26V1284.35" stroke="#557E30" stroke-width="4.67692" stroke-linecap="round"/>
<path d="M1664.66 1275V1303.06" stroke="#557E30" stroke-width="4.67692" stroke-linecap="round"/>
<path d="M1702.07 1270.32V1307.73" stroke="#557E30" stroke-width="4.67692" stroke-linecap="round"/>
<path d="M1744.17 1270.32V1307.73" stroke="#557E30" stroke-width="4.67692" stroke-linecap="round"/>
<path d="M1781.58 1265.64V1303.06" stroke="#557E30" stroke-width="4.67692" stroke-linecap="round"/>
<path d="M1819 1256.29V1298.38" stroke="#557E30" stroke-width="4.67692" stroke-linecap="round"/>
<path d="M1851.74 1251.61V1293.7" stroke="#557E30" stroke-width="4.67692" stroke-linecap="round"/>
<path d="M1915.97 1215.13C1915.97 1215.13 1802.21 1252.68 1734.58 1251.12C1665.02 1249.51 1553.1 1240.94 1553.1 1240.94" stroke="#557E30" stroke-width="4.67692" stroke-linecap="round"/>
<path d="M1901 1283.78C1901 1283.78 1772.84 1314.47 1697.79 1308.85C1620.6 1303.07 1496.68 1287.81 1496.68 1287.81" stroke="#557E30" stroke-width="4.67692" stroke-linecap="round"/>
<path d="M1512.9 1099.94C1512.9 1099.94 1566.04 1109.14 1592.55 1122.15C1619.06 1135.17 1648.67 1166.58 1648.67 1166.58C1648.67 1166.58 1662.56 1176.75 1662.76 1187.63C1662.96 1198.86 1656.23 1210.47 1648.67 1215.69C1642.48 1219.97 1641.66 1220.37 1632.3 1215.69C1639.32 1222.71 1638.51 1221.18 1636.98 1227.38C1635.22 1234.53 1628.25 1243.32 1622.95 1248.43C1616.48 1254.68 1615.93 1254.28 1608.92 1253.11C1611.26 1257.78 1612.97 1257.9 1611.26 1264.8C1609.14 1273.32 1599.81 1282.08 1592.55 1287.01C1587.05 1290.75 1587.87 1289.35 1578.52 1289.35C1580.91 1297.54 1582.21 1295.96 1580.91 1302.21C1579.01 1311.42 1569.96 1317.95 1562.2 1323.26C1549.94 1331.66 1554.32 1329.88 1543.5 1327.94C1505.23 1321.08 1482.78 1304.44 1461.65 1271.82C1451.6 1256.29 1431.2 1227.38 1431.2 1227.38L1512.9 1099.94Z" fill="#FFC69D"/>
<line x1="1573.1" y1="1284.55" x2="1549.22" y2="1272.61" stroke="black" stroke-width="4.67692" stroke-linecap="round"/>
<line x1="1605.83" y1="1251.82" x2="1581.95" y2="1239.88" stroke="black" stroke-width="4.67692" stroke-linecap="round"/>
<line x1="1629.22" y1="1214.4" x2="1605.34" y2="1202.46" stroke="black" stroke-width="4.67692" stroke-linecap="round"/>
</svg>
